<mxfile host="Electron" agent="Mozilla/5.0 (Windows NT 10.0; Win64; x64) AppleWebKit/537.36 (KHTML, like Gecko) draw.io/25.0.1 Chrome/128.0.6613.186 Electron/32.2.6 Safari/537.36" version="25.0.1">
  <diagram name="Page-1" id="U_DkYzmBkbAJxAAryvt1">
    <mxGraphModel dx="2074" dy="836" grid="1" gridSize="10" guides="1" tooltips="1" connect="1" arrows="1" fold="1" page="1" pageScale="1" pageWidth="827" pageHeight="1169" math="0" shadow="0">
      <root>
        <mxCell id="0" />
        <mxCell id="1" parent="0" />
        <mxCell id="t7P6_DtCXj4Gi8SS7ALJ-3" value="" style="edgeStyle=orthogonalEdgeStyle;rounded=0;orthogonalLoop=1;jettySize=auto;html=1;" edge="1" parent="1" source="t7P6_DtCXj4Gi8SS7ALJ-1" target="t7P6_DtCXj4Gi8SS7ALJ-2">
          <mxGeometry relative="1" as="geometry" />
        </mxCell>
        <mxCell id="t7P6_DtCXj4Gi8SS7ALJ-5" value="" style="edgeStyle=orthogonalEdgeStyle;rounded=0;orthogonalLoop=1;jettySize=auto;html=1;" edge="1" parent="1" source="t7P6_DtCXj4Gi8SS7ALJ-1" target="t7P6_DtCXj4Gi8SS7ALJ-4">
          <mxGeometry relative="1" as="geometry" />
        </mxCell>
        <mxCell id="t7P6_DtCXj4Gi8SS7ALJ-1" value="&lt;font style=&quot;font-size: 14px;&quot;&gt;GIT&amp;nbsp;&lt;/font&gt;" style="rounded=1;whiteSpace=wrap;html=1;fillColor=#d5e8d4;gradientColor=#97d077;strokeColor=#82b366;" vertex="1" parent="1">
          <mxGeometry x="330" y="50" width="120" height="60" as="geometry" />
        </mxCell>
        <mxCell id="t7P6_DtCXj4Gi8SS7ALJ-2" value="LAST WEEK&amp;nbsp;&lt;br&gt;&lt;br&gt;&lt;div&gt;WHAT Is GIT&amp;nbsp;&lt;/div&gt;&lt;div&gt;GIT --PUBLIC --WEB&amp;nbsp;&lt;/div&gt;&lt;div&gt;GIT Bash --- Windows /&amp;nbsp;&amp;nbsp;&lt;/div&gt;" style="whiteSpace=wrap;html=1;fillColor=#d5e8d4;strokeColor=#82b366;rounded=1;gradientColor=#97d077;" vertex="1" parent="1">
          <mxGeometry x="70" y="250" width="190" height="170" as="geometry" />
        </mxCell>
        <mxCell id="t7P6_DtCXj4Gi8SS7ALJ-4" value="YESTERDAY&amp;nbsp;&lt;div&gt;&lt;br&gt;&lt;/div&gt;&lt;div&gt;GIT instaalltion Server ---private Repo&amp;nbsp;&lt;br&gt;&lt;br&gt;&lt;/div&gt;&lt;div&gt;GIT --- Public cloud AZURE&amp;nbsp;&lt;br&gt;AZURE account&amp;nbsp;&lt;/div&gt;" style="whiteSpace=wrap;html=1;fillColor=#d5e8d4;strokeColor=#82b366;rounded=1;gradientColor=#97d077;" vertex="1" parent="1">
          <mxGeometry x="570" y="225" width="200" height="195" as="geometry" />
        </mxCell>
        <mxCell id="t7P6_DtCXj4Gi8SS7ALJ-6" value="" style="shape=image;verticalLabelPosition=bottom;labelBackgroundColor=default;verticalAlign=top;aspect=fixed;imageAspect=0;image=data:image/png,iVBORw0KGgoAAAANSUhEUgAAATYAAAEnCAYAAAAjNm+XAAAAAXNSR0IArs4c6QAAAARnQU1BAACxjwv8YQUAAAAJcEhZcwAADsMAAA7DAcdvqGQAAP+lSURBVHhe5P3Js2XJnd8Hftz9jPfeN8SUkUMgE8gEUEAmUEV0qUQjVSxJ1kNxUWbccd2L7v+i2cY1N1zRTBt2m5Y0k9S9kqnZ7DaaWqKKpULBQFZhLmQmkJkxvvfueEYfeuH+O++8Gy8CxSKbLKjd7ES8ewY/ftx//vXf7Op3/97/FPhfWlHq+Mx1UQa8RbuG06zlrVPPu2eKNxeWpRkZXEYIHoLHqIDRmswotFYowBP/V1qhlEYrBSqe01qj0m+t1HSPStcNsV1yn9YarXR8XgWUTu9RmljN9T0+jLEepeM5rdBKo3SsM75D3inH9btJ9d12pI6Z3qnizdfdGObPpzrn90r98R+p7fpROTd7V/ydfr6ihPBq0nzdNYDg4/VAuu/odrnKvK4Q75/XHUKYnp1qTNe9D4TgCSGdC+CDn+ohxOdDCNNvQh7/C/76eR+ve3/99/Tc7HAq4KzFOUfwAZ2623uPdQ4P5JlhCJpnB/jzK8/PXgS+uHL0oQb09F3HZeqn/4UU9f9vwBbIybTnjWrL+8st7y4b7laKzGi8yvDeQ1AErQEdgcQYjNFoBQRHCPEVWhu0VoAihJBA6frQ2lz/BrQP8W8t4BRBSylFwANEwJoDX/rbum4Clvjc9X1KRQpXpHMCeioCnXf+GmzlkLZOYBSvC0hLnTJhp+fmzwuQTmg2/ZXGIMS+itXfeFccjF9Beq8ZR8KvmIpHdU/AcuPc9X1zMHPOze55+SEBquBfBp/pWqz8xnmCAvJUh8eHQPACjPFd0/3pfAS/QAieMTh8Go8QAioEVPCAx2Loycl8j3IDXhsOvuCXm5FPnmz5/vMzWpvf/JZZeek7f83LryWwKQUBRUABJp70HrCR4E1FCBYVHBofgUdpQjC8ma9592TPG2cFbyw8S92T49LMM3gNCg1agzKRQ5lxZzoRNAqMNhPHFEK48VupGbgkkNCEieO5BqAIjDLrVAKtl4Ek3TJxTjeBTUAjPittjkcIsadeqjO9O4IzMOPa5Buuy/U1eQ4gzzOsjUAQ23T9zhBCHKsEGlpHjkH+9z6CuZSb73t9kTpfVW67fn3uZp/fvAbO2ZfOzf/2M05sAroEaFKl/D2/FkLkJCPmpd/BX4PaxAHK+ZCALNZhExcKKgFf5PAg4AOMHlRwBG/ju5Wmd562H/nphefnF5ZfrBV7d4YqztAB/Lgn2BaTa4LOQRd4DMF7VHAo3I1++nUpv57ApmNXB880wQguDmrwYCowGZDh7Yj2Lael4/5S895yyzuLlroqKYxGBYfBoQnoEHBZETmPGXDIRFQR8qYi16UYEzk0bgWRCMjy+wa3lcr89433KoUxCcBnAHBc1/zc/CBETvG26/Nzx3XP/3/dfd571KwdIUSxSikwRk/X5Rmt47n5eflWXgFK/6blVaAUi0pHLMfXnRtvvRYBCkK4Bm65fnzfdP/R337i0F6+Z37t+IjXr+8/ruu23/PD6oIvto4fP3P8+ZXios0ZRoPJcoxR2OFAXLx0nGCzcY/s53Ef/tUuv5bAhgoQ4oqlCFFPlVYxAEweV52gybXlXtXylZOW909GVlXiigiRg8JTaI3RgHc4k8cJOJv8WkRCeXUCimtAUUAgy66BLRLJ/Ii0Mj93PZnl+vEzL4PRq36/DtxE3Do+L/fLtdv+v+3c/NocnATYRZQzRt+YH957tNYYY3DO3Qps84k8f8+/aZE65P+bRR1LqnDjGXfjuZt/J2nhCHRe9//879vAZ37fqw5uAbbj+oQDPj4PEFRJUDn73vPp1Y4fPW75dKvZhROCWoL3KN+jfY/Gxm/UBUGXxApuctd/1cuvNbAJJ6K1ATJcUPiQuBy75SQ78KUTx/t3FW8vHUvV49AMKgc8GsgyTWEytEqEYbKIQKkIqEVgu+bY5uAgE3DOsb18z3W1c25t/vzNe69BU5677Rk5P+fu5Jj0fzMAOX5eiaj6GvA6Pj+/FkJAaz39L9yYSXrJuVg3jiNlWaIS+M25NLnnuO6/bLnt2etzsV9unrsuIURgnl+bAAII4frZG+Bxy//H1+fgc9v1Vx28AtjmxzFoym+ArnMUmSbTnt55nrWKn11pfvh85MnG4/Q9tHJo7DS3PFEd8+tYzLv/6f/h7x+f/CtfFKB01JupPCr9QzxAk4cdbyw7vnne8eGdlkd1R60dHo1XUQ9m0sQ3Kk7KEAIBhZqJfBwDhbpWrM8B7wb43QIg8Yjci9xz/MzNZ6//PjZIzO8VYJDz3AKaU3e9BJ4375Frx/ccn5//zwz45+fmE0vukZLnOV3XTVydTLx5kefndf7blJff8TLHdvOeazB5+RoTKM7Ly/e8XFRaROa//yLl+r5X33/b++djaEpDUBY7dBAsp4ua+yclD0rPiR5Yj5GjdhR4s0RlS5TSeDtA0g3/OpVfS2ALAMoQMIQQrX46ODLVU5uer6+e8f554Evnmju1JkvWJYVCJ/FIQxJhY9E6I89zfIjcDa8AAVHsHwPIfPIeP3N9z6ufPb73+DgGwtcdc6BR6tpSeXzfjXteccy/6fh/NZuowq1673HO0bYth0MTF490TaW2rddrlFJYa18SRwUQ5fxfttw20blx/ibIzEuYiV1yz/Q/TKAYAfgaiOfl+Lecm5+/7R5eAXixr29eO34+Xn/5mlIKbQLBxIU9YFABlspzv3C8udKYRYX3I7u2ZxgVQZn4tX5I4/PrBWy/lqJoCB60IaDBe7LQssha3qgs9+rAN062GJOhs4LMZJjIq6GDBRVwBEDFe3QGWmO0IctzrBN/setj4pCUQotLxS33zMGNWwHjpm5ODrn39mfi+dcB57zcVverdGxyTsrxOXULh3F8D4C1lrIsCSFgrZ3A6yc/+THb7Yblcjk9Y4zhyZMnvPnmm3z00UeUZYkxZmq3TP6QRNu/bDme9PNz8b+b/XYTcGbuHkdAFOBWUVTum/fZ/Lz8PxcPj5+97e+bx833Houex8f8XcPYopQmy0uU1rhhZBw6jB/RecZglnxyZfnRU8snV7BuDTZkUc3zawZq/LpybHHdjH5lJowszJ636gO/cdby/klPpXoyFVBiEodoKtB58h0aCcEnPzRDCOC8J3gxCN0U964n8bUo+pc5Ikv/8vm/yDEHLF7RhmNQm+5/BbAd13XbPVKOr0vJsgxrLVmWTZOpLEuGYeAnP/kJn3zyMW3bcHFxyXq9ZrPZ8OTJE05PT/n6179OVVWoG+4hEfyMMdOk/HdRXq7r+htevnYTjG78Hb0vIAjI3QSn24pce919x++6vd5Xg/F1iXTG0fUqK9E+EGyPCR6lwSpDbwqc0izbpzw4LXl4d0WVK/qhox08XhWgE/f2a1T+igObAqJvRwgK5RUqKCjPQSkKf8E71QUf3Wn4jbuWU91j+4YhFIxe4SE5vgbAE4KLAKYMSudRTzezXqKiV5wCjNIYpSOHJoB2NMFJlsyb4Hc9+YWLi0ecvMfgEyMUfjVoyXmpb87lSD23HsL1yHu0RDq83N75e+b/H7d5/pwbLSerFW3bTv2hlOLTX/yCP/qjP8S6nrt377JarRKIGT7//Avapue9997l5PQE7z3DMFAUBSQHWaU0zvnEVUd/Quc81jqyLEcpPeO8bh4hkESn69/zv+d4cBugRKfY+Izc772cD+gZEEvNqYJZHbdzUy+/6yYHx6zfj++N7Xk1wITkNyhFxiKEwOAdIwGvDWNg8onTIapo+vyE0TrK0PJgGXjzrKDKHX17RecWeFWjwoBWAXSOCxmEgNYe7AGjNUpHMdejkg8o/8EA8a8kj6m0QecVEAhjC7ZFBQs6w+uarP2MO/5j3j858MGZ517hYOhw1gHXxoCoq7nW2Ygye05Qc4K7fibqicQlQY45UYUQEuC+TLy3HX5yrjwqR0R8TNT/TsotgCT/H4PVcXndNSnjOKKVoqoqyrKk6zq22y1ZlrFYLFBaY61lHEeM0SyXSwJwaA4Mw0Ce59R1fYNLMyaCt4yF954syyYOj9e0bX7+pTGbldddm587vnY8tlK8TyFRt4z/vK5jmrqtnmOaVUl/efz8bXXNy/z38bhP5wko78BbghvI/MDdyvGNhxl/86un/MadK07D5+AGxmBQKlBkI9poXCjB1El3pyD9S4iLkHP/YdxE/srq2AIBpaJ8r3yA5Eibq8CXsl/woGo4rzVL4zFuwAeHzgq0KXDJAKBmHM78dxpetNFkWTZdDyGQm5uWxvnz8jdH1sAbdc9+z8/FOm/h2P4C3JqauWTM2zIv6jXP+te4cyg1C4O6AQrqGHNn167/Dj6K9M67+C7vGcaR9XpN2x24e/eMul5gbZx8dbXgxYsLnPNkBu7evUtVVfjk4yYLSp7n0yIl9ZKMFGJRndrwGlCa/338/6v+Pq5PAGN+XoCE1I4JXI6eO/7/VYfUwwzYjttx7e7BzRjVWd3qSE8p9biZpff4vSF4CA7sSPAWRQBt8MrggmEzaH6xhp+88Hyxy+h9QVA5AY0PCqUNKqQIheBQxqCUmSIpouz077f8lQS2GCriUfkKdAWup3RX3MvWPCwOvFUdqI0lw6GCR4folBtMEbm6KWD8ZfCYA43WEdjEqz+EQJlnUzvk/vlxXO9x3bfdI++7DdiO75m/d/6/P/Lu1/8GwCYDLO946f+plpevzcv8nPwtIGSMwbro2BpIgGdAa3EVUHgfKMua5tBgrUOrQFkW0wSMYCaxmiJCRjDz3mOtvfFd8yKT9Pj3/PzxuduuHf9+GQTi/8fAI9/gj87NnyU9d3wtXg9ADI3zM9CaPy/+57ddO35PvF/q8bgAQd0uZUSOzUaFTRK7I9j56N+ZLenGwPN1w88uPR9vay77BcEUZEYx+gJw4B0gTEWKYAie4K+NMf++yl9NHZs2YGqUtxi35YRL3swvebdc86jYoRmJkp2O1lGdTz5q0Ss8OoVKuY0IjotczxLHls7CEWDIs8cTi1dYLm/+fvnabfXMr83fO/99/Jw6uv+2+47rnT87v3789/Hv+d9ZlqESV+icu3b7IJBlmoDH+RAXDxXBLXLLGVl2s43TRJvafq1WmC8aWXa9+PzblONv/IuWY3q60f5XgOKvPhKnlkBt/rxP4ni4BZSu7zlWr1yrVLz3+MSxzbnBG4fzBJXhdYHTBU5lODK8yrF2wISR89pwvtBUmYcwMFrLMIyEECLHpuIiJt8SIov5Euf/76P8lQQ2pRRGOWp/yQP9lC+Xl7xXHzgzPbgRpyKgKW1wQWGtT8pQlZT0N0Ni5kXOH08oKSYp+UOIRDon/nDkNDqvQ35Lue39cvlVz8zPHR/y7vlx45lXPHfbu176/y/Yptv+RinGpD9ziWOxPk6mEDzW2WiJRmGdox+GdB/4cSCECHpKqVjHpNe8tpD6xK2K5fX2vn25zbyi3b/qnJT5xD8+f1zknFyZP3t8/Krrx8c1EN3+nPT1HLAEwKbjqK75tfhb4XzAubhAuWQscQGMHyB4xqApjeaNleLBEozyjOOA8w7vbeSwVR4NByGggkWp8B/EXeSvpCia03NHPedUN9zP9twvBpbG44Ois4osVygV2WYXFCFIbjKN0RrUtcL1+CBxViYzGH0dZSAuBtmU6SI+r7XBGIVK6YJkEsZrN8XF4+P4fJbdvF/aMm/b/Nn5IZP730YU5ZaJrNS1C8vxPbf9Pr42WsuTJ0+4vLzEZBmmiLG2RmvAoQ1RLAmKcbRRBNUmctt2IIQoghpjsCnXmPceULzxxkPefPPNaSLmec44xgB1nZx5j8vxuflv+fu2c8fX5wAxL3NwOH52Omb3zYHk1ntn9RyfO77m3OvvO27r/P1B3Q66hLjooAzBjSjvomiqwAWwzieWPulqUeR5TtCGXTuw3rZ8f/8GlwfHpssYWaCzAoVF+x4CePXvhsP+Nym/gmNTR8dxOT43G2hlCDpLsWYSAZ4mhorgE5QGHZXEhJE8NKzUngfZlvfyp5ybloUZyUi+aMqgU1ynCm5a1fM8Rg1Ebs2j9fXqboyZxCWlUyD7lK8sNuuGa0QacDWBSwQ1AYk5sMwBSkqs8yZ4AWRZzN0WZi4f8zInYGm3/JZJn2UZzjn6vp+IWNoVktgxDJEL0kehYfMizyDB9+m8vHuqM4kRsanxrqNmQwhsthu2mw3WRv/AlNcHZy3eOYL32MFix3H6Ha9ZxvH6iFY0xzhavHcsFgvOzs5Qs9jSKO7qV3rCS9u997RtS0gxqj7Fr8q1vu/p+37q9/lzxM+6MSZSpvvTwhLkZum/6c4jADkq8/dKkb8FjOYl9kFs2/x6OAJaGTd5Rq57f22xnZSXcs1F/WVw8cgzjVGK4B1j32OjREmuo6tL01v2+wOlGqnGDcuqYJmDc55u9ARVEFRGCAZl8uhSlZiIILHFAOGaDl91xJZqoiNW1NXGXgrpntvLazm2IC+NrYivme4OMX9ThBwI180gqhAJSiZOHJDIDKXBQ0f692AYKf2WUy54kLfcKwbOdDsNmJo5bc4JgdRR6ghovPcURUHbtpRlSZbFBJKRy7ke9Plz8uz8vEm+YvG5a8A6BrX5c6L/0ckwIe0rioIQIiiRdFPGGPI8cjjHRFmWMauC9566rrHWkuc5u92O3W5HnudUVUVVVTEUzHu6ruNwOFCWJavViizLpvYct/UGuKbJPwzD9O6iKNL1ax3JfLLJ30VRYK2NE2MG2vPJ9epyOzjFEqLSOxkktNZUVTW7fm1c4KhtpPc+e/YsuqLo6GJS1/XUT9vtFu/9dF7GQ94n9d32t/OecRwZx2ikOjZAzY8JVGb1yDuknXKfPD+/Pq9TLMvHbfLJsDKvQ8ZBOGA3S54p9CzvstbSde2UGFVobxxHmqaZ5p3Q0zAMHA4Hlsslu92O80Iz5Kc87it+fqW58idsbE3vcnSW4ccWbQyKCM5ZnuFdmtuvjS7x4G1ijmShDjFHXIjJU18Fbq/n2KYHI3hdV5HALMoZ6d40aWRlDwMmdClbgEWlFEPBB7yzYGrwjjwcONVb3sjWvFXseSNvWZlhGqQ5kHBEOPJ7DoA6iW2kUB8p8/vjpHk9Ac7fcX3+uq7r+0n9cU0wcr+exT7G/x2Hw4G+73EuukdETvO6zfPvFqKXv1UCbQFEJmfWSHTybFmW02SVNnAEwMz6xFk7geIceOPzTOX4eZUWHJ1APM9ziqKY/pY6XnXkebz3Vccw9Dx9+pSu6zDGUBTFBOIhrfbH7Zn/ln6t63paHIZhmL0/+s9Jm83Mj07qkDL9TjGu2+2W/X4/jY+M0W1lfv6YtpiJjEIn8/vmQDs3EMyLT8DWNM1EW/N6pR/kOX/kpxlmoXB65nM4DEPyPbzmdAVAnXMT0+BCjncDSzNwknWUqiW4lnFspzDCgI8OvF6YIIcK46/UvymVUpMR8y3eSHz5lwa26SFxupN/pGOjSTjmaoquF/F3ermKsrsPBlSGNsk3yTtMGCjDjrtmzdvZFe8Ue+5nHTU9ylvsjHBvIxrpXNIknIOKUpHLDDPFtJSQApznxHFMbMfXmADnpvEA6dv41/S3EItOolN8lkkUlUkk3zYHQCnyPdIupdTErWmtWSwWlGWJ1pq+79lutxN3UlXV5MV/7CJxfIBk3Y0gVRQFZVlOgBvvuwka82PeZmmvfP+vOl4lTsYS78mSU644/4Y0HrFt15z08TcJh9t1HcMw0Pc91lqqqqKua5RSNE1D0zST3k7aLnXcVqYZEcIE5BLvOgdGKfJb6pz/f9xmKXJO+knOucTlzM/J3/NzMm5zAJs/J+f9LTrAEAJt207iu5rl2ZN+lPcK7e5aS7NbU4WWheqo9MiigCKz+KBoXIb3CpWVybDgMWpEuS76qaqAIvq73TwUQVeJsw/RECFYpPRrOf5fAWyxqEhmM9k2/h8zACQuTSlIAUigwJQEUxMoCeSg8nSnRfmBB+oxD/INb+Y73sz3nJkOg2fwmsGbmJn7aNDlb+ESpNPNzEVDBnZOoHIupOwI81RAMjivOuS+40OuS/0qsf3HBBYSKEUOKxKDcAhS5kSiZlyQ/PZp1e26bgIveYeA+jV4Xrd9DvjH7VfSN+laURQTeMyfmzuCyrfNi0zo6/uvgUfa/5c5pK9Wq9UUlUACrPi3uI7EctxGYwzjOLLb7XDJDeXk5ISiKCawE31kURTUdT2BuYyZlOO/VRLX6qpCJ+5ZnntVPzF7dv57XuS9cn5el1I3Re94T6RlUn+bpE8WelCJPgTcpG6pdw5s83PDIBk9brZlTn8q0btzjv2hxTnHYrHEqzhGdZlzUoAiMAZNCC7ClYvQpE2GUhlBguxvO3SGVxHYArPMvtOCeLP/5uVXAlsksbhxxHVJv3UMr1BJAa0T26hU1KfFXQnivgM6dGi3owx7TrKeL2ef8SA/cDfrqBjwzjF4Q0+BU4Zc3+QEpMw7WyaPDE5VVaxWK5xz0yo81/1EQIv1yODI/1L3qybjvBPjffHcnDav33Ndh3CVxhiciyy+EPC8/fNndAIJ+V+IqSgKzs7OyLJsIrI8zycwEnCSiSYrrUyO+SSR4ryfuD2bdGUyCY7vnZ+77pfrIpNj/g2/usRV+PjwPnA47Lm8vMTPdFp5sqDGcrMd83aFxO2dnJywXC4nrq/rOrquo6oqTk5OWCwWkz5RwOB1B7PvjLqmPd7Hv9u2ncZR7pFy/Oz82vzc8fmb5eV6pfgkJrqkMxvHkSzLWC6XqORKc1z3HNikyHfmeY7SejJKAZMONkuivABbkRswGrKKdTOyPXSYAGpsqGm5t/SUdATXRbcTZVCmwqs8MjpRI//SQXDghyQBRukvMk8q0cmry2uNBxBBLQLZ9ZkIcoGy/wXIlE8ingYIAYWNDVI5Sme4ocO3G04Kxxt3FrxVbihzg0nBzc4TA2hV3KTOqJdFAul04U5khSKBwHK5ZLVasdlsJqWnTNJrZXgC/RsghnzFS8AmE1R+H3NTx9fMkZ5GiKIoCooiKl5NEvnm98t3ST1+ZsVrmoarqyu01ty9e3eyFI7jyH6/nyaUWBHzPCckkJ3qkV2ljiaqc47tZjN9T5ZllGU5gWXk2GJ/yzPyNzPRXx0ZDKTfbpuEUtRrsrMqpej7lufPn1PX9dTnq9Uq9dc1lyhl/i7RGY3jyPPnz9ntdiwWC05OTiZR21rLer2maRqyLGO1WnHnzh3cjPMWIJl/G6nv+75nv99TluUEKMcxr8f/C5gIDUu/HYPM/L1yfhiu9VuxD24CXUhGIOccXdeRZRl1XTMMPeNomS/EUV8XgUkOaZ+MrUsWeAHJvu8nms1SVpdxHDm/s2S7OxC8outHFIqT5RI8jMOOgOWiDfzyauTACYM5wxenOFWQ+/aG0fFmiX1i9ZIxO8WZE9B5/IbguMHCHpXXApuAGsRs3LKaqhB3w3n72f9tdv1aVNWAUfF3HzKawfH82XNePP4ldeh59MYZv/f7/zvq5RlkBT5odAjkWEwYCD4wqqg/mg/e8YQEJn2STqJXlpToXddR1/V0nwzEceJDGUQhDmYTeD5B57/nzx2fj6tqJI48zycijAAciTlL7icCulrrtOlJ/EYBZGnnfr+HNFnruo6B5em9fd/Rth1aa/I8jwHmSRks/SLfdt1WdUO/5aydwmikHp30g/Fb4n3z7z4Grvm1v2h5HbABeB85EGY534qiwDmH99fgyisAVPpBlPwhhMmQQJq4m81mmrhFUbBYLG7UJc9N4JHOyfe2bYuZuePomVpAnp//z0wHOy+3gZqagZ5zjjy/BtDjNkod1lpMlmGTxJLn+aQXk3ukCJhKH4ckbl6PfQTKvu+nhUA4Nflmay31iWE8NFSZQrmAdRqvKgafEZTD+oYf/ehH/OEf/hGb7Z6Ts7u89ejLPHzrrbSd5ctjB7GzR5XTZPfYF2/R5W/gs5MUm/pyH87La4HNoyFYdHAElWHyCg6fYT/+f3P/8GPs65S/6aXjaGm7Lum3AnfPz/n617/GV97/gJAmhNaRS1NKoVXcdDYSfUD0CCqF7YTkyuFDwNno25TnOdqID1qsJxJZXAv0FMojE5Bk2k6DG6J/joCAyTLGIWYvMGnvUJ2sRdoYMhNzuEF8H0CWxzQufrZhiax+Kr1fawEzPW38EtsLSmm8j9fyPANE+WtTzjjZLCbeF2Zir0yEEGJWDPFhk70ptTaEpIxXKVGmGDJCiEYNIe7oPCvn9QRqMvmNMfR9PynyZXLIOIQEJnFcr8FvToTSJzKBAIzJUCr6QpGMNAL8Uoc8K88JiEQOKW6bF7nM+L4IgNdcMIlTid8b3yN1a60ZhpGqKicgkEPumbdB+k4WMaHTkDZNjn0fx/Z6fOJ7juuTEkKKdkl/R3oPsZ1KYZMoHv39bErpFOlEOLDr+uPWiM55hnGAFOYEAWOilDOO40RzsS1RBRDbFuuMLjc+6rFVzFZtbQTN2D+asfXoZQV+hKaHTOEKDYNDeUcwnvV6zZ/92Z/x+Wdf0A+W4KGqSsqymubXyyX63HmVYXVF9+B/hX/zPyboRexforrrtvJaYFNZEc2ybsQlZzu3+Zjxp/8tD/d/xi7M/YpeLrKC6CQmZlnGvXv3+Pa3vz1xJSqBUJz8N60w80kjh1KKYYgKZBEvw2wFDcHTde3EvYlYIPUIRycTSu6R9o7jOPk7SRvkPjkn54Utv56csR6ZDDL55Fkpcp9MPPm2+bNyzidwkvcym4jzPjJJRL7ttwDN/DulTqlH6pZ3z9sXuc3rYPRxHKmq6ka90sfMgEsmr/SbvEvaIOdJ33T8jdKGeZ3yLEm8l3fI/cKhzPtU2iD3SL/Nx8EYMynN5/03f1bqnL9z/o1S5vcJ5yPfb5MLkrRlXqTP5uPDbBxk4ZjXKe+XbxmTrlTulyKA75L+WdohYvkwDLiZBXU+hkLjY+ICj8eo8Hv6LMM7yCy4XNNmiswaygDo6Dj+ySef8vTJM5qmY7fbczgcJtFdxmpegnd4N8bciXmJfetvoN79T9HFCSpFQrxq96zXApvzCsKIweNVjslL2P+C8PE/5e32R7j67vEjU1FK0fc9z58/x1o7JRp88803+et//a+j0oSIufEPFMlsLgN7TEDy8VrHhHbiA2WTb5IQjlKKs9MVXddNoDonABm0qPO69rmSYxgGyrKc2iADLYTBbKLMwYMjg4S8S/pCzcTneZvkupxnNpkFuEUvx2xSS53zSXdMcNIWAZDj98q98rw/AkUh/iyJH3JflkSu/X4/6QrDbMLJe+T3XLR1R353Aprzd0ldt/Wt9P18fOTbnHNkWTZNQH0EbuFIvJPvEhBwScyTv2UcstnCK/XO+3Bev7xD7pHxkXOvK/7IkXb+jjCLQJG/mS2ewKQDE0Cz1k6uG03TTOMh94QkenZJ/JRDvlUO6SeZTyYtcEJXmX1BpzIKSqqQ0+vAPngKV6CdYzNcsdls+cUvfsHlxRWg6fuBzWbDW2+9NalMXirBE7zFB82oDM3938a/9Z+AWU5jMVuPb5TXAhs6Wi10cFgfza9u8/EEbK1ZHT8xFZ0mxnq9RieOzSZl41tvvcW3vvUtHjx4QFmW03npOCF66WQ55Ld1kU2O56N+6hr1A+MQdQICfD6Jr6KfEqfMkHx2ttstu91uErF08g0zMx84GVxpixCJlCJ54Mv9asbJzAFWCFMIhEScYdLD3SRoM+NspW6ZjPIOaY8QoXy3S5yIPCOTQIBJiHMOmlLvcd9LP0q7tdY3OBw5HxIoyXeoGUc+b7eeiZPybo64AZmEagZGJNqSfpGFyCQRWdrmE6BIX0u9UrcU6VsBVGnfcVvlO5lxrhxxkvK9x22VZ6W+4yLtkbbOwV7GJ4qgUac17zM94w6F/oQGqqqaDEohBJqm4fLyks1mAzOOV56TtgutkL5VaPaYlpCxCAGnSwpvwDbs9ZaD6vHbke6q4en6kqurKy4uLhkGS10tgOiXeXJyMtHHvB8helYYowhBY3VG/+B3CO/8LVS+mtQAok44Lr8C2LLkIexwCdj89mPCz/8pb3U/pnsNsPkksswtTn3f89lnn+Gc49GjR5RlycOHD/nwww959OgR3nsOhwNjClVhRjhCYAAmi/FnWmvKhPbWuehyYgx2iCtQkTzVZYCttVxcXPD06VN++ctf8vnnn7Pdbici9imGUEBMAFaISwhXCFWI1iZuQybVmEzrEgIkHJcQoLxvPumEUEgEB9C27cTtCNHNSziauNJWfQQyc4KZiGbGzbgZsMr3OOemlVTqmL8jJE5M3ieT8BhY5Zvn7ZT2+JmYXBTFRDNq8vu7KTZLH8y/UfpN6sxToPy8vfKMOgIpGVd9BITzNkob5B3zNszrnN8779t5nfIeKXJNjiypRaQt83fK/aSxG4YBmwwqKo2ZvFPeX9c1p6enPHjwgA8++ID33nuPd955hzzPWa/XXF1dTQ7KY3LIZUbHIYGejKOAnE2+hNKPOEMfDH3fsvNf0D5YM55bLh+/YP39Nd3Po5U2hEBR1ORZ1GNut1vu3r1LnsIKpW+nEjzOjgRl8Dqnf/g7qEe/hy5OENeXvxSwuaBRYUTj8WRJFP0U//P/B281P+agonXptiKNvLq6wns/xS4+efKEruu4f//+xB7fu3ePjz76iN/+7d/m3r17U2jImEzXYSaKAmDifgXS2TIIOq12yzKueLLKXVxc8Nlnn/GjH/2ITz75hP1+z5DCRdTMhUMpxWazYbFYTBO073uGlI9fvkk6X8Swruvo+57FYkGe5xP7L8DmUjLGcRxviJc2WZnKMg60fKsQq8R9crRyigjtkjkemCx9TdNgk+ifZRn7/R6VgEOAehhiyJpwOofDAY70LUMKPZK2zduqkxjqvZ/8w/q+n1QKy+VyWtRUcmaVb5a+qOt68sUzxkx6za7rUCnNuNaatm2xSTwsk1tF13UTTZEWAOfcxIlvt9sb42OTRKBn8abztsg4+yQKnp+fT2OqtZ6+WQCAGciYmYNySBJAlrilEMLUd3VdU6a06cclJKCsU0TE4XDApZAlAfw+BewLjUu9y+USY8w07vKMS4ungFCe55ycnPClL32Jb33rW3z44Yc8fPiQkMTRIcV/Hg4H7EwPOAdZoX0B2jFZTMd+x64PHMaWQ/2U4WsNvJtx+eSC5l8cyP+sSvPNkpkcY3K6rqfrOs7Pz8mOslhLUSqQ6bgJulUZ3Rv/Ef6t3yVkS/AxY8lfznhgYvoR/IgLMSTKbz+ZjAdjeX78yFSESDbJR+rk5IQ8z/n8889p25Z79+5RFAWnp6fTZP6t3/otvvrVr95YHUgAJY6nSkWXX22ug8jFO138vVzf8PjxY54/f84vf/lLPv74Yy4uLtjv93SzuEPpTCHesiy5uLjAJG6nTLo2IY7j75MBdjNxRia5cH6ywgmhCycihCcTQ0B2nFkfh2GgSk6lc/CWtggQCrEzWbquFccCfFJnmImKOq3sAnRZ0jcKQZPAQRYYuacsS5qmwScRP0ti3CCZRWarvfTtbWAubixZcrUIyb2ANOYq6Wld4p7lm2ziDuu6nt5rE+dXph2y1GzBYjZeeiaCy7jlM85zGAZOT09p25a2bSEBvpll8ZUJLmMx71dpq3yP9G2edLgC9nIwAwwB3TmwlbOAdOlTAa6u66ZFeEjOsyZxUjJ3BMBlTEhjeufOHb7yla/w4Ycf8qUvfWlyVs7TAiyLh/S5vD9LzuFPnz7l+fPntG3L1fZz2oPGUNAWFzw7e0x3anFrB3/uqTYLjDEcDg0KTVFUDEOMRX2dKBpjyy2ojJAV9A//ehJFl1EU9X9JUdQTOTYVHF4VZMl4YH/233F/96eM+cmN+6VBUrz3E7DJyvL555/TdR2PHj2ibVtOTk44PT0F4L333uPb3/42VVVNky9L3tMnJyesVqu4gqHRJq60eZ5xdn7OOAz84Ac/4F/9q3/Fn37/T/j5z3/OdrudCE4IXAhM2ioTmDTR5f/tdjtxH2qmcxFi7vt+mtxlWbJcLieiFoLWWrPb7Wjbljt37kxREUJ0pD4T4l8sFtPKXCRxtK7rqQ+F+H3ibJyLqX3m4JPPOBAhzsViMX2nAJyAqEvgGBKoGGOmiSzXBDAOhwPr9Zq6rifxvmkaQprkRVHQNA273Q5jDKvVCp1CwXTilmRi9Ikjl/ZL30ufCPiQuH8ZQ7lX2ibf3LYtu91ualdVVbQpbZF8c9/3tG2LUoq6rhMXMU4AUpbl9IwA434frXdlWXJ6ejrVI6CdpcVLxkM4EGm/ACIzcCgSFybAK/1PWqykf4oUSSLfHBIHKHVut1tU4m7lXnfkcNu2Lfv9njr572UzTl8WmcViwf379/nwww/5nd/5Hd577z2qKnJZ0hc2cc3jOPLLX/6SH/7wh3zxxReRXrXF9zm1WnBoX/Cjp3/GxX5Dvs8JrSM7y7l/7z7ee7KsoCwq2rajORw4m3FsL5XgIdiY2deU9A//Orzzu2Dmvoa3w9cttV0XUTMoHX1rvA/R/VZnWH8tlr3q8DO9hXS2molzOq2Qm82G7XY7AZGfuVUMw8B2u+Xy8pKmadBak2c5RimMUthh5LNPf8F/81/91/xf//H/hf/7f/Pf8Id/+Ic8fvx4Wu1DmrTCDdgj/Y+sFEopupljr3A7zDgfuc8nfeD8fEhsvQCXgIdMfo4sX0L88/bJe/skGgmHIBNK+s8nfZQ8L79l8sg5AUq5V+qcTwCfALtLoqF8i9wrHJJzjiYFjusjVxKZBC4p9KX9XddN4C7fLXUKyPgkHst7SBN8TAalkCa0cCXyHmm7SeqAw+EwgShJLJc+JXEvbdtOfTIMwwT+JnHNwuEMSS8q3yx0It8sfSV9vN/vJ5oSIO6SXknGXgBLz/SwYabHkvEZx3GiLTfTkY5p4ZGxGFPkyZjEbHlW+swn2rBJFC+SzlnGzCSpaLPZ8L3vfY9/8k/+Cf/Ff/Ff8E/+yT/h448/npgAnTh7YwxffPEFf/Inf8LHH3889WNuK7IiYKuGTo8MBzBtQbA5Ths8AefjNuVaRV84FSAmMopF+uhmiU7+AWLaf5URyLgOq3p1eX2sqFIQPEoFAjEVtxp3hKs/p+qexs1TUrm9YdeAIB0kxoHT01NcstqZJFqdn5/zpS99CXMUkiKTmUnh7BmGOIn7vud73/se//gf/2N+8IMfJDEgxggKEeRJPyODT4pYEAJTMxFFVtshiSQyaeWanmXsUGnlr5Mvjk06Dp2U6UopFovF5MMn3zMn1jxliBBOK0+xkHLdJd2RiF1ySIRBSByJPCfgUCQrsNSRpbjJkPRA8j15EsNIQCyigU3gPOeQAFarFavVCps4Fn/EEepZ5hGpX7gyKVniwkPiXtQs5E3Au5zp+6Rfpf0yUbMkwoQE3MvlkrOzs6m9OinQZYLrpBKR8ZJ+FHWIgJm0Rb7x7t27FMnqrRNwCfepZymbzMwlSe5XaYHOEqdEEhezxCkJuBbJ3UnoqkhRENL/Ih2IuCrjJ5ymTmAuoEYazyrFxGZH+ebkftIYC31dXFzw4x//GK01X//61wkhcDjEbRKbpkmbYH9yA0xRMJRxQfF+5OL0M8LXt5y9teDe4j6rZXy/s5Y8y9HaMA4jfddRLRZTnwrNI/M+xYwGFTc7d6tHqJN3QWev5NSk/DsBNunI4yLEQiJmPQO2k5O4Ua4QA8DZ2dkEbDLAUvxsNdvudlxdrbm8vMTakU8//ZR/9s/+n+z3UQRSKuqy+qTQlufatqVpmomArbXsdrsJuPokXgr3mCWfKFkFpex2Ow6HA21SbMshADIkRazoU4wxrNdrrLUTNzYkMUhATjgOm/zyBLSFAzHGsN1up/4T3dtut7sBMk3T3OAU9vs9m82GkMTYvu/ZbDZTW6VtMnHqpNS/urqaVvmu61iv13RdR550X9JvY3Joln4bkqFlnGXWKJLotdvtprYVRcHz588nQ45MLOknAdfLy0sOhwMm6VMPhwPb7RabdE3jOE7jJQvI1dUVXTJCmGQcmfdbSODez9xD9vv9xJnlKd3RxcXFBJjyHqFLnaSNPonUMn5D4lyzLKNtW7rkJyYAttlsJvDOsmyiIxnjruumtgh9CLgopVgul7Rty2azoW3biXaFxrskMQj9+MSNi35Z6Pn4ukv6cJkDd+/e5YMPPqBtW66urqbzn3zyCev1mjLpTeO3FoRqTMmFLOODNcuvaRZZSdWtyKnxzjP0A1mWk5moCgreU5Sv3ic2GgbiBudB5/iTL8HpezGN+f8vgc3ra8/meZkD3ZxjEyIbE8c2B7YQwg1gC0ci4hzouq5PYnIgz6Ol9bvf/S5ZlpFlhrKM+gaVFMPCleTJGnfMJRVJPyHvkrbJtSJZ1+bclPwth3AYWeIiZNU3xrBIriaywkqbylkeLxL4S5H7ZCKWyaJWliVVskQyW/3zWUYPae+8rfItck9VVVPfS9/M+0G+SbiI+TOxnyMoZonzCDPLdZkU3vJNRTIw6BR2JecESOU7pR9kbASchXOZv7tKujTSmCmlWK1W5EnUWi6XU1vkugDOcX+RaLZMFsUyOYpLO4Uj0rOUU37GBcp3z9u5WESFuXCH0hfSp3NakvfqmYgqdCf9axL9ycLjE/c2pyWpU/6WtuWJ/mV85Zq8wxz5W2qt+fKXv8xHH30ESQRWiYN9/PjxpIqQxV55Q8DFsK0w4oNl4Rf459C9cOAMWinsmPw8Q6xr6HvKJDnN5/qEHyGgErChC9zqEZy8G7N8hCB5K24tr9Wx/WXKHNTmZX5eCJYZSsu5Vx1yr1JxfwJm+qqpg5PY2CZF8nxA2uSCIYO+T1kxZOBDWsUPhwPVbEfzLimF5X1tUi4LUYTElcpKLRyqEPThcJg4CFldZYLq5Ai82WywySWAWXLIoigm8UvqECAQTqdMIp9wdzLhmqaZXDLOz88JiRsahoHVasVyuWQYBtbrNSTR3HvP5eUlfXJdyRJH0aU0P2VZstvt2G63mAR0SqmJgxJjgXATAsDCoZYJlMdx5MWLFzjnJjC6urpiv9+zXC5ZLBYT51Iky7m1lqurq6mfTFLs71N2jbqu2e12UxYUEZdlEi6SyLPb7dinoHifOFzhSEh6OOGCRZ0h+t18ZpgZEtcvRjE7UwFIHWPieIuioE+GC590dNLWkID7uG1Sp3Bu0tdN00zMgdTVJ0OAtG9O89vtdrL0m5l+LiTGoe97Li4uaJK/qU96UQFImXvynE8MhpwvyxLtNWbIUT7G2178cM9n/681X/zxJZ9/8pgnT57EePGIVemfNOePOC+pN/2SW1N5DZIdlX+nwDZvVEiAJMAl5fi3FLn/uA6ZqPOiZzoUWencFMsW65DBE+CTwZD6hiRGSZHrIa1csqoL2y7PCbhy9L0y6HamuJV7uuS7JG2S8yopmcckcgiAXn9LbJes5PI3R0YIOSf1Sl12ZiSwMxFXiFPeJas0R97ucs/8mtSpEqeh08odZmFnUof8fbxASDulHWbmSqMT9y7tnLdj/oxKk1fGViVDzZg4HukfGRe5Z94v0ka5V/4OM1p0yZgj/SR1HB/ynHyLPCt0IO+Yi45uFhkifSbPylgJaJWJc5bn5R7pI9JY3vZuaZd8O7N5KN8n9HH83Py+4+8LErWgA2SgMoVX0OmBQ9EyVh6y69AypD6Za7y+xKkyu+sGdMw2pbml/FuJosHcLopKUTNrmYgAooc4FkW99y+Johx1rtyLImYYUFAUOU+fPuFP//Rfo/R1ZtN6FjaV5zmnp6dUSazzSa8gXElI+idZpWRgJe+ZrLrzCSYTZS4C5En/lM+U3nKtTqb2KrHe8j1MudqiSCBgoZPYJsRazZTVYWY8EELNZwknpS3yTTKBJFebncX8SXtsAnNxaZBvlHbJBBaOak780maZuOJXqBJozblbEnidnERXIRmPZUoGKYBeJHGUWdbcuUFo/t6QJvky5eNTSXVhkstJmPnuLZJhQ8ZyLj5WyW1CaEAm8yrFOQv4COcp4yG0kE/7MQTOz6OPp7xHvtknrk7GV3SL8jwzkfXs7GwaQzWLmhCarpI4LpyW9JnUI+MnNChjLBwiMx9R6Xu594MPPuCjjz6aaEz6+dmzZ2y326kt3nt8cLjFEP8PHr4ycOdvLFjcW1KNJ6zyE3Ij0Tw5RqUYXecoq+v0ZNJXJLqIVlEfdWq6iDq2uSjKMdhdl9cDGw50TMurdMROhWe8+phl9xlOXQObEK0UaWSfTMJChKJQFbFFQEYnoHn06BH5zM9sXp9MFJ0GN3YI7HZb/uhf/su4YqfVdblc0iRDgUu+TiFZfUTUIK1EAkBZlvH06VNsEgEEPISjEhFku92y2WymZ0ThHdKK5n1M0yLKc6mvS4aALBkYmhRhIUQnorD0mZ25WlRVxT75VAnBjuM4KXxl4WiTY6lPerMmKfVd8nkjuUGI6KW15vLykt1uR5gZGA7J6FIXFbYf2W62tIeWRV2Rac2zJ09w1oLJqesFTdtxeXmFc56yqhhHy3a7S97mGfjA0A30h5bMZFRZwfpqTXtoGPqBVb1Eo9istwTnqYoKBs/ucs1hsyfXhrqs6ZoWO4w479DJ436z2bDf7yeQfv78+fT9Ziay2pmjtNChTqAu32uSmkBcjICJlp4/f45LjrMkI1I389ofkmg/JoODjKm8J4Qwie1NMtaEGeju93t2KWbZz/wau2QQkMWy6zra5D6TZRlN07BeryeA9kllstlspmdFJSJgL2MstC1tk/nyzW9+k29961sT56gSh/z8+XMOKVJFvskoh0NjvMLphs1Zgz0tyC4N9bYGvWAYe8axITc6pgWz4H1OWUV9361FEdNsERjNgvH867B6hFIeSLvgHT+TyuuBLSS0JAKIKPPs5c9Ztr+4AWzzIqCkkgwvq4lK1r+u6zg5OZkQX1a+xWLBu++++9LqLnWpZEnqkyVKVrHm0PA//8//87QCLhaLifOQ1UierZPrRJEUqbJK5zPu6Pz8HJVcOZgpwPVMeSzvEcCsU8iMfIusumXS/whnUCfn1my2k5PUmSX9yDH3YBInJyvqIjmgyoIg3yT1ySKSzbi3LHGL0j6ZBNKO1WpFOVM6y3WMph8HTG7IywKTG5RROBU4OT+DLEPnGofHFDlFXaDzLN6XG1RhKOsKXWTozKCMRmUGlWl6N1IsSvKyIKsKdEoxrYsMbxSjCagyozpdohYlvjD02uNyTZHnlHk0QEjbpX/le/NkENGzCAEZU5M4SeF45Fm5JnQpNCJ1yljqxKHmiePRyVAhbZFFRNohfU/iEmXchIaE1oU+isTlyqIrzwvNS7uEloVmTJJqZGzlvtVqNdGN0IAskEJjSlKCK8XXv/51vvGNb2Bn4Whj0o02TTPNyRACmVIElZOZjHEY2D4/YJ+CfWzx+4ygKowGvMdohQqarrd0g2e5KKZ9G14u8bwCRrPAnX0Vlm+hlUv7HqhXhlS9HtiQ7elV2iFGoYLFXv45y/YmxzY9MQM1AbaQlO06OYG2bTv5iIVZVos5sPmZb5WasfMmiW8ycXWKEvijP/qjadILZ+WS+DSOIxcXF7RtS538mpoUpyqE4JybFON5cisYklFAAGtMDpwCenPOhqRIFS5Lvne/309cmbgNyCrvk6JWlPzFzBgRkriRJz2fKPV1WiVlgdBJpGmTK4v0y263m7gC6ZM2uadIPzYpSkAmqHyPjEUIgd719K5juVpQlpGTabsGlWmqZUXZe4Z9gx4dp2WFb3t2Ly5hGKmznAwF40joRwogD9DvD/T7A8o7VlWNH0aa7RZGS10U5Cja/Z5Ds6dSmlIbdpsN+8OWqiw5XSwI9pqDPjk5wSbjwpCU+ovkI2ZnOqV2ZlQqEscr3JxKagXhcHSKlmnbNrkVxXEdk6jcJXcSoVWbxLwsRVa4pKuS8ZvTlrRF5kWWREnh7oRmZYxlUfRJxyZtc86xTdsAzjlJmwwKzSzAXb6PI0dfeb5LqcTFmvz+++/z1a9+dZpDJOnmNmCDIurSsorDZcH+Zwb7ec3VpefFvqc/jGg0eBezbyuNc+BDoK5eB2wkcRSsqfFnH6CWb6KVT+aBVwPbK3hAKdE0e/2smlD0tiKgNv8toHR8bV7m98h98vdt5+QZ+a3SKqYTpyHAJcQo7PQ488oOM896Aaxu5ufjZ7uFyz0yyG5mmJDJM3+PAJ2857bnx6QYnh/y3JAsu36mJJbvIRGYgK70hU0iqz2KKnBJ0S+Tws6CopnlQfPJD0rqlfaObYttW8amYWxa7L7B7lvyzpO3nnV3YNMd2I8djR9pwkATBrpgGXWgC5ards9ls2Vve3rlOdiObX/gECyd9rTKsncDez/Q4miwNG5gHAZwHhN109hhxLYdoRsYUhB1NwvPcglMZHxkTAV0iiQ1SP8LPRyPpywIQmMytnLfYeajSBLtRayTvpQxbJIKQton3JW8T2hH6pa/hQ76pFoZE9DJN5LoS8ZM6Glej4y30Mj8vNQ1f6csisK9Cd0KHcpxXDwFXpVYdcqQfZ3x7H+Nu/cH+JPfQ+dfpchOydQCoypMVk7Zq6N66+Y8Pz5eLq/Gn3l5baxoCD4GoAbQ2hOCRvuO7if/HW9c/n8Y9M3sHscNUcmR0ya/ojzPuby85PLyknfeeQcSEVRJ73Hv3j1+93d/dzLvq8StySHig53ps7Is4/nz5/zDf/gPscnloExmaiEiN9s/QAjfJS5FJniW9F775HLQJx1USMpj4RRDcnrVR9ZJEeNEXLBp1RSCkW+Qe6QNNgGNcFFyLp+FsoxpxW2TI6eIXXOgEs5NCN+mySyEOaSA+nm9NoGhEC6zvHIkkaxWYMeBwTusc4Sg0F6jvWZZVazVdT586Y8wM64473DWEXyglIST44jRhmbsqReLaXyyWf68cRzRLmBsIDMGl2ssnsIr7pqaNgdfRHcanZxly6TU3+12k35UxkLARPo4JOCT8Q9Jvzj/DqEz4f6apqFOriZu5ng8H2ep6/T0lCFx3vP3Cih1MxeaeZ91s+DzMYVW3b9/f6JfnZzcfQJeqU/mkXyPSyFdUsqUpSVP4rnQlE+hgVLkud///d/nD/7gDxgTVxuSlPCjH/2Iy8vLaXyttaBO8WWGyt9ip7/F1Z2PyB7cxf7yC9TP/znm8F3G9pKxv6IsHEoFtvsDvXXcPz+f5tatJXiMCnTFfYZ3/zeoB9/BqJEQNDHR/e3w9StFUaVMrEBFbk0Fi734WRJFrx1KZWLMizpKVaOT31bTNDd0bDIYZVlOAbgyYMf1idgqkzlLytN//s//+eSPs91uaZIf1+FwYLPZTG357LPPuLi4mFZYWRUFfJ4+fTo92yWxWSZaSErnZ8+ecXV1RZu810WUlNL3Pc+ePePZs2c0TUOb/InmYmuXPNWb5O3e9/2UBFC4CzFAkADn4uJiMlSYJEo+ffqUTUoc6JNoIQaFEAKbzYbnz5/T9z11ioG9uLiYlNghBD7//PNJ6Z0lA8QuRRaY0bHb7/hse8XzMLCvCy5xPO4OPGtaXAiQF2zbjhebLft+wGnDYRi52O5oBwt5AXlOOzq2bYcuKnRR8sV6zVXTcLU/MCpN5xxXTcOoNFQ1baG5aBueDw1NlWPrkmAhbAda2xNM3OhmvV5PYzyOI0+ePMHO8pNdXV1xeXk5iZxD8jMT/8G+76fvFVpdr9c8fvyYIUVF7Ha7qd4qWRDXKacZiTbX6zXPnj2b+npM0S594vq7lBVDxFKXODGhsWEYJhoQ2jukqAs7MyRdXl7y4sUL9skXc7vd0qZ0SS5xnbvdbjIKHQ6H6RmddNldilrZbDY8ffqUQ0pwcHV1xeFw4IMPPuCrX/3qxPGSuPsXL17Qphhfmb/K5HFPFH0Xu/wSw7tfonjvhKpTVFef4dqf0x7WjMOOPAugAsM4ElBUMwv1bUUBWoE1iyiKrt6MG7kk6fFVT/4Kji2gVB43O9EhrdY93U/+W964/B8ZdJTZbwM1ZhzbOMvisF6vefHixQ2OTfRe5+fn/N7v/R5nZ2dTZwrgqFs4NpV0HOv1mn/wD/4B+/1+sraKPkEny+syZekQIPGzlDvM8pntdruJ87GJRRcXAgHgzWYTBzS1K8y81kVf0iURiZlbh7xHOIMhiRByfUgc2GKxYDHLnCEr+yaFQpVJOd0l/Zye7f4uxG8T1yeTVaWICp0s09IuY8wEntJvwtEopVjqnM3YcXVqKH/jS5g37uK1xqgM33t85igXNXYcCT6QFTllvUAbjbUjJs9ZLqPi2jlH33acnZ/T7Pc8ffYYT8BbR7VasliuyPKMk7MzquUSR8C2HTZ4QmUIoyN8seHij37M+Gc/ofaRizApQUCRjAGHZDkuk/GmnwXQL5NjsnBGQhcyDkKrAnRZirH1ibMpZkp9AaQ6bQ/YpC0fAU5OTqbxZBabLG1r25YiKe7VbMFukiVfJvswDFP8a0hSiNBBPnMvYUZbpKweu93uxlwYk4O6LHBDUjsIPUg/OOf4O3/n7/C3//bfnvpB2vzjH/+Yy8vLaV5aa1G6JIQKlb3JlX+Lz/QpLCvM0yfUm59h1C+w3QY7rCmzKAnu24HRwZ3TE8yrrKKAIkwc2/ju/xb1xnfQYYgbTf3lOTYSx0YKYVIoHPbipyzaX+J4NQspnS0Tq5glZWyaZkpVFJKSXMDhVRxbmOUdU7OgdZVW4O9+97sURcH9+/dZLBacnJ5QVTV1AgU1s1TKgMzrDolr6lI8pNYa5z0hRPcFLzqRZCFaLmPedTfLEjIXN8pkcBiGgWGWMUOue+cJXOtIsixjdXJCluf0XUeXuMhi5skekv+anhlhBOTGpC8ySX/WpkgLEsG3XUeXzplkqWuahv3hQJHnFGVJn8aGZDwwWjPYkcuxxz48Y/nXPsC8fYI+LynevIs+ryneOUPfqcjuLSjfvkv2YAXnFfrBiupL91l85SH5o3vUX3mT+v23KN99wOKDt9mbEXWv5OSDt1m+/yanX/sSZ998j9Ovv8vyg3co3r5Ldv+U/OEdzMMz7EkOpzX5Ysn66QvGXzxB95G2VssVwxizxNgkgq9Wcd8LATShvd1uN4GRS+AkHIgsbsLBn52d4VIMpU+inkoGsTFZqOu6nkBOgGoOTAK6TUof1CUQkbEqZ7ne2raln4mvAh6LZGEVzk3GKIYpxXYsFzFO1s70viGA0hGs6mSB9Ul0ZqarlbqLWarwr371q7z//vsT0Mmcubi4oEuGEyUcmwcdNIaM/eUVz//sX9H88E/oPvtX7Hef0gxXKDWA74HYLusCKEM98w+9rUS+LGCzJf48Gg8Uv5pjM+/+Z//Hvx81eS8fWgdCeqnC44MmyxR++wuy7c9Bvx7YZCKPScTRSRey3+8nUZSk3xIweO+99yhnoRzzjzazDZKF+PIUsPzd7353WsUcgcFaXPAEBS4ErHNYH/1+WklIOVPkj0n5ul5vWS5X0Q9rt2EYRzxpKzPvogI7gaKIkvK8ChASF6F1dGm4uLyk7aIFrNntIQS00ozDQNdGsNnv9hyGHnJDN0ZxZEgAGmZpbLqklyFxjQKIMilk9fYp4LxPwdamKFhv1jRdB5KU0miatuXQNuRFtExtNht22y0aRV2WjH3PYX9B1fXUyzPcu3dQJznsHf0PPkEfdvQXe+zFDnuxY3y+xr7YYi+22Ocb7PMNw+ML3LM13efPGR9fwMWO3c8/Y/fpF4TtAb3ryfYD4cWW8HyNfXzB/s9/ydUP/pz1Tz7h6uc/Y/v9n9H8/JLRK7a7Sw4/+Cnh06e4Q8c4jBit2e/27La79NtQlRV919O2DSrpFA+HA4e2wVuHVpqubdltdwx9T5EX5FnGYb/HJp2fT/kEt8khNZckjE1L114Htu/3e5r0HlOVrLc7gguEweFGx2AdzdizbRqciyLloWlQQG4yjDb4ceRyu2HT7hnsSNcP9ONA33cUeZz8h7bBB89ht6NrYgD82PcE59HG4LWmaXsGa9kdDhzaltE69k1LZnR0m0gqlSYZo5xz04ZLMmebpuHrX/86H3744SRGy9y9uLigT4YuL+nxTY4yAVTDZv0znj39Hm33MU33GUP/gipzVLlBocnzGm1yhn4guBgep2e6STnib1Deod1AV9yH+99E1/cIaLTyidm6vajf/T//4e28HACOgCF4hVYBjyHPHP1P/yknn/+zVwbBS1EpzXGbEkqWZcl2u+WLL77g0aNHE9clrPHZ2Rl/62/9Lc7Pz3HJMiTApmYZakkDpBObvd1u+Uf/6B9NnKBKGwKrpLy244j3MWC+rhecnZ4SgIuLFwz9QFVH40XXdTgHZ6dnDENP1x5AKYo8oywLfIBxjMQgICugUpYlRZZPe6ASYN9ExbY4eMqeniLKCGH5ENCZoahjokA/WoqywI8O5x1GaYqq5PLykir5LjGzZHpxLM1zvIuOq362pZw2UfwsijLW6z1mSr8U0j6uakorE7xHqzgRVAndruVwtiL7z7+Fur/C/enndH/4ZyzrHKUjYTrnce56MxGI+2t6H8jyGN2hkjohhLgnrCcCsdbRLw0iV+CsxWiNyg0HewCn0I8eUf3Nb6JWhv4Pf4j5/icsfJwQRZ7TJncF4ZDKqsQ7j8myiTMOYnAyGSqJa0XKRsvMEVelzYFkYahS0kVZoI3WeB/i9ybQ9N6jtMIGGNqe85NTQgr69gqC0Vjv6NoYiwxQJsDCx0wXnR2xaW/QzBiMNnRty6JeQAgMPur3DrvobFxk+bVbg9ZkRTXtLeoSZ7ZcLNIu8J62ayiKkjzPJonB2WuDhnBnbdvyB3/wB/z+7//+pIuVheEnP/kJ25TlRMZO6WiMCMkx/ZeffUbwse8zo8nza0NbmVQd25S+/e7du+ijZJvzooIjC5b25Kuor/5t1N2v412Imb1Rr4yq+pWiqDCDSkFQmkwH7MXPyNY/w6VNWF91hGSODjM/tiF5aYulUYhNJX3Zo0ePqFOYCbdwbGYW3iPnxnHkj//4jxmTfqQuK8osRwVo9weuLq9YX16y2+4oioJvfPhNvvKVr9A0Dev1BpcUt8M48uLFBV3Xsl2vGfseTUD5gEGRGUOWcuo/e/aMffJREzExz8yUQ2q/2/LsyRMypanKghfPn7PZbkEpqqoEBX0XN7TYbbdxN3ZrGbseozRVXtB3HUM/oAGdmSm9uQCZTb5bTdvG0BSj6fqetmsZrSUAm+2WzeUVYzdQlyU6QN9GTkejMFrz+OkTtpsN3geqJEq1bUsgoLOMZtdy5SzZ+2+Sny44/OwLDv/qp1T9iG56Tk2O3+1Zf/4Yv9tTOY/dbNg9fQ77hsoFTNczrre0Ly6x6w0rNJvHTzg8fYHb7SkHj2573HqHbnuK3uIur2gfP4ncX1ag3r6LzjX60xcUVw2ZUuz2O14ko0pe5DjnuXjxAp1nKB31oofDYQq6L4qCcRhZbzaTzixyUAe0ipsCV3VF0zQ8e/aMkKyim82GTTLsyIbU+yamQ4rA7tisN2zXG7y15CZj6GOKppjVIuqWnr94HrkVH0HBWhulAh847PfsNluGrsNbR5bylgXvceNItVoSnGN9tWa73UaOv+9pDgfatosOy9YxDD3toWG/3cYd3JRivd9MCQKMMZHmx5G2a8nynENKbyV63W9+85uTKCrAN+fYpCil8DbGgWqt2e92PHn8hGHoqcqSk9WKLI8LrEsSFUkMLmZp5W87QGG0QgdHX5wTzt+H+l7k5JJf7avKq7V2iESqJ+5HJYR0r/DDOj5Ex+FnmVhjvVHhLv8LiIVbgpBfdcj9AnDydwgBby0KyIyJnbtccnZ6yvnpKcvkeDpK5IKJ3yYc2GJZsVjWlFVJVuRkWcrEoVQksBTGskyxjXVds0obp3gCQSuCgjxlpSjLEkVc9atFTVEWBGC0FrSirCsWqyV5lkXwREPixIzWVGUJaafsRUpaKYsEk2f79d4Keua4bJLepK5qlosFZVFgEjegATeOeOc4XZ5wsjpJXFPc6SurCjAa7zy5zinKClMUkGtCrlGrBX5RYktFZyy2BH1SoFY5rlL42qCWGbaAVg30xuErBQuDKxS2CIQqgzqHKo/nMhgzGIxnyAIsM/JVRbEo0UWMeFBKoX3cad15n4Cojn1YFGR5Rl4WkUvSChs82sS+y/Oc3GQURc5iuaBeLggqLhpZnuMJaBNByibjy5yjy/MctMIRcITIJUn0SJ5TFSWLsqQqcry3oCEvc5QBvEOHwLKKustMNoFJ0R1Bx53RTxYLCpOhQkCnLNEKUFrTDwODtZg86mPrRYyyKMuSsshReDKjKPOMPNMs6hJNIDMKkn5WdHpCP8YYQoqyEAZD5oJKOrTb5p6UEAImiyGXzluct+SFoapLUAHrriOEZL4L49PNctUJRzw/+iE6lfdDdKeJ6rHreo7bMi+v5di0AnR099BKxbTgWLqnP4SLH9MlfdNth4BZm2LailnY0nq9ZpXS1bjZ1l55nvPOO++wSOBzXOQ+ZpycTmLAH/3RH9GltD7CZod4Y1TyLhcslyvysuTQNjx58mRKg2MknClZr8R6GAkzThayuJ9pIHKWq9VqWsnqFNbidcAUGdY78iKGKQ3jQNs0aKNZnZ7d4DirFMSstSY3GYuqJsszhnFkdI6sLCnrim4c0YmjnUA0cZlKKZarJSbPccl1phKOVylGazk7OSEvCpRWOOcpks+d89ebmdR1DSp6g5s8o6rjpB/diEGj75yRf/1t9ElFaBy1ySneOKN8eBd7UpM/OOfsvUfUbz+A8yXZ/TMWbz3A3D0lnNbk9+9Qv/WAk0dvkd8/h/MV+d0zygd3Ke6fwdkSTheo8yX6fIU/rbHnNereCfr8FPXwHvmXH6JLjf3sGepiFxeCmdVSRMWTkxOKZR2/fxgoi5LTk9MoznU9znuqZIkfkn+fWEdl0ulkaR6TfnO5XHLnzh2yvMCrQD8M5HnGarEk+EDbNJiUbTcvChwBneUsVouoTkjSST9E8XaxXGDyuBgqHTnFMiuo0jg67ymqCmU0eVVS1FXk7EL068uznHGIxqGz8/NojFMKdOwTnRmquqLvo/9dUVfcu38frRTOe3xSgYihztlr1Y8xhm9/+9u8//77kz6NpNe+jWMbx6g6CCFwdXnFi+fPsbNEqc5FPJD5q2e6dhm3Y3CTv/04EpzFVvcw93+DbPVGDBgIbpImbyuvBTYUMU40iaIkP7b28Q9Rlz8mK2Js2m1H/OCY7580+csUcnR1dTU50gqXIavEO++8w3K5vG7CjLsTbkQ6OszSqPzxH/8xbduyWCyie4AC50P8m9gXo/eMzrLb77m6uqLre8aZh7bzyYisFE13YHSOYBSjDgw4unHED9epgub+QyEEDq6LRD/2kSDzGCC/229RWlOUFU3KehoIGHENEXcEBdY5mr5l9DbGVxY5u2aP669XPuGWxWBgsowh+UmJRrVLSt+maSjKAhc83TDQDQPKGDxw6Nq4H2tSKXR9j00Ej4bBWgbXoYJH3zml/mtfpXzvAauHb3D/Gx9Q/bUvc/7XP+Lkd77JyX/0DRa/9QHlR18h//BdzNffRn/1LcxX32L5W1/j/u/+NU5/+xuc/PZvUH37ffJvfInwwUP0194kfOUB/t27hK/cR33wEP3+A3jvAerdh5iv3Me8dR9z/x7Z/VOCHwhPXjB8cYHrLShFUeTs9nu2ux1KQVlVWBOdXUW3WZicoevZb7eMietpu5ahH8iLPOqz+p6mif6NQluHw4F92gylqiq6oae1A23bYHQEmLY5sN9sMSpy4L0daccebyIH33YNaEXTHDjsorNrWZYM1kbOXcHgbOSgraPpOw5diylyglGo3BCMZr+Nzu7eObx3HA4HnLNUZYXSis5Fg8PgouFMGc2u2bM7HKiXkaM9NA1NG8d9SN9pnaNJSQLGZEn/8MMPee+99+iSWwwzUVQWVGE+NJrMRFper9dcvLgg+JRWKEQu+Bgb+pSHcJny2c0PwQOjDbnRURTNz+H8A1R9D4g6f2FubiuvBzZCNKsGhVbgBdie/gh1+ROcj2LpbUeY5QUTdtkkS9M+efeLfkMAyxjD22+/zSqlmjku8uF+lk9MOLZ/8S/+RdSB5Bm9t6B1CsbOMXm0Arrgcf7myiQEWyRTfZnFlCidHSkXNYs7K/JFhakr8iIns/G9WeLy5HkAtcioT5dUdUVV15g85nnXWUZVV+RF9Ceq6poqWYOcc1F8yvKoiM4MeVVRLReUy5q8LnHBUxAHXCUze5UCno0xmCyD2f4LwnmIxSmKWxl5WZKVBYvVMrbNe/KipDLRTUApRb1coI1BZybed5qBDpjTU85/+0Pq997m7OwBDx69Q/72PVZvv8Xi4UPM6Qpb5PgyJ9QVoczxRYZa1CzeeoM7X34PfXZCdn6KOTslLGqy0xX6ZIlZLchOV+R3TslOl+hljVksyOoVapWj6wWmXKCKDD926PWOejdSqAwUUYwMnrIqWZ2cUFYlpiwwmYkbaiuNd5YyL1guFmRFgSlify+Wi8hheU+WZ1R1TZaMLiZlwqhTYH2eaMkUkcMVI0SeVB5VWYFROB0oFhWLsyVZWYCOe0m40VKYnKIoI8dIIC9LVqcrPOCdj+oAowlacXLnjHKxoKir+F6iQYfkzF6VFavliiLP6d2IyjXlIqo8yrpEZSomJ8hjqiKXxrhKQfE66fgWdY2eRfgURcG3vvUt3n333bgIJ7FPgG2cRS0opcizHO8dzlkOhxh7G6WLJadnp5E7TYAmgDgkPW6R9sKQdxwfUWftcOV9sgffID95iNI66dheXV4LbFHhSczJFiwhJCPC4Sl+/SnBxYBcPbNqyOQjgY4QRJ5SyIQUkiRIHWY7kIsoupyFw1y3JXZKNkufTQIY5xz/w//wP0Q3iWHAuxFTZpTnS1RdMAQb3VWGkd16g+17grX0jJRvnrF45xybWZzv6fYj7aFls75isayozmrGOmDuV5SrGr+zbPfR6VhEH0JgaDvCmzWrd+6iFzlN39J2PYfdgcOuwY+e4MDiKM9L8rOC1rbsdwcy4mrXtAeasUPXOawy1ElOfm/BetziXkSRXtxLRIToui5ar/NAdm9Fcf+Udujodg25ztkfGq66NRpPYTRhmWHePsed5YxjTzY6dvu4x4F3lsWqpqFnXGrqd+6QVQVu8IzWE/oB9WyL/vQ57U8+pfnpLxifX7D90c+5+tc/4cX3fsj+h5/Q/PgX7H74Cd3PvqD788e4zy8IT67oPv6C3Y8+pfnBJ3Q//gUXP/5zmp/8EvvzJ4xPrlBNjzp02KeXjJ++gF9uOPz8C9qPn2CuDoT1mvb5MwoNZ3WFDzFtU7tvOawPlHl0Pu2HEVvB4mRBWVdsNuuo5Feaqijph5H94cDQdpRlgcOxHfZk5zXlgxNM56PrSBrfMgXHO+cwixx/lmGKjM3VJYfNllzHsMN9EzkhawLFG0uKN1e4BXS2p9QF/a7jardFE/De0dJT3K9ZvHlKExqa3QHfebqmwztLtagIecCXiuyspn7jhF2z5bDdokaHCfF7rA9s2j2qziIY1hXWWZrmwG63pW0bMlUwNB1KOU7fOqF885T1cKDdNSyzmqaNhpAuJVb46KOPePToEV3ao0KnqKHLy8uJqxOQcs7iXOQ8X1y84OmzZzhvqRc1q9XJpKd0ST+tUrxulmWYXBNUoNCaIigsAZvr6NnQB7CQZQZ7/iWKL32H4uwNcJbgXm88+BXAFo0FKjjwFtAoo9HDmvHyYwqiH5UxhtPTU85T3JeAknAUsgqYpF+6urqadBrCdpJA6hjY5P85sLnk5Cqg6Gc6tjzPqMscVRjMosSaQNseMAFyH+Mey6ygzAxj5vF3CsJZjgs9vmvJ3IJMZ/i+53S5QOnA3h5gETcLc5soPhRFgXeOPMvIdVxL2xNPtioY+4HDdk8eMhgCfvCc1qfkJicUAVt5spMMlWv84MgpyYLGBxctkYXGaY8uDdVpxYv1c6p9XCSkT2Wl896T5QpVB8KdGr8o6JqObIBVvsRah1MjJ3nBwuT0JjCeF1gdcJsDi1FBXqJ8oMoz6mVF5wfCMovHzhIOjtANtL94QveTTxk//pz1D3/G/gc/Z/fJJ3Q//pjxZ7+k+dHH8MlT1KfP8T9/jPrlC+ynT/CfP2f47Andx5+x/+HPaX7wc9xPP2f904/JP31B+YsLwhfPcestZr0n/OIZ4edPMF9s8b94AZ9dUFztUBdXjC+uKJVGZZ5+aHGDY5FVhM6zKGuqRU039IxldL+AQNe2ZDpyxVrFGENjsvjNZYHKFGPmye8t6QuP2Vicjfnr5pNRa81oHN3C4q3DNh150CzLGjB4NHVe4bTDrxThRNGHgXazZ2ELdK/ocZRZhskUVAp1lqGWBmssalBUoUS5uAjVdYnTnkGN+EJhy8B+vyOznmVWYRxkWYHKckYcemGijnboaZtD3FA4BDKlyc2SUmcQetwi4M8LumBRfWDpc0YfwSpLLlW/+Zu/ybvvvvtKYPNJZxZCoChLfIi6wqtZCvuqqtAmGilEihN8iAsy5HWGrgqKvKAMKUVaWVCpnNJq8npBVRS40/fQDz+CoiYMLcoXUTfJy6GX/GpgiywiBFTwQMynFQ5PsM9/TG2uEzjev3+fd955ZzIY5LJr+yx9iwDbdrtlkfJgkTg7Aa233357UgYLsF235zqsSX5L5/7Jn/wJY9okRmdRv9K2DUPT0u0PKOvRAVSWkRUFmYp+Vvv2gLOWWhdkY8AfPH4ccf1IbjL84AitQ7eB7sWBbt+RZxmLqsIOQ3T2TG3pDjvcumN4vsM0npVZEjqH6yyLakFdV1jlWB82eBzLagmDwncOXKDMigiq3UC/aVDNQNZ4mieX5CqK8qJ/7OZZK8qMoi4gy+n2LWpvKUcFLtA7x7IoWOiKMAZ2mz3DvsdftfjLhnwETEaZ56gQCNbF9EEqZ7za0Ty5wu46Kp0R+pHN0wsYLZXO8O1Ac7WmGAMnFJQjqP2IWzdwGDjVJXXQ+LbH7jtoBvLOkjUWte/om46zkLMcNe1mx36zg32PvjgQLvao3rPEsFIZuhsITUdmA7p3oBz4QOYMi3xBt49RFTrTmCxuA3f17AXt7kCGYVkt8NZxaNokgud4ZwneRaNRXVFWFdurNeNFzNxxdnbGbrdjt9tFP8WiYNfs2O7X+P3AylQss4qhG2n6AYzmLK8Zu55mv6fd7Ogu94zPWlauIhtBrQoKY9A6+Vj6MeoFTYbuFGqAceix/ZD29gjRZ24YefHZF9BYVvmCyhQ0h45+GFHaMLqRfmgYmo52v8cNlkLFMLSh6ymqFau6wvUt6+0VXkFdLjAddNuWfohgJCqjb37zm7zzzjvR7WcWoC+iqIBdmKVr1ynJ5+XlJS5FNcx1dAJsOqlgnHOc+4KsXuCrAq1yyqJGFzlK52R1Rb/QmGGkqB+RP/gGzpT4sUeTR4BStwPba909QghJFI3gMpdqBYjEjC6imYDPIsU7qlkGAvl4ATTSO+Qas+wQtx3z++fnhYMxKUQFNNgAjcW0jmJUqNEz9COWgFeB4AO5Bb0bYd3BfsQdRrR3dIcD/TAwjgHlC5asqNsK1g47DOgAwflo+Rmip7cLnuwQ0FcWvXWUQ0blc7RVuNHRt0PsQBew7Ui7bmm3LbaPCtuu7XE2oJ0itAHdBfQuwHrk1EXOQQgsJB2FWKxCUAzNSL8+4K4aqgEy62n3e7quoVQlwWu6waPawGIHq4Mm6xR97/DDgHMjox0YxgHlFVnvMdsRt+thdJQ6I0fjhxHfj2RBUWU5h6Fj37Uc7IAzhh7PemjYu5EBH51S00Qfuz7asZSKrgsEfJHjSkMfPHawKOcmtxqvAyqPjroueJz1GK8wQ8DuBrpdx9AMeOsZvWfXxBxuIXiKEcJhwDc9eowb9NrR0nU9/TDggsO6+Nv2I2YMqMMI2zgZSQvumKyiYqhh9NirjnHToAaPQtGPA017YLQDzgcyn5G1Cn1pKdaeoteoAYbR4caRrEghe+0Ae4vZO+xVy7CPrg1j8vnCerQNZH2A3Ui+cZQdGAvO+WikGFrGvotj2AzYQ49rLdoGdNAoF3C9TTowR7AB0wPbkbAbcMPIYKNLlkhPwmgIvc3n220lzCKMhE69+IYmHd1xkfraTDO8ec744TvwO19l+bvfovid3yD8xx9g/taH1B+9iz1JHKGPzymjE7f26vJajg0Cwcf/wUMwKK0Ihyf4i5/x9v3TaS+BfLbdl7gxkEzEoqsQpN5ut5NCVjpPRKw333zztRybiJ4Cljrp8f7kT/6EZ8+eYYwhL3KqsmJZ1qyqBcuyjjq9LIZbmTyjMgW5MpRZSZkXGK/RXnG2OGF0Hl1kVCcnUUwzOVlekWUF9aKkLlK86Rh9neo65tHPq5pqtSIvSkwWjRHRuTk6fRZVjtIqKnfLimADOYa6qDE6ihFZkaMyQ7VYUC4WmLKirJeUdUzJI8Av7jJKKfIsw/uACprcKapgKLOCoipjAkClCUZTLBdUVc1JWVOXFbrIKZY1RZ4xOguZYXF2iimLFHpVUNY19ckKUxSM3mKKgsXJCST/K2M0q3pBrgw6KDKTsyhrVotljHLINKYuyOuKvC4pkn+gyg3WBZZ5RZWXFEVGVVYs8pKFyqLP3dmCwVu6sSerCsrlgmBM3McyWLRXGJ9RmgpCYLFcsFgtMAYWWcGiWnC2Oo19mxVkWUFV1ZE7K4sYOlanvggK5aHQkXaylGGFtEl0Jps/VzWrsua0XGJUXFDzoiQoRVFXlFUdfRMXNbnJWVYr6mrJ8vQcqwKDG8mzjCLLKYuCyuQopwgOyqyiygoIgSovWC5W5CYjM9FwcK86YVEuyEx0EvZEf8nVckVVFCzqmpPliqooybOcMsvRREajXCwxKAptqKuKLC8YB4d2ijIv8cmoJlLAt771Ld56661JFCVJCXMdm3BsJjmLqxRpZNNOYqvVitPT0+hKlMBM5rxwgk2ZY776JvbhkjZ4tM4JWYYzhuJ8hblXs3/ynKDvoe9/DVdUaBUwIfqDvopjey2whRASmxZF0RB0lJkPT/EXP6XUcTUTcbNJSfVs8mUTPxY7yy/mkh+bsL0CUDJJHz58yGna6OVVwCariqwsxhj+5b/8l3z66aeE4On76LndDz1t301m7WEYeHF1weHQgHWMXU/wxJ3l+5HSlHRdy+V6w65pGLyjt5bW9nR2xOMwwcf4zu2OQ9PEiIEQvbh7AiEzjN7TdDG4et/s2R/2sU3e0w89RVHiXGC/3uHH6GHedg27dkfTN7RDz+AdrR/YDy2HcaDKY2bW58+f03Udy5Qz7urqKnq2YzDKYLuRdt8QnEPncTPkx1fPGfwYQ7aCY71ds232DMGhjGJ99YKL9SWds2RlSTsObA4Ngw+oLGOwA5frNevddvKp2jcHmr6j8J46L2m2BzaXa/xoyVTG0A3stlv6vsWoyDlEMakhWEdmDOuLK/pDg3KBoigZx4HdeoPrR4q8wPqRi6fP2FxtKPOcMis47BqafUOGZlHW2M5ydblhvd5Ea6iB7W5DsztE65k2rDe7yHGlSdgNHYfDjr7vUmYJRdO0tE1PoaNrzDalmXJpr4gmpbIKPlCYHO88l1cbmrZjdCOb3ZZDs2fwDp8ArGlaRucZnMVr2DQ7Lp49ZRgjZ6d8wHUjfduDMZiUOXhzdUXTdQzjQNcPeAfegfZgrYtGqTYG9Pddjw+e0Y6EECNSQggMfc9B9oM47PEhSk5ax7nT9iP7fcPY9dgxJllomoYmbTP4m7/5m7zxxhscDodbgS3MRFGZ/1na/+Py8hKfrPJiJLSz7QlDcpA3xlAvlrz59a9Q3jmhu9pSDFDmOa4f6ZqGbbOhefwCU75F8eA38FmJchZs3NSJV1hHXwtskUvjGtiIugGap9gXP2bYX07AJaLROHPME/HUJx2biKDb7ZYq5WKfA5vWmocPH3J2dnYrsDGzgorYK6vA9773PZ4/f87JySlVWZHnJUFrVJZhspxMkkoqRVWUMQ+UNuisIGgNQVMWdfQU14pMGwpjWNYVZW4AR240VZ6jlEarKFLnqd6sSJsyG5NWZEVeZBijUCaQ54q6rFEqumdkKsPojMLk5JkhaE8wAZMplIYs19RVTZ7HqIfF0cbFwhEDFGnnnzzLQYE2miK5sIxjjyo0y7LkbLFAG+jCiCo1VZGzLAqcChRF9Jyv8xIdNHjIdM6yqsiUxihNpjW5MTFhJAoNBAN5WTM6h8oMWVXGCIUUrVEYQ11UVFlOpg2Z1pFTKSta58jKgmq5QFUFXoNXoMqcvMwpXCA4R11GB9osy8mUITM5OkSACV6hVDRQ1cuaLNcE5cmKAp3GPQTIExeTZwWZ0ZRlstaXcY8GpWMWm7KqybKoC65TUklRc2TijR+is7ZXUXGeF5FmijyjrAvKIscYjVawXNQEAmWZo7RHOTg9P8NkUf9l0OgsI+Q5RmlMiMrtoqoo65qsKNF5zjBaykWNKQqMjhsa+eSrVi2qSCc6LvrOhcnR2uQ5Vb2IXGiek1c1Ks/xSqOVifsV+Cg15Ul/XVUVv/Vbv8XDhw+nECuS9HWbVXQ+jyU5w1yK07Mgd5PctQQ3ulVG8egu2d0TikXB4v45/ryk0QPj0LN40VHsWkz1Fur0fULIMd5jTEWMIPhLcGwiiioVkqeviRxb8xR/8TPuLHMePnw4+cSId7ZMurm8LWIqM2ArU0CsdKoAm2zwq5J8r2ZWUeHshFMLyTL63e9+l2fPnnGetszzKexFJ+9uax3eRotUWRQxaDtAUIqQiHoYRpq+oS4r6iyDfsBYh7Yjyls0gb6Pq5XScVDHMe6YBJBbh7HR+GCHDjcOdH3LaHuUVpwsTnE+0LQtBEVd1Sig61q8cugsZv7wo417BuQlJYbQ9ezauEeDiEWHtJuV+DN5a+NK3rcxlMhZmvYA3nFyukL1I/bQMAw9oTbkdQlNz7DdY3U0XKjB45qRzCvqJKqPbcvQdRPAbS4u8aNlWVYUOmPoe+wQHUtX9QpvA9urDW50VHWFLjNGb7F4dGYgM3TjwOawxzjN6XKFUYpdCqxenawIwHa3xSYRdHF6SjP2rA97VFmQL2rCODB2A0M/Ui2WeKLF0LqO5WqFzkv2yRFVJTDs+57DoWG0fQT4vme3b+iHEbTB+ZDihqM+7fT0lF1K2GiSz6P3ntE6XAhUdU1exgDw0Y4QPJn3BDsSRovRGXVZ0R52BDuAtdRVjc4MXT/ghsitW6BxFmdHGEaGcWRwFhvAFAX1cokLgXZosdZFLs1Z8AFtDEVdgtY4G7McD+OATeFmgx3px5GzZdwXYte2HIaBru9jogSITEvyb3MpfOyjjz7izTffpE8JS1UyHlym/R+YiaJzX7fHj+MGyV1Kq9WmNE0k/blJKifBhrcp4XLH/s8/Q//0GebPn9P+6adkf/6Cu08H/OWebN9C/Sb53a+TFSuy4PHBEFRMWnlb0WESOUPMMuB8PKyDYDDKovyAVhodGtw44IsVKjO88847U3qTL3/5y7z99tt85Stf4Zvf/CaPHj2auCtmqYnEa1k+TIDJztKmCBjK/y7F7sk5lQwSNjn3Rl1WTNInwd/N/oBte3zT45poZYqsdgs+Bu7acWQcesb2QLvf4MYO5SJ3ud7v2TvLkBtapWg9HNqesY/ibcg0h6Fj2xzwITC2PT7A4GKamMGBNzn73nK1azkMjiZYRizejthmj20brBtox56r9Z6rq4ar9YH9vqO1nmYcsAachubQYIfr9Eptyu/Vdi2jG2mHjmHowDrCaBn6gcE62tESyLBZHr/DevJBUzaKoXPsRsdowSnNzvZcDQcOriMUMPieQxMzCVsC+7HnotnRjD1DyuThXIgizehQRjO4nmY4sNlf0fUNQ9tx8fwFzx4/xfUji6zAtwPu0LFpN7g8cBhb9t2ew34Xrdc2GhL21uFNTjcMtIeGMFoYB0LXYseRfdcyKouuYN9uudxcMo4BnEE7he8s26sYlJ4Vhm5s2TUbunGg7S1d26NCQHmP73vC2NPs1vSHhqqIMbrb9sCLzRV9soBjHd1uS7vdMOz32Lan3e7ZvLiia3ogo2lH2m6IudWAvKho2pF+8FjncP2I7wc8js4POG/R/YAfHU0I7IeBQ9sSnKNQCmVHfNfgh4Ghbxn9iNeKi92G7WGPHR2amOJq6OJCg/MMTUe3PdCudxy6Bq8CJjh005B1Hdpaejuy7bopeaUYpGROCicmaqT5b5nLUsQKqmap8bvZPg3Cuc3n/jY4/ODJtyNuF/fXCE2Daw6MtkG7HmcqnM6jwScERm3wusf7MYZP+mgMlBAjhUL9JymDriKejCAHhEDQBk1PcCNKZQTX43VJOHyO/+F/xXt3Mu7cuYNJaapJIqVYkrbb7ZRCezXbdPbTTz9ltVpxfn7OkHLVCzf27W9/my9/+cu42S7ZUtQsGaAYJEIK7v0v/8v/kj/7sz/j4cOHkFhr0iqhZo691jlMFsM1yqLAJUsOEtxPXKn3+z06xYXaYYzB8MYQXMCpQDCKQ4qDrfOSXBtsH+MH45Z1Y0x/k1L2BKXIjcH3I3505CnNkCOmo/Fc++tpFVPZ2NFSpiypOi0MKvkF5el8N/RoFFlQoNL36mg1klUWo/EhebW7+J4seZ1rrRmIxOGdY1HVEGIaP0IkGOcdusjphp5hHFlUNcp5qqJksFFXYlM/25TKR8ZnGsMAISmm8ZGoN92Bk9NTxn6gzGMUirQrALqMimZnLZmO6YLsGJXv3nlQMbGWKnI2m6iHW5Y1fdtS5EUKak+KbR1zrZqU2UIbjR0tRim88zHoXGuylGOw6VqyqowZfr2PBiMfpjhkY0xyN4iTuG3bmPxARzpZpAzHMh9EdTKGmLrHKI1OsazexTRSWVXQO0tzaDDEDMA6MQUaxehickqXsuXs93tMnuKcA5gQXZgkLE7p6Hc6fb/zaA+FiYa8zo6MSf8Xd4+KGaarquLv/t2/y9e+9jXW6/UEShcXF3z88ceTfsymHepJYOWc49NPP51SEoloKxwaKcW9S6mRAE5PT1mm/VD0LOedgN9+v2MIOfaN71B8+T8jVPfReEKwEPnNaa7P/59E0egxI2xd+l9pCDY6+ilF8JagDIw7wosfsDBxI9b1Onp2D2nDi/V6jUk7d48ppztpgEhyeJY8uucAprXmwYMHnJ6e3uDepLF6Fnolf0tnfP/73+enP/1pVPh2A1UeHWglKV/fdbT7A/vDnkPbRIumMXSHFtt0qNHR7fa8OGxpDg3b9Yax76cV2bUDOgFm2zRs1tsoQlpLf2gZ2i5mwjAZGs1+t2W72UQCRnHY7ditt/Rti+vHaw6ybfDOEVKKpfbQTA6/m/WaZrePKWzKIvb1Zk3TNJEb9i7mtV9vyDxopWkPDe0hOmdqFM1+z4sXL7Cjpc4LxiEq6Lv9geA8mTasNxt2my3BOuqipN03KdVRT6YMfduxXq9pm5a6jBsmv3jyjO7Q4qwjNxnN/sDV5SVjP1CVJTZtLH1IymgF014LcSwNlxcX7Hd72v2BRVXHjZmv1nRNS5HleODy+Qu2V2uqvCDXhu3VmmZ/IIwOhYzFmuZw4HR5gg6BJ599wdDH9E9FnrO5WrO9WpNnUTTs2pbmEBXnGnDDyH6zY+h6jFKs6iVPHz9hf9hTFiWFyThs91w8fU7XNGRF3Lxmv99PC3pICRrb3Z4MTZWXbK7W7Dc7msOBsY87az2/iqKc8gHtA+3+wHhoyZUmENjvD7QpIakfLdu0qbQdBuqyYuwHLl+8YLvesE/prvq25bDeMuwO9E1MXnrYHxjTIjMMA0Pb0x4OtPsD/aFhl4wj2miKIub6k/0ayrLk29/+Ng8fPqRPm3EXRUHfxzRbAtICVqJHH4aBTz75hE8++YT9fs/pafSaEO5PMMAlHzcRS1VK454ni6nM6zEFw3sMfvkW5vzLBFOncKqQvNVuqqsmrOAvVOLKfQ02USR0aUebJuVpF7la2FURL4UFHVP6amnAvEjdIm5K/fKM1MnMhaRPuwNJ5zjnqKs6cmwQdRBE7iRTmjKPmyQXZYFRCjdEAjNBoV2g0hmL5YqiiqE5RTKZr6oFlcnifcktINOawmQU2sQsqEpH4nSO4ByZMuTKpPfGeqK5PacwGUZFPUBGVMwXJirWw2ijlTNAoUxUuCdDhUkKbJN0i4QYM7io6qjMD6CJ7VM+qhY0ikVVUeUpZRGaQkcXgiwlk8yUpspydLjukyIp+43WkOrNUwYUFZLBQkfQ9tahQnzGKE2wPr5bXY+7cHBFUSRxIaWVygtM0isq5ynzIubSA3SIefCKtJM86Xqe2m5QqEB0bcijmwQusKwX121JVue6rFA+MA5D/BalI7iEWH+ZF2RKgw90XdytvsjyOJ4+kJmMuooxwPJNMlmFnrU2MXlkCFg7xt3rq2rqyyLPqRd1il+NXHme+j5HoVwg15oiL6IzuQvRoFOUaCLHlelojDldnbBaLMl1hkJR5jmLrKAyGauyZlnVcTFImT68c2RKs6xqlvViWiiUCwQXOWlR+KspVOp6x7Mu7eEhnJSa6bhlfpOSXdy/f587d+5AUg9JPyFqr9RnUrfMZ2GMBDfmursbRVRnEyMmp+PvEMLMeDA7ea2PU4ljiylCbnJsP6RSUcbOUkC4SQpWMSAI99anjTYyyYJxOJCnVDkuhaxIB73xxhsTxyYdrJNYxSxKQVjhkDIl/Ot//a/57LPPePPhQ3IdrZVBcloljtBkhmpRszo9iVallOE0iiOOLMvxddpNvqrBR8dOo3XMgBECNkRd0mK1ROkoxtRVxSoluLTJEVJnhqBU1Kl4RyBm5s2zDJLZvV4sKKoiZXiIue1FgTsOPXke0xSFEGjHOPhitLApE0NZVZwsVwSbcogVMdBbct9rrblz7y5KaYa0R8BiUbNcLBmtpR968qpguVwRfKxXa80qmeldav/J2RlVXbHb7/HOs6gXnJ6cMFqLTSLSScpePAwDznuWJysWaWNf5xyr5ZLlcsnQD9gU/H//3r0ozo0j+MDJyUnMVjIMuOCp6orV6gRrR4Z+YJFCdcTh1Cs4OTtFGx0TNDrP6eqEuq6xztL3A3lZTJurtG2HNnoCKOcswcNiuaROaYr6ruf07IzT8zPapCfSSsXFQ0fDFLJ5SqLhvu8p64rTRdwUW+haLPzWWoqy5OTuOVVZ4m0My9KoCOzO03tLVqVg+hAlqLqqJ66naSN3OCb3KZfE/9XJivPVKToQ/Rkzg+SNC8BoR05PTliUFYpoBdVGk5cFIRkYSKognza4+c53vsOdO3fokh9bSBzpLm2wLXPKinohqX1evHgxPSM6NuGm5JDnXNqYSGt9w69VxNIuWU69ygirt9Dn74Gpiek4Esd2ixjKtVU0IZlIoPG/+FAYE7AR/1cG7A7//Af0m+cvcWp1XXP37l3Ozs4gWUAPh8MEfqS9ArKZKCoAppTiwYMHnJ2dTYA2BzU/cwERjk0la85nn33Gxx9/zMXFBbvtlvVmQ9Me4gS3I23f0bQtLsSEdYf9gf3+wND3dEPcbGNwjl3f4kYLIe5Ytd1taZPBoBt6mr6LBGM028OBzYw1tykl0na/o7Mj3dizTnX048BiuWR/2LPd7hiSDq63Iy/WV2wPUV+itU7boK1BK4qy5NAceJ62FhxtFO2bpol7KaTx2qbc/GhQmWG93bDZbrDOUVQl66TvbNpmygB7tb6KOhQTfYJ2+x37Q0xfo9JuVpvtlq7vKVI6nidPn6WUPXFBu1yvadqG3lq00dF3ar+ladvkBhFTSrdpg2HvPVeXVzH7sLVkSVe03e3ohp48y+iHnvV2w7Y9YLIMbTSXl1dcrddRx6jgcr1m1xyijjHPaJLFrm3jTlGewNVmza7ZRzrWOv7e7+JCYhRt37Pertk3B7JkPb+8vGS331FUJV4rnl9csN1tGYaew+FA07a0ySfRZBk+BNZp+z+TGfA+0V4cK2UM292W7W4XnaC1pmla1uuoUuiHmGro0LZsuwabdK1N27BvDtj0TN/3XK6vGOzIZr+lH3r2h+hLiIox3bv9jm17YN817Nq4Uc++PXDYH6jrmmEcWa+v2GzimA52ZNvsudys2e1jVo5xHHnrrbf4zd/8TRaz3bpcks52u13U2yYmyM+yZQ/DwOPHj1mv19MzwnjIHNbJkipSmE7ZeYQxEmZF3ue9wytDWL0dRVG9SC4eokdPe7Qci6P/yd/7n0KYlMU3OTavFPgumqoxBNcTdEVov8D/6L8mOzyJweBpRSrLkjt37nB6ekqeUjJ/8cUXXF5eTqyuUoonT+JzZ2dn9GkTV5L8/a1vfYsvf/nLUyfMi3CEarZdWp7nLJdLnjx5wve+9z2+//3v07cRxEjijkkZTmO2XE2WZ7jRoo0heBe5Om3i92dR2VrXNWM/xID3POoFjDKRu9PgUlJG6yxYz7KqwcVBHmw0BmRlgU+pkrI8jxxdN2D7IYomRYHF0449IekZtFL0XRdT3OQFq+WScYiZU51zhGQgKIoYBBwI5Mbg+sglaKPJkiLeh6j4L1OSQlF+53lOkWX0XRf3PMijLmrso/VbhTAp6L33+BAoFxVj8HRdS24ysJ6TxZJ9e0BrExMgpo2Tg4qEWxZxpy7nHMH5Sfx0YyTqjui+0hwOGBXTRVVliXcucoI60oTRmqHr8c5TlSVGK/q2j5xd4nKcczFFlI/iW5YZmqZFaY3JMozRcbcwpWKfpSSn4gUg4mGf3CDyoiAYTTv2MXg+gO0i8IZEm1meo42hTXuH1osFRimGvo+pkBId9X00umRZTHkUvI8p37WeDDVaabxR6DyL6VzHGIhvVNx701rLYEdWyxX7JqY0dy7SltKK3OSQ1DXOuZhdOPEq3jt0nkUVgXPolG6sswOjd/hkTDo5OeErX/kKH330Ed/4xjdQKZJAmI+2bXn8+DEvXryYGA9hNlziyj/++GPW6zVqlviiTO0nGQ/8lJUGzs/PUckoKNKKMC/RXaTBmQr/8LfJ3/tP8cVdVHAo5VHKvJJrU3/z//Q/BoRLE3k2ia+BAL7DjSOYnOBSBoDuC7of/bdkh8+iUyhxwigd9TCEgA/RAtn3MYmiTm4Zc2ATVlc6ZrVa8Z3vfIdHjx5N7K90SJZyn52cnEyZQYQ4fdokous6fvrTn/LkyROeP3/OxcXFtAFs/LzAOIzTpiN1ytSr0wYrIYnj+/2eLMtifjSjMdpEnYnJKIsyRhUMUbwukkI+pnBW0dIaPG0XRR5lDD6I1TEmstQpI7H3nqAVeVliMhPjTvsBI3npx5SEM/kItk1LlzKwrlYrlI4bBjvnWdYLssxwODQ4H51L67pmt9/TdC1VFfUyox1p9gdIK2lV1az3W0iZWQXQB8nOmzYDaYcODyxXK8o8Z3N5BSFgkkpBxlkZzXKxiJEYXQ9pzwCjNYf9AQUsUgjaOnFTzo6crFbY0dK3UYwpFzU6z2KWVetYpCzF4zDQdz25iaJ8N/S0Yw8oTlYrVAi0TQzXkUklwFKWMaSqH2JMLAGWywUqQJM2s66rmrqu2G53dONAUVexD/qedt9QFgVFWWDHmOVFp8XFJyDxPlos67rmcIhJJaPlDpSKQBYIhBBVI2NSvJdlSVYUWGcZ+thvmckIsnfIMHJ2J2bPEQOM0joF08eMuIqozrBJTaGSxdc5Rzf2kHSj4mSelTnn9+5y9+49Hty7x4MHD/ja177GgwcPcClFlpnlUeu6jsePH/PFF1+wT4kpXeLK4rd7fvazn/HZZ5+hk0+qZOqJ3FdcVG3Sq4k6SsbKiO44gVPwMatQn53Cm79N9uhvEIq7KOUh2OSYraORU6yj6TCPfu9///ejvBriA3higKhHhZFge6wd0CYjBI2yW6rxgv3lE3IXd7MO3kcDqnfYocdZSyBEh8eZk67I5Ye0u3VRFLRti006gwcPHvDuu++S59GZUkRcUVqSVqP9fh/FxO2WfdrtfZt2f6/rmocPH/Lo0SO+/OUv89577/H2229zdnZGnTzJXTKHCzss/+fJ1OxnO7/7tJdodC9Q6LR5jE8Ovy49O47jpCsjcZRd1xFcVKSPwzDd63w0yVvZkEbrWNdoIbk3jGmvCJ/8+IqioOujAlclC7F30RI1jiPa6KhPmZnKtdYJCLro1a41LimCbUqJrrSibzvsaCO3ltKJ931/zYU5R9d2ECJ3KBxV07aTusCJCT+A0TGPfp9SSIsKYhjH6NuloKhKurZl6PsYxWGi5SyK15GjUiEwdPG9QvTyvSFJIS5twhxSksbgow7XpdTrKnFhNhmtVNqNq++6SLeJpmTiZSk65dA02HGMO0GlvWv7YcB6N4mgzkdtm4TsjWmim8wQiLudi4omJHqzySDmw03/TGMixyp04uy1r1d8Lu5QJWNnbfRW8CkZw5h2bRMa7pNC3rnI0VVlyZ3zc958602+/P77fPitj/jOd77Db/3mb/GN3/gNHj16xOnpaRR5Ly9Zr9c35tkmbX4j8yLMDAg+iZTCwQ3J4pkdbdTiZxzlvL0qLfJu5ifnvUcFhw6WNrsDp+9i6vugIyOFHyLnNuGVOOtGwlB/4+/992EyFiSLZ3TJDxA83vY4N2CyGN8Y7J6ie8zVp98nv/xTVJqYRkelpLcWUtpelVhKIfA6eW5fXl5S11Ep6pzj/Pycs7MzTk5OuHPnDmOyOElnzFFcJXZz/nt+XjpLVs0qZZoVAmnTDtm73Y5DSqzn0r4LQhRCbDrp92QQZfBkpZJzsetiG7NkqpZ7BMzlurSRNHgkEXv+e36vFPmGeV+Q7g0zA4tPogHJj0gmj7Sd2Xvkmfmk17NUNGEGKFLv8XU1s45Jn8yfmbd1/l6TFgipU9o+f498n9Qxb4ccfrZptUwkqbco4qY387GQhe1V40cawzGFDYmaRGhCvo80QXUC9Xn75jQgv6WtUuZ9Iv2sEzAcj4+cm0socl3aEZLSXYBGSpY2j7537x6r1Ypl2tBFCVinjZf2+8hdSv3SLmmjvE++UfpCJWlLaGwcxynuVJgSZguuiKJD2hNXgG3e/1IU0f+zrd8hf+s7FPe/CeUZSsdM3kopUDqKpMqgTPwfpVF/8+/995P7WmR7I7AFQU7bEVyH0gZrPcF2qO45+yc/JXz2PxIAo9S081EI0ZIYEpr62cotg1mWJe+88w737t0jSy4AIQFPkXY+nxOePMdsIss56dz5kSfrjv//8vZnT7cl14Ef9svMPZ3pG+5Yt6ZbAKqAAkAUSbFJSSTIJiUF1WqpZcpSR9gPCj3Yku3/wZZa/4H0oGjpSU96sM2WomXJClvdloMUSZAEmk0SY2Eq1HTv/eYz7jnTD7nWuXkPviqw3W1nxPm+M+ydO3PlypVrXkKccklNXhTi7iHVp7UvZPEUQbSlz9W+U6RJx3bbwnDQB3Kd3qf33Dafw3v0N0Xm25r2rZuXW57/SS3dJDbhwm6DweFcFckPCZzeqzA7vD+IzxJCOJCNGBKiqJtJYZTer5vPJe4+uuZKJA77OGx6zZ6rTCqj632KF4fPT8eh3ysc9bdDOGg/6TX6m16f3qvX6X23/Zb2axIvBYWH6q4G4cRbURvoIZ7i/eH/tOk40j1gZN0VborbXqSYRipRRYPY9f5eJXJ6cGj/Oi+IGrEuZITjx1SPfp7i7ptQHEW9qR3BxBhfjMNaB9ZhbCaE7T/8/agQQwibF4WqfDf2NWHYiazuYewI9Rnd9Qf0H/wBXdPSDz0WiFW+NLxhwJkIBGVfW3H2e+WVV3j77bf3+o90YlaoPgdESwGWTvzwmtt+v+0aJ0YHK6d8WUYlt09O/xRB03sViQ9f+hxdfB1v2of2SYIAes9hP2nTexXZ0r4ON+9tz9V79L1uBL1W3+s9en16jc47vSfd0OkY0j60pe/19/T7tP+0b312SLga5eZv60M/2wSPDrnOtKX36GefqE1SonbYdK6Hc9Z7DtdIx5DOUeGpROgQTof9f9JvKay0KfEywpUPontTeJqDw137Pew//XzYtK/0GoW/TTjzjz/+mA8++GCv7zaJcSGds87DmFjtwJRz8vufo3rpK2THb0CxIKbUAmOLqGezWXw5fe8iYYscVuTSvB9BCVsIDP2OMMQ4Re89ZmwYbt6D7VP8+V+yFW/5cRz2HFsYPTCSSfhPJ452SuDu3r2759bSxUwXR7+7DZiH1x++SMSdtB/tK+UsgnANisiK1OlGT/s9bOlv5hbCln6+rU9Fcv18ON/0uemz9Dr9Lr0/CBFI79Pv02u1HyMw1zHq5k6vTTej9pn2T0KcDn/T7w/713tIOKb02STEUg8c7U/71nsOYZ4l8cf6XTrHQ4I1JgW4tR32m3KEKdzSMaX3peMjWQcOiNwhTNKm65b2l36n7fBZ6di177QfHYuO43Bsh89In5Ve45Nau2n/+l/X9fr6mvPz6B7mDtLbc4DHChNrLZOjU6r7n8Pd+wJm8RiqY7AZLnNYp4RNCJoTAncbYQteguB9tDz4vib4LgbWEqC9pv74L8l3H8HujLqu6eoaH2IZN0KsLOODx5iIAKrwVoBMJAmdIooCTZFHgZK224Ct1yji3fb5EGD6PCVm6WbR35Qg6nPSDaPf6fPT73Ux0pbOQ+el16djTls6P/095STDgaim3+m1XvQ6irA2ScVshUtN56xw0Wu1fx2rlUNCkfgQRoew0XGkYzfCKeuzdPz6HN0YSmDSZ+t1aZ/aDp+r89LDKx1b2p9+TscYknCelIjpPSlual+H8NOm1xy+13Y47sPv0u+1hUTsPPw9vVfHo2NUhiJ9kRwiaZ+3tZ81JpJ4UCseBnqtwm8YBtbrWCCHZN1VFNW103uMMTgLs2mFOX6dYf4Ye/JZsuOXMPkkphxzRdStCddmnYPbCBtBEE44NuM7xqHGmMA4egyesHnK+od/QLl+jxA6xl4jEyJhND4GYQcMg1hFvSg+rVQzv3///v5EVSRKgW0S8SMF6uH7FBj60j7sQZpjfaVcXIq0+rsiQ/oMPcUPF1j7VqKBcB46fmTBtV/dcOnvNhExtV/9r/fpdYqE6bO1pc/TOQziFX4bHNN70+ekv90GD2QsJGuVfq/z1PFrP3q99q/zScdxCAeTHHS6ltp/Co9Dgqlj0j4O5679H7YUBgrPlJNE7kvXTjdzOhd9ZnoYeTkUDq/Rl353+KxD2CsM0+sV9/SZSmT0fXqPwkj3ZTqGdP7pZ32WPk+/Vxz04lepRig1EISDdVNn/VY8HoIYPNK+9b0xBhtGCtPTTx6wq14mu/s285c+h6sWBJtjjOjTrMMKx4ZycF/9P/5+HGaI/jWICBoQndvQYozkPyLg1x/g3/t/cXfzPWoXq2AjfjkhxKo4IchGlMnoBPI85+joiC996Ut4cdJLESMFRLoYhwDW/7qJg2Q7cEk9SC9ciyKmIlIKvFySX+oCGXHTmM1mL+hx9Fnp85Fx6aJp/z4hqopwKTE1B5yS3neILCbhtBR+6lumz9T564YJBxyHIrY+Ww8SHbvenzYdn85X+9bNputjxRteEVr7VbjrvXqPSYiUzkc/63rr3PRZJERG+9DfRxF/dJ1ysWiTHC5qkEjv1+fovHSd9PdOfC51XPqbS7zidX20b51TOg99ho5H10nvUY5ar9d5puuj49A9glgXFf66dul/1akpDEcJrUufn+Kmfp/CRuGmTcdl5bDUa0epGWxMjx8c7eDJKyiykeB7huDwPmYG7rqey8tLri6vaZpoaGiaZh8upjBTuBpjsASc8YymoHcThvu/iH30y5h8Fv3XbCxVYEz0IWW/d2wkbDrB/f/9e0MYW2LZ1YyAJax/gvnJ/8iD7ffYuhj6pPfp4igwBsmAYMU5VxH+tdde4/Hjx3uzs/oZtZLUbjKZ7DeLLmjaiqKMMXFGPZnjglqrrG8ETroJlLAWWhhZsgl4sdrqQlsR1dTKQ3Jy6tz0Or02RXhFgiyxSpEQEp+ICAoPRUabnIDan16rz9fvhiHGZypxSu9R5OAAiXWDKNFSpNY5+ISgab8p0dIx6nNUxBmG6GPl5GAxt4iW+jwdj45D4RWSQ0TnqZ/TseoY9Le2bXGSVVgNUUVR7D3blYAqXIIQ/zEhqrpZdWw6JieKb914SjjTNdGWjp9EbNU1GhNVgE8Im96jz9Tx6Jh0zE4IrxI2/aywG8S6icyfhMAH8f9rxEKp+K5rrfBJcWoUgpjinOLpJImPzbIMzw5jp1ifU+WW3m9o+x43VrRNy9X2nNVqzfX1NV3b41x0EF6tVvsoJXsggcS5gzWRDo02p3vwS4RHvwouFomKhExgfkgYv/p/+sMYaqDiaErkgDB0WDPiyQGLX7+Hee8f8GD7bbYuxoOGW1hZ/Z8StnEcOTs7IxPL6J07d7h//z6z2YyXXnoJY8w+5VGKjLrgOuh96mPd2LKpC3Hp6NqYJw3ZoFVV7QEYJJj34uJin0ZHnYRJDB1e2GtFUEVEHZPO0cjmStnv28btk8SY6b0kooc23TD6POVGlBDoM9Jn6cbQvpwQJuVAXCISpL97IWZeuAeFkTadvz5Pn28PiLcSad28en16j0mytCq80/HqPBR2PhHfDmGSwgWBmXLrejCl65ber33ruHWcutF1fkbWVu9FXJWUeGvTaxXnFH56TfpZ1yD9TV96jcIrS/zh9B6TEOBBVA2HsNJ5aEbr4+NjXnvtNU5PT6mqirquY0zsek0rjrxISvAgOKOET+dGsjd03fX5Q9gRsik0HhN2XJdr1lmPWY5sf3LN5fmViJ8tmcvJ8wqIsdiLxUK4vhe5tfg+Ot2GYAi2oHv4y/Dyr4KLYZXBqBQFGnmw7yMSNmkHcnUwljD0kbCZHIwjrN+DH/+PPNh8m51byG3PCdnh+/V6jTFmHwb10Ucf0TTNPuvBkRRa/tKXvsRnP/vZPcIpF5eeps8XVmoKyomsjr9t2xK8x7l4qhwfH+830vX1Ne+//z4/+clPePbs2T6HnCIDAtDVakWe51RSk0FTMk0kRtXIhtWFN5KcTwmokVNVCYpueGTTK5faNLEmRCYxtH3/3Htc/exSoqS/DRKlUVXV/hS2iQe3bgI9tXcSfK7zqeuaRhIgqvh+c3Ozf59lsWiMPke5Z93MqcjvE91pK1l9q6piPp/Ttu0LcAliRNJn5Hm+9/ZHCEZIOETdsJvNZv97UcQ03J1w02qA2klOtKqK1aXW6/Ue7kr8lKDlwqXr+HXNFG5BKoC14usVJJGp3pOJ867iqUnS2us1OmcrGSo6SaY6nU6pJVpD79V+dM2cxJ72fU9RFBTi42mTjLWKBwp/xZVB/EB1zjq2oig4OTnh4cOHfO5zn+PNN9/k5Zdfxjm3d6bdbDYxSYJE7yhx1H2lTfdLLkr/EAK+69kAu9Ulvbti/WZH/aph9+EZ2//5Cv9eyTh6uq4nywqczRhHT13XLBaL/VqnLe41CDEFK9iC7uGvwMtfhWxKdN+FGDH1fP/KG9zj3/oP/o6RWKvoxWuijGos2AyIqX+MzaPzW7/GrH7MrDtnsHGT6kupu/5XgIdEx9aI0vDhw4eMUjDDe89ms+H4+JgHDx4wm82YTqcUEj2gZbw02+ZsPmcur6OjI46Pj5lOpxwfH/PyK6/w8suPmEwmbDYb3n33Xb72ta/x+7//+/zRH/0R3/zmN3ny5Am1lP/SVyY1UnXTK0FJiasSNN0EuTj+hqTqjiKdEiISLsMf6K4QcaGULKTa9Bo9SYck71dIONU+SY+TJanXvXAiivT6rFxC1XRsulZKcJXo6NrpmnXiD4Wm6hGCv9vtKBLvft1YmYi2SphnkgJJ+zEizigRQAgXkmtPW1mW++vT9UjHr31aa/eEbbPZ7GFQShGcXsRmvSYknKuuzSjcaSWhSzo+rY+bcvZBOKhMHMxTQmATy/MgIqKux263e4FIcSC26j2KX7o+Suh0/in+KfwVj12ie91JparLy0t+8pOf8Od//uf85V/+JR999BGbzYbpdMpLL73EgwcPuHPnDvP5nEIc2XUPHh8f76MWNEooz3PqOmYpuT6/5On1NcubKzq/4rpasSp21DdLzLPAfDiFEPG5LEryPK51JwyD7hvFu/QV40AtxmaExWuY4zcwroy6NauZopVeSdyoMZhf/4/++DmLFpk/VMeGzQljhyWKosZl+PVPCD/6f3J39Rd0bp7eemtbrWI8qSLUkydPaJqGR48eMQzDPlC2rmvefvttvvSlL+0XSBd7ImW8JpMJWZbRjYHJNG4WYwz37t2jKAo+/PBDPvjgff78G3+6dwg8Ozt7gUPJk7ATn8SJ2iQQ3kqqHV1gJQxBxColIsopFKK30w02JpbgRjizqqqYSMCvT0QzHYMiarqR+77fc0yj6AltwhkoQdIxBiHSihS9eH5XkpJddSNGOC/dZLpZm6ahFP2jjlFbWZYvEDNjDEdHR/RC0HWTdpIs0Eh+OZ2HrmkhXFcvcZTT6RQv6a6CiEFKGHWuOsY8STWt66ew0rHNkxqg2pdJdEQ6XuVeTeKpr3NQWBZFzFq8lTRbGo60lZJ0+hyfSBjz+Xz/PA5ES13riSQNSA8FK4fgKHGroxz6enDqbzrfFM56nUnC4xQ2KSGciNShYw0hcHJywmuvvcabb77JW2+9xec+9zkKUcHofU4O0SB74+zsjHfffZcPP/wwxn0Xnk0XmIQCwpbvLL/P0+6aqsnIrz2ZKZlMYtHvsoj1eZsmcvQnJycvwP6nmujYcAX9y/884ZWvgp1E1dkn3QO4x7/1v/87mOieoQGkkerZaDolYEwgiK8I3Zpw82Mm7RnBRQS/7eXllKwlfZASNmXFj46O9icwclJPp1MePXq0R0J/oKyvRMzJipKiiBxGnufkWc4Pf/RD/v7f//v81//1f8Mf/9Ef8J3vfIfLy8v9Ru+6WDtRF6gRMUhPC0VOJSzX19e0kiY5JAHzes8wDJydnbFer8nFuqrjHUVRPAwDV1dXXF9fE0Sk6SQ+T4lV27Z7XUeQVC1KtLzo+RpR+CrSdpJ2u+u6/WbX+xT+elLvJId9LcHY6SZSzkbHnBJq/a4VRXNRFCyXy5hmXPo4Ojri4uKCTsSgcRxZr9ecn59T1zW5cIhnZ2dsJGOKE/Hn8vKSVpTPysX3woE6qaGhqgIvh4gSHIWBztday/X1NWdnZxgh2oXkeWtErFYY6brqOHR+6YGh95RlyXK55MmTJ3jv94RaEy4MwpUul8t90HhVRf1RK6KsEjUlRKNwb0pU9Zm6DsMwsFwu97VCEE57Op2yXC7317USrK6iuksU/op7XddxfX3Ns2fP9vtnFMKpBPXi4oL333+fP/iDP+BrX/saV1dXFEXB3bt39zBRGGdZxvX1Nd/5znf44Q9/uJd6vG/wPWS2oN7UvP/dH3L1/XP8GexuWkYTPQ2sdTiXYUw8/Ach8nowmgNCpd8FpJLc0WuYozfAxizMGhd628s9/s3/INY82BOlpGPr2GerNFn0GxlWhKsfMO3O8fZ5nBcv9PFccd4f6I00Z3opVslO9CXjODKbzXj99df3k3XC3itRcZKGxlgXXUqcxY8j/+gffYP//D//u/zhH/5hrCnqorGikhJ/uiiz2YxKrHdFktFXTyUd40yyvuZ5/sIJrARM56bESpNq6hiN6AS1v8lkwsnJCUUislgRrTLhYnLRm+lnfV+K0UVP21Ksy06IusLRJQ6p+gyd81TSM02n0/34lLhpmhsdawozXTd93ijFg9UPUddcx6rjLYqCqWQDtmI4ms/nL4gdKuaoUSdFcJ3rRFIV6T2z2Wz/WWGn89X5aXEh5W4nkplVYV6JiDUTnW8mOk7leEZJn+UT/WFVVZyenlIIwdc+tS9dP1WPFMLBK97p+ug8JpK9txL9nuKfzt+JlHIkVdR1XJE4RLxTWE+nU+bzOdPplCwxlOjvE0lflWUZR0dHFFK7QNdFn6V48N577/Gtb32L2WzG5z//+T2hLkQM/v73v893vvOdvUTjvRTCIcMUGQ1bWn/D8d2So4dzysWEk6NTppNp5JazjKIoCSFy94oj5lBPBlEFZkSX5nLC4lU4egxG6U4sYHRbc4//+v9GMujGl3me0kju8+BHrMuJw68ZL39E1Twj2OeKcQ4sPJGSx9MoCFtvRGnedR3Hx8f7zaOLeXp6yuuvv445sI4pQoySGme7WbO6uWZ1c02z2/LjH/2A/+bv/S5tvaPv4ml0JJWmlLvwiftJJ8pca+2ei8uyjN1uh/exCnjTNPuFG4ZYtEaRcLvd7jkkL/54inx5Ipqo2LZYLFgul3sRY7fbvcC15WKJVK4tvV8RqBDRUVPHqBi42Wz2XACSEkoPk6mkZ7+8vAQhYl3X7TOcpjDYbDYYIeq1ZEBRsa3ve1arFW3b7hFROUAlunqP9575PKoolAOciY5N00wpUViv1yyXy/1zlctM8UU5ISXiO0lP3Yoop5zQer1mIiqLrWRtUa5L4e2cYzabgYjMXddRyCGisPWiamilcEkIgePj4z0OKGFxztFKqToj+jfl/npRPawl22wvBo9RUm7tREGfiT5wJyJlKeoMxS0rjIHiWCN+XxvJdqtcTzhw51C8appmT7haMe70ktJI8VrXVNerrmsuLy+x1vLZz36Wtm25uLjYc6U/+MEPWK1WZMIUZFmGMxMG14Hp8FXP5s415duW/MhyXN2hyhb040jb92RZDpiYHl7chJQGHL4gxEQaweFtgV98Bo4+AybiBiZGOd32+mknsf8fNyUO2g7fp0QxfY2JeLdOcrE1IqbpwqZEwyXKZl3QQZTcSmDTMekmV6RvJRNCo7m6EiW99qsIq0RO+0uRTseuv9vEqKAboxd9WF3Xe+KkJ7gSzk4U5dq3TzIo6GZThNMx6nVKAHwifg8irnQiSuqcxkRfh3DTh8/1stl0bfR/0zR7wqJz0c8KmyHZeH3fsxP9WBCOU8ela6SfdUOOiSuQjlnHq4RBv9Pr9TnptTq3Tg5fhXeR6AH1/kGIgPata6/z0+92YkXXuShutW1MLa5wVJx1KoUk89Zr9L0XcVbnoe8VN1MCa4TjSeeteK94qfd7zcQs+KewHER0H2Sv6fq1SY43hWEIgSbbMbEzjoZ7lL6iOHHMX54wmyzI+ufxoDoPZyOeflrT9QEI4qtm9hzXz27u8W/++y9UglfAxA82cnLBR6sEFjtuGC9+wKR5+gLHlg4k/U4XQtlxXfjFYrF/liLUYrHg8ePHuFs84hVRlIPTiTrnuLq64utf//peHFD2P08MBkasfIvFYo9Iyq4rS973PXme89JLL+3Flyyp3pMljrsqFmUiOpaJSKj95ol1VZs+T0UEBIGKotj3ibD+6q5C4vB8dHS0P+W8uCsUSfZfnScCV2vtnjt2IqKpmKjEbCKZiRXZrIhLmYigRsTCiSj4jXAXKqYrLNPx55KyfZKIkxOxqOpYsyzj7t27++8UBqUYL4wYIFIFc1mWseCLjGsUES39PRMLt66FPjvFN8WBIMTPisipMEM4XMVFHdtEDDD6nYqiOv+5FN/R8aiIGMTaOp3G7MH67FzEcL1GcVDHouMoRcR3winqGk3EcHD4UvzIEsOI4pL2r/PU/nQdrbW8+eab/MIv/AJGjA0IDp6fn78gvcQ1iFXpMx/Trz+7esr2qqH7oaF95tkNNdbYfbUvI5EITdMwFYuzvtKmWn8v7h7h6HU4ej3q1vZS5u3tnwlhOyRC2kJSQks3ubLsh4QNYLFY8Nprr+0XWQGPjMsmHviK+Hmec3l5yR/90R/tT6aQGAdSLkJPqF5EuEHEVF28rWTiPT4+Zrvdslwu6URBr3PRRc5EXFH2vRcOqxVxJBMiqPFx6UmsJ1cQsVaVwk6Iq4oZinx93++V9ovFgqA1LMVvLBMFvB4i3vu9GDSK5XQr4jOC2LoWO1Fo5+KKoCLpdBqtWMpllOKOcXNzQ13Xe2KhXIzCthYFvW5QI2Ka3oM4Zm6kcMhsNqNt232efCVyek0mh9Rms2G1Wr2whspF6DjUMKBERHEtSBr0uq5ZrVYMws3r/JWTM4kPYi6i73odPeZ1fRAjRNM0+7Ep3Lzo5dZSyUmJe13XLJdL+oR70mfmchjquqsXgRcuuxOVwWQyoRFRUzko5fAa4dgVLjoHnf9ms9kTUyVKOleFvY5LOcHHjx/z5S9/GYSrVQJ/cXHBTqzpStgKV9DZBnJP3/Z8+N5HXD9ZsnvSs1s2bIeoTtFMydbYWGtDUqIf7vP9ewACPljISsLitT1hk6DP/bWH7Z+KsHnx/E3bIZHrhZXWBVRRcbGIzr0kXvDz+ZzXX3+dLFFMpy97kGVC7724uOAb3/gGVhSilbhWFMJmI4SoEF2VErNC9CtOTn8lqMfHx3vCUgg3pidZSnStOHxmBzUZC+FaBvHM1mdnUrehEqWxIoc+Q8em8NLrdJMY2fg6Vp0/wmWlczPCZenmUyRKYaKbVZ+v/RZJAkAnHIw+T8er81YirmujyK4w02cpXLQ/fV5VVftxTMSAEITo6zN0LLrBFb6KCzq/XLhRk3CtOl+ThAyVwk0jRF5hoBxakUSR6DWlcPUpPHR8OsdcpASfWFB1PZXY6jx0vVTCGJMwM+1XDy39r7DVMRSCv/pcXQf9r2PSseo4dS4KYyvcaooXn//85/nKV76CF3WHEb33+fn5/vDT8bS+xmUWR0ZjdiyPL5i/VTJZVJTZhEkZJYQgtWadcYxj7FdhoWuk/QIQos5/NBYy4dgWr0vEwYvROoftn6mO7ZCoaVOAaUuvS9/7xAtbv9f36XcpEEzCySlQVLQzQhSsVOCZTCZst9u9Hm1IdEpOKtdbKX+3E5+oUqySSkw70VWpYrkSrkqvUeRUxbjORzk2BNl0nEoYgrh66DUm0bkMw8Dp6Sm5cAedWJP0s57C2m+fFCcexQXDi6+YE66yEx+viTjKKidTinvLZrOhFXcMxB9xuVzixAes6zqurq72MDDGsBaDg4qkys0pseiFy7IiRgUpXacHXZZle+5WiW3TNHuOSYmFcpEKN9UDlSKGKYeoz/HCwR6ObRDfOMUVXatSDA6Xl5eMYiXVsW6lJm4l0SLKXet6KVepBLsWLlnFfxKdZZfocUPi/N0L5633KNdlEj1rJyoRXeN0vXIpmKKcHeLac319vb8nJPpHxSUv6g69xsrBq9fpKyR7EWC0LQUF+VBgisD0MxkPfumY0y8uOH3llPv37+/HSRKClvah7fC7Fz6Z/Z+f2f6ZErbbWjoBJUS3tUNgpUQuJXaHn0n6DYIceo0ukl6DIJUulHKTactExOxuiQf0Iv6GAz+7QRTq6fgUSfV9Ov7b5uHFEqriY9AiHrc4XOq80vmmLYXHIHUexiRDRIpgOi+djzuIjND+dIx6T/rcT+ojJeZWROouqe7tEwNELsHquskV+X3iwKx96mc9RHyCK+lYD3FBx67zUzjeBledgz5HYanj0LG3olDX/70clNqvjsMLruhY9fOYGC/0eel6K1x1nunv+l7nonDVvrQ/HY8SwxSvFb/0vhR3UjxJr0n7B5gwpe0b+tCSDxXmScX6WyPtjwxsorP10D+PdyWZ5ye1ED5B2JRbfur7g+ZeT0TRSBAPHybOu9ZiABtGuqsfM20+ZOSnRdHDpoiaiRK3Fb3U0dHRfnH0tJiJH5uexIfNJqKgbtRMYgO/8Y1vUEmwu7LqTpTHVjy1g5yCyv6qSKLXpvqmTESMruteUCLrtfqdImghoiYiIuWJ+KLP0nsUSdL/qSgUEr+6QsQuJQpOxCF9tnJm2vSzInoueh5tJknX1IsFLEuU7XqNwigEz+BHprM5VTlh6AdwlqywzBdTxs5AMFjjKIoKl+WSpACKvGRaTCizEoulzApym+O7AePBB8PJ6R2Ch2H0OJuT5QV5VtK0HV3TU7iC2XRO28cqYHlekk+qmMFFNtlM/LuMcO+FhOIpYVOYKN6QiKgkKgPlPHVNlEPUza/9GCEmCjfFyYn4g6U4rdf2Is6VoirRcc3n8z2nrdfniUhb1/W+X5/Eu6qOWnEFETFNwjzoM3ScusZKqPUwURzOhIM3xvC5z32Ot99+ew8zhYM6X+szACajZZO1+GmG2Tl2P/a0H1fUFxn1NtCNYV/D17lIYpq2o+s9k8lzI0baQgjPrQfB47Mp4fTzMH81mhPs/sfDW+GQYzu8JDrmWrzJIMhnW4hj7uHVt7dwwKWkiJOeOrqwCuR0cQ5bCtS0LyU6rfggqZimbPjV1RWDiH/b7XavwPVyoqu4peKQ+lDpaZ6ervqc6+tY1Vz76hNxyyahPr2ITkPiatKKweLm5oaVOC6P4qtXi0JeCZiKxwqjtfhyGdG5dKJEVvhpvyqStaIk3onPlBOHWxVXRvGvU9FQN8tms2KzXsYyb93I9VWMPliul/gw0nUNy+UVu3rDMHZst2uenT3l8vKMdmyofcP56pLz5QW7oaFn4Hp9w9nVOavdioGR5W7Js8szNs2GPvS0vmXbbLne3NCPLYGRutmyXN7Q1lvMONLLGm/FKNT3PVdXV/tICMUJnZsRt5nUmNMlxh3FnU5cOAbh8FQUVmOGrpUaCLz3bMXloxOXH10LPVwUzop/Q+K+kl7Tdd3egKA4u5HsOEEMYkokrXDA19fXe1wfxCVF8UsPwzqJShkSl45RDGv6PC+cc3qw67W613S/pW0MjswsMP6UTX2Xm+5NVv3PcbV5zLPLnNVqpO8dxog+0gSCCeBeVCmlTT97xJc2GHBlJGZhEKJ3yIQ9by9wbBwQDQPRgBDpGwaDCSP91feZ7X4SCd4nNAWCEoJclLQpx6ZES0+s6XTK48eP9xzIIRCVU1FEMHKK7nY7/vRP/xSbBB8rx6QIW4rivBDFtxUuSk9gJUSlKKhTjkvdCaxwBSS5rvS+2Wy2n6Oeior4mbh/WDmZdCGdcJRqUKhESWySbBxOfPF0HqoP0fHo/5DELiqMdL4Kz0qMIXqKB+FA9Rol2IrcEIv6lkVJkRWMY6DIS2ZFiR0Dx/MZ3nmMC9g8cnE2M7jcMplVlPOSzgx463GlxZYWkxu8CxTTHOdgOi2Bkem0ZDYrCWHEOYOzgdJZJnlGZgLWQllllM5ykuVRghApQDmgXLjTUiy4VrgbXSOTVBzX+etcCzFseNGP6Tp40e0pZ6YcV5YYo7QpfINwbwpfhbfinh4aKV4oziquVkk0hHLcmXBeeuAp/uialiKB6NgRzlTnl45zEEOK4mKWuPb0fc/nPvc5vvCFL9CJ6O/Ecnt+fk4jfpXIHm3yiiIcM+Ez7MovsX31rzH9wq8xmXyWubEczWoK5xj7BkvAGhgGjzGWqiyxn0igDEGccL2bEU7fhOkjYATrhMj9NOPDX5WwhRCJ456wXf6A2e4nfyVRVE8xXVzlUlJ3D0WyyWTC66+/vkcOJXzaFElCwrZnIor+3u/93t7FQU8rPT11k3PgaqB9KgHN83yvRNcF1dNRTy1jYvV1FVuVW1BCVSShY6q0R0RyVaSryDOKbkQRXU/YXJTT+nzEb06NC0ZE1yCK80aC1wtRijeJ+V+5En8QEaDzysWVQu9RUarVGEpnaOqa6+WG1dgTJiUuy6jrHeu+xQ5EK1c/stvUjL3HuQw/Btptw7DtKHCUJmfcdnTrmqkrmdiCZrnFdB5f91S2IBsM7WpHaAYIhiFz7NqWbdvRZoZxXjEYw7Cq8QFcEWNRN1I0eyoW0evr6/16WOG6FHZKBDcSgTKZTLDi+tJLBo08z7m5ueHm5oYgxhHlppS4GHER6pOsLp0Ylvq+3xscxsR6n+KXcmq6B0zCYSoOd8LVKVHR5yiX1gln2B9k+0BcUpSbVW5QRcj5fL7fl/o8LzrejUQ1fPazn+WLX/ziHketcIiHhA1gW2W4YYKzr9GcfpHxzS+y+MLLzNwps3ZNGc7wfUvfbClyQ55ldP1A149MS1ErfEJTwhayGZy+BdOXImEThuuTJMefFm5va0ZS777w1ScPhkSE1OsOCVVIFMS6wP7AKprec/id3qecmy5SK17YJJ7OJG4LysorUdIxKtE0iZOiPXAG1lNNnzsmyunD/nSc+lyfEGLtQxFciaOKoIr0Ki4oAVIizIHi3ycnOIniX5/TSXSEjk3hkvahz9T56viLPCfPCtydBcWXXse/8yrNl1+GX3mT/p97zO6XP0/7L36J9l94m/aX36L7F97G/8Y7+F9/h/HXfo7iX/5rlL/9L1D+q7/K/N/4DWb/xm9w92//NvZf+WX8v/QLrP75t9j96tvUv/Flun/5F3B/61eZ/Du/xen/+m/w8H/1r3Hv3/ltHv4vf5uXfudf4f6/+S9x91/9DexbbxISB2KdV5k4W+uapfiX4pbCTa/R3xQHdK0m4gRrE25b++iT8CT9rERG10OfbwTH9Lna0jEpDirOuERXq/Nyid5YubNwQCC1X+07/Zw+Q+eieEyyb1M813vT/tI2GWssDcFs8P0lzcVP2H7wY3Zn36TdfEDf1YxjDwassVhjwQfC8NN7/fAVLQhB2ay/cjNfPUhbpICByKFhHaOPNUMxBjs2bN/9v/Pg4vdo/CeLotq2YppX0Wq1WvH06VNefvllCjEBKzd1fHzMr/3ar3F6erpf/HTBsiQoXIGsff6n/+l/StM0e7+g7CD1ci6K0lFcOxQBFdkKMW+v1+u906herye09tmJEj8kxGcmQdUkvmW9cGA+saYqMqZEMUXkUU5XJTr6HaLkrpLK9vo9iROlEU5FT/hBFOOtuALo71mSUFK5v0Z0gybhCO04sN3VNK/cJf/VL2AeTvF9ICtyqIAxRk+AwWYOl+e4osDmGdZZ8umUcjqlmkwpyhI/DMzmC84+/JDV+opxGDDOMT06YrJYUFQV5XRKXhT4cWToelzraeqaJrT4iy1X/49/TPtH/4i8fe6AvJOklrmoNRRGOh/n3J7TUDjpZ12DIvFf0zVLOSWSYHDFLZsclk7ESMXDWrJfKI5Z0XXa1LlVOEQvh6MSSl2rpmn2TtmIdKPOvtPpdL/+RVKjU3G0E5ceL+J0is/b7RYnOsUuyZKiHP/f+lt/i7/5N/8mK4mbzkTl893vfpebm5v9HLz3HPmB3k5w5Ss82Uz47vmO3o5U6wuq7go76SizgaFdktkRi2XbdPiQc3T0yRxbALzxuOAZq4f4z/4NuPfzhNAJx2YhPD8k0vbpoqgx0cs3QDRCGCwj3WXUsQ3hkxk+XTjljjLR/yi7q9YgXXAjeqXXXnttr5/QxdSmG5Lk5NTF/9rXvrZfwCKxUOZJZlm9b7vd8vTp073CXpHq/Pyc1Wq13wQqnqTIq0paEgX9VirvZBJt0IlZvZO0MTc3N/v+9F4lTKvVal9vUe9X8VLH2zTNXvGciTVzLZlP9ZqdOD4rsqmSu65rsix7wUChG0DFDiXOy+VyH4SuB0jX1HRdT31Ukn3hEeXLp/h2JOw8eDCZY2gbgh+xBsaho9ttGLtYBCiYWN3M4GEcGNqGrtmxW91gbSDLHNPZjKoqyZwjsxbfdXTLFc3ZFf1mQ3Nzw263ojUNbb1l84OPaH/8IYMo+YuiYL1e79NIBVFrpIYRhYmmA/KSCknhqDizlVRJ2i4vL7m8vNyvWydpivTA1rVYS6ZoL0kURjmgkDx3V1dXe+NNLREBvagVMjEqqXFiK1Eieq3qfDsRPdfit9eKekNxx4qxSjl/7We9XoNwba0YLDpR1yyXy714rIS1aZp9fjb9XvfyxcUF7UE5TTs4Wjcwhprlxz/hg+/8Gcsn36U7/x7rmw/YDhuKfCRzA3lmsMbSd4FxMJRl9ok2gEBk1CyBkM33OjbDGH/4FKvop3NsxoDJGH3Yc2zOt2y+99//TI5NiY5aiyqJBlitVjx58oRHj2KWW92sVjJy/Oqv/ip37959AblMIhqUZcmQ+HaVEi70n/wn/wld13F6ekoneqpeEjUiCJklabg34vDok5jERoLoHz58SCc6CT3hkNOyF06vSrKsKmelhJrEINIk+cC8cIZOlNTmIMOqEhNFHO1zTPzgdCxdkpfeJanDtX+dnxHl82q1ggO3FOUoVNRar9cM4qQ7m83o+5622eKDYfvohOxXv0Dx0l123/wY/6Nz8qoktDEfmHWSwVSaFZFn7HsMJhogioLcZfR9R9/2ZNZiMBRlwTgOjKOnKHLG0TO0HRhoMtj0Le6VY6ovv4TFMfzxTzDffB/XRv3j0dERW7Fy5xJ7WUg+NsQNIhNdrE9cZPok8HsqzrBNwsVNJZX3drtlIjGZJP55o6gJdG1SqWQi7iYuScSg606yP6bTKRMJl9KDT2Hnxd3jzp07+0NP8cUnFnObpEJSYqpETPdWJQaPrVRiDyI9pPrmiThr73Y7/vV//V/nb/yNv8FGHH+VaH7nO99htVq9wLEN1TGN2ZINHeuPl7z3wQVjbrHDDjP2lIsZs8oxtGsyY8mzCbsdtJ3h+KTAutspWwBwRI5t8pDwmX+NcO/nIbSSv+NTOLaYGvwTTK4+bsgsywi+x7gCazx+9QHD+XfxPtJEI2wsAlDdyIogikxWlPDL5ZLT01OCcGTK3pdlua9epb+lY1ICkolopb81TcOf//mf0zQNk+mUaj7BuozZZMZ6veHy6prVZsN6t6YqMt754hf5wptvMfY9bdNjs5wRy2bX0LfxtNs1dYxnG0cIMMkrTIhc43az2UcV9H3PrqlxWUaeVRiicWC3q/n444+YSb621XrFKIfMfD4nEBjGkaZtqLuWrMrJDJi2p8pLitmMMcswwUEzUs4iAd+Ip7tytTc3NzRtS1lFwjEOI1txC5nMp+z6ls3lln7XMSlyMhcYxo4heLwk5VuvztnutgzBUM2O6YdA1/eMwZPN5nS7jpu2ofj8A+zcsP3W9+m+9udMbi7IL1qOGk94es3q++/Ds2smm57+owuaH3+Me7akvKkZn15S/+QJmx9/SPP+U8LZDTfffpf+gydsfvgh5nLF8OSK1Y+eMF6sGC6W1BdnXHzn2/CDj6A2uNdeYqxg89FH+KfXLKoZm92Oy+srmqahKiumRcnNxRUYR5EXTKopbROLl0BgNptgLGy2azb1lul8jnE527omcyVlUVHlGWPX8/TpUwiB05MTtpJSKctysrIkGEOwBk+gLAuKImO33bBabxlHsDZn9AYfDMPomc2PwMB6dYkxUYFeVRP6fqTvR/KspOsads0mxkEamE0X0HsyMsZ6wGeWoqy4Xq/ZNTWdF3VGGNhttpFoWEtuHH4YqHc1cwldvNnVPHn2lOm0xDkPIXJhbd2zmB9hbKzWrvj15S9/eZ+2SA/hXlxq9DslrpUNuKbH9J663rK8eQb9jkmZc3p6wqQoaHYN3jvKaoHH0nYNmJ6yintdiXXafAiEvoO+ZZy9jD/9PKG6g8srTBiJIVe3065PliWJHJoxzx0h49vAMDwP+1GWW1lrHWCfeGPvKbvoJrLEAVdPu/T9p730Oj3VcjHX70+QccT3I4yecewJwePHkXq3YXl1Tdv2lJLEbzqZ0rQSoFzvyDy0rYRM3SxZXl+zWW/om4ahbyFERKrrel9ObLvdMnQ969WKceggjHRNE3PD9f1eBBxHz+X5OX3XEUZP33bx1fVs12suzi44Ozt/Xjlrt6XebNhtVjBGnYmKGCqCtBKOs9tuabY7hmGk63v6rqPvOnabLcura84vztnstoxJbrnNes3YdVgfieNms6FvOxg9Q9dSb7aMXctQ7zCDJzcO2oAdMqowwdYwXnY4G/BDix87AgPjEK1fYexohx3rfkNPy+Bbur6m6bbshh125qhdz3m95KZZMrhAKALNuKPpthBGhmZgHAL9GOh3PeNVh1l6jjeWhSnx/cButabZbOnqhq5p2ex27JqapmtpuobNbsO23lE3NdvdjnrXUO9qdnVDVze0u5q+rel2O9arG7brTVxfEdFDYiTYSsKCvmnp6obtas1GxP3dLoqIFxcX3Nxc09Q1vu8xweOHkbaVXGjdwM3NDfVmi7MWa6DebVndXLNerdlstqxXa5Y3S7bbNc3Q0Y8d7diTZxl909Kut7TbHfV2x2q95vLyitVmTT+O1G3LZrflerlktV6zXsVQsu1qTbPdslmt6ZqWbuhZbza0TR37EV+4LomC0D2uRCP9XlsIYa/zc6JbVq4yJN4GZZKaKZVAtE99hk/CtwiBoijJiiIWltobekbC6CUQ/vZmfv3v/Mkn/mrwWJvjg8GPHVk1w7c7Vt/+vzH/+B/S9c/jx8wB16YDbSUbxmKxoJA010+fPuXRo0d7druUNDWLxYJf+7Vf486dO3vqnVJiBVAvug1VvDZNw3/xX/wXXF9fc//+fZyJRR4Cnq6Lzw8+GkNm8xn379+lsBmXV1dcr9dgDbnJ6Lc1vbOUZcHYdzhjxM0ltn4cMSIa2kRvp/OokoBrYy296DIiITZkTvyVxC0jHhowjgM9gTLPcb3HDx47rRgNZN6QD+AnMf40SyxaozhY4j3T6QRXFYx+xIwBM3rysqTpW6ypoB9xbmT0PYPxWJdhR0fhcmpqTLD0rWdSzeTgGnGZYRgHfONZHk3gq2+RPzql++YTxj/9EUdlhR/XZOLz1nc9gRjo7L2nDQMhcxTW4Txk1mLznG3f4MqICw6wQ9TpBWMZ+4EMQzYYDBlrdhjn8A8eUPzyF3CLjP5Pv0X5w2fMbEFTR1eXwQ94IMsz+mHAFQUmOgpgjcWEuOGctdESZqDZ1Tgs1jqsMeKr58nKKPa1bUsg4BIruTEGPzwPx3LOYaxlDCPD6CnyAmMsFhj7ltl0St0NGBsLiLfdLs7PWFxREIyJGS9GaPqGznf40TOOkozBj2R5GcVBE8ixDE2HN9Aajw8xFZADMB5roi/moI68xuDHkWBycmuwDIx+oAvRLae0E5x33DRRb6ii8O/8zu/wm7/5m9zc3DCI6me73fLuu++ykjhpn1hZg3BdT58+5f3338eIYUR/t6KnVjjWSYYUhSsHjA5A8AOlMwz3vsTkS/8LyodfiUbSsfspwvYCQf5ZhM3YnBAMfuzJqxl9s+b6L/8+84/+AW33XBFuEjM4ibVovV7jnOPBgwdMp1M2mw0ffvghL7/88l5fpqLnbDbjV3/1V7l3796nEjbECqhAapqGv/t3/y6Xl5c8fPgQBrC5wZuRQFxABggj4BzD0NPXdWR1C4c3njJYJt7S5iXOGbarNfiBLHOQAc4w+IC1BZOyxFjL+bNn9F3P8SKmt2597NMamE5mTMop5xcX3FzdMJlMuHd6Sjd0DCEWFZtNpmTG0Gxr1l3LYr6gDJabm2uGwjE9mjFxGcNqx1g8DzsbxZNdD5TCZVgL67HFlQV3pnP8NiqB103NnfsvE/oO3zeMdqQ4muGso7nYQO+xJyU2ONbXG4osp6wK8srRDjVN3wMO88bLzP/mL2MeLeiebBk/WlHkBVkW9YZFUeKsZeh72rph6DsG7+mHDsbA0WxBWVSU04pNW7PZbWmHDjME/K6l71twhjzLcWMgNCP4QJs3+ABhMmfy+BEuC+z+7Lv4P/k+89FSuJyqLHl2fsa23jE/OWZxcsxoPX030LcdVVlRFRXbzZb1co3NHPOjOd2uwQ8D06piPp9hnOFqtcT4564/N6slbdvG+pynJ/RDx267JgyBSVmRuYyb5Yr1rmYyn3F6codx6Gm7LT4M3L17l74baZuRum64Xl1xb37MfDJhtDA6KIoM2mGf23+9XLHdrDk6OSGfFkwWc7CwurpkEnIKb6m7lovtGrKMh/ceMp9UrHcr2qEnK2JBYhtgt1qzW685OrnH/dNTmt2adbNmZzzWOGZmwrBp2fjoKhXEcPS3//bf5rd+67de0MEpYVMDjRI2/d91HT/+8Y9599138YmlWavIpURuKXUdFlJXVLm9Fzg4YyMxNyPN8eepvvhvUr30Dn70EKLhJW0pYfuptEVpM4RoUjUxc6WxOWFsac6/D5fv7hXRTszhRhT8uZ7gwlk5ia1Uhb66VBRiXlcClec5r7zyClNxEj1sVnRsSkD1PmMMX//611mv10ynM8IY8DbQm57BjozBS1V7E4kZAWcswUFjRxp6DJ6jakLISpzN8H1PUeaUi4pQOcIk5nR3IXKDeZbRdzHtymw6wwBdOZIvSmyRkRU5ZVXRtx0mGO4cn8TqYJmF3GKLjKIqI+H0Ud9VVRNy5/B4qBz50YSszGi7hsxFL/eJxPKprrEoCiZVhXWWLgNb5VRFSR4kfVJmyMqK3GXkzjI4j5/meGsIvafKSkzpcDbDYplMptjCYiYWXwRs5Wj9AHePOPmFz1O9eo/jz7zKy3/ty9z7xbc4+eUvM//Km8y+9BnKt17DPX6Afe0e+eOHFI8fkr96n+Mvv8XLv/bXmL39mPLzrzP/0meZvvkq5WdfJn90l/zRParPvET1uYfkr55iHhxhXz3Bvr6g+OwxxaNjqnunZNOK0DR0lxfY6y2ZhyLPmaoRqsjjYbCYYUqLy6NzubMxesLZjMxllBrVYQ3TqqKalHgbaM1Ibz3TPFZBKqoYAWCd3b8ns/gSXJ6Ru4wiy7HWYayjmk6ZV1M8I2PuCSXks5JgoXQFmcmwZcYky5kWJVQOP82gcDE1GI4syzFAllmOT44p5lW8Ljd0jIS+Z+pysizHZxnFZMIkK8kzR8gMJnfYIsNk4vsYAoXLmMwWlEVOu9sSCguzgtaPVK5k4kpCFiUu5bR+7ud+jjfeeIMmCdNrJU24Gih0j6oE4cXY0YuDshpGdO8j0o0yIzuJQFLJyyVx0FmWYdUf0Y902Qn2zudx0/vRS8O+yPQctp9B2EyMOrBKTYkl51fvEc6/Qy9+WqmVSF8qjjqx7BUipg2SZE/dMpT11Qm9/PLLPxW0rRyhUnzV1WkLIfCHf/iHPHv2DGMMddPjMygWOcW8iEHbriSMbm+lNQQGGyjuLbjz2kuUZYEZBuraRx1Y11LOJ0xPZ4Spw51WFPMp3fp5tSFC4Gg+J3OO3XbLeDfn6NEdpospQUSWZl0zdgOTssLbkdp3lIspx3dPGEJMN5O7DOcy+n4kDCPFtCQ/meKOKvJZxWBG+lUUaRXeqrOIcO/xLjB76S7TO0cMbdTDlGVBbzzbbRsRPDeEaU55/wg7m8AIlcupu45m22CNo6wqdr7BTy3TB8dMZhNssFSzBacvP8KWFROTY9ue3cU5ubf0Nys2T56xfP9DVu9/xO7JGfXZJe3FNd3VEtsNZD5QX12zPTunu7imObtke7HEX+9wu55+swXjyTPLsNkw3mwJu5Zhu6W/3mC2I37TMWw35HSc2BJ81HcOQ0/XtcznM4pJyWg8bmLJixLnLH3X0TUDmc2ZTua4TC2zLZOqJNjAqtvCrODopTtMfM5adGyz+YxCpATnHGaSwXGGyzOaXc3YDpTllCwrGEaPGQODGZk8mDN9eIyb5YwhMMtmuNGyG1pKLITAjo7s3oLZvRM8I822JfTghwFrDLPFFFM5xsLgZgXl/TnNZovtPBhDNp0yXRxhBmjrHYMbmB7NmR7PsVm0GHZ1jW87yHOGvsP7npOX7zN/dJdtHznmo3JG71+swvaVr3yF119/nVpcYxCL6+XlZdw/B471iG7t6uqK8/NznHMcSTF0ZVRGsf67xCsAkb6UCVJaEvG8j36OYcQePaJ6+efIFy9FJgvPJ7l68LMImzWG0QesFE4eR09eOPL6Y8Zn39pzarmY2NXMbhL3jJQby0U/FTmrSNhUnFLC9sorrzCbzW7l2PQaJYRp+8M//EPOzs4i4cPhJo7qZEI2yajbBj9AW/eslhtJZexpGMnuzpneO6Zta8amYdwZhq5ns91gC4ed59TZiDkumUzn+GVH27XgA+Mw4qzF90PUuzzIqe4twBo26w1d3THULUPdMHYDPgdvDcV8Snk0oxsGmrrGAsMQqLcNQ9dhSsdQWcy8pJiXbLua4SKGY3VJPdFBAuqNNYTcYk9mkfjWLcM6OqxebpZsNg25MVHkmZcUD0+gLGg3NaHzNLuoQHY2I6sKtr7BHpeUd6YweNxuYLjcsHn/jOtv/ojdP/4hN3/w59x87Zv033uP7T/6Dqs//kuWf/yXNH/+fYbv/IT+mz+m+eaPaL77Y7offMD2Oz9k/a13Wf3jb7P+02/R/MW7nH/9O3R/8QPcux+y+8F7jBcXuOsV3Q8/YHz3Y8z3b9h+9yfUf/kTsg82hCdLxusb5llgmlUMgxdDTcN2taGoKoyztENPKCSJonM0u5ambiLHZCxNE40vQ9dRlDk9A40bKe7OsUcVdtlHojWO2Oy5PnMcR/oMxpOoU9rcrOmbjtzmDKNnu6thGGlDS/VwQfFgRmdHxnag8gXdsubp9SVlsDhnabKR7N6C6mRG09YMmx43WrqmZeg6bO7orWfIYXIyh5OK+nqNaQaatqPFkxcltg+MfU+oTBRbnaHtO9pdI4aGmiGLxDTLLNM7R7g7CzZtQ7+qcYPnShImNOKk/ZWvfIXXXnvtVsLWi/9dukf3ovvNDc+ePcOLu4xKGGpJzZNs1EZckVTyUxqhHFyeS5xrbinvPKZ46cuY6m4MRhgHSKrAHzb3xm/++39HvBB++mUdwYdYTAHAR+Wraa7onn2L3D4XiU5PY0I5K7K2Eh89BXTwXhwYp0m5MAVKlmW88sor+zi7dNBGODYnoqgX64k+/xvf+AZ933N6eodyMsH7AUygbzvqdU1hC8qsJM8y5rM5VTXB59AzEsyINQFnDK51gKcfBybzCWSGtusIg6dd1ow3DZmxLGYzohcWOBfZ5tYM+G6ku6npVi2zrKKyBfjAZDKlmldkVUkz9vTjSJ5lFDYjNxYTLFUR/a36MMbNOXqcN6zOb5iGmHixkiB4ha1zjuliSjYrGfC0dY3pBgock2pKAGaTGfPJlEBg3ewYR0+3bWiuN2TBUOUFZS4pnJzFm4iAQ9uzOVtidgPlYPDLmu7pFfnlluJiTX65Yfn0Q+z1mumuw1wuyW42FMst9mpFte3Idx1utWO4uMHdbLCXa/yzK6pVy3C5ZLpuyJdbWK3xyzVuuWV8coV9tmK6CVT1wGQ3cNQ63LphuFpS1j2dH2mHDhfgqJpihoBzOTYrMC6jH3qGZoi61QGqoqQqtd6CZ1JWMVysLPDWkE1KqumU7XqLv27IXIwJHcRQoHjWdC1N2xLqkWwwTPMJuYv6zyxzHC8WeOMZTaDeNWyv1nQ3DcXoGLuBcjZjWlYUeUZvRrwJMVG1AdcbypBjjSHPM8ppRQD6fmDsPZvlhvpyzTybUlUTSfXkyI3FjwPBRiamrVv6psV5Q24dRVYwnc+YTyb0Q8emrjF5hguG0I3kJorAyphMp1PeeecdXnnlFbYSb6rESR3F0+YkOqYX/9BO/FaNSBQkBkXd8434d06ygrKIUtVIiCoT48isI8ujrjALAY5fg9O38XYWY0U1fv12uoZ748CPLX0FMowZ8X6MrC8DwUPXrmjPvsXERotmkHTad+7coRXP5SKpcq0sqBWrqRI2Ei5MCZxybAqI9FRQwCjB0xPAGMOf/Mmf4L1nNpvStw3b5QpaD7XH70acN4x9hyXqXLqxo20bmvWa3AeOZwuWmzVhG7/f1VvyLIfWk7eGSZexe7ak3dVkxpLZ6M+23W6xzjH4keG6wV+1jDctxeiYlzPapuXy+hqX50zLgrptuF4uMQYmRUm/rem2O/q2i9ZFG611ftfBpqdoDX4dxdDU0LIVr/osywjORNE7WPqbLa73DG3PblMzNAOV3FM3Lc1qR96C3fS0yw1hkFjUImdXb+naJm6I3jJeN9RXW4beU0wmNH3Lzc01WCjnU0LuuGzWeGNZHJ/gMTRdz816y67tmCyOsVlJvWvpdh1ZyChdxdAHusHTNS1HJye03lM3Hc1NTTXm0MBu04CDQqylzRjdHhhGilBgKsM49gzbhoqc7WrLelVjbEE1mWM7z/L8hnbTYHwkbE1Ts1ov8eNAkVnarqUdOobRU+UTJraiud6yPL/CSVaXm+tr1qsVzjpm0yntpqY5W2N2UT9VZLHOw3qzwlpDXuW0dUO/aujPd7i1x+xGLIZu7HFZEalPGAltB21HZg3GGUI90G8b1ts1TddisLjgKEaHX3f0ZxvYjcwmc4qi5Priina7w2WWpmvp6pZu2zDWHaEdccHStT2bXc00zyiLLPpzLtfMXUmJo95u2bY1Qx29DFTd8/nPf55Hjx5Fq7vot5um2UdhhCQBp0+MCE+ePOH8/HzvilRL2izVsTnRm2kfzmYUd47x9xaYOwvmD+7ijmdwNKW4d0I+qXDdSL94jLn3ZUxWYWyHCbEoDOZF+qAv98ZvxYLJtzcbFwCihcKPYBy+uWJ49hfcnVd7Nw4lWsNB0r5OvKXzJGA35dhIJutEx5bGxh0SNgUQQtiUi/v617/OSuodar9lUqtARWTvA1me4zKLddEFo8gyMmMZmpapfa4PUKWnS6IKdG6Z6PqCWJHyg1RI+kwvcXuTqmQ2EY7BmP0z6QeyEEPXbBKT6CQLSCFxtGUS3E2ihM2yjCx3+DDA4DEeCpthvCGzDhPAZhnGPk8weTjGIsmmonPLRBeSJel2VG2gaoQsy+hDDz5gfMAFg/EhGl5cFg05PE/Pnif+TKNElqjHvK5VumY6Dn2uwjnLMjrfwjhSjI7K5nR1T5YVVLO5KPbjMypJ/6PjDyFQFiVZntOPQxR3yoIscxgTFeQ5sSZrJRlWdCwKMycxoS5J2uhF9NKDR39TWCsu4Cw2hOh6YaJIao1l6HpMH8iNuBMlxaoVJ5CUQ6l4ZyXqQNcqxVfF2WEYmEzinDEG6xxO8HcYhqhL7yOToLj1hS98gUePHu3dtUhCw5QLM8J4WDE6IEzLVtKnKwyrpOKWE+5OLbD+eM7wmXs0rx5h7iyYvHyf4cERw4M55esPKU/nrK+v2Zo7ZPe+gK3m4EaMz0Ss/GmVFYBVhP7El6roAgQSH5OEe3LCcTUSjlIkAbn6irc8/5xyZD4JM/FJtgP97vCl13DgDFhLXJxacvR6RUZjDE0bnTb7LjqjljbDdZ6wbpmMUZeo9/YSctNJjB6CWD6x/uhcRsm8q4hsEqIexzkytD0ZjkU1JcfRbWp8N5K7nEzCopRYKrx6iWVVgqAxobrB27ala1pCF/3X7AhjN5Bbx7SaYEL0P6olZrQUP0A9bPTzWupA6NijUj7GYWZJOI8S26Zp2Gw2lCbjZLJgbAZ26624dhwxm0RutRNDx1SCsHdSP7QQw9FyuaSu6/0mUOWxEqONcMXIhkM22LhpyTtDNkCzqRm6gdl8SjUp2e6ik20hdRNGcSJ3zjGfR+PBMKoPosNZS9u0NLuazDiOj4/pJY7SSSFvKxxLkLA2l6wXcsjWSa0FnY/uEX0t10uatmEMPvpJjhDqnqwJZOPz4HgOlOrDMOz7rKXalpeDXe/J5NBNxUAlQl0/0DQtWZYznc4Zh5F61+AHDz7i+lrq9fYSnqfzSveS4qb+12v0oMol5dZESjreuXNnn6JMr1FCGELA9YHyaEF2PKfdtdRnK9qbHcMq6v+us44NAwGiJ0MQR38x3n1S+/TIgyCm0LAnbxBpGlZyjmlw73K55Orqav9aLqP/jxItnUgKGF3AlMgpkfq0l0n0bSRxiYoAbRLoq8p27bfrWup6R9PUDG2PGcD0QOuZUNJKhWov0RN6qikRU4RWAqN9py+dS3p/27bUu4au7bAe6D193UajwuAZ++eZc3Xceq+OXRFdEcQLNzj2A1aIWhg9Xd1GhA2Gro8WQ71PN3l/UGS4kbxeY1JQRDctSeX0MYksGYYB346ULicMI13d0nc9xsR08tttDMgOcrgMYuwYRTWhcOkkA0oQcbtPEhOoyK2w6MRxNveOMuT43lPvGpquxQdPCNGinXIaOl9dP+/HaHEbR/zo49jblqGLnKaV3GNbCXTX9VS8MiJKNZLLTGHRSOyw4mgKSyVC282GXbOjaVu6YWToBsZmIBujeiPi6POstwpvnb+Rg1TXqjvI1qstXWdET1c3LePgo8GrG+nbjjCMjN1z2O6SXH3azyFhS5+D7O1Peq9ETPtB9qvuWWMd5fGCo5cfcvzSAyb3TskfHDMuCtZDzfb8mmIIzFyB8xD66N+ojMrhuPTlXv/r/9tPFEVDsBiei6IxdtQSuhvG879kYtU587koaoWFJkEoL7owK067y+Vyf/IrUdOBvvTSS/vsujpwbc8R88VTpKoq/uzP/ozz83Nms9me9XUiDujLe0+WWRaLGaXWObTan+TuL6LIoffqiavjCLJJyyQjbvo/CEepRF0XdlJVTKpK4gDjgudOfP4CYG0UkUWkMEl5QJ2nfqfixiBiUlkWjIMQogAhGIxzYC2jDxST56XwlKiUEu2h81ExRGGlMByFqOr66Tj0mnF4ToRmsyl5kdP2PQGoJhOm09l+ba2ITVYMTAAnJyfkSXUtFfFGOSCUq9T1VHzzQ3TA9R6m83mM2wwBm0U4TpJkCfZALWCcpawiJ4fkCAs+xBxho6cf4jimkhihEwveVNJXKfFSjlDXX7lb/TwmtWFDCPgQmM4nMUpkj5eOEAwEG40ESRKFdN6ZKN2DEP90XhPJTaf7QgmIwt0Yw3Q2Jc+zGEUhxDFGW+Q467A2lj/UNfq5n/s5Hjx4sOdSEU75+vo64lmC79rGceTy8pLr6+s93uhYdTwuYQwA7oYSi2G42ZB9eE25bPDrGi7XuMsd4WbDbNWSTV/DnbwFtsS5gDW5RB68GF+q7VPdPcBA8C8QNmMiYfPn3+QzLz/g0aNH3Lt3j/l8zsnJCffu3ePBgwc4yTChJ4sueJDYMmWZdRF0Yz18+JCTk5M9wXthNILoijgkBoQ//uM/5oMPPtjnRRuSLAh6GilCZplYcbponeyHkTEE2n6g66PeQjeBLpwilZ6iNkkRY5NTKeU2xiSP/TAMzI4WtF1H03YEH0N1fIC6adnKCa3w0hNYRY9aMo0oEajFNG+MwbooJrWtePuPnqbr2NYNTddRlvGeNjHsGAmRaZNMIso9RRg9r8+gBDRF7FIstE3bsqvrGIpUlNRNy9n5Odu6xuU5iE51K/m/ChFjlRObJBkleimPp7BtmmaPF0pgFNbdMNL0Pd04khU5y82a5eoG7z2VeN6vJB2Pbu6tJBEYhmgM2263tE3U9RjAj56+jWuhh4rWO3BS97QREXwUlxuktN1GshArvuk6TqSY8263Y1fvKIqM0Xt2TU3b9XgC/TDS9gOewDjG9EW6tkqcRgmfC3LIDVKjo21bStFLjqK7apO47VrSHxVVSQixiEq9q2nbDj+MjEPMebeV7M5KxN9+++09YdO91xzo2HQ/m0RCefr06T61UcTJmAE4EvHnnhKD6OLdtKBrasbLJfZ6w3i1or9ckl9scFc7wq7FNB39yWvYu1/AugpjPIOP4XLmE3RsP4OwWeCQsDkhbH/J3XmsCmXkFMtEeamLoOx0LxWvFUk3m83+pBkT2dwYw8OHDzk+Pt4TFAWcvrIkNXgQbmM6nfJnf/ZnnJ2dce/ePUyiYC9F55WJIrosC4qyiKeUc2R5gSsKiqpixJA7sw/zUODrM5U4G8mdr2ObzSJXkiXGEJc4JmdZxmw2o5xOoluh1hYoSrCRJ46pfeK1Snic1Dqt63rPGah+R/tQpA6SZSIrClxeUE4m8X2WManKyKHK2DUZ55Do0BT5qsR4oAhrpaaDE05qMpnsnaiDiYr/vCgw4i2eFTlVJR7n7jlMKnFVSfFB+8mTIsF6MCh3qrhh5GArioLRGEzmcEVONZswDvHwnM+mZM6R51FqKIT71v9ZlpHlOdPZjEy5wLyQV/R7ywX+uSjfnVhIlcvVDa1cbRCOtqqqFwwriiejuCVNqphZpCorjLVYl0lSzlyciR1O4okLcbvIEoOAPlfXSdd/KuFKCAHS9dP7iqKgEkOYMQY/eoo8lzA4iRoSTm0Q3es777zDSy+9tNeJmlvcPRQ/UiZED/HFYsFisdgfgHYvMUW4DKruKQ0TLPeyCWWe09iBrIz71GEoRstoRpp7r2PvvoXxOfgBrHpHfAJh00STcViiT9OXsRA6whg99U0YCDjGboU//y6L/LnCXk/gnVQ6GobhhdMqLlp8LZfL/WbRDarI8eDBA46Pj/eLGBKOCTklfOIhrQv6rW99iw8//DASvG6IvkJZTrPdRQdadaIdR3Z1jR8882pKaDv8pmbqDewa1kMscHtzdQ3DQBkcph0oRsi9wVnH0A/RCLHdMvQ9JhD9gTrPPCuY5VU8+bc7qqpiMp3Sdh39pqbf1dh+xA4e+oG+aclMJAZDiPPKXU5uHe2mpt3ssGMgn8YNv5JsEio27HY7ul1D4Q3TrKLfNfS7hswHpkXBUNesN2vqumFalmTWsl1tGJuO3Dpyl7Gst2w3G0yAeTnBtz31coPpBqZVDC/abrds6xgxMptMWV9f020b8hFm1YR2W7NbrQl+5Gi+gBDYbTeMw8hMCNx2s2G32ZBZS5nnrDdb6t2Ormk4mS8w/Uiz3BB2LVVe4KuM1WrNZr2mKkrm1ZRuu6NdbzH9SJXnjP3Aerlks1pxenTMJC+4OrvA1D15MEzzkt0mZjNxzjGbzvAEmral3u0oXPTn6rY1oemZZAWFy1leX0c9nYkHXegHdssVg4TR5S4jeCnOneUE72NOua4nC5ZZWTHuGgbxKRvEi365WtO3PdOsJB/BbxvybmCGjc7FITpth3EkdAPdtqEIhm4d3Y+cdbS7mrEf6NoOQqBvWsa6oeg8vulhiBlF+r4jF7VQs9nRbWv6zQ43hJjJZvfcGLKtY0U3PXR+/ud/nvv371NLnQQjOnVN1+USFy2TVLN69uzZvubEbDZ7IZcciWTWNE0kulb8SicTbJEzqSZMy0kMVXOWpmsYbA7TV8gWrxNcPBxgIDCKKBo57r1TW7AHhC0IhxR/BuPAx9Q/xhhM8ARj8d2acP4tSp4X0lBRb7PZsF6v99yFssWZcDPee5bL5f4Eret6fwobY7h79y5HR0d7kcglSsL0pDKJrmM2m/GP//E/5nvf+148zdsuZvcQS9UoSuq2aaibhqZtMQEKl9Htarq6wYTovb0jiqjr1QpnLA4TEUeiDPKyjGlx2pau7yPMvKerG5wPmAA+eJq2pe07sqKI3u9NzW69jW4RGMaup21a2rYDa2jHnuV6Tb3bkVlHkWV0TUtbN4x9TzaJOqNelNmTyYS+71mtVtHx00Zusm0ahr4HIofZ1DXrbSytVoolcrNexxRFAax1rJsdfRd9/HKX0bcdXRujK4y17JpGRKeY/NFg2KzW+9CfTNJGd30UsTPhyrZb6VcSDzS7mkEyTljrWEowtSFyMe0uRhEweoyzNGFkt9vSNW3kLAI0ck10lchkPRu6vmc2neIwrG6W0ek5KtBomjaOzUQuPqoDGsZeiNI40u6iFTgXjm21WkVO2lryLKfebKm3OwgxTrQXZ9StlO5TtUPXdjhjqfJ4zyh6s2Ec6IaeXdOQZznTssJhGdsWhgEzBnobaPqO3XYXcc9a+rbDGkPfdhzdOWUcR1bLJX0nETBqcOsH6IZIbLUYtDHkZcwk0zYNNgBiLPHjSNv3+BDL4G2lTOQole9/4Rd+gbt37+5VEUHUMFtJvqDzHQ+MC2dnZ9zc3GAkI7ZyucrlKaxURA1ejIiau3EcCRLV0/c9fd8x2owwe4Q7fkzIphgTCH6MdMyI2BAJlnBx5nkGXQOE4CEhbME4GKPewFiL8R3elvj1x4zf/j/zyjxmiFXKbZPwKSVa5+fnLJdL5vP5nng9efKELMu4c+cOdV1TiSFhHEe++MUv8oUvfOEFYCm7m4tvjJHNpMB56aWX+C//y/+Sf/gP/yGf+9znQMQSxIDhrMNIlITLc1yeRUddLN2uxg8jWYiAbacxYLprWpwxFMYRhhFHTEUUnKXpO0IWldUAuXVkWAqJARwJdONA6weyssQ6GxXSJgMfsP65U+NAiHkG8oyBwND3kQV3GX4Y9/999dzvyHu/F3G891RZgR1ifqogYl8/DPLcgWCfi3F+GKJvm7X4YcTlGZu+JXOO4D0Og8WQm/gZa+iGXsbnGcaRMisIfeSK2zrqwbqhJysL+nEgmJgkMBpJDJnL9gk7DUTinmVcrSNejH0kzH3XMSkrLET4FRGehIALkBkXoz18zI6CgbrvyaqCpo3RArl1+H5gmhV0fY91NuK9NTHtlLWMwUsB3+hyEYb43xEPwwDsuoZiOmEM0UA2dj1h8NGNIIviYkyoELmQvu8ZfXTExQemRRkzi1QVXd9T9y3BGjJRg5hxjISt62MKI2NpXKA3gXEYoo+jD/h+YDGbMw4Dzdhj5PCazqb0iREhC4ZsCHgDvR8ZQvSZi7BpyYwhtxmhH2P/WYYPgT6MBFGHjJKqfjab8e/+u/8ub7/9NmdnZwRRw1xcXPCjH/0oxjcnQet62IYQ+PGPf8zl5eWek8uSgjs2qeGx2+3IREWT5/mePug+R7KJbDcbBlswvvRL5I9/k1DejUkmicalSLg0UYfo3oO9jbD5vdgajMP4Fj+O0WjgW7wtYfcxw7f+L5T1ebxQ9EZ5nnN6esrLL79MVVWcn5/zwx/+kPPzcxaLBZU4PH700UdMJhNeeeUVdrtdXBgBxBe/+EXeeustgihIlWtziQNiJ6m/B1nYk5MTfvd3f5f/4X/4H2I4Vv88V5YSW22T2YxyElPYdHWNDVDmJUGscNdDzaOHL+GM5fryMiJnHlPy9H3kBKvZlGI6oW4b1qs1zhhOFkdkGNq2o+1jrqiRwCgpioyzvPLgJdbLFe22Js8yjo6P6MaB69USV+Sc3ruLCYHLi0vq7Y7FbMbp8Qlt23KxugHRa6jyNsuyGGRcViwvYmbT2XzGfLGIyQzbhsw57j58QFPHwrgEz4P7D8iznMuzc7qhx1YFi/mC7XrNdrNhNplyenyy15OOwbO4c0IwhqvrKyyGeTXh3skdPn76hF4yuNx7cJ/NdsuN+H+d3DklL2POtK5tmVbRGrhZrxm6npA77ty5w/L6hp0kA3jtlVfpu55n52f40nF8dETmMrabLWPfM5tMmU4mrJYrmq4hOMu9B/dZbjZcnJ1RupyH9+9jfXQWHUNM9TSZTVmuVmy2W/Ii5/jkZJ+M0wS4d/cumXWcnZ3hvefo9IT58REffvwRQ99H6yGGoe8JNnIjR8fHZHnOWko6zuZzqqri6uKC0A/MJzPu3rvH9c01y+2acjLh9O4d6l3Nxfk5hXMUNqcUXd62bynnUybVhLau2a7WlEXJ/Xv36LqOm9Vyj/8uj2m+jbUcHR8zn0wZdk1Us4R4WLZDz0jcPy+/9Iix71ld3dC3HXmR47KM1g80wv3pnnr8+DH/3r/37/HZz36WJ0+e7HHt6uqK999/n1qMK6Po0pVgbbdbvvnNb/Lxxx+TJRXoT09P91JZJkaOjaRtn0qA/PHx8d6QpIQtpnIfGWyJF8Lmi7tYImFTDsxgIwWTZB0EG1ODxx/Z69iCKu4xEGJWWGMN+JGAg35NOPs2w/Z6T5BUQTqbzfZUWEXTRqxbuSygUutckkS6xKP+wYMH+7oFehrZRK82JmZkPSlKMe0vl0suzi+oylj7sixLFosFEymSW5YlZVUxmU7i6Z7nTGdTjo6P4umxmOOqgtOTExZH0akwyxyL4yOmsyllFVMUTRdzysmEvCzIi4LpZMLp8Yko7jOyMqecVMwWC6rphMl0yuJowXw+j5yTlHWbL+ZkRYFxFpvF1E6TKnqV53ncfPOjI3zw5GKlOzo64vj4mMUi9jefz5lOJhS5PnPOfDHHOEs1nVJNpyyOjnCZwxhLUZScnpwwKaPrSVGWzEXRG9NVx2iS+WJBURbkRU5eFMyPjsjLqK+ZTibMJlMWixjwP53NmEoKdCfK6tlsxmJxRDmpyPKYLmgqnvnWGMqqZH50xNHREYToGnJ0fMTJnVOyPANrKCYV8/lcDCeGvCiZzmdMJxOssUxnU6bzObPjI6y1FHnOYjbn7p07lJMKmzkmsymzxYKZOOaWZRlheHREnuUUZclsPuP45DgquTPHbDLl6OSYxdERvR+oJhMW8wXTckJZVswXcyZJ0gfF/dPTE+aLWLt1Op1wfHQcK64RMIJHiofOGI6Ojpgv5pTVhCzPKCcVx8fHHC0WMdV8kXN8cszx8THGOcqiYH4U10UNXAr32XSGs5aiKqjmU2bzOMayLFkcHTGZThi9JxODVFlVeANjiFx5LoaFBw8e8Eu/9Eu89dZb9JI5eBRrfyMW4VaiBnTfqyW7lxKSRgxUut6lOJeTGBx68aNUQ1aVOBYrTVFRF5vD4mXcyRsEN43p1PbyyXPqZUSkBZMkmgwhsuFeiqiEQDAWfKxAhLGEocXbArZP8N/9e7D8iEwshsqu6iRUllZTeJH4ZN3cRO5jKlWtJ5PJ3vryK7/yK/sK1Nq3cigTSek9EYskwpWpWPbBBx/w3e9+l+9869usVqu9uT+IBassyxjQjlQAd1nUoThH2zTMZjN6E2h28UQC8BJL6UOIynZjWde7mKq5LCiLEkZPZixjCFgXHVGHYcDlcYG8iHTe+xjci2Hsozd1sODKguC9ZE6N+gs9BbMs6pFOT05YS7Uhl5SZa9sWA0zKCmctddMwai76ScWuqRmGkUwsaEPXRw4csETOY9NEJ1pnHUUZi5woFzYpSro+ZmztxfVnkhf0dYOzjpGInOqOYqQ4zDiO7LoWLznPgveMQ0zp7ET/sql3GHHcPT4+phFnVyXsBGIG3ySAOohOyfrAYj5n27XUfXTwPZrPY9aVrsPLBsryHD+MEbcFD0bRQY0SNqdw9N5TlAUFltV2gy3ymBB0NmPsBoLoVPMyikyDiraaytrEyuXWOubCdWUuox16Oj/gsqiKKMuYETd60gcQVU5eFPTiVW8SK6fXsDzZW3VdM5vNGJLUXV4O/KosGb0XVYSLa+c9wcCgYi/R1aUfhxj8P5lw5+SUz3zmM3zxi1/k85//PPP5fO9kn4maabfb8eGHH/Lxxx/vGRKSLNmNZMfWtEULCbcMop/zMk+kaHcmBzyyt5VB0Tm3bYsx4LMJ4aVfInv8m4z5KYaRWG0i0gCDxRi7T68G7hMIm1oiMZjxOWHzQxMJ2+4p/rt/j6I+j0BL4sW8eEWTUGel4ilnpaf6KO4ewzBw584dfumXfon79+/vgRUS/ZpyK6XE4+lrELcFI742fhi5urrio48+4uzsjCdPnrCR6u3XN9fU4ptTigNkJZWrjo+PafuO82dnlBLSE0LU5fjRM60mHE9nrLdblrtNdPTMi6isHz2uyJlJZpLNdotJYuOwJp6Y1lFIsQ1PYDRQzaLVsGta6iZaZa21khY6crkP7t3fByAbIQyZKO37vmc+je4I623MrlAKJ7bZxhM2z3JOT04YOgkVMoZpFTnZ62W0YhdlyXQ2Yyf+eVmec7I4oh966q6l9yOT6ZRZWXF1cYkLYMqcxdER69WKromb4PT4mK5tWW42+MxycnyMCbDbbvGjZzaN4uT51eUefx4+fBhDejZrXJZxvDgis471Jubsn05jXdLtLlruSuM4OTlhVW9Zbja4zHH/3n1817O6WTLY6Ooxm07ZbTZ0TUcl1bfapqEXi+dsPseHEMWeEJjNZ5zOFnz89AnexeQA8/mc3XpDt2vI84z5YoH30UBkkyLVbd/RjSPz2ZSj2YLV5RUB8Ba8ifY7F6JYpweu7pnpdMq0qtiuo++nSxza+75n8COvv/wKXddxcXkZ9b0hkOVRV6Z7RI1KKiLqXqybBussd49PORUO7+HLj3j1jdc5Ojnh5QcP96FPgxjbdG/oGgWB05MnT/alBHdSGSyTOrXvv/8+7777LsMw8Prrr3N0dEQvnF8QtZIXo14lunVlhFRlFIT+6PuQR8KWP/5NxvwOhkEIW2TWUsJmjEkIm4qfwUeFsSrshbD5cYgc29jig8U0Txi++9+R754yDiMQcNYSxCIYHyI+cELYrFg0eylwomy8LsDJyQlvvvkmr776Kt1B4krd6Dpxpfr6XhHEmKioLouCajJhMolcWlOLG8pyybNnzzi/OOf6+nr/jEzCsfT0WK1WlBKwPg4jLpMUQVhKF8Wkpu+iEhpD8CFaMf3AVByEN+sNGMhcFmFqIIh1y/hA5ixZFpMQmsyhSnUfYh77EEKsEiXzm02m7HY7Wbi4aVWU77uOPMvJizxWlxqj6qCqKloNVxrj5oluGDty0YFYI2mZhNvM84Ku72LdAOHYhnGkk1RLk+mUMs9ZXd+QG4cpM4qyFIthIBN/rb7t2HUtwUWzvwmw221jCqcqBm3vhIiP48hiEZ2Xu74DG1M45dZFwj1EwuayjO12gw+Bwjhm8zl1F63PVrI0+66PxUoYySUVj1pjq7Iky3I64XIJgawo8CFyX6i/XVawXN1Ev7zMMakquqZjlHjTqqoYxoG2k5qzIuUYEyte5nlGlRfsNtEp2QODJJOw4TkXZsRXcRRRtirKWOxHjBKRI3we9TIRX8TNNnI7IQRc5hiTSnCZ6LCU81WieXznlNOTE15/5VUe3n9AVZYUkwnBwnq9YbteU4sjeCZRDHr/KNzgfo4HIX0+CfHqpfbo9fW1EDKLFbHSSKTE0A9sNdlsnmFtDHMTe9P+v3OOEDxjNodHv0T2+lcZs9N9nVpjJbO3SQmbjbLIr/2HXwsxBXh8eT9GA4KXAHg/MHRbrHWMo4fuhqJ5wtWP/xHVzXtkJkRlXvCAIeAYiCx55mJyyrZrMcRFDHLd0dGC6XTK0dHR3pFPTyifhIWk1Fs/KxFLXwp0k7iGOBG/KgnKLcWZFbGWNuLNrqenfq/tsO+QBOwf/kYy1sPvtem9h78dXvdpLX2uNh3Xbb9p+7TnpePilt8PP/+TtE+7NyT63E9qt93/s+7hYL1SuChukESTGOEYftZ49Lf0mrTf9PPhdZ/Ubuvrtt9u6+vwWSZJ2IoQacX/WRKR04pvqfqe9hIto/0cwkHh9EnNJTpyZA8pN9fUW4a+pd7VbHc1RVnhfWBXN8xmczITGaPbmiEQjKGtHlG+9ktkD77MmJ1gTEZmoktQcBZjHNZm8XMsD/QiYYt6CB+NBB4CHnzH0O0IAcbe4/strr9i9dF3GD/+Gn5scb7HmWgK9yFKwAGLCZGQ9X0vQcfRaffevXt85ctfjHoUAZyeDCmy7Sd48F4RUz/r7+n/9L0VMdmK9VXFTP2vCxN+BuEiQaDDaw4/H35/2A7vTb9Pf/9Z1xx+f9tvn7R5Du/Xdvj9pyF1uhaH7bCfw/Zp/f6sdrj5fla7jUjcdv9f5bvDz+l3KRG47To+4fk6n8Pv0v+HB1Da9N5cRFifJCoIIbCT0noqFg5J9IBJYqG1r7SlHNtt1+mzVarS/aR7uutimN37739I23aSysoznc4oMrv3q31uBIjvQ/B0xmHvfoHpa79IcfIYW8zJ8iJeaw1YG4majfryaBl1mK/+h18Le2uo6Njifx9rRY4Nvt8xehh68GOPGda01x/Qf/x1ms2SoVnh/AC+jxVkrIuZWL2n6+JpYIiKYOeii8Jbn3kVl3Bo+6kJoA+J1+H7w/+3/a4E7bZr0t/1Wfr9Yd/p/096z8EmP/ztZ32n7w/7P/z98P3hd4f3H7bD65ENc9t9t91/2H7WNZ/2++EGOmyHm+jT+jps6fUhCcEzsokP+9bPKjWkv6XtcIPf1s9tv2k7JE7ptbeNK32v47qtXw76OmQUbiO4KTzTOXPLuA6/S/8rIU1hrHA21hKM5fLyig8+/JCm6XEuI4SoTjEHKf6NMeLAbTHOkS3uUrz0DsX9t3HlgizLyMsKb2K2ZJsJt2YzjHMY48A48WMLz/Vr3o/CsQUhbDVhbBh6zzCamFu9vcHvzjAXP2Jzc0W3vcaMLfhYDDhSTo8Pz1O4ICzqKLGG89JGVvOWBdUJflJLr1UgppvxkDVWIPMJHIZJiNzh9+l/PuHZn3Tt4Xe3IdRt79N+tY1iKT38Le3z8KUt5ULT/ySbQL8/vP+wr8N2uG5p+7T7+Cv8frgZ/6pjIiHWOr9R/BQPYXg4f3uQseJwfoe4mo6PW2B72D6NsKVjSv8ftsPv0+tTmCHjCQlRTL87JHr60r70dQjrw+en36UwDiFEJieL0Q+bzRasI89LvJcMvMa+IIga2b/WGFxeUJ0+wt17G3fyGUw+IXeWrKwwbgYSdmWdE8KWvUjYDMqtPefYCErYGkwYGXwAHIwt4/J98u6ccPMRzW6FbzdkYcCEaEIHG313TBx8L2lKtpIwcLFY8ODOApucnocAVgRIAa1NgZ2+Uq7r8Hcr7HF6jU3Y5sN+9Zrb/h9+l36fttvuO/z8Se9v+zxIho10Y6ZIrN+ZW7hdhal+Tv9zgJSHvx+O45+k/dPcyyes/T9pn0rUdG3TA0zxTImgwveTWjqOw+8O4Xvbtdzy/eHn9LvD39Lv9ZV+f0g09bt0X41JFbl0j+n724jdz2qlhE2RRBcoHG2WEYLhZrnk+mbJMMQCNFUliRT2hC2IEcDEuipWCNbkCD97GT9/DTu5g8kmYHOMK0EMeZ/IsSlhi9ZQTxijy4cPHnwPYWQYPNYGaC6pP/gG0+YjxmGDH1qc73CMGO/pfWD0AUwWq4uLT1TqN/TgwQMePbyPFYtPCmSShUs/p+/TzZ2+EMRSYpUiqwL78NrD+w+JQnpt+j/9Pf0ubbdd+2mfuWWDaAu3bEz9Xls6xvSaFLbpNYff3fb7z0Lsw3Gm7dN+46/QN9LH4Rz/KvdZEY8OcekQdvo6nPdh+6s8k1uIyyfdd4jT+v+27w+vSa+97Z7bvlddm750zx3qz1LCpu/1t09qGgql16R7DROljZubJc/OzlkuV4xjIBMrfkwxleKtxdr4HwOjMYRiQT95hL37edzxGwRbYkKM5gmSpSfq2CJhC0ZCqqJIGEOpgh9BB2mtOOxGt4fMjtj1T9h87x8w3/6IzkxxeEyItf8gdjoS4/OGXoo5GENRlmTOcXJ6yuPHr5MlxOe2TfRJJ2d6/eF7/Z+Kouk1adPv9Tn6Ob32tr51jJ/07MN7/795r5/Tfg83zG3XpP/T9k9C2P5J26ch/D9Nv9pu6yPcIh4dtnRjK5zSjZ02/V0382Hft13/SS3d4Nxy7+F3/yTvD+eg3992bcosGHHRCImOUa89fK+vw3noNen/9Hv9TmGp8LQGMgdd1/Ps7JyzswvquqGTjL5H00II2YuHdvwfMwoZY9nld/GPfoXilV/BlkeYsY4uVELM9sYD46Lh8tclVjRya+L2obovIGCxRG91m01g/UP89/5bjuv36OyR2DEitxe95Wx05g2eYWj34qcTL/q7d+/y8z//8zgJno3exbEXpfTqHJiKiTrpoApJ9ZGRDLhZFu/tun6fxUL7UNY77TOTvGf6nZU+vdQXUEdYfa7+HgQ5FFE0FEV1GOkzB8lt5STbbbohdOH1fYoMOh7Vq2lTPZGXAHrlStL7U+RzSWFavUc/6/t03mmf3HK46BxT30F/CzFQGOtYtD/9LR2z+lshz9N79DoEPjou/V2vUU4klzhHbTo2hYmuo/aRPkfhrM/TuSFzVhehUfzNdB3SaxVWCqN07DoGHUe6rodwJIF7Ok4jOJbOK52PXq9rqLAYJZOG6rfTNfSSdUPnkj5Hn639q3+cjl33lzGGMO4wlIzeYTIwocePAU/OGEa837HbbHn69BnXVzeMQ8wmvFmtOT5ZkOWS5zB622KFWyN4YZgMnZ3QPfwVzCtfxRQLLEM0DYj4iiSpMDHBWkLYUkqcACqYDBdavO8J+Qnj8gdk7/7XnLQf0tno0PpT98v7YRj2KYw0RGkYBl555RU++9nPcnQUY+ecZAKpJYWRAp3kdNSFBLBJ8kIfAp1kES2lGEhmnyOBIqwSMo1j1dZKxtFB/HusZCdRgqtIpgip73Xh07EqEuiC+4RYpMinfWjfXkSCQ4T24k2uSKTz6G/JYJpuisPNp7+nm9glWRmMbDzdMCSERa/XcYxJsWadi/at79O1UniQEOb0Ox2/jsVJbj4ddwqvFP4pLIyEYOma5RKtcfg8I35c6di031KKvozJIai/aX99H0vUKaysEMvDe4LosnQ+CheFzSgEMp2/F9xR2KVz13Z4Xdp3SIigjqGSxJdVkuhRQw21DZItJu07CF4D9BLTWRQx1A7JZqKRQQAmBPJsTtd5oGZwGwYzMDSwWe1Yrm64urzi5uqa4KHIKwiwvL5mcXJMnpQWIGFiImHzeOPwNqd7+Mv4R7+GyWfC3ERvXl1P/Q9gfkNDqg4IU9SxRcKWKWErTvHLH+De/XscNx/SElMjHzYF/DiOXF9fY62NAdPARx99hPeeV155hcViwd27d3n11Vd59dVXMZLMThFHkUWREgHq6AMhxPeKfOnmI0QEdeKNrpkDGkltrAVo9H0jaZhDUqEaOdUUaZWAKYKQLEAj6bYzCZXR6xXBUuTV54QDAthLAQ1dYEUy3VT63SHR1zEFjaEUX710Uys8c8luTMKpuKR2go7PJAfC4biNxGyqI3O6NqOc9HqvXp9LaJoSaIWdzlmfof2l8NHxKlz0N0S304tzqc5Dx5P2odyLNoXXIBw18txevOfLJGRvSML1Osk8od/rennB1XSM+hwSi7bOR+FCQrx1DiapTKZrmfaZwqWXpJA2iVfNxE8zCHGaz+fcuXOHV155hVdeeYW7d+8SxK9NE8QOEtusaxEkPlvxTX/TvWATjs1ai28DPi9ptmt6rqjv1nTHA7vzJTffuWHzZIjZdJqWsqjIXcEwjGxWK+bHR3vClsLNCGGzgDeWYAu6l36F8PKvQT6LxdwD+8AAhaU289f/4z8NKeDSFvNNZTjaWFK+PMEvf4h993c5bj6go+KT7lUA3dzcECQZpHOOJ0+e0HUd9+7d28ePLRYL3nnnHd555x2m0ynDMOxjIDngkKyNKZUhbjDlBBV5jDGURczzNJE0KNfX13z00Ud8//vf56OPPtqX6FMW3UkgvXOOi4sLMgnOrapqn0SzkswDRk59ZGNZa9lsNlgJGVPE1H51IyihUQtSI3nscuFQezGyIAHBVoKOnYjwQYiuEkz9TsPVFJmVa8kkvKaRkDUdXydVnnRsRVFwfX29f05RRNN8L4VVptMYytVIcWYNO9tJEHOWZGlp25ZKsjQoJ6xj042YSX6uPM9fWOOZZFPW8eYiwiuO6Fh7iYN0cmj1klHCSaiTtXZfoyCdj65HVUWcVfhPJb+fOrBWkt1ExzZK9oosy6jrek+wFeeQkoxKAHT8OpZGolsmkg1EJZiQEDftM70nxQ2fHHxKaAep4zGRQi6NJISsJMpG8SlI3dtS4mRffvll3nnnHb785S8zn88ZJEuOFjneHaQRa6SqmB4Aw0GMa9/3jNslG2vYba8ZiyWbt0aax5bdx5ds/+cb/A8r/BArgzkbjYqx/N+O+dGCLCkUxE9xbDEZR3Al3aNfIbzy65DFKIp4+U9ztaSE7bYWAniT4YIEwpd38Mvv4773uyzqDxhsRJLn1z/vShdru92+sGhPnz6l73vu3LmDtZZ79+7tkfCdd97hjTfegEQU0pOslID1EELMFS9l0pQoVZK1oW1bxqHj/PycDz/8kPfee48PPvhgXxKwlnJwmaRKcUl9Ai+sei4plsqy3G9YFUH0VDTC1ejmQxYkT2o+GBEXfMLhTSQziSKMcnpe4u4UOTMJcFdYKMHMhLC55NS2IuqHhOMsRH+43W7346gkVlc3uZMUQ+v1eo8QSvw6CaRXIqXPUQ5BiQlC4NOxO+F++iTbr845HctOMrZ671lIYPlms9kTSyv6VoWdrnE6R92Y6ZrW9fNEAqXUTdWxVBLUrURLD6dW0vNMJIZZYa8ERtc5PUD1sNI5t6LSULhaIVK9iLCTyWSfAELxiIRA6iGoc66kRoQSzOl0ylaK4ujYlDBrogkrh1gvB0a6h0bh6qbTKffv3+e1117j7bff5q233uL+/fsURcFms9nHUeeiP1a81zEOw8D19fXzYPjrj9lYR+haRrfm2Usr1g/BX+6w3xqYLk8wAbabLZnLqcop4zCyXi45Oj0lL14kbIqLMfwp4I0FV9I/+ufh1V+HbAro9beTr70ouu8seR8weONwvsX7AVPdwd98H/u9v8di9xN8No3X3cKxKRDVeKAckaY8efXVV9ntdty9e5fT01PW6zVvvfUWv/ALv7DvTxGqqipOT085Ojoiz3O63uNcPPnLsuTevXtYa/nWt77FX/zFn/Nn/+hPee+99zg/P98jmp6oevIr4R1E55Il6ZcQjqSQVEtKmPR/LjqG1WqFkbJsunltIqoiAfVd1+3zUx0iihIj7XcQUTYlPJ0GRie6DkXcXIqIKLyV+HQSPtNJEWTd+EpYdDOna7fdbvcnu25chZm1luVyyW63YyFJQ7MsJjvU/pRzuLm5wVobc60lqgklWMrF9H3PfD7H+5ilVp+p8FVkN4kYqH30Sd1TJc7L5TLmOJMcX9qHwryVykmZiGjpoaUSRSeVsHpJ26TcqhJ5Hb8SJh1LLQWmT05OyEQVkLZRCLgSFj04rHBhSpC6rmMlRYsrifHMhVvSPpSI6oGk41JpQPFar1utVjgXs6HoQZUeGLqHvvKVr/Drv/7rvPHGG4QQ9pKIlYNMCfEHH3zAt7/9bT744ANCCDFTTTahGh3N6oK/vPwOZ+OSamsJ1x3ZfMLp8SnjMFIWJVUxpWs7Vjc3nN67SyHpmHTfGNUxeh+TQmAxrqB/+V8UwiaFhBLCluJxCOHFKlVK0J4TOUOI2cNi9ol8Au0N5uJb5P2SYJ5n2eCg8xQgo+gt8jzfn6bHx8eMcvpmWcZms6GqKj7zmc+Qy8ml49BTxwpnUhQVWRaR3DnHzc0Nv//7v8/v/u7v8j/9T/9vvvXNv+Dy8pIghKaToFwVJRTB0jHrptKNFbN3Pj8RFaF0cQdJv9SJ+KLcg0+K23rvWUvWhKIoXmD99dm9iFZKZEbh9kbRfylyphu5E3GyFy7KyWmsBNJIaTkVrxTh9ZnpJurFMu29Z7vdvkBkBhF3tKni2Qi3VBTF/uAKQniVsA1SzMdLjQslsLmIoKvViqZpqISLVLghuKN4o/3qRtTx69gUTzabDavVikw4WsW1ISk4Xdc1G6mipARqJ+J+Lhy74mcvHN52u2W5XBJEpLOielDOPyT6ql7KBzrR6+l89FDV8SjRVZzrheO0cigqMQ2iT8tFgki52a7rWC6XbKXmgqoIdJ9o35vNZp9NR8V95ZQVB1arFR9//DFf//rX+f73v09d1zx69IjT01OGxOqc5zkff/wx3/jGN3jvvff2sPNZgNHhTOR0n/7kQ5qnG7J1TtcMUMBiPifPMoq8jIW8u45xGKik6ppJ9KK67wMxzUfAYKzDL16D4zdi4smf5qUg3c+//h/9cTgkaPuOg4kxWaGJWXTLO/jlD7Df+78y3b6H/xRRVAd6fX0NokNxiY7t/v37VKLDOj4+ZhgG3njjDb761a9iEsuQ9pNJGuyHDx9ibB6TJwrCfP3rX+e/+q/+K37yk5/w+PFj/Bg3fUoQ8yTYXceqiKT9exEH7969y83NDeM47gvLKMEbhMNTtj2I/jAIkZpoksXdbq9bGkREyw84jbQpEuvCKmIq0cqFi8lFPCBR1udJMgHtR99rH3qdIqoVbsgKd1KILkrhpNfpWJQLUULnJFvyarXa63SCcJSdpLIpxXraiN6pELG7T7ih+XxOJ7qiUYi6chU6Rh2Pcs/pujoRy5TAHh0d7efRiC7OJRZOvTcTnZmRbK+6TlY4T13LTgqYZEkSVZ2f9u0TR1cnhIgkAWMhoqd+Pjo62uMHclDpXPQ6LweMrrdPDiafWFcH0bnN53N6ifBRwqZzDnIwTKUEXyP6uHQOmgxWM+T+2//2v83v/M7v7POpKZ587Wtf4xvf+MYen5fLJdW8oWkMZFOaYcuTpz+KODs5om8CkxDdMHbbHVU5oXAFTdPSdx3TxfyFOaY4F3xMTeSDAeXYXvsNcNNY4NrwUxyb/ndv/Ev/h7+jvmfxykghA0Z8RAY8AyafEkbIQ0N39QFlcxYz7CZNO9X3SiiQxTWiC+i6jpOTEzoRL5TAHB8f8/jx4/3EDl+DuI9cXp5zc33Jer2kbXZ88P57/Pf/3X9L37fUOylOPJvts/d6UdYvl0suLy/ZbDb7zX59fc1GCuBuJI35s2fPuLy83G/kQbgzRYTr62tubm64ubnZ3xMSHVInKdHVcFKWJRcXF3tDxGq1YrfbvcB1taK47YS73G63rKTQsBFx9/z8fF+wdj6fs91uubi4YCfJ/oZh4Orqaq88d87x9OlTzs7O6EW0qeuas7MzatGRWdF7np2d7YnHer3eW4uVoOqzMzEYLJdLlsvlnkjFdbnciyzb7Zbz85iIdCL1KhVuCpOPP/6Yy8tLejFUbLdbnj59Si1uPwAff/zxPiOrPvf6+no/581mw8XFBRcXF3tCoAV7O+ESV6sVl5eXNCJSjqIiWUuVrCBi13q93hMZHf92u2UiZSSvrmJdiSAHgnLjbdvuK6C3omcry5LLy0t2ux1euOH1es3NzQ2Xl5fkwgHd3Ny8oNPabrf7Is26V7z3PHv2jCCl8pqm4ezsbM85dsJ573a7/Xf6UoKo/ekeakQdoFzuMAx8/PHH+/lMp1M+//nP79fk+vqaq6urPaeGcLVFUTCS0TNhGipMtub89R9S/fWBYtYx2ZQwzhg99ONIljkIga6PufcqSYWfEjQjB7c1ARNGRizeVfjjz8HRZ8EUaEqQmAbtedP73ePf+t99csFkY2KpKzzG5rFIwrhhuHiXsn0Wq1h9SguJ/iglbG3b7t0/jJwsQQo63EbYtOmppsiohPTZs2f8yZ/8CU4MCXme77OB2qQIcC46Gn1fiIK3EkuSFRGnEmWwiph6z0yK+w4iyhz2qdci4ocumI45SwwWitiZcAIpJ6fXTqX4rs67kcrpOp9exCV9rhURMx1zSMQIFaUUTjpWZH3KJD+9zqcQq7MVTiZLqg7pmuo1Oi+9JiT+Xunveo0SGn2O/l4lflfp/HSOLskzpoTVJLomJWgm8WnTMeVi3En7UDjpM5QD9WI4qMSS6oWLSjm3Iak0r78hin89CBE8V3GxEAKsMFW4K/65xPgQhAvOpUJbITrWQbhLxS+dQyFGikzwLx2/rokVvZoVSUbHrPsJ4M033+QXf/EX98yJrsf5+TmbzWaP23F/jthxR1Z4xgJG7znhGM5KhmWJo4zpy7qezGVk4lTf9wNVFfedwuiF/xIi4LFgC8LRYzh6DCYTTu25ju2w/TMjbClQ0u96EVFyEXGUKzk6OtoDRgF+fHzM66+//lMT1ebUbyZR4ldVxXK55Bvf+MZ+IfVZutAkQeRHR0eU4hqhCKQLq1zMw4cPcYmTq26sXHR/ivz6HEWQLPF1U6WvPlfHreNTAqWiR1XFQh668bIs29d3sOL6EULg7t27LyD3bDbbbyKFSZ7olzIR4YMQmUwU5+oq0YrrhxJtffZiEVPEBDlAJpKoU8W5UgrlaNN+Q8K5ahJR3Xi6MQdx56nEKJSJX5xzjqOjIwqxSnofK0ypxXQUXa26XyDE5uTkZA9rIy416cGm8FZY63yDHLytiIgpQdDxKg7nQlgUtkFUECcnJ5RisZ9Op3u4OiGcp6enIO4lCMFT/PPeU8mhinBAemgq8fTeM5/P9/0o7IwUJNYxVeKMW4ouOxKO5+oYnbPOTQm6EWZD90MQw8Obb77JO++8s5+/juX8/Jy11N5A9mjfG1wYyPOKXWv44EdnbD6oWf5kZHXes9muY+xnMBR5gTOOvn/urnLbfjcmxhAcEjbz/0/CFm4haiQcW0gS4KUcm05EJ7ZYLHj99df3AD4kbEogdHPpNU+fPuX3f//395vZSyGITnRjm81mL0rqJlJrpZGTp2kattstV1dXzGYzlsslNzc3NKIfGkX/s9nEnPTjOFKLMnorTo5O3BwUHnVd78XORgwCiryKcGux5g2i06rrmvV6zSiuCEZ8iW5ubvYiwjAMexHYiY5nu93SJhWFdOwIsVNRxAvhHceRtThoIoRpu93uRfdMFNxbybJqRKezWq1oE1+5rRgpdDPvdru9ftKKu4OKPkF0fnVds5Wq45noularFV7E1hDC3rhg5ODbSM2KIBzHRtQMO7Fe73Y7Li8v9xKCk2gWXStjDOv1er8pjTEsl8v92EYxJrVtjG/W+anIrTAKonyvxcjgE29+xfPNJtad0DXsxJdyIyqPTvR2SswVbxRPGzEmKfx1PtqvzrsXq3cthpZc1AaNlE1sRNxU2Oua6t7Q18XFBY24pejvb7zxBl/84hfhIEzs7OyMrahHFI42r4ACO5RsNjU/uvg+l80l9fVAv/Z4eqaTaIRz1oLUMB3Hcc+dazvc80rYjCsjx7Z4PRK2EMB8MmEzv/Eff+P2X9A4rBEfemw2hTEjb5/SfPe/42j554wHVlEOiFwQP7ZhGPYny8XFBavVikePHr3AxRhjePToEV/96leZiDXNWo0DixPOEq5JgT2ZTPjBD37Af/af/WcE0d3oaatNiY1yM7r5tT8jp5EXP6oHDx6wThwpMxGBkBNTN60SxU4su8rRZMJN6IZRmCj3oL9b4cS8nKi56JVq4RzVXWIrLhXr9ZqTk5P9uFLCrPAZhej3orfS35okOkKfrcRUx6wcj0miBYyIXDp/5XgyEdsUjkMSmxgOoiq0Tz2wdG1bcbXQQyFLxNw2sRKXSQiXPldhVos+TglNJX54lVRE07FZOVR1DZD1yZLKV6VYj0upImWSKAC9R+egfRtj9sTEifqikYpn6dj1Wb1YxBWOyhmPYgiohXvKRVXSiiFkIpEzeWLNzRNXHy/cn8K6SzhRk/i3DaJqCQln3YqhRola3/f89m//Nv/Wv/VvEeSwDcLJffvb3+bs7Gy/d40x+LwDJmS7jI5L3jv6NjwC+6MC896EPmTkWc5uV5NZS+4yhqGnaVqOjiJHr82kXBs+ZhYig2LB+Mqvwyu/TjAFhBGM/ykdm7YXtf//lC18AueWDha5TjeNftZNoMBKrzt8KWFSzke/18Xsk8rUjXhx68mgSn9dxLqu2Yn5uxRd19nZGctlLE6rGyJ9XV9fv6AYHkQ8aOSkbZpmr2ythUNt5fTVsSkSK/LpWPWkrYWLWYsbQSG+d8vlcq/jANiI0jskFk7d5Eo4VenthLtTbmcUXdNms9kbC3STrdfr/dj0Hn2OEhTlzPSwuLm5oRbjQRCFvG4exDdwLQp6J24s19fXbLfbPazT+Rlxt7i+vt7fk3KrXoxCZ2dnXF1docaPP68AAP/0SURBVO3q6mp/oOpzdS2cqBiU41G860RfhnBm6/Wa8/NzusRie3V1xfX19QtEdSU+Z+lY9CBSGOxE2a4EuBWOSTkknY/iYiOcluJ1Kz5rrfikLcWfUA+Ruq5f+A45zHdad0C45qdPn+4JokuSUOiBomPiwClc+9TxHLauW2JdS1b02LJleuo4fqli8SDn6M6U+fwoumv4AMSiK97HjB+Hfd7Wf9qUknz6Vf+MCdttTQlM+pmEmB1OKn2l36XNHuRX09Mo/aynmG4QEncIfa7+XojimiTrAcnprCemPjcXzk9PVSfihHITijh6vc7hcL7I/JSg9yJahANXlJSr0Xno/5BwR33igR/khCU5sRUOJilKq9doH9qnTeIc9R6fGAK8iKv6HH2ujls5kEE4XN2Euk56jUmiM4bE3UKfkyUGjhR+2k8mnLKK7VYU4xxsEqO1SuX7dB6KBzquNgkNMweGLF1jvU43vo5d9W06Z8UBvV7XLu1Tr9H/SuTTsTvRB+v/iTi8p/AwB3ie9qswVa50EF1eeo/CSPtSgqdwT+GpLYRAEU5xXazG1foZy/cKnv5Jy5PvD9xsozuL4pm1Fg6MStrPbS39Vsf6V2mfqmMz8idgsMZBABM6+ssfUtYf/kzjAeKjo5vAiWWvrusXvNIV4abTKa+//vqeO9GF12aTTaGIlOc5q9WKb3zjG0wmk73uTgGnfStSzefzff+FWON00VXPU4rFyMsprMrqQZTxTkQOReBe9EuFePinhE+RpBSld4qAJjkRy7LcK6+1j0qssoh4mj5fx5eJItgn/lllWdKJjseJBVSRHcl4qlyIckKqTNe5zOdzrLWM/RBrqk6nVFlG3zR4P2Kd4+ToiHH0dH2PMZbZbAoY6jpyUxOpBapppsqyoihKujZy20PwnNy5wxgCTdvG4tVlic0c27qmGwcppTil7Xv6YSAvcoqpOKMK8dCxKreR5/leFNQNqmujxD8XUVtxqZAok/RwWCwWdKKHsokFMojUUBQFR0dHe9yoqli5XnEvzvl5DO8oUQcKewTnFR9TYmjFebZJLOE6jnR+fZL2SfGWhGArvuhzdd46/vQw1X4BPvvZz/Lmm2/uiZIVMfb8/HzPgWqz9og+dIxZRtPNOP8oY/NsQXc1o6sN3dDE+qthILNgDXgfMFjK8sVEk2mL2CqMkJsQTt6KOjZ1YTPPrzpsP4Nj84RgIcQK1piR4AoGVxLCc69w3TDa0u90Q+lLF1wBRcIl+YPQpcO+9b0SB11EJWRKXFoRMTsRTZum2Yt1g3isqyiiiOvF63wjxoAu8ezWE1mvUeRX0WCXVAAaRMTUce5E0TyI/qoXUbFNlLi1KNMVuXfix6aEqRNlsz5nFD+sVvRQXriBIdGZNaKHaUV/0iX+cwprfe4o3G0rYlEnCvhxHKm7jnVbM0jGlO16xXa1pK13hL7HNy39bkfoO0LfMzYN9WZNu9sShp6x79iuV+w2a0LfE7qO3XLJ9uaGoWlwwdNs1uxWS3zfwRCvaeodN5sb+qHDGWibLcvlFW2zI4wDTRONLApbXVMVDYMQMZ2vEeufwm0QTrIW9YLCTXFC4aJrrNfp2ulzWxETFS/0HsUHPchrUTEoTndCtEYhcINEpDRNQyMOtDvxS9PrFQ9bUREortQiwiou60v70rHaJCh/EG66FRXJRoxGVri8TDh6bfpe92C6L40ZIXPYfMY43MPbX8SUv4kPX2G7OaLuc8aQgbESxTTGMCzPnnBpny+8MDGRJIFgHCGbEnAYRjCxpugntU/l2ABx3AVrYhI4Ewb6i+8z2b4Xc4/f0nkKhC45DZzoVXa73Z5j0xPVS/jS48eP91xK2pe+T09MRIRar9d87WtfIyTinooEeo+awvUeXbxSjA1ORAD9r5yQS3y+siQVkS68IkIlZvxMRFGSTAjKMei1KlLoyTwRVwp9vj5b7/FiLbTic1eIX5M2K6e4jlfHNZVwFYXZVHJz6bMR7iZLxD091fXwyMuCLHMEH+iHkaKaMJ3O8N1AkRd4NzKZVhhn6IYO4wzT+YS8yBiNx5sRYyHLLc4ZBt9TVDllVWDDSJln+L5nPqmYVSVj32EJsWiHs2QBGAaMgXJakjtLZaIEUYrfmksiE5QrVpxTXEphovrWUTjlFPa6HiE5hPUexSvlfhQHdM0U1kaiGbSPSsap604iqZQHfoO6ljqmLMs4Pj6GxNdwOFAxlCKKz8TFSPHUik+jzkvHMxU3Fl13l4i/SpjffPNN3n777T0BtMIRn5+fU8vBrS1kJZmfkJuXaaZfZHjjn+P4yz/PbP46U+OZlWtM8IS+I88sIXjqpgEskyrO2RyI/C/sezw+mxNO34LZo2hUSJJR3tb+qQjbYazoba1LRNEscSE4OjraDz4T8WsymfD666/v2fd0ciREcDwI+N5sNvze7/3e/mQdEpePXhS7hYgiqdldm7LzuXiC6+npRalskvCmEMKek9NnjUmeqv8PeX/WbEty5feBP3ePcU9nuPPNEYkEEkMBYBXJopqEimRbi9ZUF41tbXzTq9QfQ+RHkCjpRS/6AJS1WU8arGVSi13FQgkooFCFMQdkIjPveMY9xRzu/eBr7Rt5cDNBimJbt7Xb2Xb23hE7wsN9+fI1/Ndaeh91UgSRqNSImwgz1f51ogqqBNWJhzXLMppJDOlMMjtof3Qc1PCcTvBrqiqk4kFTOIkuepVatL/X19fsJQuLqjgq6WTAWLVUTcsugWFVMuQp67Fln0FIUihyKmDTdfSJw8xKWmfYjSNDlmBnM0xZ0DnL3o/MTk4wZcHVvqIOgcp73HyBzzL248CQprjZjDQrGYKJ7v5ZiTteQZpjGs84elwaQb4bidBQRn4lVchTsSFNpWalrem4BYFwKHO04sTYT+IwGzHAO8GnId7qWryyeh+lLY0LVjrTxXt9fX2QqLSNk8y4Kpkr7So99JN8fdcS8aLHVUJVhhbEEbWTuNhRJPxqgn9TqU3pRaVFHau3336br3zlK4fzlLGdn5//BmPrE4sNM0hfpVp9mf7h28xffUjm5xTNGbl/SldXDG1NnsYNoO97sFF9folsFJuBYGIySe9mmJOvYhb3Yzqj/08xtvASdRRhGsrYnEhs+/2e5XJ5mATdOYqi4LXXXjsQnzZlcFYkHv1sZLes65o/+ZM/OezAhYAPEaapC1jvpwSi0oneWxmvLhAlxlIMtXotZUa62+tOnUwcB0psKslp3/NJNXozgUEoYet4KIN0EwmyExtLJrZB/Y0TiTGZpOy2wvQHUYFTsZ+4SRbdRDYbZdqZ2JmmY5tnCQOe9mQOX38VvnofXj3FvnmKeeuU5NVXCa/fIbx6G/PGPZK3XyX58qskX36F7CuvMf/ml1l++6usvvMO82++TfnOm9z669/GvvWQ/tVT3NuvkHzlFcpvvU3xrbeZfecrHP313+H497/F7Pe/Sfmdr3D0e99k8btfI//OV0jffIU2OExVk8qGo/O5WMS4Q6UDpTmlHSZ2KB1bnVsm4OZEbGbKHDNx3iAxzzo3ypyUtnQunMA4pi2Z2D6VRnSe04mEjPRVvzcSTqfXzcQupt/rM+pc6udxkpklE0nPinQ3n88PjNJPbHFKlwDf/OY3+frXv844ESJUYmvE0639LboBE1KsW1G1KVdXG/qrM4aP3sU//wV+eIofWvzQkiYWY6EbOkZGiixKrC9rQV4meHwyh5OvwvwBqMRGLBv6svaFODZUtw3grCEYsGPD/hf/d06f/z8ZzYsMujcZm7a9QBwK8TJtNhuePn3Kw4cPDwSjO+DR0RHf/e53OT4+Puxi05dObBApKIhqcH19zX/8H//HdF3HcrkkE/VDmYT+1wGsxT2uxK8MSJnu0dHRYTcMIbBYLEAITqW4TAKbe7GrJaI+KlNRQqgEVOpEKstFbQhiR2jFqaFMsruRCNKJja0VXJX2pRd7jhJ1L4bzXFSYrYB8w0TaYxKtkUpcYifZPxIB2+pimM/neO8xQ8uuaWhfu0v2t76Bvb8kDJ4ksYRkwJgFQiC4JI15563BpSlJWZCWBWmWUc4XlOWMcRjIspyzR4/Z76/BWmziKOYLyuWSYlaSZQUkjh4Y6hbXBoampQ094/mWs//mR3R/8gPcPkpH8/n8IOUos5hJTKUR6dZKbKcuYmUQKtEsFgvyPKcWcG4u0B+VXJ1sSqmEbHmR0HXsW8GbZQIW1sD6IF5jZSS94P50A1ITySD2rnaS883KJqqRFXqP9XpN27YHlVnnfUr3SjNKs1MJci5x1FZsbnrdRDb2pmn4B//gH/D3//7fP9hcE8kP+POf/5z1eo2ZeEqLpqdO55jsLudXCe89vmJgJNuvMd0ZbtGwKgvwHYkLeHr2TUWwgaPZUaxx8DktGLDBMxR34cv/O7j7uxjfR75EIPhI9zfbv5bE5vlsrKgOsjYz8folIs20YqDW3VUJBJmc11577TMTNuXmSqRKMIh9YBgGvve97+EnyHU9pr/XHXgUw7qqEdNrtWL/mzIY7bsy0lHUzun5yoimi0V/s50g23XRGAFQqujfCCZLCV+JSYlb72Mn2WhrMVY7kSwbMTjrb5RpIRKFql5h4rWtxait19gJ5krvMwwDfr8ndAPDaoH70gPc0QJ/0eKeVYTrPX0/0G8r/L7B72uG7Z5+vWXY7Bh3Ff1mR3e1YdzsGLd72otrmvNLrj76BNuN2HYgG8A2PWFT0V9t2T15xvbjJ1QfP2X7yRM2v/6U7cVz2nHPUFVU7z2i/dXHDLJp5HlONXEcWJHGVf3UMdc5D7LRKB20UjND6VPHwAt+by9Ie2Vqeh2dw50EnutGpCqf3lvnVPujawKR5BKREFVd7ERVHcXepRuPMslGHABKi0YgS0bAttOXMmddC/3ExIJg/Foxiejxrut45513+MpXvnJghvo8mmBgui6HrKBJwZuGzfmHPP70z9ls36fef0LfnWGTjjyLjgNrADz9OIA15EkWi7i8pCk3MQDpHE7eeWFj09/8m5DY+vDCgH34xYS5TRdYITFxm82GJ0+e8PDhQ0pJC6M76tHREX/zb/5Nbt26xTDBvShhKvPQydRFut1u+Y/+o/+Irus4OTk5fK+7KWLrCyJ9rVYrhmE42MCY4HiapuHk5ORAPIiaqtccBSKh75VQdGHcZMh6XL+3E2ybMjJlhIXANvTZdQHq/36S1VSP67m68IJIs71mXhCpTheejqUuJv2tSobax1STXvY7RmB97zbuf/U1sru3qP/yEeEXn2LGlhUvoA2jpJmx1uADjCbWfkyShMQlWFk4eZLSNg2JjSpTMum3LuAwBPxgaDNDZUbM6yfk335Ikmb0P/iE5KefUvoXY7QXe5hufIVAN8xEgq4l8kBpahDpVJlMOokuGCbFam5uXDpGek4yUeG0L6ruOVFzR5HCBrH/Kh0onXYTWxmTTbyua2aT4HdlZsps9LrqXPKiWioD1WdCnk/HROm5muRmyyS/3n6/5x/8g3/A3/t7f++wySrD/sUvfsF6vT7Mufce744YQ00xdlw/fcwHTz+hK1Pc6EhDICkdLljGdqAoZhhr2ex39PSczE9wn5dMQ2xsjoAv7xLe+sMosYWegP2fL7HFMXa4JMGPA9YmODPC+iPc5S8ZiYtOB1wJxk8yyOqxVKQEL1KMMhcnqpQXaevVV18ln9jYdBLCJGwoTLyiViSaP/uzP2MYBspyhk0LTGqxCVyvLzi7OONys+FqvSVLHN/69jd5/e0vsVlv2D6/Ju0CjIZtVfPk2WO6rqWSmM39bocLUKYFjJ4AnJ2dcy62hv1+z2a7ZfAjuU3IXUriHJdXFzx69CnGBfIiY7vfcnlxBSGwWiwxAVqJULi6vqZnYBg6ul2FCQabZtRdR193JC3YMuH58+dsNpsDs9IddL2+pshSyjyj7zq6usWPgRAsl5fXrDc79vuaWVFQpJZqv6Xre6xxDMPI8/NHbHc72nYgT0vauqfe7bEBTJLS7Dquupr0K6dkt3J2P/0VV3/8I4qqgn3N3Fh2Z+ecPXpMe7XG9gPt9YaLR48YNzvKzjOcX9M8PWf75Bmb52ck3vP4w4+5fPKcq6dPSUJgqGounj6l3W7oqortds3zT35F8/FjjE9IHtxlTKH+6BHpszUzk3D2/Fm0+9Qtzib4Ec6fnWFdIM9SDLC53nB5ecU4BNK0IISRzeaS6/U1RVFQ1w377R5jEsZuxDnDbrvlk08/wXvPyckJV1dXPDt7TpZk5C7FjxF7V7c1wcDoB84vzni6PqcfR7LR4pqRwkQpb0gNjRm4evIEh8H4wDyb0TcdQ91jR8tuc81mc01dVwzDiHUpfT/EwuPdQOIS0tGwfnbB9eaabVez7xrauqLa7GLBYMD3ESqyXl+TZpGxbfY1Tx4/IU0MifURctGP7DcVWVpQtxVnZ2esJab6m9/8Jl/+8pcP2oaRTeni4oJWzCfKoDMXGLqo/WyqmmfPz+n2DUWScbw6IU8LumYgBEOWRbPTMIw4HGkSN7XpGj8wzWAIweB8S58dE47fwpanoIwwjBO57rPt85VbDpwt/g+xnidIpln/Ip5PJS7dJQbBFamUZEXV7ES9m+6GL2Ng0/ay71TqsLJDZxNDqzEwdymZD7h+JLeW0qXMjGORZBQnR/hFQWoti/mMYZ5wPTf4ZUZqHbdWRyTWEUZPuZhzdPsUP8vYJyO1jbvlrCxZrY6Yz+esVitOJMNDnzv2mad2I8m8YHVyRJalmNFTuPRFZhFgGCMWpyxnMV4wzxmtwdso6YTUkC5KsuUMsheg4FJy8ieiwhRFwWI+J80SBj+CNQx+pO1a0iTl6PgY4xwuSyGx9MYzJAafWChSsvkMlzqSVIzPaUqaZxEo6yw2T8mLnDLPcaPF7wbS1nA0ZsxbR5HMsSEjtSXzbEluS9yQkpuCmZtjBke36xlrj/WOebZklsxxPmNuSo7dkmOzIGsSssYw6zOWY8GyT1mNKSfpjKNySZYUGJPiXIa1DmzAE/N7LZdLFovoGHEuYb5cYVwsRmSdpSgL8jzDJo7EORKXUBTlwSifZfEZXWJZHsU5SiS7isI2EjH+W+fI8pxOVMJhGPAhxPvO5xzlC8o0p8sN68xz6Qa2poMAM5ORHC1pXaAxI63zdJmhzww+dyRFQV4UZHkegciZQIcs9MNA70fG4HFJwny+YDafk2YZhLgeMq1RMHEeORvHJM0yylksWm6tA2PwJuCy6JRQAUNtdbqm9aVrUduUGXVdg4FYkd058rxgXs5JnFRtG1/YuKPEGSBA30VtZtqCaCHjNFrFmChUpSkuSQgmgrNv8oVp+0JVNIQxZvUwFj90pMWMsd2w+en/lfkn/w+uNlH8t4J/GUSlUpE4iDSXSOqcXIqjPH/+nDt37hyYk6pQR0dH/I2/8Te4devW4YHNxAOqCzlMwqFSsRX9J//Jf8Jms+Hk+ISSDMxAktmDK3noPc7kcFRgckvew9APXPY1g4NVNofriizP8SFwfX2BEa9ZN3ZRDbeO1MbnGwVqgaiqACTRDukwZEmKNYZmH20mziVYYVDGRZtYWZY4a9nv9gzBU6QZth/pB8+YOWyeUrocv2swZTTsqmqhBDAMA1nicIlhAGySkdmEtm4BQ933LIo5ZhyxdsBbj8sTxgDtviPBYguwJqHatlib4pwlzRP6oaHqanwzMtw/Jf/ffAdO57Q/ecL4F5/iAth9zK6hG984jgTvsS4ad8cQc+In1uGMJc0z2r6j63twCUWSYXxUJ0cvajmWMIz4BJqkAx8Yb90m/6tfJT8pCT/4OelHz5i5lLbtKYsZ+33Ffl+zWCyYzReMRCCttQlZVjD2I3XdEHzAWkM509RIIeYESxxD7/EGUg0Qdy9CrObzOfNlNMBXdU0nYVfz2Zxh6AWXBaVNoxRRZHQmOsb6fUc2Qte2XA17yqxglhWYJAEXF+3Q9vi+wxCjXYbRs1gssYkjL2cEoO5q8sHg65beeGozgrOclEsSY6iaitF7XDJJQBCi1kRSkDpD6gLD2NMLZML0ljAE6j4CiFUK+4f/8B/yd/7O32ErscqII/Ddd99lMymRqWtdbb8ffvgh77///kF11w05m0TlqFqr15kyT6XtEAIYS+IchfP0R29TfvMfUr7yuwReeES9fwHbmrYvZGzGBIxLY7WqoScp5vT7ay5+/H9i/ui/I0mj50iZDxM7xShGetXH79y5w0Kyvj569IgHDx7ERT6JW1ytVvz+7/8+d+7c+QxjCyKipgJcDKKKBtlJ+77nP/vP/jPW6zWnp6ekwYELjAwYG9XVsQ9Y7yiMo9rv2dQ70iK6wLumwTlLkmU0OFbzGbvLa3zXsZyVMeIiwGAMjbOU4sU9e36GH0eOlhGTl/kB5yweQ5qluCxmzr3ebSnLkuVqRSDQjgNd33G8OqLIczZX1/RVxzIrybDUbcMu9KSrkpPlCr9t2PloD1K7pDoPrLUUecYYenZjj7eG+8e3sR1s1ls2zZ5Xju+RBE9TbWlCy/LeKQHL7nxLEgzMHVlWstvWjKMnyVMWxyVVV+GHEecN/rX7zP7+X8U+XOBrcI0lWxYkWYKzSZTy0pS+66h3e4a2iwuoa7HGsjg5wSUJWVHEzA5VxX69wbcjvmkZfU+sfxugH/HdANZD0sNoMXZGfvcWduypf/Azdn/yE5J2pHAZq8WSy7NLrtZbFqslt+/cxuQRszh0I6vlilk+o64ari6vMBaWqyW7zYahHzi5dcryZMm+bTi7OGdpBASdZ1xKDdo7d+5wcuuUbuzZ9RVt1bAs55RpEYsBX29YrlY8uHOPrq0ZuxbCwGKxZBg9vQ9sN3v262tOFitOj45p8fjckqQOX3eMgLeW3XZH2zTMFnOyWU42KzCp4+zyjNIn5N7SdB1n2zXBGB7cusfRYk7V1zT9i1RIFthcXbNfbzm9/4CToyPq/YZtvaUxniRJmdsZw67heh8dL0YcEf/oH/0j/u7f/bvsJPLBiPPl3XffZSvJEJSxqfDSti0ffPAB77//PnZiQ9QiMnYCGF6v11xeXh5yEKaTEnx6vwCMw4ALA9XySxRf/4fMHnwnZiwyHmNeRCndbF/I2KwZCcRQCO9HXDZnrNdc/OT/QvbhfyM6bmQc005px0bJEmGlzJ7CDh4/fsy9e/cOXFwnYrFY8Nf+2l/j3r17vyGxIUxTdwaEs6sz4Z/+03/K2dlZLEBhLNksZbQ9AyMOiwsJY+tZhJSFS6mHjtp3mCIh4Bm7nqNyzq43zIqSarvBJobZakYTWjrjMcEQ9h4DFHlBtd1hjaHIohd1lzaUyxkOh/GB3GXsrnc025r5bEaaJbRjj3c2qnnWYkaPHWEYA5lNSDFUQ8PeDORHJfPZnM3zc7LhRdC9Pr+q/VnqGM1A5YA0IR8dSespsoJd22CMY5YkMHbsQk1ya8UIDJcVS1vQhw4TLGG0JGlKE1rs3DG4AdqBoRpxbzzk1j/8A/JvvU6xOiZ3GRSONLWMoyeMI13d0NV1lFL3e8ZhIARPsVpy+uABMb+fZex7+qZl8CPN1ZbmesPQ1gQnnuemg55IuKHGjGCGAmxKf31N94sPsO89Jm1G0mBZFHN211v60VPM5qRlDoVn6Ab6rocB0iTFYenbAeMsxhmq7ZYiS8mKjN54yBz7tmbWJjEeUSQ2rxCRIiekhsq20I0kgyEjpWs6qkaqXa2O2Dc7BtPh7UCeF9jgKGxJu+/pdzvyAPOyZE/HOE9JsgS/b2C0uCSjqSqGoWO+mOPKlCGB4CyV72BTszI5qcvY9z1D8OQmxRlo6LBJgstTCAHrYX+1xrcDxdERZZ5Rra/wM8tQJGz3NatQUo6OXRu9o4M4VP7RP/pHfPe732UthXiCgJrffffdg6aiWpOuwWEYePr0KZ9++ilGHFLK3HS9qmBydXXFer3+TLSErvUXjM1g8CRhoD3+GsU3//cU936HEMAi5QU/Rx39QucBRK6MsRgCPlisM7D7lHD5Ln6Iu8NUH1axVRmbiqKFhPIMYptQLJUyMB2ABw8eHOwaN5vuArpT6Hfee/75P//nPHv2jHEc2TQV5IZ8WZIvSlyWkmU5YQw8ujzner+DbmDX1/gHK2ZfeYhPDWFfYX3O5nrN5eYSu8gJJznVAsY7JelqDtdddBb0PUM/kCUJjJ66qmheK3CvHONnGc04MPQDbdUxVG1kXnR0fmC2mrO6dUzbNWzX16TW0VlYdy310NHnYI4KstsrzDznen+N3UbXfyUIeSWQuq4Z+o6BkeLOCXdeeUBX1VQXaxZlyXq/46ze0uOxhcGvCrJ7R4yznKbtCGOgbzrWVxv86MnKgmqo8Tksbx+xWK5ITII1KeVigR0MxbYnfHLG/v1PMFc7ml89ZvPur7n48S/Z/OIjmo+eUP3qMe3HZ3SPr7BXNcm6pfvkOfsPHlP/6gnth0+5fPQJu48e459vGHdVDJ0aBsbLLf6qYjjfUT19TvP4HH9VM24bxnpHlntuZXOch3pX0exr6t2exXxBWuZ048iQeJariGnc7fZs1xvwMCtneALrzYah7VjN5/RDx/Orc9w85+T+LWwduL665nq9piyjLa7ve4ZxxBYJ48yQuoR6vaPd15RZiXMpu6qmq1tqO5K/dkL+pduE05LOB9KQ4euep/tLkjSlNyMXY4W7u6C8d0I1NGzXW8bO01QVYRjIihRXpoTMkh+V5Mczrs7OqC43dE2LTZJYo7Mb2Vd7BjuwOFmRz0vG4Onblma3xwwjHcT4XT9w99UHLB7cZr3fMexb8uCo24gCUCjH1772NR4+fHjA/hmBKGkyz6kmpQ7CXiITHj9+TC/FcI6Ojg6bcZgkvFDeoJKaEbv5VDjy48jQdYQwYo9fJ3vwLdz8LtYaouElfI7r4LcwNovHj7FAMcbgPaRZgq2e0D/7KSbEDAFe8p2tVquD5KbShXbcidu7k+By5dTKwNQYfv/+/ZcyNjNxFgTRy3XAAf7Fv/gXXF9fM5vNSK0lTR3lvMAljmZfQzvi656u6UisI7MOn1nc7QXl6ZKhrrFVQ1cbqt0e33XMi5LEGYyFYpaTk9BfRvySNSaKydYSfJRY8tszZmVO0kPYtwy7hn4fPZt+DKS5xRtweYrLU/zoCcOIwzA0I92uwfQ9WZJg86jezbKUoW3w6wgd0ElPBaYQ7ZqOpEhxRzPIUoa6xdQ9iXWs91vGfiTzgdIYXOZIlyXOOsyuJ62j7alvO6xxpFnKYAayo5LiuGRoB7qriv3zK85/9Smf/uAvWX//p6z/5Mdc/vGPqH76EZv/6WdUP3qf6z/9Od1ffoj/6ad0P/k13U8+Zv/n79P97GPan/yK3Q/fZff9n1P/2Xt0P/qAj//4h3Q//JDyV+f07z2mf3SBe7bFv/sUfvGU7ufP6D94zPjzx2QfbTCPd3TPz8m6mtIk9HVHu6/xbU+zr8mLHG8N7dhBakjShHHwtHUdx98l0abZNOzrBvxI4iIS3ieG+emSZJZhd562abEuqk5qy/TBMziPOUrw/cDuckO/bzDB0HYDbdeThQRrYXY6I5unhHFkXDcUtWXYtJxVa8okwRBoE096Mmd2tIgg1P2A8y7OBYGsyAipobcj2bIkWRTU2z0FFjvCGALWpeDjEs/mGfl8Rh88bdfSty3drqLb15ClpC4htYZkURCWBU3XE6qedIS1JIhQie1b3/oWb7zxxgECFAT0e3l5+RnGpmtT1/f19fWh6I86uswk16IT89M4KTadTOJsVXrT97MyI89Syjtvkd77HUJ2HCOpBqmJO9Hops298Xf/j5/L2AwWHzzGOsAQRh8Xev2M5slPyGyM73TOcfv2bV577bUDZ9em0lwyyX672+0oJyl6VJV1zvHgwQOWy+VnBk2bPrxKefrbJEn40Y9+xDAM3L51izKJiz6EwND21OsdSbCUNmXucpZZSZKnjA66roWmIRsCWZox9oYsSZilOcsswzYtYd/idj3NxYauGUmdY17OMAGcjQZO5xL6zQ5/uYPrBluNzFxOahKsc8wXc8p5zmhg3zb040iaJhRJivGBIiQcpzPmSUYSoK8bhrrBtj3d5Q5HjAZQT54SR5IkLBZzskXBYCNhhbanMA6HIVi4szjmJJtRGEursYHrGq5qisGQzEqW8wVZmmMsDGEAFysbbZ5fY5qRlSvJvWG43rHqAsdjoKx7zvsdZhyZpSmZgcR76HvMMDDPM/I0xYYAwwD9AG2Hb1tC15E3A/ddyfFo6K439Ls9aTvgz9dwsWPmHSvjOBotRz4l7T1jvScJA8Y6xt6TWsdqtsB4CZ+ThTHiqXYVbd2Q4FjOopeuazusdRwdHZO5mGI6yVOKeUla5pydn9NdVjiXcHrrFCRSpShjTYF9U7Heb6H1zJOCk9UxWZozSGqn0+UK33f01Z7mYk3z7JrxsmIWUhyGk5MTljYjcwkmsXRjz9h1ZN6Q+ZTc5eA91hqyPIvP0daMY+Dpkyf0m5rbiwihqJuWgCGRDa8PPW0Ts7gM/UDhMjKTkBhHsVwwn5V0fcfF9prRQpZkuAFSD9bFrNOqXX3rW9/ilVdeoZ5UumqlGtcwKc04XaNqeuoEt+rF8aJCyfQ3nRbMTnJC5hjyBJelpNaRJA6bJJg0ITgI/QDL1zAn7zC6OdZ6bPAR2Bv/fuPl3vi7Lwom32yBFGM84yjphUJHGD19u6E/+wk5sSjuKIDI5XJ5QNLnkrVgFEBhIiDGIPnsZ7PZgZklk1TPr7zyykFiu7krmJfg2JTR/fCHP6RtW4rZjKprWa83DO2Ab0fGdsQaRzcODH4AF+h8T93U1JsNuUk5WhxxcXUNdU/d7LlYXxISx2gsAYcNCdvLLV1VkxiLCbAXNLlNHP040FY9XRX/hxHmswV1XXN29hxroZgVVE3NfrfHWUuRZLRVjD6omgafWnoXWFc76qrBDgY72Hi9CYB1nAQ1W2sJqaUaO5IRkt5D2zN0Hf3Q0TU1+ayk8QPrpma3bzAdmNZTVzVdiMWwIbDZren7DhcsuU/x655h2zL2I2mR03YNV5cXmMSSLRdUBK53GzKXkicZqXHUu4r15RVjN5ClOaMPVLs9najjqU0Y+4Fx9OyrmmK1ZDv01H1PV7UUISV0nn1dg4me1sFZtmPLvq+wAWaU+MTR9i1NVeNwbDdbNtcbjLfkaYbpPOvnV4x1jwuWxMWQoO12ixlHcmvY7XcMfmTwYEzCLJ1Rr2u2V2uSJNp8teygc46yKKnWe7qLilCNpDbF2oTrzZqr60uMCSRFwr6paOuObtsxViN93YM1DGHAtB04Q8/Ivt5jhsAqn2NxdPuaoWrY7XfsqwprE6x3JL3F1YH+rMLUIUJfrIulC7uWJHFU1Z523zA2Pb7qSQZDEiy7XcWuaSjKHJMYrnYbql3FUTanDI79bst6v6XevsisCxxU0UoSKhhJ+3R1dRWl10nOuSBOvHEcefToEU+ePKGdpOSyk7yIuo57Aa4fk9PeW1K/eUx294TlaoU7XuBvzeHBCeZojtl1+Px1kjvfxGQ5nj12dBjjwL645vT1hRIbWAhj1GONxfoRjMM3lwzP/oI7qxlHR0cHpoUwLjcJLlYEfzapBqUqo5sEmiNMasrY9HpMBiRVrM4E8uGc44c//CHrdSTIPMti4kOt2pOkzMoSl0SjcJIkuMRFj14S1WyMYegHlnlMuDiO4yHudHrfUipqu0lEQCreyig9LSil6lAygb4URUmaixc4TcnSLNowh5HERKBikkS1PRUnSTZJhKkbgY6FqvlRSnEMfsD3A34cyZKE1CUkToP+XyQCyCSOUrFaavvUcVaUeyLqQCaB8focZVlSSuLKLMuweYoJhqHtGYcRZyyJTSjyGPxvRBpPBG+o99N51+fSjVCfK5+UAtSFo7CBJElo+wbGkSw4CpfSNz1ZmjJbLCLUJMRNYDaLRUSmz5On8R4+BGbzGVmRM/oxwlX6gTLLWUjCxb7vD/hDK8+SS6IFfQ5lBtPnm/6fzWaH2FvrHB4fY2sl0wUB+qYl9J48eZG6SOlMxy+fpDJyk9hjHSe1B+oY6bpMkoSsyLDW4KyjKAvSJKXtxFmQpKTmRciWc45vfvOb3Lt37xCChtSIUMYWJoKHMjhEulWJLeILY0U0PTcTh6FiYNsyx371If7hMWFeMLt/l+F0TnOrpHzjPvmyoLvYMLg75Kdfw6Ql3vV4m0go1sutbF8I0A1hYpyLmDoOoF1hNI3gd5C4MzUK+knKZTPxduiA6LHpd2ES3H6z6Xl6jkpsiAMhSDqhq8srqn11MO77IUokBoMJsY/r9Yaqqhn6AWccfhhpq5pUwoq6SZxeM0nWhxBv3/dst1uqG3F9QRhdJsHIKm73klyyaVoMllle4jA0u5qhGyJzncSe9pNEibrzJRJ2o7GnCINrmoZmHz2HzjjwMLQDQTKUDsPI+fn5IejZSYYVVTFSSW20kapQ9ka8qi6SWlRYXVR1XcfohWAp8xKCod7HHFuLZcxxv93FBAjKpPu+P4TYGYEPaH2CQrKg6HgrE19LlahB4i5biTW2zcCClCxY6t2epq7Ji8h02zam2slkMx0FehQkNZaxln1V0WtdAR/ompZ6t8eEQCkJES4vLwkhsFwuGaVClzL3ROqi6nypU0wlnOkGrPTsvediu2FTV/TjGLGNHsa6w/Se1EbNRa+jkJ5B0gspbQ1S9LiSmgbRzvqibGAuGWcGAcq3bUvXtLRVBG2v5ivCEFX1oR/xQ0yrtZFkrKPYv6Ztuv6mL2T9qWamNOYkacByuWQmhZV0jej6Ncawzw3ZrSOSoqBZ7+nElDM+3dI8ueKq2rIbWwYjPGEUp0IYiXFAL2/2Zkc/0+kQGVl8gPgKkadhTJS8tPDJbrfj4uLiUPBCi3Qoo2NS4QkZqCkz0+/04acvZZL6WZnldKdQZuokptKL+3nKXDrJLeW9J/jA0A0Y73HeYIdASiQGJ1KY9lcZMUKcrWQw1fuHSYZTJSS9t+5uPnjGwTP2Iwwe+gBDBFAGD358USdA+6zPqvcNE3vkdNH4MV4zwWHGQNd29N2A94FxfDF2eh29z3RM9fh0vL3EnOruOiVgYwx919HXLTbEHXKQcR69ZxjHWO1bmMfNuVYGqWOr32sftW83+3743I/QDIxNz9iP+BDjCsfRM/SRxqbPOYrXru97fAgY57CJw8v42fgDXIgawDCJVdY5tJO09P2NuE3tlzIifR4jMal93xOApu8ZQzT8913P0A2MXY8bwci19bfa5+kcGTHvjBLCqOOi//X+h2fVOfaBoevxwwjyPowB46Fv4z2UrvS5pzQ2fd1s03GY9p8JvU3nk4ldLg2O1DuOihUnR6eUiwX56RF2OaOqa8zjNbPBkGc5wRpG72EM2CGA/82+6cu9/rf//S9URY3yRWMxfgAsobvGn/0lx0UE32nSSCd5qBaSWkcX6Cixosp8NpvNYYfWB01Ebbt//z6r1Qovi2c6SGYC5tWJ8KIS/ehHPzrg2LI0xms656KkZgzWRO9lkqQsV6voyBg91licNTgsjB4fXuTs8mLTUvvAdGJms9mBkFQV0OfTyVTCGyW//Hy5wA8DYxfR9UUW1cFhHDEYivyFWmgnKqmfVONWFUeJKEkSijwn+JEwjNFTa14gufu+ZyXmAiV2VV90EejuqsRnxFuli9qLlOIEMa7Pn6ZZZJ59jwHKIqrg292OECIIVo3IOpalZF9RCUrLCapkGq/7IjWQqp8HgpW+hmGkbzvGALPlksFLOUKs1EmIKeL1N8Wk5JwPUYXTfvnRxw3cx/1b524+n1NLuvgkiSFT08Wbi0qKbNpO7MXaVyQj8XRhZ2XJrCgwmBihEUxUqUKIYynn6ebqJgj+Tpxyg0ivCAPKxaww3SSUMSN0u1rMcZKpZxzGWJU9SUlcgh8GrI1jhAgJ3/rWt7h//z6VpG3Ssbu6uqKfQLp0TSjdXlxcHBJ9DiLF6liYSUEdZbonFPi2Z9xVpGc7eHzNcLHBXO2w5zuysx3ptqVfPCScfBmbFKRJwI0JxKThh+ecti9URVViO3wM+mXs5J07d3j77bd5/fXXuXv3Lq+88gpvvPEGb7zxBvfu3TsseJ1YI1IWE3BfvO5nd2T9Tr/X9/oaxC2tn/U6raRpGfoIzOzajqHvGYeBtmnopdxX3NXjNYaup2t72qpmt44eHe2DEnE/yVSqE9JP1MRedtVO0tjoOcNEFaibmtGHCD+oGoYmqnF+CLRNx07yzquNQjcEJar9pCDycCN3l8EQeh+BsU2ElnRtT7WvD8HTXrL4Tm0mnaTg8ZPQGO0/soD0Pr1kWF1LkeFhGLDWEAbPflvRtzHPWgiw3Ubjt/dxrrbbLTvJ5sqkNFwjITxBbC69RFKESVFiO0nd1E6Cr4fgaYaeeujpTaAde66lALQRyV/nR+dzEJWurmuatqHRtFNNw9gP9E3DIAWJdUwayZyr977Zd128ndRcGETK7yaZZ40Yy/u+J7VJVH3bLqqBITAMI3UTzx8lJZVeU+dK+95IULrOnTJvpX/93ZRuq6piHDzBx/jMuqppm46hi9JukHmarq1xgk3lxhqcfmZi/57SjKq2O8korGt/uuZDCOTB051fUH3ymPHxGe2vH1P/6hP8p2ekZ1vcrsX0Q+Q6zoAVZiqhe5/X3Ot/54u8ogZuSGzGOJHYfsJREQ26unhTwVbpxCuxDjdiSLfb7WG3Gyd5qYwx3Lt3j+Pj488MoA6cneDY/ESiy/OcH//4xzx69IjjoyOy9IXBX21E9qD7x/fGRFhHnmUkNnrNIOBuhHdkkh0Vsa/prswNI75+rzut9rcQIHJeFBhryZMMhyW1CUkSDdhGMTxJNAxnE6eB7oRqgNXrTp/Lipc2TTISJyqetXFHThIC0buotiF9NiPGeyU2JEOsExXRTNDjTozYeZ6zWCwO84WHsihI0iQGnWsO/jwnndQEKCZZjYPYupAcfPpZn1eZSlmWhzlOZV70+Y01uDzFZCk2y+n6GDO6nM0xHoJ9IXnqs+j98iInSVMMMXA8z/IItA4xoiQrXqSmN5JKW+dYaTAR6XNKJzon+j5MQv50zhgNiXVYF++dpHF+kiwhTbNoD5ZEl7nYyhLxOGoflMaUJtURp03nOBMbY5ZlpE7mwkY6s9ZhTKT7SIdR89H19J3vfIe7d+9SSc67MJHYdIPSMTUTyW2z2dBKbK0mEZiOkxHVvJUkmAsc2dGMYlEywzLPMopFGfGEzjKEKE0Pp29gT76C9wnet1gXHYSxGvxvtgNjiwb2gJHSVkYYmwkdfuwxwYMf8Dh8v8Gf/ZzjIuaGX6/XNJJwb7/fH7AspcQ1VpK8MRGmFL2XL/KPZeJ5NMZw+/Ztjo+PMSLp6WAgA6gLPcgiciKq/+hHP+LDDz/EYGirijRJcMZS7ff0bUfbNnQiOe32O/w4Mi9Khqaj2e5xY6CvGvZ+oO86Li8uoR9xHoZ9A21PEiBxCU1dS9B1xdAPhGGkqxpoOgpJXbTf7thttuRZRpblNHVNu6/pqhqGMTosmoaq2kfG5CxNL9lzbcSg1ds9za5iaFry+YxOnAetBGAjBZPrXYX1gTyN4Tj7XQz1KvOctq65vLjEDwNFXhCGkWqzo6sbEgxFmnG527DdbBj7keVsRle1VNcb6AZSlzL2A1UV4SVpmpImKZvLK9qqhrZnXpRUuz3XV5f0fcd8PqMfhnjNrqcsCgiB7XrNfrfHmojcX282NHVD1zYs8pK+jvf1dUuepAyJ5fLykmq/p8hyMpfQ7Pa0+5gixznH0HZU6y3b6w3zIsdZy8XFOeOuIrcJmUvYXm/YbaPzpCwLfAjs6oqmriPAelRpt6XMc3KXcnlxQSNQnrIs6aqa3fWWoZOceAG6tovnWIsfR9q2o2/aw7hW2z3NvqKtavq2o2sarrdrgh/iGBhDv6sZ9jUlkenv64r9dgfeE/qR/dWa0PYM+zqqwsNAtdvRVDVd00R7atvRVzW27qNa1/V0TXtIRuC9p6sbml1FXzX4tqevGtqqxgjYe73bHiTxoij49re/zenpKfUkOeput+Pq6opRVHXVKNwk+ujp06dcXFxgJNvz0dERVhxSQVRsRFuwNnqGsZZ5XpAlKRjI8oI0Sejbnq4bGE1CWLxCcvQGuCLCk0wg2vzjf2NiCFZ0E9qXqaIhMjh1FoRYZh4/QvAExng0RNFXvVyjeJ5UjXFiC1FGpKKxMiQm4VCDqGwqvQUxwurObWTX1sHTgVU1YBQbVpQioMhyiixKDNF24rHITjnJImCMgcBhFyuzyGgTgUs4Y7HBkJoIKUiwWE8Eg04lNJeQJympTWKurRDIXEKWRKR74hyJdeRpQipZLoyPFszUJSTWEoB+HGPYjjGkSRLzofl4LX1m3bFVeojM3kb7SQhxF5Z7EHT3z2K6mqD3dGQuiVk0RoHMJAmJ2CQTawWl7l70NwjRGIOzFovBCTjUGoOzhjzLcLIJJc7GhJNjtPupPdOa6KQ3xHF3NvbdGhPv5xJSE/sRDDGdUhrn8TCuNo6nDQbrIbOOIk3JkgRjAhhPZuPzmgBZEufCAMFHRw6G+MxJTIBpTaQPZ2wM/Jdn82rzspbEGGwg2mRCoBP12FlLlkb6S52DMQoIqXNkSRqvS3w+60yEGskYJsaQ2wTr5TcK4cHggiFzKWWaR9qTuY20FIsmF3lk5jZA4iG3cfz0fGsm8a6a+iovKNKMTCRAYyNUxIg0pdpQmKj0KqXp+pkKG3p9ZN2rXZSJ08tMVNEpHQ+JZRhHwuAj3MZEzmOCibZPT6xfHAwmxESmxthoU1ajKKIWR9USMJ+V2A5N1UBjIMRA5vggIwGL6bb485+S+WgY1EEYxMW+XC5xk9QkncAGnKg4mvFD3ejJpAjKrVu3ODo6OgyUDqAyRFUTdZdwEjz/4x//mA8++CCGdWGIPCvyc8WHYQ3lfBZBgBIKpWFRxkRjbudi7YU8y+LA+ZjexVnL6H0MY0li6TfjLMEHEmspioiX64eRbogR3MbFyI1O7GWLxSIWD/axZ0VZkmYp/TgyEihnJYUWsW1bsjSNmD4fqIdoK1IGr5tBkiQx/rGPGUNcklDOSgYf7TAYw3K1xBjLMA4x9CsvKMoiqgRdR0gi5s9gDvCYSOjipBgHsqKI0Rp+hACJsSwXS7x6XQksV0sw0IiRez6fk0/iBEsJsdHFgzUslyuC2Ex0jFziaLqYeGBWlhR5wThEW2maZvFz8PRar2C5xInKN/qRNMtZzuZ0Q4zvzPKccl7Siwo0ek8qG2HwHj+OlLIYhz6Oa1pkzFdLatmsx2E8MOJgov21mJT7a9uWNIt4xmEc8H7EuFhgZvAj/TCQZBnz1YIiy6MHuesIkrKJAF3w2CyJmWHE0J/nOavVkuA9rRe78DDI+o0aTFmWZEmUIkPcMQ6B/sHEQPGyKMizPIYCitBgEotxEVzeSApyvee3v/1t7t69SyuRA4nAjS4vLw92WjNR8VVIOT8/pxLg+FSY0bWsjLCdIAu4URDHiLbWtl3cFG0Ci4ckx28SkpmkBvcSTSWM8FDcxUST0pSxRa4XBbrYmcjY8PF98APBOEy/wZ/9jH4bwysOgy0FWR48eMDpaQxH2UhJPDcJeF1LIZU8z9lL2Tcnkt3JyQmnp6eHhww3jJSIkVRfyhTfffdd3n///WjA7Xt2kuJY7XxNG/FRo/eMfuT66pqry0sxrA5s93v21Z79ENPsjH3Pbrtlu93RtA1107Kr9lR1HdHqwbOvKrbrDW3TYK2j61o22y3r7Za6rWm6WEx3Oyn1tt/v2Ymqbqyl7lrOLy+o24Y8y/BjxJ1dXV3FVErOsd6suVxfHxwLu92OrRrKjcFiYraEzQYM2MQJGv6aru9IsozNbsv19TVVLdEKwUdYzvqafozxgdvNlvPzM/GYJeyriovLC3bVnrSMINazs7OYR8t75uWM5+dnXK2vadqGrMjZbrexRFtVkyYxycFmu2UnqbuHceTq+pr1ZkM/DGR5xna7jXi23Y48z2m7lrOLczb7Hc5a8IGrq2s2m03cdI3hahPLG9ZNQ14UMWvM0ycHTFwYPZdXV6y3G0aiNLDebLi+vqbt42Jt6prLiwt2u93B3vvs+XP2+z3YCKQ+v7hgfX0d6aSLdLTdx9J3mXjPr66uOL+4EBqF6/Wa7XZH23UkacJ2v+N6vZYxKmiahuvLq4gdrBu6vqOqatb7Ld3QYzA0bcNGirZgLXXT8Ow8Zm2uqop9HaMo6roGsV/VVc31Zk3V1FRtw+X1NReXV+yrPUVZ0Hcd19fX0ZzRd7R9z7bas95u6YeejRTUvnPnDt/5zncoioKrqysqwertdjuur6/xYodT5qXrtKoqHj9+zPX1NeNEg1Obn76Usem6t2K3nK75uHELXMUksHyAPX4TXCl1DtS2FnOABKK2oiKa+e4//tODABfVzsjcQgix6nKo8eMAxhKGjmALqB/jf/ZfwuYRiRiEtdNHR0fcuXOH2WzGZrPhww8/5PLykiyLojPAp59+SlmWh9oCxQRa8I1vfIN33nlHOv2i6SAkk/hSZXSr1YqnT5/yJ3/yJ/z4z/+cro7qqZsUSlZpEWdJ8zxKCP1AIkbWronOj93QHpDpQxftFVYkxIg583hrsIljJDD0PQ7Dcr5g9GMEBg8DY4gG+8hEYn+LsqBtWnw34IwhL4qYuqfv8CYcDNrjMBC8x1mBYfTDYbdWyVZ3PiNqa99INmPncGl6kBL7cWC5XB5U/TB6yjwnS1Pqqo5qgI1OhLZtaZuGLEmZzcoovai0ebw6ZMWwxsSMwIslF1cx4NlLweuu6+glq6z2dRQ8li6GRqpHeWINinovkIJx5Gi1wvvAvqoYbIiG/TSlbVpGsf9kScquihtiEABt1byAZRwdHWHHQNe19KIRFGVJpRWn0gSXJgx99JwbDEerFeM4st9uSY2LY7JcsN5vscbAEHBEvKE3Ufq01jLIIvXeRyneGNq6PoCuV6sVTV1TS03ZrCwI3tPUDU7UchTmYSDJM3KR6OqqwgCLxQI/jDRtS5ZLqi9r6fqeQaE4GMauj1K5MVhn6YeBIUQb2Kyc0XcdQ9NiiRpW07Xsmpp+jMzJOccbb7zBd7/7XX7v937vYDc3opFtNhsePXrEZrM5MKRBMs0Yqav64YcfcnV1dfgOkcbMxBEVJF7cGHPIxzaTUoLavPc0TQRj+yQnPPhrpG/8bXx2CxMGYIxcy6hJyUqIlbxXxqYMjTABRGJgrAljDDfxQ4O3OaZ6xviLf0ayexYX3sSdrgwoiJ2sE+hCPkGfn5+fUxQFJycnBwbUyMT/7u/+Lm+99RZ+Eoum0uByueTk5OQwaKmAaJEstrvdjp///Of86v0PePr0KY8ePWItu55KiG3fYZ2lLGJNUbUx9X3P8fExVddQ76uDcT4MMYU3QJFm5EnKer+j7lvSPNopfDdEW6YzZOIQqaoq2lB0soz4lz2kJtoPvPd4C7PlAj9GKIHuWAaiyiSpnU5PTw8ByIWE6YQQIlJ8GA/hY5vNhqZtmS/mzOfziNofR9Ishuj0bUdT1RggTzOKsmAjLvnDGAlsIEkSjlcr6qqm7lsGAnlRsJzN2V+vY+qcLOXWrVsHJHziLKcnp7RtlF6dhJkNogZ6sWEuFgu2u20E8w4Dd27foe0iTABRha1UzjLiJUykAE3bthhgtVxF73sfVd/VasXgYxxtGP3Bw1tXVbTXiHrspRK5MsUgcJqu65jP5yyzgsv1NcFFtXO1XDH2Pc1OGM1qyTBE9U3lBu8jemAYB7I0Y3W0ipKfwFvQqJUxakDe+xhW572kFo8px4dRMolM7FZGEks8uHOXXuAmSZIQhEZ0raWykXcCknZpFAK6rmNbVfi+j1mMxe42EFgcrTi9fYuvvPVl3nzzTb785S/z8OFDkKiPdFKrZL/f88knn/DrX/86Su2ysYxi467rml/96lc8evSILMsOORh1M1PmiWTj1Y1P76HCSpgCs4PHu/LA2MbsRFIWeUAwgDY6DKLEFk1Ov8HYgh8PNjaPgSEyNqzFjw3eZMLY/kv684+i2D+p1DOKA8CIkdBLCTNlREpEqYBP1+s1vVTzeeONN/i93/s9jo+PD7p5LxJQmqYcHR1xdHSEk+gC3QHUDlAUBdZYUsnmuRHV4+OPP+bx48c8e/aMJ8+eRkTzpAJ9Jm7uW7du0Y8D66tr8kmmXidI9DzNWJVzttWeXVNFW1uW0bd99HSmjtlijtEdSbJ/eCkCExIbjcjGwTjigWANxWIWM3H4aDeqJdzJpRE60LYt9+/e4/z8PNrNDgDZmBZ9HAZmszlZLmX22oZS4hP3+z1V3ZDmGcfLJX3fs9/sQGqpzmYz9tstTdtGe5bU49ztdyRpyq2jk+hJriv64FmtVixncy6en+G7nnRecnx8zG67oxbbyunxMX3Xs6+qg50piKrSS43ZsizZ7iO2zXvP3bt3qeua9XaDtZblYkFiHOttDGOaz+ckaUrdRHU8sY6j5YrdfkfdNGRZxvHpCV0Xs1uMApEpxdwxtD2pMNS2bamaaB5RO+92FwvcHB8fs8pKzi8v8DbaSRfzOV3T0lUNaZqwOjqKJo9xJBe4U9M0eDFiF0XBcrVkfb0+0BBITQATwbhKv2ECIE6lalQnHkNjDMYaBpF4X7lzj0bC35jEqKrNryxLiqI4YPX03sMw0IeR1XLJwzv3eXDvHnfu3OHhq6/y2ltvcnLrFnaMgsR2Ui5S1/QgeDy1j2p00V7KECJrqW1bHj9+zIcffkjf94es2aNAwJQHjJLEQelgKqmpMONVsBlGQloSHv5V3Ot/mzE9wTJEJ5GqnUaYGQ5jBKr0grF5CVEQFHYIeAxmbKIqisGPLZ4U0z7D/+L/TFI9IRFpCxO5ZxDRV3ccNyn9VhQFlTgUnHNx9xQV5vT0lDfffPOw+3sBQ44C7tNJHCZ1IvVYJoZglXjm5YyZLOz5fH74/TAMXF1f8VQY3H63jzYoifsrixJrDNfX1xSziBgPIUTmNQyYMVC4FJyhGXo8AWeiMyBLEho/UIi63db1IQJg7IeYpQJPGD0uRK9qmmUMwdP7kUS8cV3fkYqjpeki1sfaGKXQibNAF4q+VyIAMFYC+oUYMYZepNo8z2N+sD6i5PGS102rjDkXHUaEGA1hTASUhhi03Y4Rj5g6R7XZsVosqceYbHToevI0Er4leiO9gXZ4sQHpLqwb3CDOpl7sVZGOAIkGSY1jGIeD5IoxtF2Ew5gQVfda4BZOaknoJtjLuGRphhe7VSIQoFYM15jIbMYxFsEJ6qAKlqapyWYlwzjikggrSdTLKDTe9dFJpMwpAKN4XFOxp5ZlzH3X9dEQbk20Jw3+Raie0qc1ll42LufcoZxhEHpPx2je6McxemxDYBxifU7tg5tEruj/1WrF3YcPuHv3Lvdv32FWSPRH17LeR4hWX8eKa50EsH9Ge5B+9oLHO/RXa1yIVKjnX19fHyIUlD47KVlZliWtxPsqU5sysymdJM7FKvDpnPDwr5K8/gf49BRDH6semOgkjHi2KLEZE/F65rv/+E+DIUIiCCEWR/ARjexNQvAtvlljncd7xzj0mG7L+Uc/Z/H8f4BDXFmMtfPeR/e/iwbqQTwjTuxjlWDaHj58yNHREcfHx4edYJhkDdDFi0h/L2vK4PT49L++EgFMqpqlu5oV+4DeE1Enugna+2X3nX73ee+/6Ds+53fhJU6S6Xt/w0v8snNe9tnIwvs31ZSh/ptoX9TvLzp2s908V2njZcdufnfz+M3Pn/fdzfayub35uykN3Pyel4y1fq+/MxOGY0RjyicZQRqJothJgoN+Eknzede8ORY3jzORsvSeiPpdS+KEpmkOTotckhIMAtpXb+jL1oENI2Zs2JevkL72Nygf/hVIj4BAYgdCkkZnprEYm0TQMQlY91nGFrwnhGjEDd7jjQHf47s1xo90/YhvGxK/Y/PkPdyjfx658jBgDDGh4IFwYBw/G16i4u0bb7zB7/zO72DEdqBcXR9s2qYL+eYCnn4/Pe5U5L8xUDrxqUQkqKSXTnR8ZahfdK/p8el5N/v4svdf9N2UcF923r/q+5dd93/p9m/y2l/Ubi6639Zunnvzs7aXXXf6OUzihV92/GVMYto+j871u3/Va+t/P4nHtWICUsY1iiqoQkaYQDWm95w++81xuPn99LheB6EHZa56jveeZ8+e8d5777GTLDOpRJHk4lCa0q+2gKFzJfmdtylf+SukJ29jshVJYsnciHcJ3oj6aWNZQWvSlzO2qcQ2jD1hbAl9RfAx/tK3e7L+nPH6E7pHP4h6dlURxsjcop0uFjwJUkVmFHCpDvZyueStt97CTNRJZUY6yLpgpotU308HXL+fHp/uWNMB08HWe+g9lbGaSZCuXnvapveYHtP3U4b6suNf9Pvp6+bxabv5O/1/8/zpZzcJt/lfuv3/CmPjC5jJzfYyBjL9PF3kN5tXo/ekTT+/7Li2m8dunjfVYm4+v9K1XkOPTWlEz9Hzp7+9+VzT97/tfFUf9XWzWbHdPXr0iP1+fxAu9LfcoNfDuk0L0ltvcvzgy2S3vsJY3Id0RZImpLYnpBlIaJW1SZTaTBILR3/3H/9pOHhDvY+IXmFs49Dgx5bgY9GPcWjx+wvM+lfYza/p159SVTVdIw4GovMhiPs6SaO+20qwtrZSkjV68Yipnm4mtrSXDZA+vA7qTUag728uZD2mA6aT727YfnS3ufnbf9nP08me9kubPtP0u5u/f9nveMlvP+8aL3t/81r/S7bfxtimC+Jm+9fp13Ss/2XazXNvjvu0vYz2tE3n6Obvpu3zjr1svKbnft5z3fxOP9/8Xtu0jy9jiDfvo+d83vEvauFGZMFNGnRi395Mcv6p1nRTgEHGyFqLSTKS5W3mx3cxy1cYl2/iFq+SZCXWdJAWBBfjXpWxGRzWJZjv/offi7EIQaS2mBwsouNDTxg7vI91NcPYM64/ofv0++SbD2n7mmEYYPTEa0TjeAgejIkGc2Fcquopfi2ZpPie7jJTJqeDNm36eXqODubNz9OB1vc6kOEGLm56TNt0sF/23c3j0z5Mj5uJqP6y4y9r099yY7G97BrTcbrZj3+T7eaYTdvNuXtZ+5/bzy9iPp/Xbo7R5x37ou8+r/22c7/o+JSmp/8/r33eeVOpaUoXfpKYdfpbXWu6/qbHp99pu0mT03soM1KtRWneTFKNbTYb1us1o9jY1HlkJmtP38f1CoYR61LG8g7u/l8hvf8dTH4EeEgSsAmgEpuLnlHrMH/rP/xeMMLYojc0Sm7x/cA4dBJcmuDMgL/+kPaD/55V9RGNlQrgIcaWBi/1EXxkbIN/AcSbz2PK7ZOTE956663DwOok6CDpxHzegtEB0/f6f/p6MTC/yWj0pXaA6XlGJmHapr9/2Xf/Ksdf9v5lv+dzzn3ZZyPjMSXCm9e+SaA3283r/39L+6J+/bZnutlunv8vOzY3j9/8fPO7m8d/22dtOoe/7fj08/S9Ps+UuYWJejoVIKbPPv1ev3tZX6a/My/ZOPXc6bHpd33fc3Z2xvn5+eHzfr8/hF/eXK/WWpyBzPYwDjRuCQ//Gu7B7zOkp4QAJhUMm7ERnIvFmlgH+QVjIwpuqpLGXwbGoScYRyDB2RGu36d/77/lTvcpTbbEjxJLGiBKfRGsGoxlFAApAqBV+9rrr7/OnTt3DmqfGjX9pDzXzUG6+f7m/+lxlcKYDK4Onnpi1Hg5PU/vf7PpdblBUC/rx/T/zfe6a77s+JRwXnaO/wI1dkqEL+vD/z+26di8rJkv8Bbf/P7m55vtZTRx83tt0w37Zcdf9h035nh6zs3vzA3moM1LhEQjYU5Kb3rd6XVe9t3L2vSeU/rUz71gUKuqimn7r67Y7XYH3GjTNBGfKA6Pad+NkTTd1pLT05qC/s5fwdz/GwzpLTAGG9MOA8rYBMtmHebf/sd/GtDo+NjbFy9rhXEFPAnOGVj/iv69/5p7zQdUds7oRXXUzgQ1TsIg5biMpDAZJOlgmqa89dZbFEXB6ekpp6enpJI1dRCcmvZH7WDTQYw6teB0nCNKl+EQxhIEI2REMssl91siuK9OUimt1+sDIFInASECFav7vseIJDdlTGFi4xsFxBtEJG/bFicG0l5i5QbBlSnz1GspE9bn03sH2U2LIgarT5mu3k932qlar8+s19J+6m/UzT69h/Zd+6//9Ro3nzkIBi2fZKHVZ9H5Y7JIVDKejp/2ScdVx2TaFz1Pn0PHT/umY6Z90j7o+dNxmp6j19X7uIkTSe+jx7WPyLjffI5pP/X9zbnSNn02Pa6ftY86DmECetcx1XO0f51g3lLBBU6vbSUX4HK55OjoiJOTk0PuvUZqeNSTxJV6HT+pR6Djpc+l/dR5OMz7aBnTwDhCGAc6u6Ur9uyahqtHO/ZPI+yjbZpYuzZJ6bqepq5ZHcfszvpMn2nG4DEkBkab0d39PczDvxlrixqLMTHDR/xdxGwaTJTY/uCf/E9BOz/9HyU2B74HPzCS4NIMv/mI4b3/mju7n1LbWMnnZtNreEk8ZyShIcCjR4/w3nPnzh1aSUj3+uuv89Zbb3H//n2QXE2j6OE6qByY2gswHgI6tTZm6jDWAoE0icywkIwN2o/nz5/z5MkTrq9jALUWCdE+O+fY7XYEiUbIBbU+CoPRc8ZJHionAGSdnDyPgeBGXNl93x9wekocmYSfjBKKogwnyEIqJZ10VVUcHR0dsHXKdEII5HnOIOFFilPyk5TQapitJQHBOI7MZrMDAtxNEhjqvbX/jYS/6HUHsYcYqYSE5IFLJnULui4Cdb2k8x4lCBpZMNbaA6I+kXRBrSQbbNuW1Wp1CLlikixR4QpONgoFgloxQHuRDPS+uYSVKRPJ8whs1nFTm44yBe1LLxmCM0nc2EqqHi8AciNOMDNhtNrshHF7YQylpAGqJZ+ZMhoFB2v/kHUyiL0pleI6XdeRSxhZP4lSmN6znSSBUAedk2wfOo5OgPCnp6c8ePCAV199lbt37x5yHipz03Wq19FNWe+pz6cbtdKi9x7b9exCRVN3BOepb63p7u+4ul5z/mdbzCcpfdfTVDVFXpKnBX0/sNtsWJ1Ge7uZSGvajIkmLu8N3mX0D34fXvm3IZ1jXpZxbcIn3Bt/5z/4J9MBOzRjImOTiwdsrDrdrQmX7zPrzwlJBLraG3Yq/cwkoZwSVCUZOZfL5eF8FY9v377NnTt3yPOc+XxOWZYHUK3WUpjP5yzm8f3R0RGz2SzGkJ6ecnR0xGp1xOlJnLSu6zg7O+Pdd9/lL//yL/mLv/gL3n33XR4/fnxIvzLc8MqqTTAOQdzFpwtDma4+Z5iktTbCMHrBDyG77SDS2pRRT6VTMyn44QWL5EVUN2KP0HFSglVC0wXoZJduNUeYfK4lPMtLRgbtmzIiO4njMyKZ6iLXeWsnKbZ1bltRa5wk+tQx0N/0kyIwiUgeKh3o2Om89xJmpYx6FMkoSBjW9Df6zEwkDGUEmeASNXIFYVz9pMCKSjfT+2jfdNx0Q1PmZyapdnQ++0lUjI6JnzBZvU8/Uft0PnROR5GUlAaNbHw61rohKA16YZr6PkykTaUnO0np1U00k4uLCz799FM+/PBDPvnkkxh2Jpvd7du3uX37dkzXJYDe5XJ5QC8sJAtuIWmaZpKxt5WwxXV3zXp7Tr1Z09BxOd+ym1VUu5r2yUBa5RKxEWKpvzSGK/ZdR1GW2Bs2tsMLSc5hDLgEv3wNs3oD4zKQaANRFaO0NmGOoop+TrMJ+AHj+4nE9mv69/4rbu9+ypAsD6feZI7KCNbrNWaSgvrJkyf0fc+9e/ewkg1ECfSdd97hnXfeOSw4faUSipFL8Lt1CcbEHRDg5OSEoih48uQJH330EZ98/BGffPIJz58/5+Li4jCJylh0EJVwdMG6STB+XdfkEq0wTApjKMGNIpEowRYS/K7HdJHUdU0rEkkmucn0nkyYp7ZOwqb0OrqDOynmoZLj9FkSkZy0f7qQtI9q35zP5wdmqoxNz7PCaDTMRa9jhSErw66qikzAzfpdIal4siyjk3KEQaQjJuYEXXheGG1dx6ywiA1W+xQmqpmOoy5iZZLaJ4TWVLLWDVPPyQXpbiZFenWulUHo8yiNFBJvmUqSBe2XjvMokovSkDKjIPGp4UbY2HQ8dQ71mnrfcaKW7/d7hiEWI1cJWZmanuOFoQeJTXWyZpSuRtmsR2FwRkIPjTDPRFKb3759m/v37/PgwQPeeustXn311cN4tyJR6zwkIt1eXl7yySef8Mknn8R0U8Zjx45iSGiHkfead9lmlyRbA88tqS1YzBeMQyxcntiUcRjZ73asTo5JNM38jWYMMQgeQ3AZ/YN/C175LiTzeFByr72suTe+oOYBxsU0bjF1BTaJEpu/fI9Ff8ZoI+EysVtMP+tEMlGN9lI85Ojo6DAxuniXyyX37t07LAK9hpEA99VqxdHREWUZA8BVisvznI8//pg//dM/5Y/+6I/43vf+hF/84hc8fvyY3S7mzvKy45qJ59PdqH+qhJBKnJ8uWjMxjirTaaXuZDcpBq3Ex8Q7td3GlMupFMDV3V7HSJnFdPGppKNj1omUOEoGjmEYDhJFKnigXqQsJypb08TYv1HUIp0HHW+E+PV7IGYKkXvowm9EnVTmdX5+jpdUOXmef0bqzfOc3W7H8+fP6SRTxjiOXF1dHcZJr6NZV9REMcpmoMywESlMN7dGpL10onar1JVKzOjZ2dmhb5lIkcoEnGxaan7IReVWelQjtmoUiES4lVxxRtTwRFTofiKJqVSkm4fSkdJdIkkaawlMT0S9V2ak9KBzPQ170n6kohoqzY7jyG63Y7fbgawvZXpBhIpRNrbr62ucJqQU04ze5+zsjF//+tf85Cc/4Re/+AXb7ZaiKLhz585hk0glznsmqch+/vOf88EHH3B5eQmAY8ZoLamd43eBx+/9mutfnzN+ahg20NmOPMujad9YnI3rzw8xgamTDdbegHwc2ImETPnlq7B6E5NEBq3nvqy51//2v/9Pbh40KtZZQQXjwSQYl0J3jb98j7I7x9sXKP3pb7Up12dSCOXmzqoPU1UVx8fHvP7664cFbScGbjOJ+8zyyGxS2VF/9rOf8V/8F/8Ff/qnf8rFxTnVfk8yqZytiyHPc2ZSKVtfozCi6W6mu64Sg/ZFX4nYGBCwcSn2FD2mfY2TE6XV+Xx+2Fn12jrOykh04VuRKLRPRhaVkV1XX4nsoDq2+jt9n4iEUYhkq9fQl15ner5WPUcW2vQclbiOj4+ZSTqaaT91rHIp+LJarQ4LUZ8tkU0llZQ1+ptp39xEOtJxtNYyk9RMQSRJHQNl1Gkay0HqeCoTd5Mkp/o8eh1dsKl4yRG7bSobhjKm6fyNIuGmkzxiRhxkpZQpzCdV7PXe+tJj+szKeJ1IoE7SD6npJRWNRsdG76/zv1qtmEuyB2TzzSVNWCF2ZqV9KxK4FS1DxzdI6bxHjx7x0Ucf4Zzj9ddfP/wmkc3kvffe42c/+9nBVmutJWt7Wlvj88AQGtbdc+wxFMdHzFdHlEUa03t5VUWlGnzTUMh4ad+VBiD6OAORsQX7QhXFZjFV+CG7x2f5VwiTuqLTCx+aSYgRWz7a2JIU314zXrzPrHtOcC8ktmnTa7yMse2kDFs5EbGVMO7cucMrr7xyuIYOnBKIqgXb7U6yzF6z3+959913+Wf/7J/x7NkzwLBcxDxc1aSE2yBu50qCcvV6O8luiwTuNmL3me7ctWSu1X5spKxYI7YpJViVtHqxGzWi1i4WC2rxQo3iFJju6LnYvjpRZwax47RSU0IX4E6K5RiRYLX/SqghhIMxWBdKVVUHqbWUZIs7KfOnBLVer9lL7rBikoFFpay+j9lV27b9jKTWNDErsY5RLZXL1eygz1lISp69ZDUOkia8Eo90J4V/Wsn6MIj6FgQuNH3mTtISNRP747VkuJ3NZhRFwXq9phMp14q0p9Kb9q2TymrKrGoJ2A6y6SjtIBsCkkNM++ZEDR9FklYpTufUivRVi41TjykN6HWm9IiYInQcB7ELDiKh6wat4673DxO8mva7bdsD7aeSDknPaSdl+oJsEp0gAzabDR9//DGz2YyvfvWrB6luu91ycXHB+++/z8XFBaU4uMZxJAsWU4yYzFPbDdvlBbOvJCQnhnmx4Cg9xood2bmExEaJta5rylm0sel6nzYTYbjRliY2NpZvgkkPCqiZmMH0P9FH+vJ28yYvmpGXfHpJh7RNj+l7/VyIB0sZlxebge7uOllmglxWZqFqTN9Hg2knNRYB2rbh8vLyQKCIrUUnshVDuE44N7y4QdKuXF5e0k4quisRGDHiK9EpE9C+6+48CCNVIle1VQlcCVIZnE70RtIzK/F3wlARot9sNgfmoEyyFhXHTgzN2tdOUolHonoRQqZjqwxZ+6/joYtR/6tqjjCxzSbmSQsikSSiomnf27bl6urqYMgfRS0aJiaGRmAHynS0753Yvowx7Pd7NpvNYbynTEoZjN5X51EXPRMnSyWbmj6TvxHOp/cfRE3thWHq2E4Zjl6jqqrDOb2kzlY6G27U51Ta1b4OYrfVc8wkXlrPnTKvUeqN2omzY9qfWjYWL9KfFRVXx6qVTVJpUu+j82HFsaFjrwy3lw23lo1Mf9uKk2o+n9OnR7iwIGnBMrJ8peThN085vuNJ7IvyfRoAoGOu5Rk/r73UembEmfD5P4MQMP+2wD1e1oJxGDwmDBhX4ENC0j2j/cX/jeXVn0MSVZbD+TccCF5sTCEE5lL04uzsjP1+zyuvvMIwEYn7vueNN97gD/7gDw4MydxgjKmolUrkTkT+X/7yl/yn/+l/ipXq3apeuEn17Ea8fIvF4sDgVG0Yb9jVTk5OqMV7Ncqub0WF8LLjqfSgjEcJTpn1lGCViMKknmYQW0s7cf9bkS4aqY9Qik2nrmvKsuTy8pLFpKanXjNM4l51cQ4TvJru8io1a3+V6BE1ThebjvUozKMRCdAIU89FVVWpRTeiIBL6dP702ogdTRllIippLnAMcwMr6CdMtizLwyJTNbGfMNnZbEZ/Q/otBHIypR+lAScqro69zlEitrDZbMZ2uz30UelDz9Nn0HHSxV+IGaEVW2HbtockmzvJaqHzrnSVSsLVbgJx8qLFjMLoT05OQJigl82kEacQQtsqFfsJzqwWqVzvmwsUZrFY4MTmqOvDTzyu2+2WP/iDP+Df+/f+PQaRFhOxC/70pz/l2bNnh3Gw1jKYQFrXlKnl0rR8VF1HZe9qA7sGlxYkrqCpRiwJRZ7Td3uqasvy+DbOfTbaR5va94eQ4NMZ4yt/Cx5+F+PyiJf9TO2Dz/Kf3+I8sMRSfB5jU3ywOF8xnr9H3jyVOK3Pb+GG88CIetJ1HavV6sD9E9Hfj46OePPNNz9DjGbiQFAGo00J69mzZ/yP/+P/+BlpR9+34pKeVs+p65qrqyuaG1W1NTNokiSs12vOz8/ZbDYgRKXGWiWI9Xp9yDPViNqpx5RJPXv2LBY3kd1QX73stOfn5zx+/JhGVKtG8swr4SP2xw8//JCdFDvppCjHbrcjFe/b5eXlQXJs2/ZF0Q5Rj6+urliv19Ri7B8kE+rFxcVhzBTfNwq+ru97rq5i0REnkpGqJco8qonECnB1dcXTp08P42hMLDSjEnUQW44WhUEwcefn57SSwl2f5+Li4rDY9XmVWTVS1KQW7+V6vebRo0dspVBOlmUH6Vaf9+LigouLiwNDu76+5uLigvPz88O1dWyd2OWePXvG06dPaQVj14ok2k48hrvdjsvLy4PKr06YIA6g3W7Ho0ePeP78OVUVi7BsRNVX2u4EmvT8+XN2YnLYSGxlKnZClcq2UjBH57ie4ChVMt3v9wf61HFECiHpNXqRSnUuNlJ4qa5rvvSlL/Gd73wHIyqkkU3+7OyM3aQOAkCaWPrU0RcJV5tLPn33XS4++jWXj57z/OyczW6PsxmJi7Y+Zw1919H1DUUZBZ6XNQMYAx5LcClh9TqsXseIiexzZDr4V2VsIVic3zOev/sbjG3KLaffqVShk6OMTXPNM0Hfr1YrXnvttcOOf7OpVKLSUJDdb7PZ8Bd/8ReUZclqtaKQlMO5YOCcGNDngo3TnbUUfFwqqpRKSaenpwemmYvRVXe+YmKM1eOpGJFzMQon4krXhV2WJYvFAiYqeD6JhpjNXmT8TW9U+FYDtuKHbt269RnJK5tUotdn1u/0XqUYqfVZdBysSKEnJycsFovD8+hLN5NccIW6seh9Tk5OaMXTrGOQiOFaPdYq3TgBiup9S8FI3bp1i1yM/WojQySIxWLBcrkkFylYn02lGR0DtZvlec7p6elBqkUkQr2v3iOfOJXmkmVZx0l/NxOHwije3tVqdXgmO3HM6AJ3kmb89PT0QG9MwMnaN8WH6XjpfZRu9Dvt97TPg2g4Vpwgy+WS1Wr1GdpzosUoTcwE57larUgmSVeRIjFKN/reydp7++23+cY3vnHYWKaMTW2eun63fcdIgk8dtVnTZ9ccPZgxO10xm59yvLhDWcyikBUgBE/Xx4LORTkXYP1vtn8dxvbyK/4rtpcxtc9rZuJY0PeqdvhJmEaYhIjcfClBqfg8ThDfKq4vFguKCbbs1q1bLJdL6jpWM9I2TjBJJycnBLGx9aKSaiaSRCrXI6K/Tq6qvrrr6CJVO53ulJ3g03JhGl6KYwzDcGBgKlmYifraic1DyxleX1/TSIzdTBDym82GRDx3TuszCHMJgvFCCHk2mzGIY0IXh17D+1jTIBW4SAixilQqsIetQAGOjo4YpUxglmWcnJyQZbGMXi/xwLnAKYwx3Lp16xBZsF7HOgCnp6d4H0sAVlV18OzVEweEE2eTYiGXyyWF4Pi074lI1/v9/sDAphJlIWh/HbdcNhRtqXg/dVGXZcn9+/fpuo6LiwvSNOXOnTtYaw+YyEy8jcoEdFP03h8kYL2P0nMh5hGlTy8qZZjkSEPoXhnYarU6hBv2E8S/FxVQN66u67iSCu1TxtWKjdiKve3s7Oyguk/7pp5wXVepbIo3mffNvmor5jOOkpKj4JgdZ9z6a/d57X/7FR78zVe586W7HB/dxpqMYfBYZ8mzDGsT+lFsb/8STdeEekJ/W/vXktiCeblkNe1sP0FiO5HYWrE96IApgcwlvCoV9epm091KicLILn11dcX3vve9g7qgE9yLd1MlBlUfazFY63X6Ca5s6jQoBf/VTBDyKub3Iol6MWgrwRpRKzbiOQ0TPJH+RglN1cYgNhO9tqooyrR7sS2p+jxIXv9ajPjtJNKgmnjZgjA1HQNlnnupt6pS76VEYXixW7biTBhF7VP1Ru9jJAWNqkBJkhxUH72P9k37OkicsPYtTdODitqJfWoUdVh/0/f9wcNpRe2rJ0ZsK7hI/U7pRjcUJ46SjZglBglbGsSx04jNTcd/mICeLy4u2G63B+moEqya0nIvzgLtfyPG/J3gz6a2XN1w67pmL3AnpT9kjfTiANDr+Qn+TWlFN6StVARTetN7q7Spc6zq9Sig3+12ixPJUulNN/lWnAudOD7efvtt3nnnHfpJDPUwDJydnVEJ1ENpzHnwVYsfWmq/Y9NtGdqO/fMNYe3I/DFdP9B3LalzpFmKHz3jEIvhmM91IESpbMSCyw4SG8YdYtI/r/0rOA9KRu9I++fiPPjRS+EeYcKQdGGNAhJN0/Rgt7p//z5WPFaZ2N/u3r3Ld7/7XZbLWN5MpSCEqenOGCYl+WazGR999BH/+X/+nxMEFsHERa8MQq/hxMBe1zWZqHsIUxvEjqa7me6GKpH1wqRHMSbrxI4TD920DTc8XkrImYBQleAPu5FIacrI0kmspi7qVNSWclInMxGVV+8fxLapxIcsHlXHlClMCVaZjxJZInZPPS8R9a+fBPWXZUnf94eFHoTRZxM0vT6v9sOJw0H7pIxGn7WfFAxBJN3pcwVhilMmrNJhEAyiPnsqaqDebzpvXlRkHU+dw3DDqaPfI4s/Ecld5wmhnVFsolmW0TTNAYCu4+HFPqcbwW63w01wfNqffhKa50QQmAt4WBm8zhuTgj6tOMOSSYxtLc6DMElqoPdsxCZaid3ZyIas/fx3/p1/hz/8wz88bHLav5/97GdcXFwc+hxCoDQZ9VDj5gX7rufTR48Z+pbBt7iQk5kFxoy0zZ7EBdI0oW16uqbj6GSFcy9XHA0BYwI9CWQLxlf+FuaV7xJMFhNd3FBHlcb415XYEACvtumFtQ2TGD2dqEaiDJSxOZE2ZrMZr732GrkYkJmorkwktimhO+e4vLzkz/7szw5Et9vtDjviIFAPlXZUMtgLZCJMcGfXEhgfZAfXXU8ZWysubmW6tRhhO/FoIQvRy06qjFIZ0ExK2/WyA+sOvdvtDmOkv9HF7sRo/Pz5c2rBVemuqoRrrT1IUNpUYtTrTiU3HdPtdstaEv9ZkfZUyswlFKkWY7IyM5Xu9ByV5pRp7MSQXok6ZqU2aCPSkRf180qiEVLBWF1LhXHdVNSRY8T2tF6v2Wxiab5cap9q31RCVGnbS/SB3tfIpqHG9Jv33UiNzEw8ma1I0fo819fXhwVeiY14yuQ6gdQojer1vGyCtUivO0kcMAzDQbpVxtqLNqBq9DCRulQtVOlNx74WJ5hK4E427VYgJfq90omujUYcXNo3dUDoZtD3PW+++SZvvfUW/aTYyyjmB2WGukYHZ/AmYJI56/UxT5+cUO0esN/M2V7XdO2GNHVYC84RnQf9QNN2zGYvzDg3m658b6LExtEbsHxDJLaYUejz2suvqO0g7lnhjB6sI9hUjICftX29rN08ZypF6IDpd/r9zd/cvMco0oC5gfb3YrvQ3V9fKpmpNMfEEeHE9Z9JpXq1d+k10kkNBD1X76X3VoY73WmVeaQ3CsW4STGZfFI5S5m1Mm69pt5jIaj25AYif7xR8UeZod5Dz9XP07FJJ86C6edpX7IsJ0uzmGOPQJolFGlKZixhGGKZPCnJZw/RISm5SOGDH2JqK9ldB/nNfFaSZxmpc2RJQpamJNZiTbSiWGPIszyWIrQWByQGjAmEMAKfTS9kBMCrmxBCR9M50bHWOUzFllSI/SsRiU2fX+drNpsdNI5cHBjTc1SC0uvqvE3pIMuygz1W50D7pefrXEznXWnHT3IV6iaqc6rzyoRGlQZScYgprVixzek4KL3o+fqd0ojec7pG9ZmQtdulMEsLZhzB7C2yr/2vOfrr/weOvvr3Ob73bU5O7pEmZeQgkubMOUueZtjPVUNjaEAgVqsKOIJJ0RRlv60dIg+0TTtNGIhJ3FKsCfgx1jnsrz8h3/7qc21s2sIkG0Ym6lcvYM+jo6MDY1NRvSxL3njjjcMkMemPDq4SXy92MysSwb/4F//iIG3YaUoVIYqFxJSqdKEEPCWIXFRP/c2UAUwZZic2FV00TIhMz68Fya5E6kV6jAv/Ra53JnF+Oh6leAwHUWV1cSlRmUkaKN1RlVj1PlYkYD8BPqsjQH+jDL+dZOaYS1D6IGppnuW40dD2LTUD6TxnluaMXU8vdS3KcsbgR5q2wTjLbD7HpQlV1+IN5EVBonVB+5b5LHoim7ZhDLFW5mwxxyVRtfTBk6QZWTFjP3a0fU+eJCyOFvgExrHH4pjNYlxmJxAadY7sxbGTiJexE4BpkiQHTWEQR406XJioqjpGKsWsVqvDWCsTzCexwcpcdKyd2LF0ASpzUbqYMiYnpgGlC52/KW3m4gxIxZOq0pidaC9WPM3FJLZZmZGes5MkjwspYqxzrueq1Ni2LV/60pd45513DozbisZycXFxoB9da70JzPoZNnmF/Z1vwju/y+prX2VW3mJpWkrWtH3D6BuSJOCMx/cjjJ68fAHSv/kKGAiQ+IYuPSXc+jqmvB0zqhkTha3PYXLu9RuqaPyBNv+iECngA1gzMlx+QLb51W/FsTFZeJns4MrYVqvVYeCVWc1ms0Os6HRn0P86kcq0lPHsdjv++I//+KB69eJNVMlOJ2ac4NsQZhYmge/OuYP6o4SvzEhbkDAfVUl7UWOVWHNRo9fr9YH5+UnKG104gxiCO7EHDaJaqsqmDHQQg7YTD6Ey5ek1elFp9DdTVUpV3lFgC4itSPtrxBHQi4qTidNFxy9NHHXTsAk9za0Zw90Vw9GCepZRHZf40zn+9opmkdMsc4bTBeHOiuF0QXc8w99e4h7cIn/9PuH2EcPpgqOvvsl4uuSqgP5kRn8yxzy8BfdPCfePca/dJXn1Hvkr9xnvH2Pun5C+epfkjftw64iqGzBNT2qjmq6qlUo76/X6sOnpglTmlwqEoxbvayb2wOn8OPFq12LT1HGsXlLNfKpi1xPkvmoHYeLlRLzavAQBYEQSqybRETqXykSVXjeCG+wlskAZkz6z9mU3CaRvxBlkRWILsiH04qBRhqqvt99+m6997WsHGtS1e3FxQTNxThljaO0xw5jTuWOq9BadLbFDS/fsCeHqA9zwlL7f03fRxmaNYehGxtGT5nmMJniJdqYsy4WBPj2Gky9jZncIqA325UwNmFSC1y8mjC2EIQa/G4czgWE0ONPTvPffsnz03/1G5MHN5iU0o7/hvn/+/DkPHz7EiU1AF9zp6Snf/e53Wa1WjBPUvhKFk4BrJmlrkiTh4uKCf/pP/yl1XbOUHOp6vr5XZqmMYBAPmTJVte3sdjvm8/lhcfd9z9HR0WFXGcXDqb/rxYCsC6IsY5VtZR7KQJDxUNVHCaiXXVOfURmZbgTKGJ1zbLdbFoJk17Hzk3Q2uuNrv5TRuUl6IWXwykyn861jiqhVAKPxbOqK/u4R2e99ifTBCYYEP3jILcYE0qLAj2NUG5wlyXNskmCsJclj0oLF6ogADG3L0ekpl0+ecnV1RiAQApSrFcViTl6UzBYLnHGYETrr8V1HaAdGP9CdXXP2Rz/B/+BdyjbaTzOxsVmRWjqB1ui46pjouXaSR08Zuc4fsjltJWIG2VB17pV5hIkDS++h49ZJ7GuQha/jHISZ6Pna30Sk9V6kRL2O0setW7cOtJSK3U9pQOdMNzbtWy92XL2WzmcvGUj0fgioOp3Y+rqu49/9d/9d/vAP//Bgp7Pigf7lL3/JRqBB+gzWL7AhIaQnPG1WfLIGEyx29wzbPiJ111jX03Ub8jRgTaDZN4BjtoxB9i9rQcLgE99SzV+HL/097K2v40kOKY0+j7l9ocQWs3pYDDamPwoGZz3DxQdk219hvkBiU6LoRZpJJx6q3W53AATqBBmBbrz66qsHJsPE/qbv9dzp8a7r+LM/+zO89ywFcJuKaqjMQQdPiWg3cTAoc9hLkLYSjDJBZabKSIJIQ51ELAwT4KT+Tp9Xd1clUiXQQZwqurOOkyy9CouwkxxxO3EoqBqhKoMS7FT6sxPYh459JUb+QSTQVFIvqbqljHMrNSpUre3qir5uMLdPyL76Cu50iSEhIcEVKcEacI5gwKYp2JgyAeuwWUpSlpgkwaYJWVnisgybpGy3G3CWcrVitlqxODlhvjwiK0qMs/Rdxzh6Rhtom46m6+iSgB8D9QfndB8+Ypxsmo2kVGoFMKwqaCvezUQCztU4byUyZC9wEVUVpwtZGZzi6FJRDduJp9ALHnEvQeqZeEXHCT6yFYjGVuJma4EbMUkO0Ysmo/Q0SJzwIDhHpb8g4VlKU8oodZNuRHpVJjlMnEzKuIJoPK04SraS8Vnv0fc9X/3qV/nqV796oFnEaaVjzETSNGNFMBXe1GyuH/P0gx+ze/xj2ou/pNk/YvQ9WQqGkcTF+3TtgLUvMsO8vBkIAcvA8BsSG5/L1PhtjA1ienCDiYwNgzWB4eJ9ss0Hv+EVnbaXMTYnWDJlbOnEba+E9Oqrr35mt5s2I3aT4QaMYhxHvv/979MLpCFMEjAqI9L+JBMju35OxEiq580kVYv2QT+bKXZH+swEiuImiRCTSS0DtXUlk1RK2vRauigQyU6ZT3LDIK1EbiY2R72vErc+i37OJgkuM3Fa6HdMbHxBzAK6MYQQosF+AL+cY169DTYhfHQNP3tM9+vnJB+vcZ9cEz66xH1yDR9dYT6+xH58xfD+M8YPnsMHZ7Q/+wT/yyd0P/2E+i8/ov/Zp4zvP8d9dMX47jPGXzym+8kntH/5a9off8T2B++y/f4vufrz91n/+QdUnz5nNCO+7mh/+hjz7JLMxvnIRFI14kAwAofRsdXx0efLxCamn41EcFiRpHRTchNojNKv0qzOrZ6n1zUioeUTh4yepzQ+nQe9183rKU3pMymdJ0L/ej/t23Tedd2MArPSe1mhYe2LnqfXmPbj61//Ol/+8pd/g7FpSFqYCBttGujCwMBAXa25Xj8hjGtcsqcoourrXKxFkiQOYyx9P+D9SJZnL/Ku3WgBCD7gGBiyF4wNKQsQ80S+vP1LMDYLkmE8YHHW01+8T7b5VQx1uKkXT16IejNMbBfK2Obz+WcWnE72q6++emAE0z7phOik68QoIX3/+9+nFeBvMckzVQukYiNxg3me88Ybb/Dw4UMQxqvX8xPjrzLPIK51ZSLpRPrR3S9MFpCeO0iBWOccq9WKncQRqvFZiUjvo0Q8iIqs6oIurESwVTqeanfR3V8Z4yCSYRCpsp+AlHVcxomK7CagaSvOAyNqlzEGkzmqtqUqUpI375AsSvpfPqb5/s9pHz9ift2RXe0ZHp/R/Pop/aMzwtMruk+es//wEcOjM8zTS5pfPWb//sdsf/kh23c/gqeXXP/sA+oPPqF6/xPGj5/RfvSY6r2PaD98xPDhE/zHT7h+9yO2735MU+2w9+aEDMZHl6SXO0qROvWlXsetJPY0wrBaAZ/2gg9EFqmOic49oobmkjCzqipSMdj3E1yYjqPOjV6jmWTcUNoexLRQSCheM8l6qww5qK1KpO4gDFfNDtoS2YRrsZka0VyUhnStWNGMOkn2mQs8phEQs55jJwH7TKR+7z3f+MY3ePPNNw+SqY7ZNNZW7ze6jNRb8sFQbfZcXV7grOFovuD0+Ii8SPB+jE6hRDS3oacfBvL88yU29aTbMB4Ym53fJRzAHJ/P2F6u3Goz8gpBbvLZpgvvZa/phDCR4PQhdDKnx6YM8WXf6+fxRi1EnSRtOhFBbA2V4LP2ki319u3bvPnmmwdbnvZZxfbdjWB3VQn03EGQ68pU9Lxpn3oxyqrtRxnO9P8gqkQtHtS9YM2Gie1rFNVAme1WUOf6vPq77oazxIt63Yqq0YmtTa+ju64VtVVVMD+x9XRdR+LBtQN9VePDCBnU7Y715jmBmrbdYkzH0O/Zbs5p6msMLX6oqKtrtttz6uqaod9RVddU9TV1dc04VOz2F1xdPWO3u8CHhuBr9tUVVXVNN+7Ztdc09TWhWhOaHSHU9P2GdtzRjy9SVm0l46zOkW4846T6lTI2J3Y0nVedU2UESjvdJEpFN5yt5IbrJ5ECU7VQaU1VUb22mdhKtW/DpCKa0oLShTIYIxpCI44C/dyJCUQ3JKWf6fx3wrj1+jsJTZvS3ij2YnsjtdM4AZzfXKMva4Pvsd6Tj4Fk7PGhY7AjHCAvnhAGIslGc4IxFuscIfwm73jx0jUv/OdzGODLmnvj7/wH/0T5182fWZeAcVhr8KOEtYSR+tkv4eoDttstgzADXRS6eyqhdJP899PFuZBg4jDxiqZpymuvvXaw7+hxbWYC9xgmaPWu6/jBD35Aq+hrmxOIGCqcIS8KynLOcn7EcjEnLxOauuLq/ILQ9RQmwXlLWc6YLWbMFzEGMc9yTpbH5DbFDYY8yQg2xv2tpIZBkqWsjo7IipwyLUlMAiGQJCnzxZwsz/AmUM5K5vmCWZaTJ5bUQGIteVFSFHOSLGWxnMcUyt6QmoSUlNIWzNMZpHFxaEylMrYsy1gtFpR5QXAGYw2zNKV0jiR1kFmOilPKfEaapVjvKVzCsphjSMAYinnKbL7AmoQim1MkJbnNyE2CCSM2z+iOFmRvPSQp5oRne8rdyKyckSWxXxjLfL4gSTKMSciygjwrKPIM4wUOk6TMSg3YtvR5ymyxYFnOcEnCaA1JmlLYhMRDl1rKYkGeLgi3jnGv38GmKfbJjvlVQzaCS3KOb90hTTMyl7BIE05nM2zucIk9qD86XwAuS8lnc1Kb4DDMi5JlOcMaQ1nkeB9r7C4kNrXve9IspqLPsgJnInQlywrmiwVpGq9bZBmLxZzlcolJElySsVgdgTUMfU+WJqQ2JSsL8tUCrCN1KXmS4UxCLhhA6xx5UZLnJYnNKPI5aZJjikASPKmxFEVOUhZkRcHRbM7xYkUq6bczl+JchOFkeUEwBpPmHC+OOMlKUhPAgk0ceZqTmgxPXG+6Tr/+9a/zpS99iW6SOr5t28/YMQ9r0484a/HOcL6+Zr3dkKcpEBjGER8AY7BGK4uNNE3FMA4weNqmoRk66qFn3zW0Q+Qb+7ZhP7SYrmMsbmPvfR1b3MX3nmAkxdaEa015xRdHHlhDCDbqsn7AWEcYe/bPfgmX7xJEBQsiTamUoK0TtXOc6PqdxFFqAPOUsWVZxuuvv/6FNrZ0kttLd8KmaQ6qaFmUuMZDGPH0OAt5mlK6nJnLwXieXzzn048/5nq9pvE9nff040jftQzek4pKV1cVxoVowA4dfRjo+gGsYfSe6/WauooS2TiMjEPH0LeMY4+zhsIlVNst50+eUW92FMWcrqup2j3t2GGcBSy7fXW4zjAM7Ks97dDFWhWJpR176iZCVNJJdMJh5/eBvu+ox4527MnTFD8MXF5fcrVbM8sXmADj0NF0FZ319ASqSpIZ+hYTDNW+oesknjWzDKanrbcM40h3Mqf85pukt5eQWrL7pyRfuY/92uu4r71O8o03Wfzu18i+8RbuK6/ivvIa5u0H2Lcfwlv3Kb/1NrPvfIX5775D9o0vMb55F968T/bmA8xr9xgentK/fovw+l3GB6d0904YXr0Nr90jPLxLeHBK9vCUxOWEX6/pn5zTtR0jkLiUq8srNldXEEayPCUUCVXTsG9iosMkSakrQerXNSFA1zQ0Av1J84x27FhXW+pdjKwY/cjFxQWXl5dkWcZytQJn2XUVTdsCnuBH1tdrrq6uCZpvz3u63Z5kHCmdww8DTV3RtB2Xz84Y2i4ufAODl0zKXYcPgcGPVLs9u/2OfujBWrIiw+YJT66eMHY9NkDXtVxuN7RdR5GkZGlG1TV0Qw/O4A344Nmsr3n27Cl5PqNMc4au4Xp3zaat6EOAEfqq5fw6Bu8rI5sytqkUe35+/hlpkompqxsGPn38iE8//ZRqHzWaSqJuVHKO2lVcs5vNhtKkmBESHC4YzBCwIziJGrOpxXU9TXpEuPUVsvkDUpfgsmgi+1wc2xcxNiNarDFAGDEmYRw66rMP8Ofvkmcvku+p/UltRYg6pqL8NN5tv9+zkNQyyhyRRas2NmVs+n96H3MjAaT3nh/+8IdUVUVR5DD0hDTQOU9rBoYw4scR3/WMeLwJ2BAIiaXKYGN6goVVUeJcQZHn4EesC7hZwpAHqrSjd56U6HhI05Sh6yiynFle4IAqbxhKCBm4NIkSk4eEhNVixXJ1ROs7Gnp8anFF3FlTl5EaR56muMQxGM/gPHaRwsJx0VxR8qJmgI6ZEedJkefYxNInBp85bJJAgDTLKcp5lE4cJNbTpyPDMmWYJYRxpLCOsizI0pzExT73ycBYBppiwISBwXvGOyuOf+8dZm/e5+jNV3jw+9/k9N/6Oke/+3Vu/fXfYfWdrzL7+lukbz3AvXmf9M17uNfvkL55h/nX3+T0r/8Oq7/yDotvvkXxzuukX7pP/uZ9klfvwr1j7KunZF+6Q/7WfZLX72Jfu0P66l3S1++QvXmf9N4xyVGJ9Ybm0wuqZ8/wY0+a5hwtVox9z+hH8nlBvpzRZ5a2a/GAcZY0zUicw2LIs4JZOcPZSE82S7B5wpDArm/JcVEanaRLKvIC6yxd6NiZuOHlaYzCSKzDuoRiPmNRzunHjpaWUHpC5gkWEpeR2YwkcxwXOYssYzQjXR4gM7F2r/ckEmmRGMNyWZIuMno3sA97ajOSWkfpMow1jCGumcVsTpqn9KZntJ6QGoILJKkjc5YyccxmS7Isw6QBnxuGItJZZlKWxQybTeipKPj2t7/9Gza2VgC6NxlbIvZGI17XcRwP6z2X+heF4PqsqKeV5PGzZU7IEkgTbJLg0gSXprg8akOZB9cPdPkp5u7XSBb3MAGGIZpSPi/bxxcytsiKJcRFXPhhHBk3H+Mv3mPso9rZiQ1KbQ8qtalNRw2yiKTVSgbaVICOyqCSJDkwNm06eExUUf3eiTfKe8/3vvc9zs7OGP3I3jcMC0c4yfELh88dJkvwwLauwEPoBtb1nuzBCUev3cMAxRBwLme32VDtthydLFndW+EXjuzOnPnxEWE30g89EbIMq8WCzCYMXUd1x1C+dsLs1hFjZumCp2472nHEuIS+bensQHG6ZHHnhC54dpsduU3JbRoj1hJDMktJlxmz20uyk5JNvyWvIvNXG8lski/MWcNAjzuacfLwLl3fUW12lEVBXTds6z10PZmzhJnF3F3h5gWmHyhHS9P1bNdbTPDk84LW9gyzQHFvyWwxIylystun3Pnqlzm9d5/bsxPKkBAGzzItce1Ic37N7sk59dkV7cWG5nxDd7WDpmfmCo6LJbbxjOsKU/WEfYcjwQyB0ApMJc8wzuLbHl932Hqkq9v4uW0Z2wrf7jF9w3GWMisKxsFjBujrhqzImJ8cYQpHuiwpZiWz2ZxxGBjantSlzPICY6BuotSVzwpwhmbsSBczju6eUoyS1FHKES4kE02SJuRHBfbEMstzQtdBN1IUM5IsY9+0JKOlT0bMw5LkS8fUcxgTyzKZk/mMy/6a0ib4vmNNTbgzZ3FvxTi0tHVHkhQwDuAHFqsZ2TLHLVPKOwtmx6eMbc+4b7AYinLGbLEADG1XYzKYHS+YHS+wqSWMPb5psMNIli3YV3t2XUV594jVK3ejJL5tSL2lDy8y0KRpyje/+U1effVV9hJTzRcwtmGSyEETpyJlMW/fvk0uWY1HwayqySrLMkyeRVvbODL0PX70DENP23X0Q09oO5LRw/GrJK98i2xxH2csIUQM3m8a0GL7QsZmDNErGgLWACbBWkPSnBMu36PMIg5FX8kkRs2J9zITl/SUCe33+88wNt0pnHM8fPjwM96gKWNT5ocYXXUwx3Hkj/7oj3j69CkAzdCRlBnF0RybR5d96D191bJZb/F9j+9GqtCzeOUOt169hxk97cWasTecP3/O9fUlxSyHzLD3LcVqziyf05xXbDcburalrmoYPX3b0bUt4W7B6u4JxjjWl1fs13u211v26y1925MYi08t6bKgWJUMw0CzqclNSlc3XF5dsmv20VaWO5J5TlbmVF3N8OwFJqmdVFDfbrf0Q8uYeIpbKxZHR1S7Pe2uInM5682W6+2aFMOsyEmOSop7p7g8g11L2gW21Z7NVQRdZmVOZ3rsPOX43iklCeO25fzxM578/EOefv/nnH/vp3z6P/yAix/8kt1f/own/6/v8+v//k949kd/xv7HH7D/i/e5/uHPufrRz1n/6Oc0P/uI6i/e5+xPfsSTf/59zr/3Y86/92N+8V/99zz/4x+y+/P36T58DM+uMc+u6D54Qvvzj+l+9jHrn/6K9V+8R/fBp3SPntA+e0JhRwosfdVwfX5JfbWl2u5xaYK3gXW9A2dIkxRrDOvLa/bbPcbHZdBJkHhbN5RlZGx131Eez5mfLOkudlxfXbPdxTQ/ALv9nmEcSIoEu3CEfmT9/JLNxRo/BrrRc7VeM1QNnenJ7y1YPThlDJ6h7mHn2V/u+OjyMYm1BBPo5o707oryeEHXN+yv94zVSLXd0NR7sNAxMCSBcrWgmC/Znl1QnV8zdD0esElC13ZU1R6TGop5iU0cTdtQbbZszi/Zr7c4mxO8h8wyv3tEtpyx2+7w+4bCpFxtX6TzSpLkwNjaiQf0JmPTNl2rmgXYCjRJTU7qDVZPcCdZc4pCSgISwBrSIsMmDmPjRpI4S5lluDtfwtz/GiY5wYSAS8Sd+XJN9LcxthA9Et5jrSEIWDcZzhnP3iX0L7JJHB8fc+/ePdJJksJoKHyR416dApeXl/JQL/LSv4yxTQcv9ueF8+Amw/vRj35E0zTcuXWH28WSMsvIsISqx287it5SDglFkpPnMXPu7GjOvqvpmpp5mpJZQxZK5rMYc3d0dIQP0HcDzjioPUlnKdKM1WIZjcFpxmxWMl8usAkUY4K/2OOvWm4XK+6UK47SGXeOTlmsloQkUI0NwcIsLylcRoqjyEvyWUFa5KR5hjUWhyM1Gf2uZUHBQkralZLBNpFYyPnRjHyVkc4Ktrsdoe5ZuILcZeTFjDKfsZzNsc5Q9y3WOcZmYLhqyEjIsoTZfE6Rz8iynBALa9M3Lf5pxay2rMiY157sck96saP59RPSqz1Xjz4g21Ysm4F0U5Otd9jLa4ptzWkwLLqebLvHXa3J1juyzZ50vcVcXLPYtTwYHLcbT3q1xV1vyC73uEdn8OiMWd1wsus5XXfcaQzLesBe7zgJLqa6MYbSphwvjijSnNk8lquziWMYO5JgMGPABMNysWQxX+KShCyNcJokdRR5RpKmJJkjnxVstzvMfmC1XHL33r2DkytNEpI0YRgH2q7D9o7CFizmS2azBXlWcHS04uRWTExajoai8diLhnxvKVyBTVPcfM7RYkWaZvjMMdjIbdPEUZqCVRbhGcv5ktXxERgrApyn63rYd9yar1gtV5A4srxgWc4o84I0zyBAU7eE3jPPZszLOcfLY5zLWK2OyAtH63u8YOtz75hlOWaSgXk2m/Gtb32LV199lUaiF4JEamisqEpsRoD1XhABaqNTIPkg4HUVQlQwUQfj0ZAxI8N6g7WOWTEjswlZcBR5QZf7GIVy8gb21tcYWeK7hsHXYiZ7ObDjCxkb+JjFw3sR3BJC8CTtGfXjv2SRR4nNWsutW7d48OABSFyaSm/tpKhtIuDCzWZDIUHbOkiJ4M4ePnx4CCCeDp6+1HmgTM8KuPDP//zPaduW27dus7nacXV1xfZ6TbXe0G5r3Oiw3sXCq8HTdg11W7PfbEh8YJZmtE3F5ZMrmrZlt98ChqHtGesR9iNXj87ZXF3HTBchsN3t2Fd7xhComoaLT5+zf7Zl93yN6QPLYs5mveHp8yd0fUuaZVRdzb6usAZSl9DuGjZXa9qhxyTR7V7vazYXa9qrmnHTsX56zShxgUYiLRR64L3HJOBTT+d76l1NOhhMM7K53rLdV8zKBYlL2W53XF6cM1Yd3VXF7mLHOHiGscW59P/N25/02pZceX7gz8x2e5p77+v8+fOWpAfb8GBUUtlUKZmRmYOaCKmJBvoCKn2LkpAfQoAgpAYaqUYpCJqUBCGBApQRiiSZ0TCCjGCwc3fS/T1/zW1Os1tramBrnbf98rkzlAnJLg7uaXZj22zZstX+F9PkCTPYYLFjYnyxZ/d8zzAFrHVMfcf1s6dYl2jqgu2q4fH1Mzbtmu16mz1ch4Hj9YEwzrR1gwmRft9xuNnjkoEAUzcy9xPz5GlthZkCly+uuN7viD4QDgPjoccXhhUVFRU+GvopEHtP2SWowIeZuZtIPnH57Jrd9Q0pRmqX+7q7umZ/dUOcA4Ut2O9yrYBxGikKy9j3zONEQpLQi5LLq0suP3kGKRFT4unTpzx9+hTnHFVdcdgfefb4BdNhwuGwxrLbHbm6vGQaJ6q2ojseuHzygquPn3P95IrjXkrupcTatFSpYOpHpr7HH3uKlKhsQTp6pl3P7mbHoesY5hk/gQ0O30U++NnfMF3vWZdZIPj06pLD8UAaPf2h42a357jrOF4dmfuZ5BP7mwOXNzvONxc4k3jy9BOevniebZF1Q391YPfimmlRYMdayze+8Q0ePXp0ElKUsV1eXv4GY1MbnPeeX/3qV3z44YenECQ1VaVFfWAj4TMxRtpgaVYrzKbBbBvc2QpvU455W9f4M8fYDYT2IeWDb+GquzgLqZwlh/3fgbGlmHOxUkpYZ4jRZCY3PKX7+M85X5VsBNdeO65YVGupiK0PVUpgoKpTjcAaK0dXRvjGG29wdnZ2ksj0P7dUUR1YbblY8guapsFUNbNJVE1NvVpRVg2uqpkjBD/T1DVFVRC8p7aWTVUTgucwdJzV53gf6Y4ddd2wqlpWRcOmWGHmlMMyJNximsaMTLFek6yhLluaeoWxjqpuqTcrbrojh3ng/N4dtqstc/D4MGd4Hp+Yh5HKCSx4ipRFSQoJFx3bZsPF6pyVa3BNVuUbCQZVoirLEltY+jAwTzMFjjo5GAPGOqKzlLamKBxYcDjuNhsaU5EClE1NURqcLei7AZMMjatobEWdSuaiYGgLyu2KZBP7fk+9XVE2FaRA7xOFLYkT+DFikyNMCT9H6qrFuooQEvMUqesVRVGRosW6kkNMrDZbqmbF5CzUFe32jLKoidZCW1G6lskUXJHoC0vTblhXG7pwpB960hRZ1Rv85AnTTFNXrJoVZWGYhwliYt2uaNu1RLtnQIaqLPGzxxgJ+jYGVxbM40RtpIZF87J61GotxZpDoqamrVvqqqEoSmJKxBBoqpKidIQEpqopNme41RpXlrnUXEyUo6OtakpX0NiCtStpXcnYj4R+xkXHHALJGKqyoa1amnJFHDxN4zirWrbrDcY69n2Ps45V1VCYPKZt1VDZgqasaeocXYB1VK6gKoushdmEKQvmYSaOgcblwGEVUsqy5Fvf+hZvvvkm4yLL4PMktiXDOgowgNJpLRD1qmGoFjdJKtjl6xvGrz9k+tZrpK+9TvmNNzHvPcC99zpn33iXe2dn+P2Adw+w976OLc8weJKZgN/C2JYM4jPNFBgCJiWSKTBBir8Oe4rLH3N323JxcZF3M4l/KQWzarPZ4CWQVR0EpaSXXF9fn6Lv1fZmRB19/fXXP6OK3u7bUhX1EqUP8Jd/+Zd5N5kmnDPZY1XVrOoWZyyrpqGpSqZ5IIn7ubAlZdWQgoXguGjvgjGE6CnKgmbVQGGZTcAXCdtkg3VSSCQshea5lhW2tLTrlrOzLd7PECJtUWF8pCmyt4uQuLu9y8q2mClRm5KmrCiLEmcsZZHDAJpVQ7WuOIxHinWBs9lbNUgwsMZlee9xydHKXzk7TLQkk7MIop/pxgM4WK9bVps1Uwj4GFitW1ZNTQqZaK0zXNw5IxUJbz2xhM26Ye0cZprxk+funXtcnN2hPw5YU3DRbGiKmqkfcMZQlgWrsxVlW2KKHFfXrrKabQqLLRyuymqdDQHrYAwTFxdnFMZgQsQ5y2a9ZmVq+qFnmDouNg0Xq5rgRzwe5x3bYktJiR8npmnk/O4Zq+2afswJ1uv1lrv37pPI3rq6bTi/uKAqK1JIYC1nd+5QlBVziMQ50hQNqzZjh6n95v79+1hjmaeZqixZb1uqqiAGj7VGoufBWENd1qzrhk3dUFtDYy2Vsdy7c5dpmJjCQLCB5BK2KjBlxezBxZK2XGGNxYdAVZW0bQ0mYYqELWFdr2nbDf08EzGkOVCXFWVZYauCuqlo1yuKwuFsXgMpBGrjqOqSKcy07Zo727vYLuL6QGNLTAIjWTq6pt5//30ePXp0Cteyklnx4sWLE/0jAsZynSp9FkXBnTt3uHv3LpUADcQFjNgs2THbYk165z7jxhE+2bG9DPh+ZupHkrFctYnhl59SmjcoHn6LWDqK1ENyORQtfRa6SPvzG3hswOnAZHJAbmYyFmLI4G/TNenTv8APObF3LzA+yq0VLVSj15N4MJUJ3dzcnOLalIFZ8Yw+evTohH+lTTtrFipr7maWBFNKfO973+Px48dgDPM4MfQ985S9LNM4gTDC690Nx76TlI6ZkGJ+hQAp0UlGwX6/J3gPxuBnzzSOmJRoq5rj4chBSqiN44g1WZKdY75GCIFpkFoGfc/l1RXjNBFSYpJr9kPPseuZgyeS6Lqe3WGfF7IWyw3+9Ayl1BU4CtR6uYhnm6Yc82aMoR8Hur7H2Pz5Zrdjd8xwTgbwk6RYTbMklSSub27YS8pXXdeM40DXZSIvXIGfMlLE8XBkGicMhnHI6V0pJdqmYZqzejxNE0aQIPb7PVOfkV1jiPRdx/FwJPiMYfb4yRN6CSdYr9fZCN53+NnjJC3o+YtcurAoCjDQDwPjMGAwlK6gO3bcXN+w3+9zSIYxHE5FmnOEvdLhKEbvaZzoh5dB5dmbPxHFm59C4voqF/SJIWKNZeh7xmEgCvjqsCj/10lmS9d1ObRK8nSmec5G/L6nkNSux48/EUSTnBUzjRM++IxjESL90LM/ZBCEaZqY5hxHNs8zbZW9i/vdnkGyHlLMTMYLHVmTYyzHcaQ7Hrm6vs7qqjPMIRBSDpodp4xzl80uB/ZCR7OkGH7zm9/k4cOH9II2YgSa/vLy8qRG6prU32cpGHMpBctVKzML1VM1M/2cqprtV9+ief0ObgyUtsCvHF2aGIeRdOiwn1xT1G9i7n+VaCtsmjFJ4ti0LfoBrwCa/GzAmwECKZGDc6PPeVrTDTz7S2zM3jmVosYF2kS4VT1KpbMo0NArQapFOqOM7fXXX+dsUXM0dyn3SRmbXjNJHmdRFPz5n/85l5eXnEv5Pe3X0ltrjMEUlnrVUtYVrihxRYF1DiMGTqSOQkqJwmUDprMmS2bkCHKk8IzaDZsmxzgZBEUkxByTVBQ4a7FOCjmvW1zhKMoie4DqiqquM7xPVVKWOVatklimpmpom5rC5v7FBeyRjqVzjqZtcv+tTLSRugrWMoeMCLIWhFgn81DK+yTBqYpUW1UVBihcgZNocaTKku62Oqbq1UbMFu0qI2QAWOtYC2JGKV7yoijydfV9WXB2fk6hqV6zz0Z6V2RxSfraaMUk46gkJzYt0td0PKqFd75RtOQEZZk/pxNu2csIe+cczmZbGZBj0uT9WsA+dUHWEtcW5d7VAlCgkspVthCkE2tBMimQGM0oi317lj2FMcYMMAFZK0oxB2UDZSHovnWT0YgTzMKYjeTAIrmtbdtSViWJvKnGFMEYbOGwhaNsGppVS1GVWJf7ZVymOesskVyVXTNaqqri29/+Nq+99hq9wMAvGZuuPRZrF4lU0I23EqFFBRs91klAv5eUrrptqe6fgTMUx5mVy6aVGDLmnn98RXnT49ZvY+59lWhLbMyMLbGoCL9wNJrPldhOzWBS3pUxNuOzCWMzz/6SR/cvePvtt7l79y6NJHc/ePCAu3fvUoiLN++G2TCpD3UQHHf1piAxb8YYHj58eLKxmc9RRfX7tAhU/f73v8+vf/1rVqsVzuYoZ23KZKdpykF/TZMlKy/MNwRSiEQfmCVGLIZA9BFLIsw5ut9imBcw0JpbZ4UpJpH6/DwzzTPBe4ZJ6iQIpNI8zVkKi1nqIsE4DEwnbPlMnH6aKZ2jrmr8OHK9z7ZLjfHrJCcxM++aru/p+p4gi04llRACrcBADcNADJGqyDaf4D3DOBLMywIm8zTjjGG9WmESDENO6lZ7qNpQC/Fy+3lmv9sRYuTi4pxpzIV/x2HI8V9ku8socUuVqCXH45FxnlitVwTJjyQmzs/OQCpL+RRzWpB42ucxqziVBHpPos6s12tGKe03KeCkLMRRagFUdcZs645HQgy4smAcs4RCSiQJ20k+ez1LgYrXYsrKxOYpS2GqsjmBleol+R2baUSZXy1jn6W3kabNDHccBLU4g4IRfWZqISUm8RiSMqNtqhpnDIM8i5dcz50UnK4FJSTG+PKZSFlyk1zk9SqrudM8MQ4DXiG0vGf2Hr/A77PW8u1vf5v79+8ziFcU+AxjU8HDiKRmxKn1ySef8OTJk5MEOy1ylHXt+gVQw4POEi4PdL98QvHRJeUn1/QfPCH88in1sw4zecopwPYtuPs74GosQcwtC8bGZ5nbZy1vr7C1ZRVWwivSy2OMZBNcXFyw3W7Zbrfcu3ePi4sLVoIRr7vKkgEp19aB0WubRZ1QJQr9v3wpIzTyEHoddU5Ya7MNbSFJGnkQQ4ZBUfWusI7CGIpkqIylkO0yM7tc3dVhKIylwGBTHscowYTIAncS6xR9wKaUbU0i4VkxoEIi+QAxgjBSQiT5gInCDKeJec5ES8phNiZEwpxhapQo4gI9OMZI8B4Lp346eZXOUYj0YTA4k6VKJegYQpYWRNqzLodRGCD5IDUNXM4DlA3AWYuz+Rgd16oscdbi59xvlZpSjPkZ5LgUZUxttk0m3biEHoP3xHnGpmyzdM7hRZ0sXEHpCkyIpDnksTXmNBdR5lwl0RgCzpj8PuYxNLKBgsGHgA+yaSdyvQZjceS6C8RIVNtwUZzMDfEVQA9JNpKUEs5Yalfk/mOkVoPNjoOFCqbXdcZgYsLJGEUx+xRFQVm4/L3PUNpJ5lrnoa4qSqHxMM1YHymTobKOwjhMzFqHsxYrfTEhM3FipscUIpV7ad7RNbRcr69ai8uma9GIRqVCzkrqjBQLLQ5xAiLjNm4LTGVpi4K6LnClpbaWbVVx5ipWY75uNFn6PmUaGKGpV/AsPsPYXnVAytaC08PcOma/3/Pxxzk37MWLF1xfX/Ps2TM++eQTDofDSd3UAcqXfDlIy8/6XsXcL3opA0y3EGxV+jJAU9esmiYTjoyDAcI8M/U9JiaaoqSxJSWGIoKd8rmD1Ps0KcdAFVhcysxi1banhWONoS5LTEr4aaIwWX2syqzWJVE9Lu7dZb3eMB97jI8UyeACpHEmjBOVKWibFfWqzU4LqVqfQmToBpJ/WchY7UVrqWAeQmDoekrj2K7WVDZ73ypbcL7aUtmC7nAkKGKwc3gJHXHW0bQtIUY6saWsV2ucsQxdT5g8dVlSOMc8ZTvl+dkZZ9stfp45ChT72dkZtRRMDiFw7+5dtpstfvakGNluNmw2a1KMDF0PKbFZr0lANwwkYLvZUBUFh92eaRhom4Z6teIo9qu6LNmsVlmyGkaszHHhHOMwQIxcnJ+zXq3oJNSgKIrsCBB4J2stZ9st7aolmczIK1HBow9YDKV1rFerHMR7PLJqGu7fu4ezlnEYsDZv6GquiGIe2Ei9BRsTpbGsyhpCZOoG5n4kTjMFlt3xiA+Bsqpo6py0HkOkdDkm0qiqKHTrJ880jIRpZrvZZEYmG0RZFJRFQfSeqR9g9LiQcCHB7DEhsV2tuXtxhzjO+H6E2VNiqU0GGqiNY9OsMCJ5+UVpv9tMfPnS9ZpEKFl+1vV4fn7OvXv3WC/qaOjxyjCv0kisLWdnG8pNS1iXVOcrmrM1ri4oI0Rr8CblSgUp58Au0T70nkv+5N75g//sc1XRRM5hyyp7diRgsipqn/0l27Y4lSZLomJO05SNqGKrUqeCXWCo3dzcUArOlQ6k6uQPHjzgzp07xIVEp013BB1I5KGqquKHP/whP//5zynKkllEdqSAxbioTzBNU1ZprKWyDj9MzMNImj3zkAuWjOPIPE7ZrjFOzOMMMrm2zCpbL1j785xxpULIxSmqsiLESD8O9MMAzlIIMms4DMTZ593Xe8IcmIcJC3gS/ZQhkAqb80YPuz191+OshfJlPdRZcMTmec6ZB+OIi1ltGfuBachqXV1WdIfjSY0txIg/KiSR7NRXhz3d8UiKgVXdMA4D3eGYJYOyyClaApFTSUiAQuAYkZaPx2NmdClRlYKBdjicVBw/53JywyJ4+3KXVUc/z6wbKbpy6PDzjHWO2USOhwPTMJ6kpu5wZBpykZiizKrTsevouy4noAvUdVjYddWR5US1H+eJfhxONr15HOmPRwhSCMhmB5eqZY2UrTsejwA4kZTVaaaS8zAMhHHCJajKkuPhSJwzYxr77CS56Y8YyHa8EJmnkXmY8txYQz+N9F1HmLNkNvYD0fu8Ma0ypPxBHD1qavDeEyeP8xE/zcxjNv+kmJnfNE6Mhy7T+jgRZw8hMHQDJibqqmY/ZNPGLGaHb3/729y7d+9kY0M2/MvLyxOjWzIoZYxPnz7lxYsXIOt/tXrJNJNoOEHMQiklXGHZ2Iq1KUhEoqCOZGHBE0dP7yJ+/QbV+e+ArYlxFPRum8W4hdSozM6980/+83+eVK3gJdfLfp1sY4MsUZGy8yDNe+Kzv6J1eVCViXiJSWvEAB4EB0vtHE7SrLTYhjI2s3AePHz48FTBSgeMBcZauagSrwNb1zV/+qd/ykcffcTFxQXFLchhVY3quqZq6hyTVFUQs1rkTFaNyqJgKBLn5xfZYEtGBimLMrvQy4JkXyYKO2GyGt5SFSUpZinXFQ414BprSTGxaducoG7IsNjixEgGPJG6bkSty3YXZzPcjrGWaDMTVxXBCVqCc451u5KwE4srHFVdZ0h3m20Q6/U6q0bWYYBSxiLJxlCUBeumpbCKjZ+o6oqyKjEuS56tOALiogzcZrPJQbdirqibJqc1Zd2Osqooy+ycwZAhidomG6tFfT3fnmFEnU0xUlYlTduSTKbAtm5Yt6usecR0uoaOL+I8QIEYxN7UirPDGIMRmlQGFGOOF3QYqjKHOzRNS1kWODG4R7GJ6pgr/TUCuWRIlC6Pozo7cqlCKV1XlRgDrThtCqGDdrti3a6ymmqyilhaR+kKEomicNRlRVvX4khxrDbrHB6TsufUWktVVzlpvCopm4a2rqlcgXEWV5XY0uVk8rJgCp5122bactl55YQOXVlSlAVjyBK9Fxvzd77znRNjUzrr+54XL14QJG4tLIpJ65rUDU8dLfo9ooLaRbiHMYamrHEJSpf7CoaqKHHGMY8j89wzmgJz9i7u7G0iLpdftLKOlDcZVVOzt9S9/Y//83+uXE0rK7/sjMHEWeo4GlKcSVjifCA8/zGpz0VuJ4kwttay2Wx48OAB5+fnzFKEWNUAK7r1zc0NlRhnZ9nRlQjv3bvH+fk5yGCZhZSmCzqpq1zSN5qm4Uc/+hEffvghKSYmAf4b5H8QQL1xGEjGUDY1x+MxV+cJgWkS7Lh55mbK+PfBe/a7Pd5nl/w4DAzTyL7LXh+rmPldRxDpMs4CRthnw3g/ZFf/8XhkHEbWq5Z+HDgOOczDlQU+Bm4UfqapiSGw2+057HaEmOsg7PZ7bg4500Al4r3URdAx2e/37I9ZYsJa9scDN/sdk89E3Xc5x1UlFyv1GG5ubjAJqqKkOx7ZS8WqsiqZQzZQd1L8OIRwktCjeEf3VzdZgvAzRVXSj2MOb5lnqirXKD12xyy9GrBSCexwPBKnmVXTiGSaJYaqznmDV1dXDF2PJXuk9xJChMk7+lFQkSfJOez6nivpmxX71c3NDcfjkZgSVhamSmLO5hCOwz5LczlkxXOz29F1RzCG7XbL8+fPT+fM4gg7Hg4EnxO6DbnK1363B6HX/eHA4XggpIgtHLvjgX4YctJ90zBPE9dXV4xdzzxMzKJFHI5HQow4Y5nGMYfgeE/d1IxTBjY4HjumaWQYR7ohwxTZIs/n0PUc+54pzIx+5jh07PscyNzWDdM8c+w7pnlmDp5Jks2PfUc/5QyBQarYv//++6zX65OX00oIz41UtCoki0jXKWJD+/jjj0/ZCd0CNFVfygNmMSFVVZWl7yYXAMphSIbgA113IIaROdWY8y9hz96QtM5csgCTcsBxMlm/NPYlY3vnH/+//jknA/tn9dWUREqL6tL3RBzMB3j+Y9ycHzqIwb8sS9brdZZeJG7n+vqarutk18oM6igFU0qBrtYdMS1UUbNwLCSxvel9gqDKBhHDGwlc3e12XF5eYhbpG8pQnUiMVZ2L8IbgIZHrZtpsDLfOQfOy0LAV43PhHGVZ5dCQQgrRqkRosku/qitsMnnHlzzGQkIdjBQV3rQrghhQi0VIQhCVr2kzXj8iJZRVlT2aKUtATmxCxQK3v65zQeMkBumqrqnE22yspaxydkgSiaOQ/FJlVEYkzmZRQKeSeqOIVOwWIReI1FxIeICffA4dKEva1SpLl6QcqCtSgl6nlODtKBtBVeYal7PETjnnWAvcjV/g+lcKECnPv+x7URSsNxuCVuuqStp2RSNeXOccpTyfMtayrmhEbTWAFemzUDoUNer8/JxOSu7VEtahC7Rt21O91HmeMdbQtC2t9M1KBar1en1SaeuqolnncU0xnubOWnuirbrN2g5C/7WEcwDZM18KyISEKeXnbWmqGiv+PWNM1iZspsOyytBGeR3lvG9rM3rtrMi/4um9d+8e3/72t3n//fcpFjDkQYQDNTfdblYkMYUObyXvtFnEsukc67WMhK04QQAqFzV+jcmhVX4emUyNOXsLd/ZWrghP/GyoRxbBFnmji3APjaMRbnZiKMQ5l7kyRuLYCow/wvMfk4abfJmFrj1JHuPNzc1px/SLeppRYl2cc6cEYyOuYoAHDx6cwj2WTE0lhO12y2q1YrPZcHFxcfru0aNHvP3227lKlcSnaX8mgWKpm4YQA3PwWPKgZiyzLJ6vtxtMmQ3lKUScxFRVVYZWKYqC1SbXIvCyAArBUMtqUaJupfCGMIiqfpmRYRJgMxNwor6HlDLuV+FOqqFRRmyzahljZLXJBlglBs08CCF7y2qJo4oSgFmUJev1Chbu+JVUBvMhZMmgyMnv3nuCwISvJCPEy0bTLArwJpPVy6qqCDHn8xlr2Gw3GAlzwFpWEs82ih2rlljDWbyXRVGcYNkBYkpsz88xRkIlZEFXVXUaZyebEiZ7NJVxoN70GNmcbXMIivckUZ9KWVRC79RNk0EAYnb+tKtVTkgPAT972rahWa0YhjEHT6eUESrEBKJ0q/0w8r+q81yP44R1js12C5Cx7EKgkvv6GLDi9ayrjKuWIG9iMl/jPOfYRi2wAvgQsupfOIzNDK0UOoox4uc5e0rbhmTBOEfdNJRV3oTmaWL2XswTNgNchmw6ajdr3v3Sl/i93/s9/uAP/oB/8A/+AQ8ePADRhtRZopufhhpp0/Xpvefm5uZki91sNnnDWBRVMqLCeqnb4UQDswJPPosDQ7VAUmI2NZy9jTt/E2yJMVGkNLI0BrJF5fVBMpjv/pf/e8oMTaW0mEMSUiJiMHEkxUAyjhRGoqkxw6ekn/xL7P7xiWiUuennKBMaBEvdCXqA957nz59T1zV37tw5eflSSty/f5/vfOc7vP766ycRVhmbFTX34uKCtm2zkV1UWJ1cY0xWlfqc+nF1dcXTp0/59NNPT3E1VzfXDFM2+BYu2zBMygGpm82GKeXJMYmTHc4svKDbszP24pCwIqmkU4pV9pilGDn0XQ4bWOTShfllLVRVkZFAUFsWmelK/Ju65GuRVs7u3uFmUUPhTApOHw4HSLAWD/R+t2eYBlYiOR8OB477A3Vdc35+fnLmICX2VqsVV1dXJ0Lbbrf0fX9SWbfb7Un91Tm01nIQj2gp3q+uO7KTeK+zszNmMUM457i4uMBIYeYgaMrb7Zabq+uTOvPgwQOOkq3gpAAOcIrVUkltEI+1Lhy14WIM9x/cJ6WUDdw+gx2WUnwnkplS0zSM08QwDjjrOD87y+r/zY7gPffu3qVdr/nkk0+I4vE8Ozs7xSwWwrQGNbSLmqg0MI0j282Ws7Ozk9qOMIjZz+BEqkji4YuBFBPr1Yq6aThKOcBiGc4jjOP1hw/pJWYuJnGuLRhLLUWApmnKSMhkk808z8zTRGEzU96enXF+fs7rDx/y1ttv8+DBAzZnWzabDefn5xSLYt2FGPsRqezq6oqPPvqI6+vrEyOyi8JEH374YTYJpcTdu3fZSC75ILUVVEvrxNnTLILpdQPVdR+DxxnozBbe+vtUb/w9TLnCmkikIBn3UgW1Jgc5GQlT+e5/+UcpxRzKsWRq6cTYcm4lxhD9SKDGjE/hJ/8DZp8B5dItz6UyN+XQh8PhtCimaeLq6ookO6F6lS4ucrDvV7/6VQoJfvWLohNGjcMSed4LMm8l3tQg0c66yAtR9YxAhx8OB/b7PZ88ecyTp5+eFu88ZWkGyOokhq7vs+FWJtgsIvBrMbD64LMAbI1ILpYYInVTY8kVh6LYSxIJa16W79MJ1FbXdc5JlRilGCT+K5FjkIyhWmVmroxA1dhxHDGSKVAUBeM05nCCssyLbhxzgHHK9/ESR+UWqMXDov5otah0ZcXoroRppBRckgIjxhiSzWqZBpU6lwNKQwiM04iTOdO+6j2NyWEOQeZYbbLBh4yEK5LWIF5UnftR0GJUuhyGgRAz9M9qtSKknE4UJ0/btjjnOHTZK1+IujfPc5a2gKbK98me5MzInBQldmKLLCXMBlncpYQWhRhwQiOnFRCzZ7wRJqUMT8fViHeblMMVnHiqnbOn9DVtylj0Gs26JcaccJ8Xfo4RtJLlgMsxhsoMvcTuNU1zMvE8fPiQ1x8+ZHt2dpKWohjz9/s9veSLOjHdDJLypuOvcx+kD8oAvYRy7Pd7nj59yvF4xMjzITY1JyrnLLWFVSpXnqEvPccAIQYGd4Z98+9Rvv4fYMoVzgaSKYhSsyOfZ6U+i83M7R/+F3+Y3U8pnhhbErExJgOhz6keCcI8Eqkw0zP4yf9ANT4/dUYHKN6KeXFitDXChFQdWa1W3Llzh6qquHPnDs2iZJ7u2roTqVSmOwNiK8p09LIIRZK0LpNeliprJFiwFhTfum2YQ47K77qOXqO555mYEtMh7+66+GaJJi804NTHLKUJKSfzkgBnWSzOWkzKO2kpIRW66ylB6GLVHQpnCUhAJWJolWBaC0wxq1Z6jhUC9uKJTiHH9ljrcIXLaqHkj5YmL2Ydr1JsZKPAIKEi/GI8day1n9pvfa/EPqUsycYQqMoMIhjm3CeMISHS7CIAVO9dujyHupCSqL5qltC5TkmCaF3OH3UioZdlyThPp7nPargAI/iswhqb59CJqo8oL5nks1SsdlQkUDos0Jl1fL3EAeqYxPQyxjOm7AUvy5Lks1poRFJvJCzHOUeIGZY+ieqFhI6cIv+NhfgSjFElUx2HzudaCU4gzrX/CUjWMBNzwK3WGbWWVdtytj07eXh101IpXJ1Qeg8nxZu1j2mxrpUG7C3AV50PhMnqtU/OG1Ffw6LM5DRNJ+lfx0qvoWOc+UrE13cp3vr7lI++A66lsJ5kS5IpMcaBtbnqlc3M7cTYTnlqMeZwhRghRXyIEHtIkRgNYR6I1DA+I/3kX9I//flpEShzQ4g3iRTlBN9cOXpZlrz22mu8//77tG17UnkmgYeppPaiMjIdPB00XQBWmEWU3dBIVH4pdjzdVRFpJqY8AWVVYZ3NUCpNzrFsVxneJaVEESQwkZehJrmoTd4hM759vrdzOQRknjMMkS2KjGulRtLZ5+OtZZ5GCi1ai8m7/cJpksMksq0zhIBJGa9NxzOI6mGE2eq465gScyEQZeiTz4zMOZeZXkzZ03mK0s92Jt2FtSkT0nsFkeRiiPn4osgwPcpcZWwQVSjKwi50p45ZulpKgrpYlaHp/cZxpBbju5Mofe2DPqc+OzFRVhX90FOKLSqK6lWVJYTE7H22SQmDVVursTYzJtnEnbVYcsbKPM9UTY2fPUGcZnWd4YusFO1xzr1UBVPC2GxnSymn3UXZrKZpOtGhMgz1YLJIkVIAg9qVp+IySufOWkZJS0LsrVHT+uxLBudTZLIJZ3O4SBBmmbzEPvqc5jeICh1ECwJRiyVlShnWcgPTdahrmoWpSedN49V0nSvTmsRW9vjxY548eXJidCGEbLuUzJ3TOlgUh7Ji6zXrB9Tv/odUr//foGhwJtv6KZrMxCSXOtNRtnebf/j//tcpq55Z148xc31SJKaZ6DtsGIhzYJwkr3LeMx+ecXzyE/rrp4TuBUUccCbiKYi2xNlE8jmYNMlO6MfMpe/fv883v/olKikGsxwkJx4R/ayDf5oEYXDLz3qcvk5M51ZaSJIFCXn3d/azx7zqWmbhor59z1d9d/uzNmVEt6+9PG75//a1lsyHxRjYhWT1qmsu37/qOxYmg9sv/e32vZdteZ3/K9sX9Ylbv+u83x6j5e/L16uafr+8ln6+/f72NZaflTEsm/4eRTK6/f3y9+Xn278FUdH1szKZ2+foZz0nLSRI/e32ea+6p7YQPvv8OsZWNJfSFjz59Cl//bOfcrXbY1xBUVWZGVXivV3Qkq4VXEPavMPZm99g89p7GFdjEAdQ2WaJzeb4TWMd1hby34oqGlN2ECSV2CSZ2w+EucPGUXbiRAgTsb9kPjxhvvyA/uYZobvE+I4UZuYAwRTEFHItUpMD7sqiBBlIZyzbdZljxERSU0akC/Vv25YLcTk5t5nI8nhtOgnL76OqhreuvTxvefznvb/9f0ksr7ruq66xbMrol8+lbUlQr3puJd5X3UvP1+8/r0+f1/42x3xe+6Jz00I6eFX7onOXz5AWqtRyfJa/Lent9nU/jxb1+9v/l/defq/vbz/T7eubheZz+/cvYnpW1ENlVjrnyDVv33d5nyTSs77Xl35e/tdzP9terrtlSymRQqB0JXOM9MOILXI1qtkHvJgXdMz0pYzNVg3FxZu0975MdfdLmHKLcSVF3WKKGlc0WFdk+/WJqTmwZsHYkjA3neiUiGkm+Z449UQfSDiII6Z7gumfkG5+zTzsYdjhwkCMHh9ShhYpClzpICWmYWToe/quJ8VsR7lztsKY/PD6IEkCb5eDvByk2+9vD4a+P0llC6lGf9NzlxIdi8WvtrXb19fvlvde/v8/+v72/yUxvaqpCqbMn8U5+rxm8ax6zPLetz/r++X5+l9fv639bY75vPZF5y6f61Xti85FnknHRxe1jovS2lJiWY6d2oF4BeNZ9kt/W/5fMs7lb9pe1e/lMa+65uf9tnwfxEPJrfnT/up9lekFUTOXc58W9KTvb99veW1t1r4MoNfx1etlyK+Cw/HI9W5PRMpCNi2rzZZJ7HsnutVruFxG0m4uoL1H2rxBah+SqnNwDdgC60qR0mz2iFqLcWJj++5/8UfpJKmllJ0IUTyjBFKcifNAiqL2DJeEy59gdx9RhR3JT9gw4tIMMVd9TrbEp2zwTkEqPQ8jU5/hhx89ep2vfPldnHvpwbm9y7xq8rTpoC4HeTmgSpjL728TnDI2ZRT623Kib9/ndlt+96pjXvX77e+03VaJb/+uRuxlX5X4dHyW91iee5swb79PC2nu9jH6+/8ZzS4k7H+X9nn90ufX35cM8vZc355v8wrp5vb4/W3G5/O++6Jr357P278rw3nVb/pZv9Pnv83I9Jjb70fJ97792+1rLv/reysbhb53Yl/NLZFS5PLymo8//oSr6x3JGNp2xWazpS2rHDAsKYA50DanwRkLwSW8qZmaB6SLr2HOvkQqt6J+GtDjcRgn9rXsPPjfU0rpJdBdysyNlAganBsj4HAW5usPGD78I9z1zylMIMaASx4TPSlFYsxu7FSUROMy8qwxrJsVpETbNnz5y1+mqnIIAAudejmQt4n+NkHpeyVUvQaLhbp86Tl63G2iXjKN5fF/m//aln1+VV9vE8jntdvXN7fUk+Vvt9vt73UsXvX7sl+3z/u/ov2fdU+lIbOYy9vj90XtVeOtbUk3r2p63uedf7vdPm557+Vv6ZYEe/sY/V2Zkj67fq9jcvt4/bwcp1cdr+32fRG613svN458TC4EFXzk2fPnPH/2gq4fmEbPMA60dUZXWc4V0h9jwLiM2j1V90gP/w7Fa38HU9/FWjBW6TY7Y4yxC+eBMjZ4mXmgD2SyCOvnQAxQukS6/hnpV/8bZ/0vCTYXQYaI1QcmkWIiGBhDyogPIbBZrXHWcef8nPd/7/fAZg+K7mAqPd0eTH3g5SvdsheZW4xtOUC3r6HEUUhczm273ucxp+Xn5fe/7f1v++52u/1cy2NvE9Xt31/VdKxu31v/3ybc2+233eO3nf9F7bdd97dd+/POT2Izur3Z3f6/HOPl/V7FuF7Vl8+7/6uaXv+2xKa//W3e336G5Xv9v3yeKA6EpTak37/qPH2/ZGzLdrsPy991zHK6Vh7zEAIh5eJF0zjy9NPnvHie80inIcey3bt3l6J8qWG9DAgkAyEkT5kmOrtlfvj3sG/8P6C+l8EmTURimnICvLGnfNETY4NFWhWQAwhzEq+fEiFAVSS4/DH21/8/Xps+ZBel6IVe3BgM2VYXEwRBevXTzKrNEltZFHz5S1/m0dtvUUmeWBD7QJSYmCWjWRLf7Zf+zi1nQe7+y4F3CkUtuYdqR9Njg6R4BHFi/G2annv7/bLfy9+Xn1/VtL+3n+t2u01s5pZ08arzbi/U2327fc3b7VXX1Pbbzv2i9kXX5d/z2jqWeo/l2OpnFn1YjsOr+rXsy+1+vep4bbePvd1u//6q++j/z2PSy/f6zEY2ew2nUNv1LDFsSu/L8Vle9/bn5X3080u6+qzkZyTsY5omhqnnenfFzfUNVy+uGPqBsqiIITH0A+uzVV7zC3u3toTBFI4NI8fYcHzwd+HN70J1DxNHTMaRkfNMltZAGdsfS+osqLSml40xYmyCZEk4nE3Ey78m/eJ/4X73N0z1vVwtJ8FLzpmRR2PK+XvH4xFSYrPZEuaZZ0+f4QrHl9/7Hc7Pz7l79y4PHz5ku92eBj535eVCX+68+X2GwdHYrCixdxofpeOjDK2RqvM62L2gPFxfX3M4HBikcIbeX+1dhUaVC+ab7nrLviRxeBQSIW4ldkfvHSQoUXdqfSa9ljLSJTGpjdBLUKgeq0SjG4A6WZYEr8fpMyzvW0i+5nITWN5Xx1oJ9lVEr/3VcdLz9L/2LS0kA73fUlXR62kfl2Ok37tFfJN+p9cIi9AGXaCvemZ9Hn0WPed23/S75bjoNbQfuvEtx0OvqbSgz63jtJwj7YteU4/X13L89RgWISL6fMv7aP+D2NB0HEoBpDg7O+Ps7IxHjx5xfn7+mfnTdLRhkfep917eZ7nhL+dIjzdEQjL4ORLSyNTsmMqOw2HgxYc3XP36mqEfct3VoqIqa+bRczwc2NzJsWzLeYDMTlIyJAyNmRlTRffg78FbfwDVBTZOeZ2fEt/JKqmcbL77X/7xyxm61VIypDBiTSSZEmxB3H9I+sX/woPdjxjLz1aT0qYDEwTmxggEDMDHH3+M956LiwsQYn3rrbf43d/9Xd5++22qqmJaQMSkhdcUlcwkdiUKZlYIgXEcT4iyZZHTXmpBkui6jt1ux69+9asTrIrCKc2Lgs1Gck014HOz2eRKS9N0YrxLwi8lVWi3252kz6Zp2O12GEGEUOakAZ5ISlHXdcQYT4GMYYFYooij+/3+dF8lskKi4dfr9SnwuRLEjygQUmlR5EazPnSsDotyapXkofpFmpXmY8ZFhoIyfauJ59I3lXz1+XQRrNdrZgFC1HGw1jIqpJBcd5C0rHEcT/mlurBU0tBwID1vWiBLNE0uHKzXOaVQHQ6nRdI0zSmVK0lmQxJVdTl2o6SElQKAqp+TBJuyKAQeFzFiRlBLdNMIovbpHGoqViE1IgbxAt5m/iHkNDKds3meWUlq4CjpecUi2l/PUQ1EU6EKwdpTWlWaPDs748033+Thw4d85Stf4dGjRydmpemFvYCnan+9SHV67ygBzDrvXmpVhDAwzYFhN9M3HfsvPca/fWT3/Mjlv+4pftHgZ8/YDzR1S1U2TOPEcb/n7M4FxS0NKulGRsKkzDSjLZle//ukN7+LKdZy7JKpfbZ9cTEXYyGFjHmEIxeBvIHrX9BOz4gu52Jqh06nLT5r2k4l2QH7/Z6UEpvNhrLMkCteUEHv3LnDa6+9BpKg3QjkSdM0bLdbzs/PWa1WtKsV223eiS4uLnjw4AH3798/1Vuoq7wALi8v+dnPfsaf//mf82d/9mf86Ec/4qOPPuLFixcnAosinZSLPMlCpK9Gqh+FRSrI8nntInlXF6MuAiUG/U0JuRB1OCruvdx3ybyV4UwSua7fqbSlTCkJs9N+2IV3qhT7YVhIe6vVirgwMGuunpcMAD1PjynLXCnpNrPR+1jZZdeKECLjpOcEkaSWjNeIVKLPo01hkrSvbpHSZGTjqQUNQu+jC0znQ79bSszKyPS4WnJQdfFUsiEpHSi96X2XfdHxZiFR6j2X19D76HduUcxklswLHRudcyeQTOUiY0avq9fUY5WedBzLRfZIIyCvSRjfJBhr19fXPH78mL/5m7/ho48+4smTJ1xeXmJlA1fJ7vz8nLZtT6/z8/PTd8og1+uMcLPb7bi+vubF8Yru+il+v2OII4/NDVd+T/+kI34cKfuc1+x9kJzmDMg6TRO1bOz6bPqs+XX6Bqwjbt+Gs3fAKojs5zO2L5bYjIUwZYmNElxJ3H0Av/xfubv/C3zxUmLTgV22GCM3NxnaaLPZYIzhk08+YZom3nzzTbwkPyvu1Xvvvcfv//7vnxaNTmwlSA6rVdbHIce5GFmIr732Gt57fvnLX/Lzn/+cv/nJX/HJJ5+cUD0GSR5XpqVMwC7ULmVCx+OR1WrF8Xg8MR2VGHRh6oI7HA7YW4jBuvB08WkunkIs6bN5UVGM5qMudkkWqkvTNOz3ewqRnBS9IYrUoLt8eoVqEkQKbNuWUTCydKHpfXQBWGvpBFDyNtPUvvVSb1WJ3EmSdF3nZPtKMPh011dmNYuqri+VyMdxZLvdEgWbTI/TZ9P+WakxqkyEhXfSClPXBO5zgT9qBKNPGUWxkMr0d5UGS9lg0yLNy4s0dzwe6brutMk65z4j3enGoM+sz+NkI1OaUGlumqYTyooyWWWierxKbMpklRbGBQx5FE1Ex/k2cw2yoU2St9kI/JD2AWGcd+/e5c6dOzx48ID33nuPb37zm9y9e5dSwBG0T0EkyiBgkh988AGffPJJXt+uJcVr2mgZRsOPdz/nBU8ojzP22lGVZ2xW65yS6ErKIqesHfZ7zi4uPus8WGxuhpyqFzFEV2WJ7Y3vQrESXdXwGW/Don0+y8uaqmTNW7A2f2PVUfDZU7VTt79bdtjIrrN8gOPxyEEw6buuI4kkkcR2NYuxU8Xxtm05Oz/L8CvbjL/VdR3/5t/8G/6n/+l/4n/8H/9H/tW/+ld873vf4+c//zmXl5cMUoB4EqQO3QXjLe+QF3VLGcUgUCu6iHXXLUVVVRVXJSllKCxy/YZh4Hg8nhaCEdVLF6wS8jKfVvtaCLMNixgkZTTjmMv6sWDKyniVuXZSp0B/04WsDEbHWOdoyfx10S3VIO8zQnAv0EmFbBDKYFQ62u12J2SLIPDwmiOo49JLaTwdK12shUi0y7HU/usGUAq2n7ZyUTx6WKAK6yLWcYli89UF66VEoY6RPqMX1RyRmvf7PZ0ATuox0zSdxrMXm+3hcDj1N8imkm7ZTJVJpYWdTO+lc6L0oP1UideI9KvPPoudTJ+5Ekl/OW5JgCF0nvUYvffjx4/5kz/5E/7n//l/5r/77/47/vv//r/nj/7oj7i5uTlJZ2qra9uWm5sbfvrTn/LBBx+cIKUK3+bY1aLAz9A/Hjl+OHD8eKa7nNjt9xkLTvmBajvOnaSy028LfiE/ZG+n2PClEri8Xh52u/0WVdRBilgDSexaabqBq5+zmp4SbR6kz2tGFgYi8ltB7giSAKu7nT7I+fk5jx49Oi1enXCdfJ2YECLDMBJj9mb+xV/8Jf/tf/sv+OEPf5gJOeRkeCUId0tstws7T1wwjCQivpEE5kJQYqNIEEp4YRFIvJKCFdpPvZ/2uRQjbr1ACNVnVmaoC1X7p/3Va5YiUShjNqJWFgu8eV0w+jyl2Bh1bJPU39QFPYtKVIs9JskuuREwSmUijUA/6WKvBNhTmdowDCdpR/uhz6tjUSyKDVsJ4FRJpK5zyJBKk3ofHRPtm45jKYnwcaHi6XmKGKNzqf3XlhbVyZ1sbpUWOhYpWmkjLFTFVpBwzcJ5ofOpc1YsnFQIs1Ua0HvpXCyPQRiRPgvC6FUL0DFUusv0/9LxVNc1a0EdDiJZab913BpBztG+6hjrfOgc9H1/Ulettbz77ruwEAD2+z0/+clP+OlPf3qS+qy1dGnE0dEQGUPH4/CY8m7itc2GB+u7NNstbdOcIPStzX3t+/6kiipd67ydmskOBGxB3LwNZ++CrbLE9gXtCxlbMpbsdE0g2Edp2pGufvEZxvYbnVk0ZWylMJSDVNg5E5TcSTDrk+CzqQNBF4kyGiXecRzp+oGrqytupHDEz372M/7lv/yXgvMmdSwXUo3u3F3XnXY4pN+6MwYJ+RjH8YTzv5zQrutOBHxzc8NutzvtqHGRPaELT++lhKP4/DqhKonqIg5iBFcp1ftc1ekoaMN6316qBq1WuaqTSoyV2O2OAlSoi+hwOJwcBq2gqajUpYzx6uqKo4BP1nVNJ5Azet1hGE6fWzHQH6X+wiQFilV6nabpZHzf7/ewgJhStU6f+fLykl6M1pVg7O12O/xCHby+vuYo2F6lqEeXl5d4URXneebq6up0DStgiJNWQRLYLJWIW7GB6hwUCxNEJ6pdI1Wp9vs9XtT95TnKEIZFoWR9jiXTmKbpJK3rfO+lshXCFCbx0geRpGfBKhsW2HteJGUnG14noJd6XX0taWgcx5OUWdc1+/2evTjClN71uELMA0o7l5eXrNdrvvKVrzDPM5eXl6cogg8//JDr62sasUPGGKlag40TKQa6dmD/1pGzb28pzypad8bKZWj6aRxxrshFj1Jinqac0C6MTZvyE6NhbZLkHraZsZnfIlDx21RRgBzLoTdVuVF/+qzbW5t+96rftMWFBKbEFxchG7orLXchxDN1c3PNIOraJGpqEolkmjLh1WIr0l1tJdDGpUgCxSKuTXfHUqv4LCSMJLu8LmjdgZumOUkzSpSlqJpJ1Gm9nkp0LEJQtA+6u7JQh3Vhq+SjE6/914WVhPnrc5qFq78SCG99Lt35C3Fw6C6vY659qkSKU+mIhWNF+6l91T46sYPqGHHLKK99WvbLySItRaLQOVjOhc6DjqPe//Y8WlGL9Rn1Gnq8MsVCGKyOmX6nfVBJTp9N6aNcSF96P20qaSznQfuzHM9l31g4BnTOltfV517OWSm0teyn0oGOrx6vc7Hsj66HUiR5pWkdx1qke7eQgpOU1Nzv98yiVus4+IXUzwCp2BLbu1hXc8cZHpawijHj4qWMWZfDwSAsJHMNL/tcXvEbX+fwst/4+lb7wrqip7p9yYNxJCwFI/HFL6j7pySbCUXbsnO6wNVGoxOjO5xCP6MhHKIGvf322yfiUqJZXtO5XGQlxoBzlqosefrpp/zbf/t9isJRuDzZtxe87kx37tyhWBQL0d/LBTrr3bt3T/dOIs4rISpDXkltAN2d9aULWYnPLwzLZmEj0UW83DUVlpkFFPbZ2dmpXyEE7t27Ry34YF7Ur1I8gelWmMQsEslmswFReayoVnrvWYzUqqZOou7q8yXZXNR0oJJdszBG65ioNKREu16vT98l8YTXIt0FkW5VdezFbrder6kkfESlpYuLC5LYHsuy5EzQX4OE+ZxJ/QfdENyitGOSTaYRCWNeIAPrQlVpp7pl29sKOKNKt8uxjgKWquOk41qLE0Rp5+zs7PR8Sme1hNTMIgHrNWbBSzPCwJw4KjabzWfG1ouNT5lVFOTfRjZaZXL6/MqQN5sN05SBOXU9BtFmvKjhRswO7733Ht/5zndICztsjPHkkFu2uRlIqceYicnPPP/4yP6DSPdBx/7pjnEascaRosWSy0CmOEPy1O0qx6W+omnVvJgM0dWE7buY7ZfAFC8lMiNgcrdeX6iKZstezh01tsiMLfWEFz+n6Z+QBAjx85ouFGUOxpiTCK2qaFrYtbbbLe+88w6F2LKWzMXIrqhMz3uPNYaicDx58pg//MM/ZBQ8fEQNnUWlUzUpiGdnFvVFF74VI/5ut2O/39MIrPNRAhj191FU21l2r67r6MX4rMSjO5oVm40alaPAa+sz63G73Y6rq6vTOUcpcTZpZSNRgz755BMOUlNgFtVHGSIiyeoCDSGc1E195oPUfFDmZiT0ZrfLxZStqDi9xF3VixhAXZTTNHE4HE6MSxfeUUq0FUXBbrc7VSqqxYumqr3O536/P6nHVswTh4WHOaXEjRQDsiLFqBqljFuffxgysELXdSdHkS503RCUFg9S9Fj7vt/vub6+ZrfbfeZ5kM02Sf2E/X6PXTiVVO2MYoJQugmiZeizRpGGx3HkxYsXHKTCkxdHh/6u99pLEaRRCnwPAmmvTCuIGaMX1XoS88ok4S1poeEcj8eTij6IE8wsoNaj2K+V/ibRfiZRSd966y2+9a1vwQKAIYTAs2fPTqYBbWYoKUNLlRr2Xc8vf/0xz55ec9xNHHbZ9FOWDYXL0rcx5ELRfqRu16c5vt0yj0oELMmVxLN3YfsOmEJK8PEqkQ4A893/4n9/9S+QiyWkCHHGuJpIQeWfMf7k/8vF1Z8Sy88aZm+3GOOJgNXYrQPz5ptvnhZ5JZ6a119/nX/0j/7Ribh1ISDSjkpOZuGta9uWn/zkJ/w3/81/QyEGXGUIbhH9rQuvXODv6/XmRbbDMAzcvXuXTjy0QeCdl88XRNoIi+o8pUh0yiRUWlNGoZ9rUS0RdUQZv1vESumurUxNF/TxeDwVRgliT9FFEW6lg+lnI56848JWpzt6LzahUiRIHVMjkqW+1w1An1XfbzYbOrFL6TnKTJ3UuAiyIeiYLaUVPUZ/r0X9CmL/cQt1S+dIn0eliElseoPYpHSu7CukaR1XvYaOvdKa0kK5iAsbZWOrRVXTe0bZyHSj7LruxKSGYTjZGVtxrCgz0GfqxGa7XueFHUVy1GtbYUR933N2dna63rywqSkthUWgrl+EEU1i4J8kwFznQse4XkjPy+fq+55/8k/+Cf/pf/qfEoRJGpHkfvzjH/Ppp59iFl54MyW2qy3RzTyeP+JJ+DWrixX99cTh1yPtvKWwJX6KWONw1jBNAynMbM7v/BaJLTKnglSu8G/8Q3jjH4KpJJ1KADte0X6LxKaq6EuJzcWO8OJnNMNLie1VTI2FxBZFFV3utKqKJlGfkjgPlhLbshmR2KxIQsvFs9/v+f73v3+a+CCMVHc9/ZxSLsR7kPASvYYylqZpePHiBZ04FDZSHlCvmWS3vhEsd4Rh6U4XFqlBz58/5/r6miS740GcJtWiLqZKhcowBrEb9qKuI0SZJPp9t9uddnNdmAcxNNeibun5uoiWUpl6PFWac6Iyq4E+iqSjCzWJpD1IzVY9xznH9XW2cxoxIXRdx6effor3nrOzMwYx8k8L1acTo7eRoN7Ly0s6MepvNpvT/ESJa/Pe8+zZMzqpS6sMYRJpVhnpzc3NSdIuZPPUuTGiJegz1xJKpJKMztfSOWLFAXFzc0Mhm+Vut+PJkydMgtWvG0MnGkgvhbHVgaL07UV11P5cX18ziVQUZGNU+uluObeWTE/7G0WKPh6PJ8aqUlcptkKdYy1cjDiRnj17Rinq/yxqb7cohq1zHELga1/7Gr/7u7/LJBKmkc1UBRO7CAZ3bSAViWM6MKyuWb8Db3z9LqlMpL5gk+7h58g8eaqypKpK/OyZ5pmmyeP9uS3FjANZVKSzdzDbd3Jdg5Ok9mre8wVX/O0tfYHzQL/XXU6bvl8es/z/t3lFMWzqLhfEo+lFRbp9veX9l01/12ZkJ2dh94uiMurr/0i7fW1Eklr20YqKE0TNGESdftWz6PlhiVe/uLa+vz3myPm3v9Om19Qx1dey/9qWY6bvl8ctv9PFo8+s99FxXB57+7ratM9f1J/b7fZ3n9fHZVuOmW7CLJxcugmo5KbzpZvkUlLSa+txeg3k3stnMQsTiy7wV81Tkk1GGUoSKT0uMlyW9PmqMXzVc+vvel0vdkhdU3q8nvuq686j4/pFz3SwmPGMp7/w/Oh/e8KTHw/EY0uMjojNSe2Gkx0sgwn9Jg2c7vOKvmpL8IW//3upoqFQ2KLFObcI6CgFk9UD8+LFC3a73W+ooiklXn/9db773e9+Rp1QQlEGoGqCLpK6rvnoo4/4F//iX1BIId6+zwU+dML0WCfeI0TF0OvNi9qIg6gRs6hC0zSdJLdJRPugBU5ksfqFKrpcCFEA/JDFUogKpb/p8xeLylNJHC66kFhE7vcS0oDYwFRisiJVOlE1jagVRhark4I6dhG/p9fT81QV1fmrxcbmxEiv/1VaVCmrE1XULiQoPb5ZpFbpHFpR1fQ6reRPBlH5l+Om82NEJUM8hjqOOidLVbSVeDj7OaqojrFbxOrpdUvJuVR6ZKGK2kWcmxWa0nHzYnJQxrff71mv16fx1GeKYjoxYmd04uTQ6+nmrHRhxCZ2dnZGLQ4jZWaVxLMpQ9XvWDAcL5LWJBkrYaHie1HbVRXVcbHi6Pin//Sf8h/9R//RaXOKIkT8+Mc/5vnz5yd6AKiJlLairFpejBN/+eEv6ceZOjqKCEVhKQoIfsDahAWGYSLMnvM75zittXqrqSoaKEnVOquij/5hzlsn12X5PInt308V/QKvqDbl/sUto+9SFXWiDm42G959910KkZpuNys7mxKkLp7j8cj3v/99vHjFNMFdRfxeYnMGCSadponnz5+fFocS3uXlJS9evMCLw0FVxUa8Tb0YbidRDw+Hwym2TO/tRU22wmxubm7oJHZLF5cSZN/3XF9f8+zZM7zY347iPNC+rVYrQgh89NFHp01CF3EnRYx1XLVfMcaTUXwSVVAN57o4kxjo1XCeZBM6ij2lEWO1fmeFibx48eLEvHThqTppjOHq6uqkPuomtN/vP6O+qEF+EpXyICEFiDdY+//8+XOQjeTy8pKD1Pp0YuTX+SjEhqhmBC8MTtVWZa7qkNDFvd/vTxutLupOsjWUqatKdxQ1s5c4wkEqqSEGeL2uMYabm5sTc4qial5fX3N1dXViNOogMousEL3OKE6qgzh81G68fJ5CHDXPnz8/mSP0WiEEDofDZxwWyoh7cXogjO/6+vo0bgiDn6aJL33pS3z5y18+navz8Pz589Mmqet9mGdMYRl9weMXLc+ePSCGL7PfNVw+vyTMN1RViS3AOYMVLMZ5DrSrlzbn203kzKyKupp09g5s38556+Ix/bz2WxibisQpZx1gsbEnXP2Cuv+EeMI/+vw2S5S4SjRKkFtB+7jN2D7PxoYwMh0ElUastdzc3PC9730PJBPASOiBuud1J11JLJsRlVNjuVhkRjRNw2azoVrEZel1rEgly/+F2DlqMXwXEvukE+9kV68XeX96rL4/Ozs7SVJGjNgrqexeicdvu93SLGKP1hIJrws9ieRbS9yXMqdGYrqM2LX0fL1XXde0i4rceg09x1UlZVmwkrEIwbNqVqzqhrqswCSaupZQG4dzlvVqlY+3Nle1jxFrDU1V54K+wdM2LU1ds1q1FNZRVSV1lWGiDRn7vqlq2qahrWsSCeNsrnYujqFSJBS1i9VS7b4Up5DSXbVISWokDky/W61WrNfr01g5sdsii1znbyWhHRrfp3OvdNhKbGArDhPtk86R0l8r8WVJVEsNgdHrKb0qzTnnOD8/h0UqmdKvEYeN0oqeo69CJGKlgVpsaStx5CnzVvptJMZumibee+89vv71rxMXJhgvNs9ebK26RlPzFqbYEKs3Sdv/gPLBP+Luu/8h23tfY7t23FkNVHVJ8CMxzhJskUjJ5ALj9jdV75ctZdnNNcTzd2H9poBz/CZ/WLZXs0ptaSaZhCkqUpxJacabBpotIX3W9nT7tWRMaWHfKWUX151Ff0uLQi5KLLrrLV9GmNnyOP18fX19MvAeJZK8WzgC6rrm008/PUW8L8VwJc4oalC/gHAJYk/RZ+q6jufPn58kIGXeylzcIpRAd1+VKNIidzAtvJnloiL7Sgo8T+IcUOYaxYgcRBXW+6gkUEn81+FwIC2KDyuaiRL7IGEE+szat3meaSTeay9BmXMFI56rF8/YDXvCqsCtW6bZc3V5w+wSdlUx2chVv2c0gWLbYNcVxzjSp5ly07K62OBNpJ8HNhdnnN85ZybwYnfFYe6otytMXbAfjgxxot60rLfbLO3c3GDakvaNuwyFx9/cwJi9l9bakzTkRBVXCVHHbRxHrq6uCAInVIiEp1KkW4StWFE1x3Hk6dOn9H1/igM8iIdfmcAsMYg6rn3f8/TpU7xkRShdIap9LYb+nWRXJHGu9aJmVyKtDgs7q95jEjOIbnSffvop3cJxMS3CqhDmpHQ7SL7ykydPiOIg0vWmx+iaefbsGXvJjgiLgi9mYS+0i5q+KSXwB9ou0sYN/rXX4f/+Fdw/fZP699/hzru/w3r9NrNviFHSG1PARI+NXmoWf84rGTCOInR4WxKKDTHmcgQxhZeguK9oXyix5TKzkvgeI1iHSYF0/Uuq/S8x7iVszO0XwtB0gJUIVcQ+Ozs7HedEpF+tVrzzzjvU4rk69WPBwNwiN1AJZ7/f84d/+IcnEZmFkT4KA0WkR2VQdiF1eVEji6Lg+vr6tJvpfZRY3MLL5sW4HxdQNbrjBlEFRrGVaX+M7N5LIolCNH7hFTUitQVh/MoIlwuxEDuTMvhapEAl1rSwI+l99DnCgpkjjDouMgSWRNu4An8YOaTI/O59hncuGN+6YH+/Znj3nHT/Af71e4z3zpgf3iU8ekB49AD/6D7+0X3su2/gvvQW5XvvwruP8G/c587feZ/45mu8WJdMD+/m4778Frz7BubdN2i+8RXKb3wFfvfL8Dtv0XzjK1Rfe5fqq+/QvP4642Tww4CzWRUOCzun0oNKZEpz4wKRIy5w61R6CgubWSWq+yxe7EpiBwfxoqrk04sJQhe6MgMjAc7adI6QeMMlY1DacSIBLa9hReqvF7h+SGravAia1fPLBTjAKClVYZFfGsUOp9fTcevFi67rNaXEN7/5Tb7xjW+c+mPFtPL8+XPGBb4dgK0bipAIxrGfLfv9BNcd8Vd/Dc/+mjB+zDzf4P2BskwUzuInT/CRZtWekHpuv3KmQsJEjy/PSXfew7YPpNp71ig/T9b7QucBJhBThghKfibZEhsn/Af/iu3H/4rkftN5sGxJ7DajVIpWgnny5AlvvfUWVgy8tRiq7969y3e/+13Oz88/M+lKFEpUOgHKSC4vL/mv/qv/ilFsd7polTj0PwuGp5NZLNQNJYazszO85I3O88z5+fnpOvq99nkU47JeQxmZ7rZBmKoSYC1qUBCHhu7E5SKWbBbJScdQx+F4PLLdbk/PpkxQx0oZoC5mJwbeUqRBt6jK5URK0QWtfdax1nF2HsZuYHx4TvkH3yC+tcE2JaEfwRlMWuOqLIXbosA6hytLXJVLMNbrNVVds96e4YqC4Xjk/M5dnv761+x316dnXJ2dUa9WVHXD+myLKwumNBPmGTtGxqFnTp502fH0f/0Txj/8E5oxp9M1TUMvtiOVpNYCXqDNiD1Qnx/Z6PS5lYEpg1wyIBZech3TJBqEfq/MSMdVVVK9j47rJMG0UexkrYSORDHOD2KoV6Y2TRN37949XaeqKnaKqrFAaK6EkWvflLaU7nRcCjGX6FzPEtqz7PswDPyzf/bP+I//4/+Yo4SfWLHx/dVf/dXJJqm02QFNqijdHT45rPnlcw8xUnbPKf1TXNNRFIHg9zSVxWI43HTEAOd3L7Cf4zxIZMbmQke/eZf4pf8n5s43SKbIdv/bJyzaF0psGJXYLClGjCkwBOL1L6l2v8he09/S/C2k0lmSfDWmKoqkoIP/9ttvnxb17aYLUgdVF/E0TfzgBz8giBqnx1lRK3Txm4W6puooiz52YjhWqWVYwAchzEkZYyEq3V4izrV/ei0V99VIPknysfY9yG7ZdR2HRRR6kKwBv5BIgxjxZ0FVVcasiwRZMJMY452oqCpZlhJDpoumXKikg6ioVrxhR4nPU8bQdz3jOJPuX1B88y04q0hjgusBO0bwATN74jCSponY9fjjkdD1hL4njiO+65iPR8zsSf2APxzZPX5MHEcKoMDQVhUFEIee6XDg+PQ5/aefMl1d0336jOPNFX3qGbuOm5/8mumXHxNFYmrFs6pxW0ayWHpxLui895Jkr+M2ivYwiCe8lgyNXhwStXg4NbZO6aAXB5jO40GcH7px6DgHkXQmUfPUQTJIgLJdBJLP4mg6SjzhvFBBG8mNnUX6VlVxloBes7C5TZJKN0lcnG6w1Qk2PzOzSTSpoyS++0XC/TAMvPfee3z1q189HafnqcRmFmEtwSWMCaQY2F8949Nf/DX7Jz/h+OKv6buPifRUZcIQKJwlAfMcKauGosj0q+visy+wBmzyhOoOXHwF2vsnp+a/N2PDWEzKqqglEq9+QXHz8wxr9AVNByOI1KA7hTI23amUAdV1zVtvvXViCrebExVMmYt+573nBz/4AZO4/pWgWDAjv4DdWYkhuFwkIivj5RaaK2KcVkapTFIJySwyIopFeIIVqUkXGYv8T2Ukem+V1lRKMgs4bbswKkeRSPQ7/T0tnBT6TEg+5/LcWmxDeow+R7VIGNdnKcUWamqHJzG1Ne7d10iFZfzpM/wPPqD6+Ibwqye4Ty4Jv3xC/OAJ4ZdPSB89hQ+fMv/s1/if/5r40485/vnfMPzlz+n/4mdc/+BHTH/9AcNPPmT6m48Y/uqXhL/5iO4vfsrNv/0xhz/7Cfs/+Sv6P/8pV3/211z+27+i+/Q5qUqEviP9/Cnl8x2Ny04mfb5C8iF1fNIid5aFZKZzoM+rY6DHLefh9rzp3Om46/zVYkNzItHpmOo86e/an2oBBqA0xSLspFo4r1oJEUmiOkcRBvR8PccuwFC1f5p7WyycBXqMfqd0g9B8jJH333+fr33tayep3i5U0UE8sLo+TG1J0UOcGbo9x/0ziqKnWU2stwXrVUtVOWIMWJtzRqdpJsRIWeUUq1c2gVwzyeOrc7h478TYknhEP+/UvxVjy6CSSXK0MmMrb36eg+5+g8t+9qU7RrGIP9pLnE8pKSC6yKuq4q233mIlWQKf6crCxrZseo/vf//7zPN88h4qQQ0SNb8X2Jamafj617/Oe++9d5KOlLAngZWJYsDVHbKWoEwrjO0gbnjdzZTRlhL5nSSyXa99dnZ2MvTqIlHCUElu+blaJMgrEVaSgK4bRSNG/qPAB+l1dadnkbKl5ylTnBZJz07CY1QdUQfKrPUmass4DHREyi89xK4axh9/zPDHP6a53GOubqh2Hf7Jc6Zff0r49AX2+Q3+8XP6jx4THj+neLEnPn7O9OunTB8+ZvzwE+rrjhc/+TndB58w/eoJ5tkN/uNn9B98THz8nPT4BdMnL7j+4BP2v/yE2c+4R+dEkxg/eIF7sacSKVOl0VY8vtfX16cFXwu670FyXNWbrPOhG4guYJ1DpRnnHJvNBi8OFd1cECkZ2UCs5PnqWLeSShXFVqkMdOnYqUSK0mN07ryoibrBGhEQnGyuOudK+36RiaOvWdRa9cLuxaFSLDzvely9yAtW2vm93/s9vvrVr57sdEvGphu29s2nQBETZUwcDjueX7/A2Mh61XD3/IJVuyL6hPcRZwusdXgfCDFnIug6/o2XWvnjjK8uSBfvYdv7GRuS3D6Psb1auV20zF6Eydy6ig7q57100evC1w7Hhf2MhWTErQjz5f/lMWmxmyrDYWE/06a7VlhE1VtBkFCJ0cruG8XAbhfBkiwcBst7mQX0tl7XyK677OfyOvFWARD9TvubxHCsBMsiK0H7ZRaqhj7zLHmDy+sux8sLEoReY/msRnbt5fHLaxhjMClQ20RpIaYZbAIbCXEkFgGToHAlFov3gRTB2QIixDkSBk8YZlyyMEd8P+GSwUWD8QnmiA1QYnHRwBxhjrhoKX1BOVvWscYNlhQsuCrbds3LedG50BYXJgP9XZmFkQ1Ej2FhP9PnX85nEDVsOX/LeyzpXL9bHqN90H4gc6L30L4s+6TXWN7XLGhveR/9rJvg7ess+7rsm/bHL+IatV9KD8u+f2GLiSIYSm+wIbMjax1VqClDRYqW4MFQQHLih8xOSe3D572CD8QQSDGJcJVDgXQuP6/9Foktl92z1kH0p//9k5/Ai5+yP3wWRG8QN7Xq/7MYJoNIGJUYZ/dSfQkhpEJUwLIseeutt1gLhM7tpsfqZOvC96KKDsNA0zQELMY5PAFTWOpVS92s2GzOaDcbQkhcPb3kxdNnWCN2uxBZVzXtakW7WmNdgStL1tsttijxMU+WXRT8SNKn1XpNWVW4siIlQ4iRqqqp64oUIt5PFMayWm2pqxJngRRwzlDVDUVZ48oix3SVBSFkV3dZNVRVyzxHiiJPotqCkAVirc0xZbYgpoQrClZlg02WECEWjnZ7kasDWUsMgaIpsWVJ9FAYR1Ma2mZFimBtSSkl0grjIIxYDPPZhvKrb2HXK+L1RDlD3LQUbYvdrEirFdWdO7izM8xmizs/x2031BdnpLbBbFYU52dUd85J6xWhbfDna+qLC+rtllhV+KbCrFYUdU1yjqktMasVZbulfHiP4u0HVHWL/fUN9fNLiuCxrmB9doEnL/CmajhbrynKHC8XQ6AoFbrppcMlS9aRGANNXdHWFZWzFMbgY8RYQykS1ew9zaple3ZGWVakKTFPnrppWbUrTEpEH6jLitV6Q7NqicZCUbDabLEu06hzltl6SmNo2haKgoaSVaqwqcAWjrLKgK7GWFxRURU1bbPGmoIx9ZQGSmtxzpIKhy0c23bN+WaLMRY/B5yxOJvj/Kx1jPNMVa652JzTljWzn/HOEKzFJktpS2afN1Qr2Snvv/8+7733HoPYhREJ9fnz5ydJVZmgwVBYh4+RZ5dXvLh8DjIm4zwSiBgjNvIiq6R91zGOE3EMBB+ZZs8wzUzjzDhMzOPMPHuGucfNM6G5D699A7d6nYQlWYCE+U02Ab+NsWXznOxmcc4l7/zM4ZO/Il7+9GRT0N1ExW2VhLyoSlHEdxV9u647JT3bRQiHqqKa/qE7mnJnZWx2UVfSihrxgx/8gL7vaeqGIhZYk/BhwrhEXZbYaLABCImrm2uevHjKceyY/cTQ5f84wxQizhX4aWbue1yCNM+kaSIFz+AnrHNYZzmKOlqWJTFFGCbSPEMIFM6xamv6ceDy6pLgA6vVlmHqOXYHxqknWYOxjnHKBlvjDKTE2A+EYaJMlsYWxGFijC/jmNIt5N/SWkKc2c8DvR+pihITEvvuyHEc2doal2AOU4aKKUtcNPTdgI+B2XmSdRy7nmn0WCxV4SB55rlnItFdrGi/9SXqN+5SbjdcfPVtzr7zHqvf/yrt7/8O69//Khd//33ab3+V+lvvUn7zXdxX36D82hu4r73J5u98nbP/4Juc/b1v0X77PczX3oTfeY36a2/hvvQ6/s07hLfvYr/8GuadB6S37xC/dA5fvg/v3Me+fQd7v8a6xPzkBf6TJ8xDT8RS1C3XN3sO+wPOQFNXUMI4TwzjgDFQFCVDn80S0zxTFJZ5zg6XonAUZcE8T9wcdkxzAJvpbbfbcXl9hbGWdtUSSXTjwDCNlEXGBtzt9+xvdoBhJQy03x9gnqmLguQD4zThY+Dp1TNqU1BXNd0sCeYpMfqZOfm86I8d/SBhSUWJKwuChf18Q5o9Nma1ddd3+BBZlRV1WTHME3OYMc6STI7ZPx6PXF9fU1cr1vWK4Ceu+xuOcWIMARMTZo7sDjlzQqW6r3/967z77rsn1RQJIXnx4sVnGBuAnz22KIjGcHl9xaeffso8jYzzSD8NJBJFWQAJJ3iJwzBwPBwoqhpTFfkljLpwDlcWmKIg2UDpA2N5h3j/qxTtQ2xyJBP/3RlbbiaDuUkcWwqe8cXPSS9+ijFZnFUxmIVakBYuZyeBkmpjOx6PrAW5gIUqUJYlb7755kliuy1q6jEspBVVpf70T/80M7amxvmAT55gA97k4s0lliKCIYKLRBfxNjKXCbsuKdoSTKIoV5TWYlNk1dSc39ngGksoI6a2YEusNRRFSfSeuqxyRD2G2ASaixZXW6JJlHUFxkA0rFdrVvUKjydW4NYNZZN3VIujKkoqV1C4grIqcKWhaBzlqmAIRwwvDc5JjOKnV+WIZYR1SaodFOCsoalLqrZibSuqwmKLxORm3KrCVgVR7DKxNDjrKFzFqq2hTKQmMVWeCU9wDvfaXe7+3d/lzje+zPlbDzj/6huc/52vsP6dd9h87R3qd1/HPbqPeXCGubeFO2vsgzOKRxesv/Imr/2d32X13ls0777O6itvYx9e4N66S/H6XdxrZxRv3qV65y7FO3dwb97BvnGBvV/jHp1RvXmP4sEG0xpiGhlubkiXu5yhUFQ09Yo0B6qiZL1ZUdQFrApwFlsWJMiQ1GVNXVVUTU3dNDhjqUsxnBeGWBfMpcF5g5W4sLZtqauKQgz6rikY6xlXWcrCUZUlrsiLstmsaaqGEGZwgWpTUDQW40yWgl2NMVAVJW1V4SrLuEr0bYQi5jkoKsm6KDm/c0axKvBFJNWJwQaCD7Suoq5qbFFkDaNuSCSCi5jKYZoCCkNZOkprqY1hvd6AgSF0xNZSXTREk3AhsSpLIi/zseu65v333+dLX/rSyTSSxFSiiC0sTEXVoj6thoeog24txWD0mGKRWnk4HPKGkkJmeilhZo+NOQ80EHDWYH1gaO7C/a9TrR7ioskCBL/JI7R9IWPL9URtFiNJGCsAb4dPMDe/FPX0pZnOLrwyKm1ZCYTVODbvPbvd7sTo9DxlWm+88QZbKWH2eRJbWti1jMSW/et//a95/Pgx0zzTTR1xZWkenmO2JbONYA3ezzzdXeHDRDN5jsOB4o1z2i+9hjWRde8xqWJ3ecnNzTX1tsHdb+k2ifD6iurelnCdJU4/e+ZpoimzNDQNI4fXLfW7d2Fbc5AissebA/2+ozIFPnhGPPXFivX9cybvOdwcqG2J84nucGScR2JridsS86Al3K14bo7wPOcvaqhBI6lh0zQxp4nejLT3z7h4/T792HPc7WnKgu6w5+Pumhhm1oUjbQrCm+f4e5kZ1ENkOg50lzvS5CmagoMZGDdQvLFhc3ZGW65wVUu7PaeMlvowEa8OjNc3MMxML3Zcf/Brrn76IbsPPub460/pPn7O8OQ54/MrbDdT+UT3+Bm7Xz1meHrJ8eNPGZ5cMn98yfjkirDrsXOC0TM93zM+vSZeD3RPrpk/2WGfHuGmIxw7HIGtqymw9IcB302Mh47KOap1TTARViVFmV991zN0A85YqqIipMixO9IfjlQuq/BHP2DPVpy9fp96zvmrx+ORtm1ZbzYnenOtI5wlrINuv2ceRsqiZE5wGAdS75mNp3xzQ/2VO0wbw0SiigV2hJvDLiNADyP93GMerWnfviCGkfGmJ3nDNPSkMNOuK6gMoUnU91Zs7t2n3x0I3UiYPZMPVHUNGLr+QCwjq4s19bYhEDKY4/HAfDziyoph7PDWc/HWfTYP79IPHeHQ09qSUZwNszi4fu/3fo933nmHToK3EVVUJTZdmyxsh0FySR8/fkwS9OCLiwvqBeKzmpIGCXZe1zXWQukcNZZiDpTGYCz4lKHFSyycv0nx+rcoVg8xMRHjAJbfqJan7bcwNsDmvKzsn8hqpxufYa9+TvQ5ODUuPILalPOXC9A+J67w3W538ooq89Pd4tGjR2wWhKTn5v68tMfp93r/P/7jP+bZs2c4Z3Glw64qqvOWaALDMEJIhMFz7DtIgWqOUDrat+/jLlrmfUc7JuaRk2rabBumInATe4qLNU3dEl4MTOOENYYUI22dd/7gPcN9S3P/DIyhO/QwJ+bjiO8m6qICErMJFNua5mzFHALDrqOxFdbnxOpgIrYtMKuS4qzBrWsOvqN49jKYVNV2JRBcIlYRt21p1mvGvid1E21Rsbu6ZhdnVkXFpqoz07y3JtYF5jBS9wk/zUzdgLOWat0wWA/rgubeBjuAv+rpnl5x/YtPeP5vf8zwZz/nxb/5EZ/+0V9gfvwLDn/8F1z/b3/G8d/8CPuXH2J/9BHph79k/uEvGH74c/irjwh/9jP67/81x3/zY/rv/ZjpT/+GJ3/0p0x//nPSX/2K+ItfUz/fsX7RYX75BP9XvyL97JLhp08Zf/wx1YeX2CfX9E+eUkwzbVGSfGQ89FifSGOgqkuKumSOgVQZCuewxmXVfg6UrqAwltl7+qEnTBPrdpUTuFOg2DSYuqTscxbBLJkKriiYJMuDyuLOS2xI9DcH/DBTFhUBmLynSo5YJqrX1hT3V/R+JPSexhfQRS5vbmjrGhsD3gWK1zc09zfEvmO+HjCxYBp6gp+p24pYQCigXDe0mzMOz6+wg8di8CFSNQ3WGKZppGwL2u0a4xzjPBGGienY4bsR4wqSBdc62rsbXFvQHY+YPtDakmHKjG2UgPPf/d3f5c033zwFPrNQRecFMKvSpHpj9wIaYMVJpzxhXJQIiOLsqOua2hVQWmLlEDEKYy2+ctk+bBzrssLd/zL29W9BeYEhYqoo8Wz/ThJb/p+9EpEYIcaEG58xPftr1nVG12jblocPH/Lmm29SS7qJDgbCyZ2I9lGKKKt4qgxMRdRHjx79hsT2sj+fldiUKdZ1zV/8xV/gvef111/n/uocfGTqB4Z9B73n3K3YuhXn9Yr1qsWtWkJdMPQjbopsiwYfI2F21E1F6RybZkWVDG6IlF1gfnEkDSmrPGI0dsZSlAWucKR5pjoG/NM96WZi6xoaMcZvthvO1huiS/RxxDjLpl3RuJIyGmxR0KxbmrbNau1xwBwmqj6RXnTUJidGbzabk6tex2O9XdOer3BVTXfsMrGagtqW1HXDm9uHnLdrAoGb447UTdjriXDZZeSXTUl7tqVebajrhsIYymQI+47w7Eg1Wbaupp0T6cWOzZSoDhP1cebF7tdU3nNWOOoQKeaJeX/A9D2rwtE6C8PItLuhipEyBOLxiBkGym7gtaLhTrLE/Z7x5ga/2zF++pT5yXPOJ8umKGlswcoVVD4Qr3ec+SypxxApU8FFe4YRT1vVlLjS0g098zAR58wE1u06S2sS0rFZryi1unxVUG9WVG3D4bDn8PiKzXbD3bt3SSkxDCPW5Y138hPHPtNB6xrOVueUriQlWLcrtpsNwXvCsSdddUyPd9i9p4gFKcLmbMu6bWjrhmJT08cZP45sXcWKFbXLQAFVWdKuVkRj8D4yDTOXL64YL/fcW51xtj0jmOzgqGxBioFIYhpnDvsjfpipXUVlK9o6S9tN0zL7iX13JDlDU7WU3pCGgJHCPEpj77//Pm+++SajBCJHSUN7lcSmtSEmCS2aFpXnJgkaL28BB6hz8TxW1E1LLEuwjrqosMYRnMW0DdbZbEe7eBvz4Bske0ZKM6acIFkpmvyb7YsZG5GUNB0IUsrxbMX0guHJj0hzRlmNgjPVSNkyTflQZ0FaxO3MEsemqqkywEKcAq+//jrn5+ekV9jYlgOkv+ngfu9738sqbrvi5vkN1zfXdIcjYZhIYyQMkW7X5907Bnrv2R+OXD9+SjkbzlZb9kPPuBvou45nn36KH2eYAmVwNLPj8OyG3T4XsoghcLPbsT/sCTEyzBPTswPT8wPz9UCZHI3LKWTPXzzjeNizWa3oxo7Lq0vGITsmfDdzvNmzOxyYUw7NOFzv6C/3xL3HHiPhamTkJRyS2jI0cwKT8CEQQ2Tc9xRDwu96Lp9ds+96yskyjjP7sWPqe5rZYPeew/WRYfZMZiaGxNXlDfubA3GIlLOB3cju6TXdccAnz77b8fzqOcEZcNA0NR8//ZimaKjLhqn37K/3PH/6gr4bqMqaGCLH3ZHj/gARwhwYjj3dvuO5ZDnMIXJ1OLCbeqYYCSERfSQWkRA9cwjs+yNdd4TJ05gCWxWEeWbc9czdxNMnT7i+viaJXWbuB443ew67PXGaIRl2NzuePnvKPI4YLdbdd0zBU1QFzlq6/YH985vTxvHs2TOePXsKEuPXdwPPfvWUeT9SUkKAq8trLp9fMvUDdVPTdz3H5zeMLw6Mlx2hD3gfGeaRafa0tuQwdTzfXTPuj2xiQRkc42FkOg7cXN9wczgwTjMxWApK0gi7y+ekw0hjC7q+55PnzzgcjqTJM3YD+0PHcBgYjyPMCRMMu5s9l9c7mvUZhXXsrq+5uroE6yhtxbSf2F3uOXbH09oqy5JvfvObvPHGG3SCpMwt54FZhMWoHW4YBj755BM++OAD9pL5MgiQBOJsUO1MNQ9rSsyDOwz31oSLNavX7hO3LdOmoX54l3JV0/cjc/Ma7v7XMe4cM0+E2It89+okgS/OFU0BjCH6gC0sMWXDfbP7ETd/8v/hSw9zIvvxeKSqKjabzclTV0lA6aeffsoolXYqSWt5+vQpFxcXrNfrkxOglqjs73znO7zzzjuv9IpaqQSkzDAuIrD/6//6v+ZXv/oVDx8+ZE6OeR6hiNjC5tSM6CAYisLSOosLiZAi3iViaYkpEb2noWLygf3hwNmdnMfmvaepVwzdERsDTduAMdzsbvAhsBVGHKNhnj0phSyN1SXH/YFh6GjrmqZsmKznMB4xtaOpavxxxvhckqxqm+xR6waSdbTNmrrKeHNVkeN9VpJSpWE0ZVlS1SVzmphIFKbIXtApMadElzzF+gy8xww9U5iotg3RWMb9xKooKZ3Huordvse6iqqqsQbCPDH5gVRZyk2D99l4vN5ssclwUW14Nt5QuIqyKEkh4ZLheOxJIXFxfo6XOLqwSHdD4u98SJxVLZUxHOeBoYSqqXAevO8ZzQ31YNlWZwxTwBtwtSNVhomeMAWst9zZ3GV/tWcYO9pNS9Nk+KPjMQfhNk3Lar3leMwLrSkq6qKgm4ec71o4bJkX9NgPpAmwmZGNEtzbilrlhxkm8NFTtw2QsuofPE1dU2/WHKeRKURsURBiJIVA5SyldSTnaAN0YcRXhjYmNrZgn+bsrU0l3TgQIrTtiqZqKWzB8djRm2uaaLizvSAYeHJzgzGWs7LBBpgkjiGFiC1yzu6xO+JTpCxXbJoa5pHO94RNgY9gBqiCYZwyfp6qov/Jf/Kf8Hf/7t/lxYsXJ+3ocDjw05/+lKOAMegajaJizvPMxx9/zMcff3yKmEDCo3Qtq539IMV7ugcXrL/1DumNM9y24cHFfeZ+ZAwzF2fnnH18w0d//EMO4W3a9/4ZZfM2NnQEuyfZCkPmSbebe+cPPiuxpSRF+xIkazFplriaAhNHYvBM4w3uxY9YlZnRqBqpHJkFYF2/QFRV5vX8+XNWqxVuUYMRkfAePXp08oraBZgdC1VU7+UlJ3OaJn74wx9ydXXFfr/HEknBY0KiTBYbYVXXWCI315eMfsZb6KPP6meIEGG92mCB7nCg7zssYFIejCQQK845Zsmnm6eZGCLRewprwSTK0tHWFdM0EkNkGieurjJiSKoK+mFk3W4oqZh7jzGOoqowGPw4Mw4jKUWaqiSmmePxBmsjK0mr2Umh5jt37uAEGdeHgHUVtauJPjLMM33yuLZif9xz+fxTINCsG8q6Yjj2+G7IsVt1ye7Q8eL6Gh9nzi82zHHgOB4IJrBar7AYxkPH8frAttmwbdYMh3zfKjo2Tct46Ji6DlJiu10R48w49sQwU1WOuioYhw4/j1SlAwKXz54Q0sSQRjZna/w4MB4PhDBRFSV1atkfR57vbihXDavtimEc8aPHzo5NvcUmy/5wYHfYsdqsqZuWrhvwc8QWJZvNGdPk2e33YGCz3RJTpOt7hnGiqmoKW+CnwDx6ieErmcaJaRyZp4k7F3eIPjB0XQ4dqR22MOwPOxIRVzr23YHBT8zR44yhKiwED2EmhZk7F+ccjweunz1jjh5jDS5CSInDPJOwlK4ihphtwkSMScxhxKeJkCZa11DWLfuuZ5hm+kOHiYlkwFuIDmzpiDYxzSMxBsahZ+x6qsoxhxFTOqq6xh8n7BQxMdAPuRLZErrq29/+Nq+//vpn1u8g+bhxEdysJqYknlMF8wwhsNlsODs7o5BoCOUPYREwfWYq3P08J8WPnuD+8mOGD59iP7yk/HTHr6ue7skzXHpIe/ebpKrAsydRQypOvIoES6yPzzC2JROBbGQzBEg53ooUcrHS6Rqe/SXDPqfiaEqOunD18zJFo1zUMbyUStP63VIiUxvbZ7vxWa+o2vDMov7lD37wA371q1/hvSfMHj9ngMMoFahTTKQY2R8OjFM2ZAbJCoBcctoYw3jsmXxObTGi7vogKSvW0tZNLvM3DPRdj59nDGQGBxSSpL+/yRXak0hXMeaxDd7jrGWeJqZxIoZIiomhFyTa8DLqOqVEiimnE0nsj46nkUpdfd/nYrSAUYieYcCIyL+XIiZABnn0gvoQIs5aDHDsO6b5ZdGdSewfMeaCtvM4EXzAzzOkhLM5zcrPefyaumGe8yaWUibevu/z+EwzZVFgMIzDyDROpJivcXl1leP/JOk++FzgQ+cl+pClYsnx9D5kCcR7TAJnLOMwMvQ9Qz/Q1A3OWg77DDlkxbF0PB4ziIOgSEyTROmTc2y99wzTy5zI5CPHwyEvlJTHbegHpnHMYQmSQK+bTJCwpnme8yIDrLHEEPHzzDRmz+nQ9bx4/gJbZDVXF3iUDTM7AabssRWG4mPuU4yRs/WW6COH/Z5xGOmOeSMh5bXrioJCUUHGiXnI9OG9B3JmQWYCiXma5TUxLCrYJwklev/993nttddOqqgV+ru8vDytP8Q8NC6w4xQx2kp8qqr00wL5V8c8hMDxTsP2732V7TffgrOW+t3XKL79FofXKl7EHi6P2Od7iuIRxd2vEYsK4pizGCRiQ5uuVz7L2D5HI02elHIiPCHk/C1hbLXN1ZPsAkWjWiRiK2fXgdHWSWWcaoE4oNd49OjRqebo7aaMTe+lXN85x5/92Z9xeXnJa6+9xnqVmWYlOZfFIkm4bho22+1JerSyuFP2jGCtZb3ZSM1SqQhvLIUtMGJnQBZiuUApzX0iu5+FidV1TeGysbRtW1brLKUWi3y9SpBqyyqj5qoEbARBtmnqnLIi8XurBQqwivZt22QCFx+RNYaqLLEYYgicn19kh4lzOGspnKNwBcRIiIFygZ7qXA6QzAi47vQs+oxe0EIKqd6kRJ7ICddlUZJSxFjLerWmFnqwYm4o5TmMMbTrFRcXF6eFO00TVZljtIwxWJfVQ80Bzc9VsWparHlJc9p3pY+yLGkkBzSlvKmu12sgEcT0UdWCEKwB5sbgrMUCzuYFuZECw168fqvVKkf3C+Nt2/ZkYnGikVRVlbNZijzGVf0yGT7GyGq7lgyGl+NgjckpaCkSUoT0siB1U8mYJei7l2CnrUjwbdvm8SnKvJGHADEz46rMye/ZTLQ9CRIs7F1FUeSAWAEQULr8/d//fR4+fCibVV6jyth009X+q9RmBBp+t9ud5iKKB3Q5PyxKBtwdHGYMjE9vsB9eUb/omZ7e4J9c4573hMs91WGiaN6CO79DKEpMnHAUUsT9s7Z4fX9ibK/gI1K3b8HYYsjCzXSNef4j3nvnTd5++20ePHjAdrtlu93y6NEjHj58iBM1SXcy5dRGgABLCQ9Rzq+/PXz4kLOzM+IrvKKIiqvnKMOsqorvfe97fPjhh1nFFYlBbTu6ox6PR2KKWJcTev08E32AECBACoExzNRNndWQecYkCPN88gzrpDrnOEih3yRiuAH8lDHCIIeD3Ox3HLt83+1qzTRmqcXPnsK6k0R3OB6zJ0/OH/sc59NUNckHdocMZVSKZ7lfFMJ11tEdMmJw8IEUMjH1AltT1y8LjgTvKVw2lPt5ZhwncHl37bueaZwgJqqyIkw5Zi9H6heM48jNzc1p560ExGB/OBB8YLPe0A89n376KX3XsVqtIGXk2U5qIBQLBN9Df6RuGoLPEFFh9mzWG0xKHA57puApyyrPZ9fjp6yiOmPp+5eZF03TMAwD19fXeIEx0vkZhoGiKCkKx/V1rvGQyDvAYZ/BQKOXuZ0m+mN+Xie22ydPnrDb7agEZGAcR/aHjC6sG8zV1RVXV1d47ymcEzV2Iki4iJ890zDQ9z1VU2fnVdczDgPElNPupokQIz5mAMt5mmSzTTlo22aV2yxgh7S2Ql3XVGVJmGb6w5FxyNJnnl+xETYNxJTpesxrMgj9hxAZpHjOIMb+b3/72zx48OAk7SNwTS9evPiMxqRrVGnyk08+OdVFUG1BN5tikZGkzO5evWb2M8PVDeWzA8Xja4aPnlJ8csN67wneU48R1m/Bvd+BosbGGZsKksIXvYKxWV2Uy/byu9vZ9unEAPUCZiFtqTSiIrbuxLrjOTEmntQcuZcOkh4bF8m8n7n/re9YpHUUEgbiRBUsiyJj8YuU4oQBno6zjrZuWddNlozKktJm5moWO39ZltRlSV2UOTtggcyqzLkRSaSwGZO/lvfW5BoKFxcXtKsWA5RFQWkdpZXUEWvz9asqqxJlloRWqxVVUeAwOLnOcpdXadSJCtPUDeumpZVaBG1Vs2lzVLo1hrIoWDVtlkBFSi2LLNk454gnDP4sZZkQcWTVO0shcg2JKC9kLp21bNdrakFldcZyfn6e4YOM3kfgnESirKqKjYT7mCzmUqlkl3KefVWUEnyaaaSqSpq6obQu/16+lMYRlWjVtqdaC8RIo0gqQIpZul2iv9R1Rd0IHJFzNEXFqs7zqX1drVanKlGIqWGzqFNgBGJqu93mEKaipCkr1m1LVeTrls5hMdRlSUwJq3UGZE5L66hcQXmqmZFhkKqyymOHxSZohIGVQi9tu5jPBLUtqIqKpszOkbLItSpWq9VJki9dzpZYNQ1VWVJYl+lvocEUC6in2+tP1502/axS22qVpfD79+/z4MEDzs/PqReOBIR+9fXM94TSst1sqTcrik3L3bt3ODvb4oylnaAImffIyS8Zmdx72Sd9/xthu589iJP+rrr8SWWV4ra/+tWv+Oijj3j69Okp6viDDz7gKFXLVWROCwZmRS3VDt5mcrcH8lUvVQe0laLuhBCYx5GyKPIulRLzNGX7kNjVOpFksgqQ8MPE3I9Mx55hmtgdDhz7jnmamMcRP3mSDxAihbX4aaI7HPDTlJ0GKeGnCT9OlLagdAVeIrnruub8zgXWOnbXNzncxOeshf7Q0R2OEPOuW1YVRjaHpq4Jk+f68ipnESwqFfVSXrAUpNfj4YhJKQd+ioRpgLZuMCmx32WbjLVZTe4E9NDPM9Y5+nHkerdj9jN1VZFCYHezY+i6zKCBQaSItq5pqopxGNhL1ab1ep1tZi9eMI4jdy4uWK9WjMOQz2ka1m3LOAzcXF/jpynfB/JYd8esNhnDzfU1h5s9DosrCvbHA/vDHmdyCtPQ9fSHI8RIVRS5r9fXjH3PdrOhqWv2ux3X1xmdt5L6Bjc3Nzhr2ayllKL3YG02FZzsiJ6mrKmKHLy6u7lh1TTcu3MHYsz3EWDOUiChJimgrFXXxn6AlGjKihgk7/PYMQ0jBsP1zQ3jNGGLnEZHTAQfKKwDDHMIBIW0955xGOmPR467w4nhepHmCmsxKdEfj+yurxmOPYSIFfuk956qrjPs0jQzDSNDNzAcO6Z+xI9yHUnSX9rEWSS56+u2UKHvl4LKLCmTk5T8u3//vgAQ5EBehAkqD6iNZRMcF1Ssy4a6bVhvt2zv3qE+31AivCMlkOxOkghZp57+ZvsNxna7ZXV0yVRe/rZUxybxgO4FMdYsABjtLVgUZXQsBkfbksl93isuYHeMGGGRQd3vdifG5cV7qa9eEFW7rmMax2ysHifmccohLQlifIkqOk/ZS6nq47yI31EGM0j5uWnKBvYUIjFk26Ia98dpoh8Hxj6/piGrA6N856fs6u+6Lvf/2AlR50RhhHhYYNmrjSI/V14485QN1dM4MXS5Zug8ThwFFXaaJmZhqrOoPjFGxjEbxudpZppmGZPsEfSiyusYKiEr8aLQSHL8PGej9NDneMBBSgUurxHFnnaUEofznJ0jAPMwMkuU+uznPHZq3A6RccjOEbV9ee8Z5b5KYwepN3H6TtBk5yk7JsZpZBhzX+Z5ZhYGMg0jfp7x4mDReU0So9X3PT5kNWqW+ToK9H0v6MPjMBC9xBT2A93hyDSMjMOIn2aGcaA7HvO8iznETxMpRDDZzjbPM0Pf5/HrunyuV2fIywIwSn+jzHmYZ+Lsmcc8/tnBk9XRoeuFRrKarP/9NIMk1e8FmVfX323Gpq/bTaVmtadH0bymW6X79Ny4sL17B9M8MY0Dc/T0fqIfe7qxZ/QT0UAgEkkn804MOf976RdY9iulJAG6L1VU/SmfYzJ6ZRKPIdHnL+cbePYj2uIlU1GCL8QI2TQNo3iORoHbVi6tAIwrqSCkal9Kiddee+0UoKsvlezMotwct3aAv/mbv+GDDz7gzp27lC7bf5xzGAxlkRmsqjfr9ZqmrLLaI9y9co7SFUyFYd221GVFYSyFsfk3m+8ZYsCaHOZSliVYi6tKmlVLbTOSQ/AB58QxYQ3WFZAS2yaj9iZRmVeSL2uMwRWOpm0piyL3SZj2apUhkcaQHSVKbMUCp23V5GwFyNeptRiOyQ7wzWaTk6YTEBMrKUEXFea8LFivVjhjscZgraFtVxmRwRhiyk6iQiCidA622y2EbCNKKbHarCmqCh8CiXRStYw1JOlb267AZmjUoqq4OL/AGYsR2KGyrGjbFTFlYq7LinWbQ05SjJRlQd022cMpdLFZr0/vjZhEzsUBZcSs0Ijm4L0niTqcM0cyFJWq9cYaosm/n52dnZi30lmlQeXpJSIxKQdst03L+pZjYyVgkVZgkNrNmlXdnDbSwlhMzBksUepG1EKrhah3680aq8HuIc95WZUYaymqimaVTRBlzDUCFJnEFQVlnbMtmioDAKhjpCgKSbrPamcQb68xhs1mw3e+8x3u3r1LLzY2I/GqGu7hxOSjazqKk+D6+ppJgE+VJyyZjhOn4qCBu6XFumxqKcp8/6YsccYwDj1hHvE40vk72It3wRQQfK5pbE0GtQBOtjaTacu984//838OWczL3CxiUo7fyrzN5zJXCYhTdiRMO3j6lwzHa8LCOG+t5ezsjIcPH3Lnzh3meebq6opRCotYscUdDgcKqevZ9z2NpF/EGE/OA/2sBLJkcrpTTyJBOef4+OOP+fGPf0xKkakbGMeBoR9zsvqcd6dxzMfXTU1/PHJ9eUWYA36amIYpq0rTICpsjmebpWK1xjX1YrAuioJ+HNkdD8zB48oCO2dXfNfnnX6c8vHHw4Gh79lIhfnD4cg8T1R1xSygAOM40FQ1JuUqRIfDgRADq82a3WHPCxnHaYF710mR27Io6PYHuu6YsbFE/drvd8xSB3Tsc0R733WZyZlctu5wOGCAuqw4Cnb/7D1FWTBMIze7HX3X0QqqsRaa1sVxuLrheMxl6cqqpBt6nl+9YJwnSrFHHruOY9eBMdjCcXl1xbHrCLOnbRqOhwM31zf4ecaVBRh49uI50zBQ2BzIfHNzw26/y8Vi5Pl002yahkPXcXl5yahFfqTi2OGQM0UKqftwc3ODnz1lUWRk4C5LPq0Efu8Oe/aHXJtgs9nluzj9AAAXrElEQVTw7NmzUzHkSSTdXqS/XCc150fu9/tsd4xwc3PN4XggyX0PEmI0jmNOvQuBm8srpn4kzoGpH7NzYRTss5SN/J2E/9RNzeRnDlc3DP3A7Gf6aaQbBoY5SzVWEuu7vmecZ8Z5ohsHDscDx65jLYjMnYT2qNQ5DAPH7pihmEQSvnPnDt/+9rdp2zbTgzCno0Ag6eamQk0U7WmeZx4/fnxypKi0Xi7g6o1s2Mov2iqr11VVZZV4nsFmTMOhO4LvmYsN6fwdzPp1sKUwbyd7mUhuRk1bKWPZvfOP/7Mc7qG2NLIOm/VYcj3RmJFSc21RC/Oe9PzHxDF7BOMCfXapfvZ9z9XVFZ1ULFfu3nXdycs0iGdPJRFlbDoAZoEQmkRS0eOt7M56v2EY6GVyUhZgwOVczlKMta4qsaUjmQxN07QttihwYrS365qizu576zJOV93UlHUGg6zrhrIuqZsaYy1Giww3Tb5dWVJUJbYscrHhuqKQ39erFdnBbKiahtVmnUEGjKGosiNCn7kUg64uuLLOxuJGpK21GOz1pYuobHL/kwFXFhR1NrInQ84rbGrKKleRQsJM9JqIWrF0TKg0rUZqt5A0G/G0lXVFWZV5DGzegXPfG8riZQ2ISgzeeh/d3BDHRCWwTFWZIW7qRWFjI0b6elEQWvu6Wq+ztGMtTdvm+XIvC2EXZZbUi6KQMahoaimc7RxlUbDdbHDiPKrFntlIOEsjkmch4T/6uZRrZ0mzzLQkWH1101CUMiYuz69xjqKtKYosxTZNDpg2zmQopbalFNrTV1VVNAIzXhUlriwpha7KKgdY13V+XmsMyTmKuqRqW4oqH1+vcg5yiIFAygCUZcHoZ8Z5zjWCJXTozTff5B/8g3/A1772NaJUYVsKFL2gy4RbmUGIuqmV7CtB9FkvIIuUDlhU7tL1XMv8KJMMITCNPSkGJlOTNm9gt29iXJVL8hlHyga334hlE8a2jGMTHTrlwMyUEiZOmbFJ9H3EgT+SXvwE63Mg3pIBDVK56fr6+hSst1Rf4iIdaL3AZFPRVBmbNmWaiLqgYSVrwXnSxf/w4UPeeOONfP7FOWcXFxhn8SEwx6x+4CzdOHAcejAGJ8nrXlLHqlXLZPIz+OCzGhZzeIgywqqpmeY573o+H5PItjnvPUVdYpxlDp5kDFhLMhlgz3ufkSeAkCJzjMze46oCa7LjY5rnnPeZEkHmYBgGNtttPl8IopY0lXEcmYOXsncFo5/ohoFk82KZYwY5nL2nXmXGc+x7fAzihc35u5PYktq2JaTEoDUAhCjHaWKaZyphLMc+2/CMhbrNDKAT21jd1DiXCwhPY1ZL7KLWAiINTXO+pl/UIuiFNpxzFGWG0xklWLpqmpz1MY4YoYcQAoNIspuzLVVd0R277Bix2QExiR0tplw8JMbEMI3EEKiFwU0SqFqVFXXbcpQA2SSeUWMMPgSMOKqiIOumlBinkST2sXGe8ia5WjHHkO2E3mOclTn32W4pAcPx/9/d1TVJcmPVc6XMqq7qbnfP9DAe7I0whCP84gd2xxBEMPifMfwlgoB/sJhXXsEBbyZsFrvbM/1ZmZIuD+feLFV2ZZY9E8sabsx0ZZUyldKVdHS/JKEglcK+OMq3WPt7HdfHx3YOiW2RbWNH/bDxkhGXCxQAGQoE7gtYLFTj9v4eXd8ha+H7m4jzp0/w0a8+xmeffYaXL1/iyy+/xBdffDEcgbmyWL217dzsvHLBIpn9VExie/v2LW7skO+zszOcnp4O494BsJgNDlWYFwwYHTSzaYECRR+WKCcfV8BWoOBKH7eZUQslqEEE8ur1PyvUjISFoKYWcV4AiN5zaQgEmjtkrCCbH1C+/juE628GUNtHYoh+Z5HICzte7urqCiEEPHnyBHfmiYm2nOrly5d49uwZ7mwfKAe1xmxyzqhgDgmfLRtbtvHw8IAu8dNXQVxeXuL777/Hmzdv8MPVJW5sV18RwaKxXQcCg1IfNOHu5hYitM35SgEKfxEn62NGfncdELa7jagqVATHJ1wOdlstHi7KKH+3j0SLvPbZ7vj4GAHCFRPmYIEbQc228uz5Hw2zYQhh8DS5qrU+YcDw2+trPGw2BP6TY9zd3nElAoDz83MU211lkLxig5s3PJLOJw43hLdti9PTU4KWtYef23p1dQWYVHV6coKb21tc395gYbapbJsExBBwfn4OAFQDbRnc2dkZrt78SBtrjHh28Qz9psPlDz9YSMUpQsNYyN5ixlar1dBf/L3X5hiBAM8//BCqyu2rzA7aNA0nUovuX6/X6PoOd/f3iDHig1NG89+al/j8/BztYoH//v579oumIU9stUkIAcfrNU0hfY+mbejl9CDjvsPq+JhlMzUum9SXc0ZfMjUnAyYtHG/roxUW7QKdRfF7//b/KSVcPH1Kc0Tfo6jSHuihUVDaJ9c8itAFhWzpKfVYr9a4ePYMFxcXOD87w8XFBZ4/f44nT57gZMXg8UV1wIyDl38Xs7N99913g3ByfX091GWz2eDbb7/FN998g1LKYGuHSWhN5WRwVdQnjWiqaqlOgCs5QbRg056jvPgCzUd/jtCeICCjSMMln0LVExIgEhBChCBAXr3+SmGgplqgxQ5OcBtbuYMWeuRK2qDgBNJdIX399zi6/8+h0jAgc3KGOzMai9DvzfsSTNTv7azMFy9e4KOPPhpsc8VQPY+O2msr43uyjesWdtAwbKAtl0uqn+0CTROhRdH1tLG9uX6LHy4vcX19PXjPvBHbth2Ce2ExS8UCb1W5t/ti0XKpjM04ArFlRBG9sgMHk6RgYOgAlw3MBjAE1f6mWiXgZXFe+uRw8sHpAC6owls6M25HU4E2XYeiShVruUDfJ5SUUFKmWqtcv9q0lBJDCEgdB19jame2XZF9YIvNxsVmcDV7S9u2QORqAJ9po8VJQSnlSWCMGkwqV4uXizHiobdwAwtEzjkzMDkEnjdQxTw2TYOmbfFwfw9YLNjKzhPNtvJhtVohm8dVCvksIth0G542HmiW4E4olDLapoV4+FC2PtA2uLm5RTQtY7lcDvZMMTNBKcXW6FJqCTHQy5y3p63f3XKCVD8xrO8gZpuKZnz39lwsFlgE7h1XzDjvlM2WtTpZo+voSVVVBHF7C4UQ2EqNYeyZQLBarfDh8+d48vTpsPlEays5Olvy1W/oBYZ53p13Lj35+BCRYXwECz9yYOvNU3x5eYnbWy59c5DOtlzN+3NnW+p7nv67XwMcG6oFaXkB/eMv0Lz4DUKz5hmm0hLYzFEiwvYVCRDELbCRGQZqufCgCwVEbyG5g2pB7jpkOYV2PyJ9/Q9o3v7HMGiDOQZQGRO9sA92AreYGBtNOjs7O8PKggy9E/n9Xrn60699FtmY4bhpqPYsbDmLaqGeHYJt6cx9yZaLBW0agSJr39P97uVsFwtsbm59FRHrFLcL8QsUuRSL9dp2Hi0E2uLnIIogJ3aIxniSc8bi6IiR/w23q+Z7TSqtbZxGzk8RCt8OPtlc5c5Tj8crtpQpRu7WC6GIHiUgJw7kXEzNiw26vjN+sUOpqT2xkojVgBjWrsEkEy/fQ+Ge/aUULFub7ZN14sDzHz1Pb8NoUmhfMssrlFYF4FIvmPNqZGcVG2j+fNM06FPCYklPZdf3yIUALtml6K0UwJABU17sYBu1NbOtnVGa+54qnD9jdfbBPvDKclJgG2MlYiFDtPd13QbLJVfXcOB3iLZao2nYRlSkAIigkYDcEwgcDKIBYQgBpWHgsQse4GpJlicIkmlei5YeVRi4Hy2PEBvmM4S5dD3V5Aeq8c5bFxK8L4qBlvc5NbU3mv3VJ3jvF41pTr1pT9d2ZOFddTC42ETpqq33Nc/H3wOAY3H9DOHjv0B8/mtIs0IMCQgLIDa0rwVuKCrBwU0gf/X6n0xis4KXwpiaUpCLQsoNND0AUKRNhyKnKOkN+n/7R8jlv+5UWAx4/DpX8WXFDJFN0+CTTz7B559/PnTYUOnqMBDwCksV8+b515Vfm6cx2ZY+d7e3WLV22LAY0igQIgc87RrAegjXoEu+mH2xPHQ4ss5YlA2VfAaMEVm4gDv1PWKIWDacIQWcMZNF3zdmV/BdWzd9Nxiam7bdzroxABAeviEWE6SgFBgpbYrwqDLvDM5zH2getqKFthfvxDD+BeVAFhEkK4dA0Hcd7VZK25EIvVEhUPXWSh0ulWrCkJCAru8BO9Ck5Iy2aQGTWprIdXy9talLEl0VCpANdKL1gygEmJSSddgwHLuWC/MsxWxMRbE44hKnxqSLlGm/Wi6XSA9bU0E2W1nKtpW91RM2MfmaWPV2DmK4oUgpY2FL0oJtXkDVh/0wpTQEizZNwx07+gQJASn1aE29jE2EKifH3pZa9WZ7ExH0qR+kdl8X3Pc9PYWZ5pB7i2WLIsOmDgOwQdHZGG4t6Lhk1nHzwMNn+n5r5sjV0ZDBQmd665N133LNQ6pJxsej2kQI0xjcTOLt7b+p6hC4f2eOxGw29qY6nMn7mucfQmCY0Acv0P7qLxGf/xmkOUIIGRJahHYBCQEIgcA2gJtAXr3+rcKkBs1URYvb2PoHaHpAzh009Sg9t1Puu3vk+yvof/0Lbt9e4uHmR0jeQEqm48GlCMs3V+pka97HTz/9FDEGShlKO6AIOxogyEJ3LsGMkodwWuQ7bM50RtYDkAvP7VkRiDW+d1hVeiZFbOAHvgNQiJi06TO7gSnAZxB304ZyAYgFkMLZm2oC09jxgNKyrBy1fsnrFoGxaNskqrleTzv92t9VX4fQoAk8DhCWvVqN+L3fflGCHy+Vda/KWufrEkldDr8P4hImeaA+sQ2FIJP8OU8b7htacJTv8NtuGTx9+KYtPWNmIqjfJ9WkOry3eg+QoNiuXLFHh6KkbLtgOJ+remUU9DAJzaLiBxIg9Fzf6U/D7vEs7svWtqpVW7jpR0tdddqPVAmdmnLFb8+fH0WBnPl96KHG72LOQPuB76nUYL5qa8+r61Qqs0h9r3/6tdjk5FQ/U0rG5dUVvvvud2aO4BGHbdOiWVgYiAoddGYnQ4yQ9gTy5E/xwcULrJ9+DFlfQOMKoV0jtivI4HGnwBJDCwnUNuTV69+qKiU0bqGTLW5NoWmDkjuU1KH0HUp6QEkdcneP1G/w8Lt/x931FTa3byD5AaKJM6EDQ6EkMKaiCin3ZHSmCszpzJgvAgTbQG53rFsG2QDFyN4Ha2ru9OvAQ0BzECuqPCPUB/Oo0eA7cg7588Kvd4aZPzoAIVNDVegh/1rVrMrr6e4BmyKPzN9L+3hUU/W+x+TAvp92BtAviWbqpLDdWibocJ2mcmYb+xZU+2inX47o0Gs56Vo/GOWjTKx+8fz8N93JfNyXbMemR+ClJrU2ogNfOBR386tp/OvudxspwmtpWoT2CGrA2y4WiEI7p4SIVDqOGuUEGyQiiAHV4gTLiz/ByflTHJ0+hbRraDwyYDuCRAYpi0SEyBPmJUTAJTYyjd4Z2o74X3KPUhJKSdDUAblDyQmp26DkHjkV9JtblM01dwEpPUriSgXAgc0GjnBNZS6ZdqZyDVXb8mYAVAM3VWQ7kov/rFE9X5+B9gAEAO6sWQOXGxjBgyLE1BGn+lkpjFAfp1FaALJ16n335ECbzr40KIDOpIg9wFcCUKYOSRy9b0yKBMU2Qv4RlWUlDY2pAug9VPYMqJ9MM+CDYUy+Y94xQWQOvGby1QaitOXtI5mbRAoQTDLaR4VLPveTAiFNPzucTVJJngAZVVQ5YVa0U0fJUOm242VEJXF/QvhzJrmxERRiDkKOte3nI/I2tU8RAZqlfd+qq/6/hJZSVtNAJKBpWkACcqIdXKK3oQDCTSEkEKQQWoTlMZarNeLiCIgLU0GXCHEBCQ29oSFQahMelC6h2QIbQYU2BgzG7ATNDNDVkoZPSnEFaI6Q+w2gPaT00JyQUqbMEihZlUyPFSUmMpWS4R20FO4ACl/ZQBXTIIRsts7vjaBwi6KzYwwSAsSVzXhM23qP+KFsFz5tn9v86MGD51cPThG4suxoUAMOa7rtkI/AKFdgPB70tszo3ch4OEFT+8KTfsJ750DiD0UzoLbtN/tJuDfy+OctjdutJgWQp9/tBxXvJ9o7p0lR4GrjOEkRRgeX1MCmyCgGTvvq/wiw7AbmUYC0PZtgGGej7w5c9dgCgCILXleANoy50ECaxYDaqiAWhIgQW6jyfFDYCXgh0sQgdpg4QmMe7QiJ9OQTyCKXVbk5SSJXI5gEJ6/+9iuqoo7iZl+DUuIqBmbQAoF5T4tvLSTco61sTOLLFLhMV9aSTYLTwXgN1+0jl84IrF7GcA56WBDengYGARPY9s1dABGoWKQzE4dP2KvqXMfAWLSzRtw+s72m5Lk/DUAygN5TLs5ew1f7sXo+uyq+n+YkEEGwHUUnSLIFM/4/Io2TJxQdJCmzwDjHa8W8ZB0hkMlyKdLMszzHd7fXi9ni1CS2vWVTNV5UE9hIcpNHOW/rKaoQnZH4La96rOwkC1etwMpbj4mSE0rpuHbaTvNyJ5dCBps2B4OYOknpC9IAkdJgEAz2YPHsA9cyC0z9FIIaRBzYCGpccUBGKTjQ1INklbsPABiALQoAJKAk20JcURCgiORG4WJoR3oFbR+lFBRhJR1QAVBSGxjnjTBSlYSLof0Z8po3DEAiPsjHaha9j7y0Z0aNpdhs8/Ts7JrSWnXzcJ/91m/LNQY1AEhCHg6yWl32siuJjmmnGo8oAmX/oRYAgNBNSnTz+W759Iuj0mJ2c5ppVgKSoLK77VVNczVWMXVzgiSZRDRBeUZk4/gePS8UBtRsYUBdt/rGuHuwyVjqcvv1XlJodmnvMI3BVeJWy6mGDQAgSIGAGzhIiNwBR7cbQyC4hsMgW3o37TsCsmGJCHdUpnBUyJYQ7TmpxuGOxGaDkUhjOriVbIhx2w5QBvIqRDNUM0QTgEyURURWxmeJejwbewThkvmXYlKhqaEyMESpKrin8lEvk0cN5OUawKRyHoxJHbSNxs9qNduOwUnBevCHGqAqvlgJdwDB0/PWq7X9rO7ZU16nmSTj47vTPj4NNB4gvxCaLfOewfdzaDbr7Ty8l0oxR9g+qiLs99E2ptFByPo/O94gdA+52++Ad7qJ9zpZv3tEqijFgX4sDOwSq7b7nl1HzfZhdmlBsfjYECNKYSTDcrmGAkh9BxULaZLIsRvEzAUKgM+K0D7uDKGdvLaVi4Gafb56/ZUqXFNxhvJDXAwu3rk9E7bu4GRQ81KKQBFoglBKgFtAsBxMB6duTWKoh5VR2Zgz9tkdGthYtYa6qrqPRKzx6gaons22S+1w7yh9sI3Zb7yRaaFy349IQLMhk6sc7HYFbFHvFM2kic6qVtCm5tRjmnnvvo78iyChaWSKplMAUZvpJ2gwzewhgQBlhpcBj1S+muaaCbChxT9Dvxu+j/P1e2EZuxS6ZzLipDrdP2kDs8vhorp3gh9wfqEeJ9a/BXYuASeaECJKpoMtxoZxdlLIVZFB+gKEB0hJgagtHwNXGZALZsNzbBne7XUQyF//zfS5oodmPS3TernbBaaoBot9NPfsIfLYtn2kqFvuMQ1S2B5yiXSSph8FDuR9kMLMiPDo3imaCecAFCrTE8EvFdgEPPnqnYgjbfzrQIxxm0rnkp0pegwpP4P0UL+fVp+BQ3WaoQNj9b3IBJkpmk6BOQambcez+c4BGw4AjOo8o6dfO58vajXvXWh2IB8o2Ax+iAgg053aCj5JM0kHU+ekKsDAbZJmhpvsTNb/Z2i0gerPInJqjl8znQA48OyBYs31+1oC20c6PQEBB4qlw5/9NJP03jRTrjl2ELimx9t7Adsc6Ryjx+EMI5oFtgOFPkhzz84kAfMNLOA2RO9K71OnQ48eYOckvynBH8j80Mt/H3RoIJbpOh2iw+0wn+87vhaYaYefRKbyvTO9z7t/TzTPD3o634Vmge1QBygzwOaexP99mjd+AgfAbU7yOSBWzzfSARVZ5z0Ac88emOeBg2WbrhOTZtL/YHTAij9Dc2040ETW7vyaokN5zz17kA4+O52uw58pmk18D5rnB+2B+98tB4Btjpf/A95AqzZKkqdZAAAAAElFTkSuQmCC;" vertex="1" parent="1">
          <mxGeometry x="80" y="495" width="310" height="295" as="geometry" />
        </mxCell>
        <mxCell id="t7P6_DtCXj4Gi8SS7ALJ-8" value="" style="endArrow=classic;html=1;rounded=0;" edge="1" parent="1">
          <mxGeometry width="50" height="50" relative="1" as="geometry">
            <mxPoint x="370" y="530" as="sourcePoint" />
            <mxPoint x="490" y="530" as="targetPoint" />
          </mxGeometry>
        </mxCell>
        <mxCell id="t7P6_DtCXj4Gi8SS7ALJ-9" value="REPO server/ Private&amp;nbsp;" style="rounded=1;whiteSpace=wrap;html=1;fillColor=#f8cecc;gradientColor=#ea6b66;strokeColor=#b85450;" vertex="1" parent="1">
          <mxGeometry x="490" y="500" width="120" height="60" as="geometry" />
        </mxCell>
        <mxCell id="t7P6_DtCXj4Gi8SS7ALJ-12" value="" style="edgeStyle=orthogonalEdgeStyle;rounded=0;orthogonalLoop=1;jettySize=auto;html=1;" edge="1" parent="1" source="t7P6_DtCXj4Gi8SS7ALJ-10" target="t7P6_DtCXj4Gi8SS7ALJ-11">
          <mxGeometry relative="1" as="geometry" />
        </mxCell>
        <mxCell id="t7P6_DtCXj4Gi8SS7ALJ-10" value="" style="verticalLabelPosition=bottom;html=1;verticalAlign=top;align=center;strokeColor=none;fillColor=#00BEF2;shape=mxgraph.azure.user;" vertex="1" parent="1">
          <mxGeometry x="870" y="484" width="87" height="110" as="geometry" />
        </mxCell>
        <mxCell id="t7P6_DtCXj4Gi8SS7ALJ-13" style="edgeStyle=orthogonalEdgeStyle;rounded=0;orthogonalLoop=1;jettySize=auto;html=1;" edge="1" parent="1" source="t7P6_DtCXj4Gi8SS7ALJ-11" target="t7P6_DtCXj4Gi8SS7ALJ-6">
          <mxGeometry relative="1" as="geometry" />
        </mxCell>
        <mxCell id="t7P6_DtCXj4Gi8SS7ALJ-11" value="GIT LAB--login&amp;nbsp;&lt;div&gt;&lt;br&gt;&lt;/div&gt;&lt;div&gt;server --ip / pass&lt;/div&gt;" style="whiteSpace=wrap;html=1;verticalAlign=top;fillColor=#00BEF2;strokeColor=none;" vertex="1" parent="1">
          <mxGeometry x="700" y="460" width="120" height="60" as="geometry" />
        </mxCell>
        <mxCell id="t7P6_DtCXj4Gi8SS7ALJ-15" style="edgeStyle=orthogonalEdgeStyle;rounded=0;orthogonalLoop=1;jettySize=auto;html=1;" edge="1" parent="1" source="t7P6_DtCXj4Gi8SS7ALJ-14">
          <mxGeometry relative="1" as="geometry">
            <mxPoint x="910" y="610" as="targetPoint" />
          </mxGeometry>
        </mxCell>
        <mxCell id="t7P6_DtCXj4Gi8SS7ALJ-26" value="" style="edgeStyle=orthogonalEdgeStyle;rounded=0;orthogonalLoop=1;jettySize=auto;html=1;" edge="1" parent="1" source="t7P6_DtCXj4Gi8SS7ALJ-14" target="t7P6_DtCXj4Gi8SS7ALJ-25">
          <mxGeometry relative="1" as="geometry" />
        </mxCell>
        <mxCell id="t7P6_DtCXj4Gi8SS7ALJ-14" value="" style="shape=mxgraph.cisco.people.pc_man;html=1;pointerEvents=1;dashed=0;fillColor=#036897;strokeColor=#ffffff;strokeWidth=2;verticalLabelPosition=bottom;verticalAlign=top;align=center;outlineConnect=0;" vertex="1" parent="1">
          <mxGeometry x="700" y="610" width="104" height="149" as="geometry" />
        </mxCell>
        <mxCell id="t7P6_DtCXj4Gi8SS7ALJ-16" value="Text" style="text;html=1;align=center;verticalAlign=middle;whiteSpace=wrap;rounded=0;" vertex="1" parent="1">
          <mxGeometry x="380" y="410" width="60" height="30" as="geometry" />
        </mxCell>
        <mxCell id="t7P6_DtCXj4Gi8SS7ALJ-17" value="&lt;font style=&quot;font-size: 17px;&quot;&gt;We&amp;nbsp; Have one repo server onbord in team please intall git repo there&lt;/font&gt;" style="text;html=1;align=center;verticalAlign=middle;whiteSpace=wrap;rounded=0;" vertex="1" parent="1">
          <mxGeometry x="784" y="720" width="346" height="70" as="geometry" />
        </mxCell>
        <mxCell id="t7P6_DtCXj4Gi8SS7ALJ-20" value="" style="edgeStyle=orthogonalEdgeStyle;rounded=0;orthogonalLoop=1;jettySize=auto;html=1;" edge="1" parent="1" source="t7P6_DtCXj4Gi8SS7ALJ-18">
          <mxGeometry relative="1" as="geometry">
            <mxPoint x="1101.5" y="539" as="targetPoint" />
          </mxGeometry>
        </mxCell>
        <mxCell id="t7P6_DtCXj4Gi8SS7ALJ-18" value="" style="sketch=0;outlineConnect=0;fontColor=#232F3E;gradientColor=none;fillColor=#232F3D;strokeColor=none;dashed=0;verticalLabelPosition=bottom;verticalAlign=top;align=center;html=1;fontSize=12;fontStyle=0;aspect=fixed;pointerEvents=1;shape=mxgraph.aws4.question;" vertex="1" parent="1">
          <mxGeometry x="1020" y="500" width="41" height="78" as="geometry" />
        </mxCell>
        <mxCell id="t7P6_DtCXj4Gi8SS7ALJ-21" value="&lt;font style=&quot;font-size: 16px;&quot;&gt;&lt;b&gt;give me server ip / root password&amp;nbsp;&lt;/b&gt;&lt;/font&gt;" style="rounded=1;whiteSpace=wrap;html=1;" vertex="1" parent="1">
          <mxGeometry x="1121" y="509" width="120" height="60" as="geometry" />
        </mxCell>
        <mxCell id="t7P6_DtCXj4Gi8SS7ALJ-22" style="edgeStyle=orthogonalEdgeStyle;rounded=0;orthogonalLoop=1;jettySize=auto;html=1;entryX=0.598;entryY=0.029;entryDx=0;entryDy=0;entryPerimeter=0;" edge="1" parent="1" source="t7P6_DtCXj4Gi8SS7ALJ-21" target="t7P6_DtCXj4Gi8SS7ALJ-17">
          <mxGeometry relative="1" as="geometry" />
        </mxCell>
        <mxCell id="t7P6_DtCXj4Gi8SS7ALJ-24" style="edgeStyle=orthogonalEdgeStyle;rounded=0;orthogonalLoop=1;jettySize=auto;html=1;" edge="1" parent="1" source="t7P6_DtCXj4Gi8SS7ALJ-23" target="t7P6_DtCXj4Gi8SS7ALJ-10">
          <mxGeometry relative="1" as="geometry" />
        </mxCell>
        <mxCell id="t7P6_DtCXj4Gi8SS7ALJ-23" value="TASK -1&amp;nbsp; Private REPO connect&amp;nbsp;&lt;br&gt;Task -2 Git install&amp;nbsp;" style="rounded=1;whiteSpace=wrap;html=1;fillColor=#ffcd28;gradientColor=#ffa500;strokeColor=#d79b00;" vertex="1" parent="1">
          <mxGeometry x="845.5" y="320" width="223" height="100" as="geometry" />
        </mxCell>
        <mxCell id="t7P6_DtCXj4Gi8SS7ALJ-25" value="&lt;font style=&quot;font-size: 15px;&quot;&gt;&lt;b&gt;TASK-2&amp;nbsp;&lt;br&gt;&lt;br&gt;&lt;/b&gt;&lt;/font&gt;&lt;div&gt;&lt;font style=&quot;font-size: 15px;&quot;&gt;&lt;b&gt;Please connect yout Git server REPO with GIT HUB&amp;nbsp;&lt;br&gt;&lt;br&gt;Create one prod-repo&amp;nbsp; for Production team and provide link on mail&amp;nbsp;&lt;/b&gt;&lt;/font&gt;&lt;/div&gt;" style="rounded=1;whiteSpace=wrap;html=1;" vertex="1" parent="1">
          <mxGeometry x="710" y="820" width="300" height="130" as="geometry" />
        </mxCell>
        <mxCell id="t7P6_DtCXj4Gi8SS7ALJ-29" value="" style="edgeStyle=orthogonalEdgeStyle;rounded=0;orthogonalLoop=1;jettySize=auto;html=1;" edge="1" parent="1" source="t7P6_DtCXj4Gi8SS7ALJ-27" target="t7P6_DtCXj4Gi8SS7ALJ-28">
          <mxGeometry relative="1" as="geometry" />
        </mxCell>
        <mxCell id="t7P6_DtCXj4Gi8SS7ALJ-32" value="" style="edgeStyle=orthogonalEdgeStyle;rounded=0;orthogonalLoop=1;jettySize=auto;html=1;" edge="1" parent="1" source="t7P6_DtCXj4Gi8SS7ALJ-27" target="t7P6_DtCXj4Gi8SS7ALJ-31">
          <mxGeometry relative="1" as="geometry" />
        </mxCell>
        <mxCell id="t7P6_DtCXj4Gi8SS7ALJ-27" value="&lt;b&gt;FILE--MAIL --WINDOS&amp;nbsp;&lt;/b&gt;" style="rounded=1;whiteSpace=wrap;html=1;fillColor=#dae8fc;gradientColor=#7ea6e0;strokeColor=#6c8ebf;" vertex="1" parent="1">
          <mxGeometry x="80" y="1000" width="240" height="60" as="geometry" />
        </mxCell>
        <mxCell id="t7P6_DtCXj4Gi8SS7ALJ-37" style="edgeStyle=orthogonalEdgeStyle;rounded=0;orthogonalLoop=1;jettySize=auto;html=1;" edge="1" parent="1" source="t7P6_DtCXj4Gi8SS7ALJ-28">
          <mxGeometry relative="1" as="geometry">
            <mxPoint x="545" y="1090" as="targetPoint" />
          </mxGeometry>
        </mxCell>
        <mxCell id="t7P6_DtCXj4Gi8SS7ALJ-38" style="edgeStyle=orthogonalEdgeStyle;rounded=0;orthogonalLoop=1;jettySize=auto;html=1;entryX=0.5;entryY=0;entryDx=0;entryDy=0;" edge="1" parent="1" source="t7P6_DtCXj4Gi8SS7ALJ-28" target="t7P6_DtCXj4Gi8SS7ALJ-35">
          <mxGeometry relative="1" as="geometry" />
        </mxCell>
        <mxCell id="t7P6_DtCXj4Gi8SS7ALJ-40" value="" style="edgeStyle=orthogonalEdgeStyle;rounded=0;orthogonalLoop=1;jettySize=auto;html=1;" edge="1" parent="1" source="t7P6_DtCXj4Gi8SS7ALJ-28" target="t7P6_DtCXj4Gi8SS7ALJ-39">
          <mxGeometry relative="1" as="geometry" />
        </mxCell>
        <mxCell id="t7P6_DtCXj4Gi8SS7ALJ-28" value="SERVER&amp;nbsp;" style="whiteSpace=wrap;html=1;rounded=1;fillColor=#fff2cc;gradientColor=#ffd966;strokeColor=#d6b656;" vertex="1" parent="1">
          <mxGeometry x="420" y="1000" width="290" height="60" as="geometry" />
        </mxCell>
        <mxCell id="t7P6_DtCXj4Gi8SS7ALJ-30" value="&lt;b&gt;&lt;font style=&quot;font-size: 16px;&quot;&gt;STEP-1&lt;/font&gt;&lt;/b&gt;" style="text;html=1;align=center;verticalAlign=middle;whiteSpace=wrap;rounded=0;" vertex="1" parent="1">
          <mxGeometry x="120" y="950" width="60" height="30" as="geometry" />
        </mxCell>
        <mxCell id="t7P6_DtCXj4Gi8SS7ALJ-34" value="" style="edgeStyle=orthogonalEdgeStyle;rounded=0;orthogonalLoop=1;jettySize=auto;html=1;" edge="1" parent="1" source="t7P6_DtCXj4Gi8SS7ALJ-31" target="t7P6_DtCXj4Gi8SS7ALJ-33">
          <mxGeometry relative="1" as="geometry" />
        </mxCell>
        <mxCell id="t7P6_DtCXj4Gi8SS7ALJ-31" value="&lt;b&gt;WINDOWS PC TOOL INSTALL ---WINSCP&amp;nbsp;&lt;/b&gt;&lt;div&gt;&lt;br&gt;&lt;/div&gt;" style="whiteSpace=wrap;html=1;fillColor=#dae8fc;strokeColor=#6c8ebf;rounded=1;gradientColor=#7ea6e0;" vertex="1" parent="1">
          <mxGeometry x="60" y="1100" width="270" height="60" as="geometry" />
        </mxCell>
        <mxCell id="t7P6_DtCXj4Gi8SS7ALJ-36" value="" style="edgeStyle=orthogonalEdgeStyle;rounded=0;orthogonalLoop=1;jettySize=auto;html=1;" edge="1" parent="1" source="t7P6_DtCXj4Gi8SS7ALJ-33" target="t7P6_DtCXj4Gi8SS7ALJ-35">
          <mxGeometry relative="1" as="geometry" />
        </mxCell>
        <mxCell id="t7P6_DtCXj4Gi8SS7ALJ-33" value="&lt;b&gt;&lt;font style=&quot;font-size: 14px;&quot;&gt;WIN SCP---LOCAL PC VIA&amp;nbsp; INRANET --- SERVER Connect&amp;nbsp;&lt;/font&gt;&lt;/b&gt;" style="whiteSpace=wrap;html=1;fillColor=#dae8fc;strokeColor=#6c8ebf;rounded=1;gradientColor=#7ea6e0;" vertex="1" parent="1">
          <mxGeometry x="40" y="1190" width="300" height="60" as="geometry" />
        </mxCell>
        <mxCell id="t7P6_DtCXj4Gi8SS7ALJ-35" value="&lt;b&gt;&lt;font style=&quot;font-size: 15px;&quot;&gt;PC --- Transfer SERVER /prod&amp;nbsp;&lt;/font&gt;&lt;/b&gt;" style="whiteSpace=wrap;html=1;fillColor=#fff2cc;strokeColor=#d6b656;rounded=1;gradientColor=#ffd966;" vertex="1" parent="1">
          <mxGeometry x="440" y="1190" width="270" height="60" as="geometry" />
        </mxCell>
        <mxCell id="t7P6_DtCXj4Gi8SS7ALJ-39" value="&lt;b&gt;&lt;font style=&quot;font-size: 13px;&quot;&gt;Pubic CLOUD -- Server&amp;nbsp;&lt;/font&gt;&lt;/b&gt;" style="whiteSpace=wrap;html=1;fillColor=#fff2cc;strokeColor=#d6b656;rounded=1;gradientColor=#ffd966;" vertex="1" parent="1">
          <mxGeometry x="845.5" y="975" width="275" height="110" as="geometry" />
        </mxCell>
      </root>
    </mxGraphModel>
  </diagram>
</mxfile>
